<?xml version="1.0" encoding="UTF-8" standalone="no"?>
<!DOCTYPE svg PUBLIC "-//W3C//DTD SVG 1.1//EN"
 "http://www.w3.org/Graphics/SVG/1.1/DTD/svg11.dtd">
<!-- Generated by graphviz version 2.38.0 (20140413.2041)
 -->
<!-- Title: boolean Non_Crossing_Biased_Descend() Pages: 1 -->
<svg width="348pt" height="1003pt"
 viewBox="0.00 0.00 348.00 1003.00" xmlns="http://www.w3.org/2000/svg" xmlns:xlink="http://www.w3.org/1999/xlink">
<g id="graph0" class="graph" transform="scale(1 1) rotate(0) translate(4 999)">
<title>boolean Non_Crossing_Biased_Descend()</title>
<polygon fill="white" stroke="none" points="-4,4 -4,-999 344,-999 344,4 -4,4"/>
<text text-anchor="middle" x="170" y="-7.8" font-family="Times,serif" font-size="14.00">boolean Non_Crossing_Biased_Descend()</text>
<!-- 0 -->
<g id="node1" class="node"><title>0</title>
<polygon fill="gray" stroke="black" points="239,-995 185,-995 185,-959 239,-959 239,-995"/>
<text text-anchor="middle" x="212" y="-973.3" font-family="Times,serif" font-size="14.00">0</text>
</g>
<!-- 1 -->
<g id="node2" class="node"><title>1</title>
<polygon fill="none" stroke="black" points="208,-923 154,-923 154,-887 208,-887 208,-923"/>
<text text-anchor="middle" x="181" y="-901.3" font-family="Times,serif" font-size="14.00">1</text>
</g>
<!-- 0&#45;&gt;1 -->
<g id="edge1" class="edge"><title>0&#45;&gt;1</title>
<path fill="none" stroke="black" d="M204.337,-958.697C200.808,-950.728 196.544,-941.1 192.631,-932.264"/>
<polygon fill="black" stroke="black" points="195.824,-930.831 188.575,-923.104 189.424,-933.665 195.824,-930.831"/>
</g>
<!-- 2 -->
<g id="node3" class="node"><title>2</title>
<polygon fill="none" stroke="black" points="276,-851 222,-851 222,-815 276,-815 276,-851"/>
<text text-anchor="middle" x="249" y="-829.3" font-family="Times,serif" font-size="14.00">2</text>
</g>
<!-- 0&#45;&gt;2 -->
<g id="edge2" class="edge"><title>0&#45;&gt;2</title>
<path fill="none" stroke="black" d="M216.463,-958.871C222.797,-934.564 234.456,-889.819 241.961,-861.013"/>
<polygon fill="black" stroke="black" points="245.387,-861.749 244.521,-851.189 238.613,-859.984 245.387,-861.749"/>
</g>
<!-- 3 -->
<g id="node4" class="node"><title>3</title>
<polygon fill="none" stroke="black" points="204,-851 150,-851 150,-815 204,-815 204,-851"/>
<text text-anchor="middle" x="177" y="-829.3" font-family="Times,serif" font-size="14.00">3</text>
</g>
<!-- 1&#45;&gt;3 -->
<g id="edge3" class="edge"><title>1&#45;&gt;3</title>
<path fill="none" stroke="black" d="M180.011,-886.697C179.57,-878.983 179.041,-869.712 178.549,-861.112"/>
<polygon fill="black" stroke="black" points="182.042,-860.888 177.977,-851.104 175.054,-861.288 182.042,-860.888"/>
</g>
<!-- 4 -->
<g id="node5" class="node"><title>4</title>
<polygon fill="none" stroke="black" points="240,-779 186,-779 186,-743 240,-743 240,-779"/>
<text text-anchor="middle" x="213" y="-757.3" font-family="Times,serif" font-size="14.00">4</text>
</g>
<!-- 2&#45;&gt;4 -->
<g id="edge4" class="edge"><title>2&#45;&gt;4</title>
<path fill="none" stroke="black" d="M240.101,-814.697C236.003,-806.728 231.051,-797.1 226.507,-788.264"/>
<polygon fill="black" stroke="black" points="229.483,-786.396 221.797,-779.104 223.258,-789.598 229.483,-786.396"/>
</g>
<!-- 3&#45;&gt;4 -->
<g id="edge5" class="edge"><title>3&#45;&gt;4</title>
<path fill="none" stroke="black" d="M185.899,-814.697C189.997,-806.728 194.949,-797.1 199.493,-788.264"/>
<polygon fill="black" stroke="black" points="202.742,-789.598 204.203,-779.104 196.517,-786.396 202.742,-789.598"/>
</g>
<!-- 5 -->
<g id="node6" class="node"><title>5</title>
<polygon fill="none" stroke="black" points="204,-707 150,-707 150,-671 204,-671 204,-707"/>
<text text-anchor="middle" x="177" y="-685.3" font-family="Times,serif" font-size="14.00">5</text>
</g>
<!-- 4&#45;&gt;5 -->
<g id="edge6" class="edge"><title>4&#45;&gt;5</title>
<path fill="none" stroke="black" d="M204.101,-742.697C200.003,-734.728 195.051,-725.1 190.507,-716.264"/>
<polygon fill="black" stroke="black" points="193.483,-714.396 185.797,-707.104 187.258,-717.598 193.483,-714.396"/>
</g>
<!-- 6 -->
<g id="node7" class="node"><title>6</title>
<polygon fill="none" stroke="black" points="276,-707 222,-707 222,-671 276,-671 276,-707"/>
<text text-anchor="middle" x="249" y="-685.3" font-family="Times,serif" font-size="14.00">6</text>
</g>
<!-- 4&#45;&gt;6 -->
<g id="edge7" class="edge"><title>4&#45;&gt;6</title>
<path fill="none" stroke="black" d="M221.899,-742.697C225.997,-734.728 230.949,-725.1 235.493,-716.264"/>
<polygon fill="black" stroke="black" points="238.742,-717.598 240.203,-707.104 232.517,-714.396 238.742,-717.598"/>
</g>
<!-- 15 -->
<g id="node8" class="node"><title>15</title>
<polygon fill="none" stroke="black" points="147,-635 93,-635 93,-599 147,-599 147,-635"/>
<text text-anchor="middle" x="120" y="-613.3" font-family="Times,serif" font-size="14.00">15</text>
</g>
<!-- 5&#45;&gt;15 -->
<g id="edge8" class="edge"><title>5&#45;&gt;15</title>
<path fill="none" stroke="black" d="M162.91,-670.697C156.077,-662.305 147.743,-652.07 140.244,-642.861"/>
<polygon fill="black" stroke="black" points="142.956,-640.649 133.928,-635.104 137.528,-645.069 142.956,-640.649"/>
</g>
<!-- 7 -->
<g id="node9" class="node"><title>7</title>
<polygon fill="none" stroke="black" points="276,-635 222,-635 222,-599 276,-599 276,-635"/>
<text text-anchor="middle" x="249" y="-613.3" font-family="Times,serif" font-size="14.00">7</text>
</g>
<!-- 6&#45;&gt;7 -->
<g id="edge9" class="edge"><title>6&#45;&gt;7</title>
<path fill="none" stroke="black" d="M249,-670.697C249,-662.983 249,-653.712 249,-645.112"/>
<polygon fill="black" stroke="black" points="252.5,-645.104 249,-635.104 245.5,-645.104 252.5,-645.104"/>
</g>
<!-- 12 -->
<g id="node10" class="node"><title>12</title>
<polygon fill="none" stroke="black" points="318,-347 264,-347 264,-311 318,-311 318,-347"/>
<text text-anchor="middle" x="291" y="-325.3" font-family="Times,serif" font-size="14.00">12</text>
</g>
<!-- 6&#45;&gt;12 -->
<g id="edge10" class="edge"><title>6&#45;&gt;12</title>
<path fill="none" stroke="black" d="M269.649,-670.584C296.498,-645.869 340,-597.827 340,-546 340,-546 340,-546 340,-472 340,-429.775 320.4,-384.16 305.992,-356.334"/>
<polygon fill="black" stroke="black" points="308.949,-354.442 301.153,-347.268 302.774,-357.738 308.949,-354.442"/>
</g>
<!-- 16 -->
<g id="node18" class="node"><title>16</title>
<polygon fill="none" stroke="black" points="147,-563 93,-563 93,-527 147,-527 147,-563"/>
<text text-anchor="middle" x="120" y="-541.3" font-family="Times,serif" font-size="14.00">16</text>
</g>
<!-- 15&#45;&gt;16 -->
<g id="edge21" class="edge"><title>15&#45;&gt;16</title>
<path fill="none" stroke="black" d="M120,-598.697C120,-590.983 120,-581.712 120,-573.112"/>
<polygon fill="black" stroke="black" points="123.5,-573.104 120,-563.104 116.5,-573.104 123.5,-573.104"/>
</g>
<!-- 22 -->
<g id="node19" class="node"><title>22</title>
<polygon fill="none" stroke="black" points="54,-275 0,-275 0,-239 54,-239 54,-275"/>
<text text-anchor="middle" x="27" y="-253.3" font-family="Times,serif" font-size="14.00">22</text>
</g>
<!-- 15&#45;&gt;22 -->
<g id="edge22" class="edge"><title>15&#45;&gt;22</title>
<path fill="none" stroke="black" d="M101.136,-598.729C76.0941,-573.816 35,-525.143 35,-474 35,-474 35,-474 35,-400 35,-359.933 31.7857,-313.606 29.432,-285.054"/>
<polygon fill="black" stroke="black" points="32.9146,-284.7 28.5805,-275.032 25.9397,-285.292 32.9146,-284.7"/>
</g>
<!-- 8 -->
<g id="node11" class="node"><title>8</title>
<polygon fill="none" stroke="black" points="276,-563 222,-563 222,-527 276,-527 276,-563"/>
<text text-anchor="middle" x="249" y="-541.3" font-family="Times,serif" font-size="14.00">8</text>
</g>
<!-- 7&#45;&gt;8 -->
<g id="edge11" class="edge"><title>7&#45;&gt;8</title>
<path fill="none" stroke="black" d="M249,-598.697C249,-590.983 249,-581.712 249,-573.112"/>
<polygon fill="black" stroke="black" points="252.5,-573.104 249,-563.104 245.5,-573.104 252.5,-573.104"/>
</g>
<!-- 14 -->
<g id="node16" class="node"><title>14</title>
<polygon fill="none" stroke="black" points="236,-275 182,-275 182,-239 236,-239 236,-275"/>
<text text-anchor="middle" x="209" y="-253.3" font-family="Times,serif" font-size="14.00">14</text>
</g>
<!-- 12&#45;&gt;14 -->
<g id="edge18" class="edge"><title>12&#45;&gt;14</title>
<path fill="none" stroke="black" d="M270.73,-310.697C260.502,-301.965 247.939,-291.24 236.822,-281.75"/>
<polygon fill="black" stroke="black" points="238.915,-278.935 229.037,-275.104 234.37,-284.259 238.915,-278.935"/>
</g>
<!-- 9 -->
<g id="node12" class="node"><title>9</title>
<polygon fill="none" stroke="black" points="312,-491 258,-491 258,-455 312,-455 312,-491"/>
<text text-anchor="middle" x="285" y="-469.3" font-family="Times,serif" font-size="14.00">9</text>
</g>
<!-- 8&#45;&gt;9 -->
<g id="edge12" class="edge"><title>8&#45;&gt;9</title>
<path fill="none" stroke="black" d="M257.899,-526.697C261.997,-518.728 266.949,-509.1 271.493,-500.264"/>
<polygon fill="black" stroke="black" points="274.742,-501.598 276.203,-491.104 268.517,-498.396 274.742,-501.598"/>
</g>
<!-- 10 -->
<g id="node13" class="node"><title>10</title>
<polygon fill="none" stroke="black" points="240,-491 186,-491 186,-455 240,-455 240,-491"/>
<text text-anchor="middle" x="213" y="-469.3" font-family="Times,serif" font-size="14.00">10</text>
</g>
<!-- 8&#45;&gt;10 -->
<g id="edge13" class="edge"><title>8&#45;&gt;10</title>
<path fill="none" stroke="black" d="M240.101,-526.697C236.003,-518.728 231.051,-509.1 226.507,-500.264"/>
<polygon fill="black" stroke="black" points="229.483,-498.396 221.797,-491.104 223.258,-501.598 229.483,-498.396"/>
</g>
<!-- 9&#45;&gt;12 -->
<g id="edge14" class="edge"><title>9&#45;&gt;12</title>
<path fill="none" stroke="black" d="M285.724,-454.871C286.746,-430.67 288.625,-386.211 289.843,-357.393"/>
<polygon fill="black" stroke="black" points="293.348,-357.328 290.274,-347.189 286.355,-357.033 293.348,-357.328"/>
</g>
<!-- 11 -->
<g id="node14" class="node"><title>11</title>
<polygon fill="none" stroke="black" points="274,-419 220,-419 220,-383 274,-383 274,-419"/>
<text text-anchor="middle" x="247" y="-397.3" font-family="Times,serif" font-size="14.00">11</text>
</g>
<!-- 10&#45;&gt;11 -->
<g id="edge15" class="edge"><title>10&#45;&gt;11</title>
<path fill="none" stroke="black" d="M221.404,-454.697C225.275,-446.728 229.952,-437.1 234.243,-428.264"/>
<polygon fill="black" stroke="black" points="237.471,-429.629 238.692,-419.104 231.175,-426.57 237.471,-429.629"/>
</g>
<!-- 13 -->
<g id="node15" class="node"><title>13</title>
<polygon fill="none" stroke="black" points="236,-347 182,-347 182,-311 236,-311 236,-347"/>
<text text-anchor="middle" x="209" y="-325.3" font-family="Times,serif" font-size="14.00">13</text>
</g>
<!-- 10&#45;&gt;13 -->
<g id="edge16" class="edge"><title>10&#45;&gt;13</title>
<path fill="none" stroke="black" d="M212.285,-454.816C211.87,-444.445 211.36,-430.965 211,-419 210.376,-398.275 209.857,-374.83 209.504,-357.208"/>
<polygon fill="black" stroke="black" points="213.001,-356.994 209.306,-347.064 206.002,-357.13 213.001,-356.994"/>
</g>
<!-- 11&#45;&gt;12 -->
<g id="edge17" class="edge"><title>11&#45;&gt;12</title>
<path fill="none" stroke="black" d="M257.876,-382.697C262.992,-374.559 269.195,-364.689 274.845,-355.701"/>
<polygon fill="black" stroke="black" points="277.89,-357.433 280.249,-347.104 271.964,-353.708 277.89,-357.433"/>
</g>
<!-- 13&#45;&gt;14 -->
<g id="edge19" class="edge"><title>13&#45;&gt;14</title>
<path fill="none" stroke="black" d="M209,-310.697C209,-302.983 209,-293.712 209,-285.112"/>
<polygon fill="black" stroke="black" points="212.5,-285.104 209,-275.104 205.5,-285.104 212.5,-285.104"/>
</g>
<!-- 24 -->
<g id="node17" class="node"><title>24</title>
<polygon fill="lightgray" stroke="black" points="187,-59 133,-59 133,-23 187,-23 187,-59"/>
<text text-anchor="middle" x="160" y="-37.3" font-family="Times,serif" font-size="14.00">24</text>
</g>
<!-- 14&#45;&gt;24 -->
<g id="edge20" class="edge"><title>14&#45;&gt;24</title>
<path fill="none" stroke="black" d="M205.073,-238.849C196.579,-201.753 176.442,-113.81 166.206,-69.1027"/>
<polygon fill="black" stroke="black" points="169.589,-68.199 163.946,-59.2325 162.766,-69.7614 169.589,-68.199"/>
</g>
<!-- 17 -->
<g id="node20" class="node"><title>17</title>
<polygon fill="none" stroke="black" points="147,-491 93,-491 93,-455 147,-455 147,-491"/>
<text text-anchor="middle" x="120" y="-469.3" font-family="Times,serif" font-size="14.00">17</text>
</g>
<!-- 16&#45;&gt;17 -->
<g id="edge23" class="edge"><title>16&#45;&gt;17</title>
<path fill="none" stroke="black" d="M120,-526.697C120,-518.983 120,-509.712 120,-501.112"/>
<polygon fill="black" stroke="black" points="123.5,-501.104 120,-491.104 116.5,-501.104 123.5,-501.104"/>
</g>
<!-- 23 -->
<g id="node25" class="node"><title>23</title>
<polygon fill="none" stroke="black" points="153,-131 99,-131 99,-95 153,-95 153,-131"/>
<text text-anchor="middle" x="126" y="-109.3" font-family="Times,serif" font-size="14.00">23</text>
</g>
<!-- 22&#45;&gt;23 -->
<g id="edge31" class="edge"><title>22&#45;&gt;23</title>
<path fill="none" stroke="black" d="M38.9417,-238.871C56.1861,-214.137 88.1831,-168.242 108.213,-139.512"/>
<polygon fill="black" stroke="black" points="111.168,-141.394 114.016,-131.189 105.426,-137.391 111.168,-141.394"/>
</g>
<!-- 18 -->
<g id="node21" class="node"><title>18</title>
<polygon fill="none" stroke="black" points="126,-419 72,-419 72,-383 126,-383 126,-419"/>
<text text-anchor="middle" x="99" y="-397.3" font-family="Times,serif" font-size="14.00">18</text>
</g>
<!-- 17&#45;&gt;18 -->
<g id="edge24" class="edge"><title>17&#45;&gt;18</title>
<path fill="none" stroke="black" d="M114.809,-454.697C112.469,-446.898 109.653,-437.509 107.049,-428.829"/>
<polygon fill="black" stroke="black" points="110.357,-427.677 104.131,-419.104 103.652,-429.688 110.357,-427.677"/>
</g>
<!-- 21 -->
<g id="node22" class="node"><title>21</title>
<polygon fill="none" stroke="black" points="153,-203 99,-203 99,-167 153,-167 153,-203"/>
<text text-anchor="middle" x="126" y="-181.3" font-family="Times,serif" font-size="14.00">21</text>
</g>
<!-- 17&#45;&gt;21 -->
<g id="edge25" class="edge"><title>17&#45;&gt;21</title>
<path fill="none" stroke="black" d="M126.238,-454.593C129.567,-444.374 133.317,-431.124 135,-419 145.997,-339.759 141.72,-318.717 135,-239 134.283,-230.499 132.931,-221.312 131.488,-213.012"/>
<polygon fill="black" stroke="black" points="134.914,-212.289 129.654,-203.092 128.031,-213.562 134.914,-212.289"/>
</g>
<!-- 19 -->
<g id="node23" class="node"><title>19</title>
<polygon fill="none" stroke="black" points="126,-347 72,-347 72,-311 126,-311 126,-347"/>
<text text-anchor="middle" x="99" y="-325.3" font-family="Times,serif" font-size="14.00">19</text>
</g>
<!-- 18&#45;&gt;19 -->
<g id="edge26" class="edge"><title>18&#45;&gt;19</title>
<path fill="none" stroke="black" d="M99,-382.697C99,-374.983 99,-365.712 99,-357.112"/>
<polygon fill="black" stroke="black" points="102.5,-357.104 99,-347.104 95.5001,-357.104 102.5,-357.104"/>
</g>
<!-- 21&#45;&gt;23 -->
<g id="edge30" class="edge"><title>21&#45;&gt;23</title>
<path fill="none" stroke="black" d="M126,-166.697C126,-158.983 126,-149.712 126,-141.112"/>
<polygon fill="black" stroke="black" points="129.5,-141.104 126,-131.104 122.5,-141.104 129.5,-141.104"/>
</g>
<!-- 19&#45;&gt;22 -->
<g id="edge28" class="edge"><title>19&#45;&gt;22</title>
<path fill="none" stroke="black" d="M81.2022,-310.697C72.396,-302.135 61.6179,-291.656 51.9989,-282.304"/>
<polygon fill="black" stroke="black" points="54.2028,-279.566 44.593,-275.104 49.3232,-284.585 54.2028,-279.566"/>
</g>
<!-- 20 -->
<g id="node24" class="node"><title>20</title>
<polygon fill="none" stroke="black" points="126,-275 72,-275 72,-239 126,-239 126,-275"/>
<text text-anchor="middle" x="99" y="-253.3" font-family="Times,serif" font-size="14.00">20</text>
</g>
<!-- 19&#45;&gt;20 -->
<g id="edge27" class="edge"><title>19&#45;&gt;20</title>
<path fill="none" stroke="black" d="M99,-310.697C99,-302.983 99,-293.712 99,-285.112"/>
<polygon fill="black" stroke="black" points="102.5,-285.104 99,-275.104 95.5001,-285.104 102.5,-285.104"/>
</g>
<!-- 20&#45;&gt;21 -->
<g id="edge29" class="edge"><title>20&#45;&gt;21</title>
<path fill="none" stroke="black" d="M105.674,-238.697C108.715,-230.813 112.383,-221.304 115.761,-212.546"/>
<polygon fill="black" stroke="black" points="119.069,-213.694 119.403,-203.104 112.538,-211.175 119.069,-213.694"/>
</g>
<!-- 23&#45;&gt;24 -->
<g id="edge32" class="edge"><title>23&#45;&gt;24</title>
<path fill="none" stroke="black" d="M134.404,-94.6966C138.275,-86.7284 142.952,-77.0995 147.243,-68.2641"/>
<polygon fill="black" stroke="black" points="150.471,-69.6286 151.692,-59.1043 144.175,-66.5702 150.471,-69.6286"/>
</g>
</g>
</svg>
