<?xml version="1.0" encoding="UTF-8" standalone="no"?>
<!DOCTYPE svg PUBLIC "-//W3C//DTD SVG 1.1//EN"
 "http://www.w3.org/Graphics/SVG/1.1/DTD/svg11.dtd">
<!-- Generated by graphviz version 2.38.0 (20140413.2041)
 -->
<!-- Title: int Inhibit_Biased_Climb() Pages: 1 -->
<svg width="180pt" height="283pt"
 viewBox="0.00 0.00 180.00 283.00" xmlns="http://www.w3.org/2000/svg" xmlns:xlink="http://www.w3.org/1999/xlink">
<g id="graph0" class="graph" transform="scale(1 1) rotate(0) translate(4 279)">
<title>int Inhibit_Biased_Climb()</title>
<polygon fill="white" stroke="none" points="-4,4 -4,-279 176,-279 176,4 -4,4"/>
<text text-anchor="middle" x="86" y="-7.8" font-family="Times,serif" font-size="14.00">int Inhibit_Biased_Climb()</text>
<!-- 0 -->
<g id="node1" class="node"><title>0</title>
<polygon fill="gray" stroke="black" points="112,-275 58,-275 58,-239 112,-239 112,-275"/>
<text text-anchor="middle" x="85" y="-253.3" font-family="Times,serif" font-size="14.00">0</text>
</g>
<!-- 1 -->
<g id="node2" class="node"><title>1</title>
<polygon fill="none" stroke="black" points="81,-203 27,-203 27,-167 81,-167 81,-203"/>
<text text-anchor="middle" x="54" y="-181.3" font-family="Times,serif" font-size="14.00">1</text>
</g>
<!-- 0&#45;&gt;1 -->
<g id="edge1" class="edge"><title>0&#45;&gt;1</title>
<path fill="none" stroke="black" d="M77.3371,-238.697C73.8083,-230.728 69.5441,-221.1 65.6313,-212.264"/>
<polygon fill="black" stroke="black" points="68.8243,-210.831 61.5748,-203.104 62.4239,-213.665 68.8243,-210.831"/>
</g>
<!-- 2 -->
<g id="node3" class="node"><title>2</title>
<polygon fill="none" stroke="black" points="149,-131 95,-131 95,-95 149,-95 149,-131"/>
<text text-anchor="middle" x="122" y="-109.3" font-family="Times,serif" font-size="14.00">2</text>
</g>
<!-- 0&#45;&gt;2 -->
<g id="edge2" class="edge"><title>0&#45;&gt;2</title>
<path fill="none" stroke="black" d="M89.4631,-238.871C95.7968,-214.564 107.456,-169.819 114.961,-141.013"/>
<polygon fill="black" stroke="black" points="118.387,-141.749 117.521,-131.189 111.613,-139.984 118.387,-141.749"/>
</g>
<!-- 3 -->
<g id="node4" class="node"><title>3</title>
<polygon fill="none" stroke="black" points="77,-131 23,-131 23,-95 77,-95 77,-131"/>
<text text-anchor="middle" x="50" y="-109.3" font-family="Times,serif" font-size="14.00">3</text>
</g>
<!-- 1&#45;&gt;3 -->
<g id="edge3" class="edge"><title>1&#45;&gt;3</title>
<path fill="none" stroke="black" d="M53.0112,-166.697C52.5704,-158.983 52.0407,-149.712 51.5493,-141.112"/>
<polygon fill="black" stroke="black" points="55.0423,-140.888 50.9774,-131.104 48.0537,-141.288 55.0423,-140.888"/>
</g>
<!-- 4 -->
<g id="node5" class="node"><title>4</title>
<polygon fill="lightgray" stroke="black" points="113,-59 59,-59 59,-23 113,-23 113,-59"/>
<text text-anchor="middle" x="86" y="-37.3" font-family="Times,serif" font-size="14.00">4</text>
</g>
<!-- 2&#45;&gt;4 -->
<g id="edge4" class="edge"><title>2&#45;&gt;4</title>
<path fill="none" stroke="black" d="M113.101,-94.6966C109.003,-86.7284 104.051,-77.0995 99.5073,-68.2641"/>
<polygon fill="black" stroke="black" points="102.483,-66.3965 94.7965,-59.1043 96.2575,-69.598 102.483,-66.3965"/>
</g>
<!-- 3&#45;&gt;4 -->
<g id="edge5" class="edge"><title>3&#45;&gt;4</title>
<path fill="none" stroke="black" d="M58.8989,-94.6966C62.9968,-86.7284 67.9488,-77.0995 72.4927,-68.2641"/>
<polygon fill="black" stroke="black" points="75.7425,-69.598 77.2035,-59.1043 69.5174,-66.3965 75.7425,-69.598"/>
</g>
</g>
</svg>
