<?xml version="1.0" encoding="UTF-8" standalone="no"?>
<!DOCTYPE svg PUBLIC "-//W3C//DTD SVG 1.1//EN"
 "http://www.w3.org/Graphics/SVG/1.1/DTD/svg11.dtd">
<!-- Generated by graphviz version 2.38.0 (20140413.2041)
 -->
<!-- Title: boolean Own_Below_Threat() Pages: 1 -->
<svg width="202pt" height="283pt"
 viewBox="0.00 0.00 202.00 283.00" xmlns="http://www.w3.org/2000/svg" xmlns:xlink="http://www.w3.org/1999/xlink">
<g id="graph0" class="graph" transform="scale(1 1) rotate(0) translate(4 279)">
<title>boolean Own_Below_Threat()</title>
<polygon fill="white" stroke="none" points="-4,4 -4,-279 198,-279 198,4 -4,4"/>
<text text-anchor="middle" x="97" y="-7.8" font-family="Times,serif" font-size="14.00">boolean Own_Below_Threat()</text>
<!-- 0 -->
<g id="node1" class="node"><title>0</title>
<polygon fill="gray" stroke="black" points="123,-275 69,-275 69,-239 123,-239 123,-275"/>
<text text-anchor="middle" x="96" y="-253.3" font-family="Times,serif" font-size="14.00">0</text>
</g>
<!-- 1 -->
<g id="node2" class="node"><title>1</title>
<polygon fill="none" stroke="black" points="92,-203 38,-203 38,-167 92,-167 92,-203"/>
<text text-anchor="middle" x="65" y="-181.3" font-family="Times,serif" font-size="14.00">1</text>
</g>
<!-- 0&#45;&gt;1 -->
<g id="edge1" class="edge"><title>0&#45;&gt;1</title>
<path fill="none" stroke="black" d="M88.3371,-238.697C84.8083,-230.728 80.5441,-221.1 76.6313,-212.264"/>
<polygon fill="black" stroke="black" points="79.8243,-210.831 72.5748,-203.104 73.4239,-213.665 79.8243,-210.831"/>
</g>
<!-- 3 -->
<g id="node3" class="node"><title>3</title>
<polygon fill="none" stroke="black" points="160,-131 106,-131 106,-95 160,-95 160,-131"/>
<text text-anchor="middle" x="133" y="-109.3" font-family="Times,serif" font-size="14.00">3</text>
</g>
<!-- 0&#45;&gt;3 -->
<g id="edge2" class="edge"><title>0&#45;&gt;3</title>
<path fill="none" stroke="black" d="M100.463,-238.871C106.797,-214.564 118.456,-169.819 125.961,-141.013"/>
<polygon fill="black" stroke="black" points="129.387,-141.749 128.521,-131.189 122.613,-139.984 129.387,-141.749"/>
</g>
<!-- 2 -->
<g id="node4" class="node"><title>2</title>
<polygon fill="none" stroke="black" points="88,-131 34,-131 34,-95 88,-95 88,-131"/>
<text text-anchor="middle" x="61" y="-109.3" font-family="Times,serif" font-size="14.00">2</text>
</g>
<!-- 1&#45;&gt;2 -->
<g id="edge3" class="edge"><title>1&#45;&gt;2</title>
<path fill="none" stroke="black" d="M64.0112,-166.697C63.5704,-158.983 63.0407,-149.712 62.5493,-141.112"/>
<polygon fill="black" stroke="black" points="66.0423,-140.888 61.9774,-131.104 59.0537,-141.288 66.0423,-140.888"/>
</g>
<!-- 4 -->
<g id="node5" class="node"><title>4</title>
<polygon fill="lightgray" stroke="black" points="124,-59 70,-59 70,-23 124,-23 124,-59"/>
<text text-anchor="middle" x="97" y="-37.3" font-family="Times,serif" font-size="14.00">4</text>
</g>
<!-- 3&#45;&gt;4 -->
<g id="edge5" class="edge"><title>3&#45;&gt;4</title>
<path fill="none" stroke="black" d="M124.101,-94.6966C120.003,-86.7284 115.051,-77.0995 110.507,-68.2641"/>
<polygon fill="black" stroke="black" points="113.483,-66.3965 105.797,-59.1043 107.258,-69.598 113.483,-66.3965"/>
</g>
<!-- 2&#45;&gt;4 -->
<g id="edge4" class="edge"><title>2&#45;&gt;4</title>
<path fill="none" stroke="black" d="M69.8989,-94.6966C73.9968,-86.7284 78.9488,-77.0995 83.4927,-68.2641"/>
<polygon fill="black" stroke="black" points="86.7425,-69.598 88.2035,-59.1043 80.5174,-66.3965 86.7425,-69.598"/>
</g>
</g>
</svg>
