<?xml version="1.0" encoding="UTF-8" standalone="no"?>
<!DOCTYPE svg PUBLIC "-//W3C//DTD SVG 1.1//EN"
 "http://www.w3.org/Graphics/SVG/1.1/DTD/svg11.dtd">
<!-- Generated by graphviz version 2.38.0 (20140413.2041)
 -->
<!-- Title: boolean Non_Crossing_Biased_Climb() Pages: 1 -->
<svg width="346pt" height="931pt"
 viewBox="0.00 0.00 346.00 931.00" xmlns="http://www.w3.org/2000/svg" xmlns:xlink="http://www.w3.org/1999/xlink">
<g id="graph0" class="graph" transform="scale(1 1) rotate(0) translate(4 927)">
<title>boolean Non_Crossing_Biased_Climb()</title>
<polygon fill="white" stroke="none" points="-4,4 -4,-927 342,-927 342,4 -4,4"/>
<text text-anchor="middle" x="169" y="-7.8" font-family="Times,serif" font-size="14.00">boolean Non_Crossing_Biased_Climb()</text>
<!-- 0 -->
<g id="node1" class="node"><title>0</title>
<polygon fill="gray" stroke="black" points="145,-923 91,-923 91,-887 145,-887 145,-923"/>
<text text-anchor="middle" x="118" y="-901.3" font-family="Times,serif" font-size="14.00">0</text>
</g>
<!-- 1 -->
<g id="node2" class="node"><title>1</title>
<polygon fill="none" stroke="black" points="175,-851 121,-851 121,-815 175,-815 175,-851"/>
<text text-anchor="middle" x="148" y="-829.3" font-family="Times,serif" font-size="14.00">1</text>
</g>
<!-- 0&#45;&gt;1 -->
<g id="edge1" class="edge"><title>0&#45;&gt;1</title>
<path fill="none" stroke="black" d="M125.416,-886.697C128.794,-878.813 132.87,-869.304 136.623,-860.546"/>
<polygon fill="black" stroke="black" points="139.947,-861.675 140.67,-851.104 133.513,-858.917 139.947,-861.675"/>
</g>
<!-- 2 -->
<g id="node3" class="node"><title>2</title>
<polygon fill="none" stroke="black" points="108,-779 54,-779 54,-743 108,-743 108,-779"/>
<text text-anchor="middle" x="81" y="-757.3" font-family="Times,serif" font-size="14.00">2</text>
</g>
<!-- 0&#45;&gt;2 -->
<g id="edge2" class="edge"><title>0&#45;&gt;2</title>
<path fill="none" stroke="black" d="M113.537,-886.871C107.203,-862.564 95.5443,-817.819 88.0387,-789.013"/>
<polygon fill="black" stroke="black" points="91.3873,-787.984 85.4789,-779.189 84.6135,-789.749 91.3873,-787.984"/>
</g>
<!-- 3 -->
<g id="node4" class="node"><title>3</title>
<polygon fill="none" stroke="black" points="180,-779 126,-779 126,-743 180,-743 180,-779"/>
<text text-anchor="middle" x="153" y="-757.3" font-family="Times,serif" font-size="14.00">3</text>
</g>
<!-- 1&#45;&gt;3 -->
<g id="edge3" class="edge"><title>1&#45;&gt;3</title>
<path fill="none" stroke="black" d="M149.236,-814.697C149.787,-806.983 150.449,-797.712 151.063,-789.112"/>
<polygon fill="black" stroke="black" points="154.557,-789.328 151.778,-779.104 147.575,-788.83 154.557,-789.328"/>
</g>
<!-- 4 -->
<g id="node5" class="node"><title>4</title>
<polygon fill="none" stroke="black" points="144,-707 90,-707 90,-671 144,-671 144,-707"/>
<text text-anchor="middle" x="117" y="-685.3" font-family="Times,serif" font-size="14.00">4</text>
</g>
<!-- 2&#45;&gt;4 -->
<g id="edge4" class="edge"><title>2&#45;&gt;4</title>
<path fill="none" stroke="black" d="M89.8989,-742.697C93.9968,-734.728 98.9488,-725.1 103.493,-716.264"/>
<polygon fill="black" stroke="black" points="106.742,-717.598 108.203,-707.104 100.517,-714.396 106.742,-717.598"/>
</g>
<!-- 3&#45;&gt;4 -->
<g id="edge5" class="edge"><title>3&#45;&gt;4</title>
<path fill="none" stroke="black" d="M144.101,-742.697C140.003,-734.728 135.051,-725.1 130.507,-716.264"/>
<polygon fill="black" stroke="black" points="133.483,-714.396 125.797,-707.104 127.258,-717.598 133.483,-714.396"/>
</g>
<!-- 5 -->
<g id="node6" class="node"><title>5</title>
<polygon fill="none" stroke="black" points="199,-635 145,-635 145,-599 199,-599 199,-635"/>
<text text-anchor="middle" x="172" y="-613.3" font-family="Times,serif" font-size="14.00">5</text>
</g>
<!-- 4&#45;&gt;5 -->
<g id="edge6" class="edge"><title>4&#45;&gt;5</title>
<path fill="none" stroke="black" d="M130.596,-670.697C137.123,-662.389 145.068,-652.277 152.247,-643.141"/>
<polygon fill="black" stroke="black" points="155.135,-645.13 158.561,-635.104 149.631,-640.805 155.135,-645.13"/>
</g>
<!-- 6 -->
<g id="node7" class="node"><title>6</title>
<polygon fill="none" stroke="black" points="108,-635 54,-635 54,-599 108,-599 108,-635"/>
<text text-anchor="middle" x="81" y="-613.3" font-family="Times,serif" font-size="14.00">6</text>
</g>
<!-- 4&#45;&gt;6 -->
<g id="edge7" class="edge"><title>4&#45;&gt;6</title>
<path fill="none" stroke="black" d="M108.101,-670.697C104.003,-662.728 99.0512,-653.1 94.5073,-644.264"/>
<polygon fill="black" stroke="black" points="97.4826,-642.396 89.7965,-635.104 91.2575,-645.598 97.4826,-642.396"/>
</g>
<!-- 15 -->
<g id="node8" class="node"><title>15</title>
<polygon fill="none" stroke="black" points="209,-563 155,-563 155,-527 209,-527 209,-563"/>
<text text-anchor="middle" x="182" y="-541.3" font-family="Times,serif" font-size="14.00">15</text>
</g>
<!-- 5&#45;&gt;15 -->
<g id="edge8" class="edge"><title>5&#45;&gt;15</title>
<path fill="none" stroke="black" d="M174.472,-598.697C175.574,-590.983 176.898,-581.712 178.127,-573.112"/>
<polygon fill="black" stroke="black" points="181.607,-573.499 179.557,-563.104 174.677,-572.509 181.607,-573.499"/>
</g>
<!-- 7 -->
<g id="node9" class="node"><title>7</title>
<polygon fill="none" stroke="black" points="108,-563 54,-563 54,-527 108,-527 108,-563"/>
<text text-anchor="middle" x="81" y="-541.3" font-family="Times,serif" font-size="14.00">7</text>
</g>
<!-- 6&#45;&gt;7 -->
<g id="edge9" class="edge"><title>6&#45;&gt;7</title>
<path fill="none" stroke="black" d="M81,-598.697C81,-590.983 81,-581.712 81,-573.112"/>
<polygon fill="black" stroke="black" points="84.5001,-573.104 81,-563.104 77.5001,-573.104 84.5001,-573.104"/>
</g>
<!-- 13 -->
<g id="node10" class="node"><title>13</title>
<polygon fill="none" stroke="black" points="82,-203 28,-203 28,-167 82,-167 82,-203"/>
<text text-anchor="middle" x="55" y="-181.3" font-family="Times,serif" font-size="14.00">13</text>
</g>
<!-- 6&#45;&gt;13 -->
<g id="edge10" class="edge"><title>6&#45;&gt;13</title>
<path fill="none" stroke="black" d="M63.4242,-598.976C39.6015,-573.986 0,-524.803 0,-474 0,-474 0,-474 0,-328 0,-287.553 3.1192,-276.199 19,-239 23.0842,-229.433 28.9884,-219.784 34.8379,-211.388"/>
<polygon fill="black" stroke="black" points="37.7797,-213.294 40.8353,-203.149 32.1203,-209.174 37.7797,-213.294"/>
</g>
<!-- 16 -->
<g id="node18" class="node"><title>16</title>
<polygon fill="none" stroke="black" points="264,-491 210,-491 210,-455 264,-455 264,-491"/>
<text text-anchor="middle" x="237" y="-469.3" font-family="Times,serif" font-size="14.00">16</text>
</g>
<!-- 15&#45;&gt;16 -->
<g id="edge21" class="edge"><title>15&#45;&gt;16</title>
<path fill="none" stroke="black" d="M195.596,-526.697C202.123,-518.389 210.068,-508.277 217.247,-499.141"/>
<polygon fill="black" stroke="black" points="220.135,-501.13 223.561,-491.104 214.631,-496.805 220.135,-501.13"/>
</g>
<!-- 21 -->
<g id="node19" class="node"><title>21</title>
<polygon fill="none" stroke="black" points="247,-203 193,-203 193,-167 247,-167 247,-203"/>
<text text-anchor="middle" x="220" y="-181.3" font-family="Times,serif" font-size="14.00">21</text>
</g>
<!-- 15&#45;&gt;21 -->
<g id="edge22" class="edge"><title>15&#45;&gt;21</title>
<path fill="none" stroke="black" d="M182,-526.951C182,-500.292 182,-447.115 182,-402 182,-402 182,-402 182,-328 182,-286.633 197.235,-240.722 208.412,-212.605"/>
<polygon fill="black" stroke="black" points="211.756,-213.673 212.31,-203.093 205.279,-211.019 211.756,-213.673"/>
</g>
<!-- 8 -->
<g id="node11" class="node"><title>8</title>
<polygon fill="none" stroke="black" points="108,-491 54,-491 54,-455 108,-455 108,-491"/>
<text text-anchor="middle" x="81" y="-469.3" font-family="Times,serif" font-size="14.00">8</text>
</g>
<!-- 7&#45;&gt;8 -->
<g id="edge11" class="edge"><title>7&#45;&gt;8</title>
<path fill="none" stroke="black" d="M81,-526.697C81,-518.983 81,-509.712 81,-501.112"/>
<polygon fill="black" stroke="black" points="84.5001,-501.104 81,-491.104 77.5001,-501.104 84.5001,-501.104"/>
</g>
<!-- 14 -->
<g id="node16" class="node"><title>14</title>
<polygon fill="none" stroke="black" points="154,-131 100,-131 100,-95 154,-95 154,-131"/>
<text text-anchor="middle" x="127" y="-109.3" font-family="Times,serif" font-size="14.00">14</text>
</g>
<!-- 13&#45;&gt;14 -->
<g id="edge19" class="edge"><title>13&#45;&gt;14</title>
<path fill="none" stroke="black" d="M72.7978,-166.697C81.604,-158.135 92.3821,-147.656 102.001,-138.304"/>
<polygon fill="black" stroke="black" points="104.677,-140.585 109.407,-131.104 99.7972,-135.566 104.677,-140.585"/>
</g>
<!-- 9 -->
<g id="node12" class="node"><title>9</title>
<polygon fill="none" stroke="black" points="99,-419 45,-419 45,-383 99,-383 99,-419"/>
<text text-anchor="middle" x="72" y="-397.3" font-family="Times,serif" font-size="14.00">9</text>
</g>
<!-- 8&#45;&gt;9 -->
<g id="edge12" class="edge"><title>8&#45;&gt;9</title>
<path fill="none" stroke="black" d="M78.7753,-454.697C77.7835,-446.983 76.5916,-437.712 75.4859,-429.112"/>
<polygon fill="black" stroke="black" points="78.9459,-428.576 74.1991,-419.104 72.003,-429.469 78.9459,-428.576"/>
</g>
<!-- 12 -->
<g id="node13" class="node"><title>12</title>
<polygon fill="none" stroke="black" points="154,-275 100,-275 100,-239 154,-239 154,-275"/>
<text text-anchor="middle" x="127" y="-253.3" font-family="Times,serif" font-size="14.00">12</text>
</g>
<!-- 8&#45;&gt;12 -->
<g id="edge13" class="edge"><title>8&#45;&gt;12</title>
<path fill="none" stroke="black" d="M91.6242,-454.987C97.4156,-444.9 104.166,-431.65 108,-419 121.791,-373.505 125.654,-317.957 126.687,-285.427"/>
<polygon fill="black" stroke="black" points="130.189,-285.41 126.939,-275.326 123.191,-285.235 130.189,-285.41"/>
</g>
<!-- 10 -->
<g id="node14" class="node"><title>10</title>
<polygon fill="none" stroke="black" points="99,-347 45,-347 45,-311 99,-311 99,-347"/>
<text text-anchor="middle" x="72" y="-325.3" font-family="Times,serif" font-size="14.00">10</text>
</g>
<!-- 9&#45;&gt;10 -->
<g id="edge14" class="edge"><title>9&#45;&gt;10</title>
<path fill="none" stroke="black" d="M72,-382.697C72,-374.983 72,-365.712 72,-357.112"/>
<polygon fill="black" stroke="black" points="75.5001,-357.104 72,-347.104 68.5001,-357.104 75.5001,-357.104"/>
</g>
<!-- 12&#45;&gt;14 -->
<g id="edge18" class="edge"><title>12&#45;&gt;14</title>
<path fill="none" stroke="black" d="M127,-238.871C127,-214.67 127,-170.211 127,-141.393"/>
<polygon fill="black" stroke="black" points="130.5,-141.189 127,-131.189 123.5,-141.189 130.5,-141.189"/>
</g>
<!-- 10&#45;&gt;12 -->
<g id="edge16" class="edge"><title>10&#45;&gt;12</title>
<path fill="none" stroke="black" d="M85.5955,-310.697C92.1227,-302.389 100.068,-292.277 107.247,-283.141"/>
<polygon fill="black" stroke="black" points="110.135,-285.13 113.561,-275.104 104.631,-280.805 110.135,-285.13"/>
</g>
<!-- 11 -->
<g id="node15" class="node"><title>11</title>
<polygon fill="none" stroke="black" points="82,-275 28,-275 28,-239 82,-239 82,-275"/>
<text text-anchor="middle" x="55" y="-253.3" font-family="Times,serif" font-size="14.00">11</text>
</g>
<!-- 10&#45;&gt;11 -->
<g id="edge15" class="edge"><title>10&#45;&gt;11</title>
<path fill="none" stroke="black" d="M67.7978,-310.697C65.9038,-302.898 63.6235,-293.509 61.5157,-284.829"/>
<polygon fill="black" stroke="black" points="64.9151,-283.996 59.1539,-275.104 58.1128,-285.648 64.9151,-283.996"/>
</g>
<!-- 11&#45;&gt;13 -->
<g id="edge17" class="edge"><title>11&#45;&gt;13</title>
<path fill="none" stroke="black" d="M55,-238.697C55,-230.983 55,-221.712 55,-213.112"/>
<polygon fill="black" stroke="black" points="58.5001,-213.104 55,-203.104 51.5001,-213.104 58.5001,-213.104"/>
</g>
<!-- 24 -->
<g id="node17" class="node"><title>24</title>
<polygon fill="lightgray" stroke="black" points="200,-59 146,-59 146,-23 200,-23 200,-59"/>
<text text-anchor="middle" x="173" y="-37.3" font-family="Times,serif" font-size="14.00">24</text>
</g>
<!-- 14&#45;&gt;24 -->
<g id="edge20" class="edge"><title>14&#45;&gt;24</title>
<path fill="none" stroke="black" d="M138.371,-94.6966C143.718,-86.5589 150.204,-76.689 156.111,-67.7013"/>
<polygon fill="black" stroke="black" points="159.193,-69.3835 161.76,-59.1043 153.343,-65.5393 159.193,-69.3835"/>
</g>
<!-- 17 -->
<g id="node20" class="node"><title>17</title>
<polygon fill="none" stroke="black" points="264,-419 210,-419 210,-383 264,-383 264,-419"/>
<text text-anchor="middle" x="237" y="-397.3" font-family="Times,serif" font-size="14.00">17</text>
</g>
<!-- 16&#45;&gt;17 -->
<g id="edge23" class="edge"><title>16&#45;&gt;17</title>
<path fill="none" stroke="black" d="M237,-454.697C237,-446.983 237,-437.712 237,-429.112"/>
<polygon fill="black" stroke="black" points="240.5,-429.104 237,-419.104 233.5,-429.104 240.5,-429.104"/>
</g>
<!-- 23 -->
<g id="node25" class="node"><title>23</title>
<polygon fill="none" stroke="black" points="247,-131 193,-131 193,-95 247,-95 247,-131"/>
<text text-anchor="middle" x="220" y="-109.3" font-family="Times,serif" font-size="14.00">23</text>
</g>
<!-- 21&#45;&gt;23 -->
<g id="edge30" class="edge"><title>21&#45;&gt;23</title>
<path fill="none" stroke="black" d="M220,-166.697C220,-158.983 220,-149.712 220,-141.112"/>
<polygon fill="black" stroke="black" points="223.5,-141.104 220,-131.104 216.5,-141.104 223.5,-141.104"/>
</g>
<!-- 18 -->
<g id="node21" class="node"><title>18</title>
<polygon fill="none" stroke="black" points="264,-347 210,-347 210,-311 264,-311 264,-347"/>
<text text-anchor="middle" x="237" y="-325.3" font-family="Times,serif" font-size="14.00">18</text>
</g>
<!-- 17&#45;&gt;18 -->
<g id="edge24" class="edge"><title>17&#45;&gt;18</title>
<path fill="none" stroke="black" d="M237,-382.697C237,-374.983 237,-365.712 237,-357.112"/>
<polygon fill="black" stroke="black" points="240.5,-357.104 237,-347.104 233.5,-357.104 240.5,-357.104"/>
</g>
<!-- 19 -->
<g id="node22" class="node"><title>19</title>
<polygon fill="none" stroke="black" points="336,-347 282,-347 282,-311 336,-311 336,-347"/>
<text text-anchor="middle" x="309" y="-325.3" font-family="Times,serif" font-size="14.00">19</text>
</g>
<!-- 17&#45;&gt;19 -->
<g id="edge25" class="edge"><title>17&#45;&gt;19</title>
<path fill="none" stroke="black" d="M254.798,-382.697C263.604,-374.135 274.382,-363.656 284.001,-354.304"/>
<polygon fill="black" stroke="black" points="286.677,-356.585 291.407,-347.104 281.797,-351.566 286.677,-356.585"/>
</g>
<!-- 18&#45;&gt;21 -->
<g id="edge26" class="edge"><title>18&#45;&gt;21</title>
<path fill="none" stroke="black" d="M234.949,-310.871C232.052,-286.67 226.729,-242.211 223.279,-213.393"/>
<polygon fill="black" stroke="black" points="226.722,-212.702 222.058,-203.189 219.771,-213.534 226.722,-212.702"/>
</g>
<!-- 20 -->
<g id="node23" class="node"><title>20</title>
<polygon fill="none" stroke="black" points="302,-275 248,-275 248,-239 302,-239 302,-275"/>
<text text-anchor="middle" x="275" y="-253.3" font-family="Times,serif" font-size="14.00">20</text>
</g>
<!-- 19&#45;&gt;20 -->
<g id="edge27" class="edge"><title>19&#45;&gt;20</title>
<path fill="none" stroke="black" d="M300.596,-310.697C296.725,-302.728 292.048,-293.1 287.757,-284.264"/>
<polygon fill="black" stroke="black" points="290.825,-282.57 283.308,-275.104 284.529,-285.629 290.825,-282.57"/>
</g>
<!-- 22 -->
<g id="node24" class="node"><title>22</title>
<polygon fill="none" stroke="black" points="338,-203 284,-203 284,-167 338,-167 338,-203"/>
<text text-anchor="middle" x="311" y="-181.3" font-family="Times,serif" font-size="14.00">22</text>
</g>
<!-- 19&#45;&gt;22 -->
<g id="edge28" class="edge"><title>19&#45;&gt;22</title>
<path fill="none" stroke="black" d="M309.813,-310.819C310.262,-300.448 310.774,-286.968 311,-275 311.391,-254.275 311.372,-230.83 311.266,-213.207"/>
<polygon fill="black" stroke="black" points="314.765,-213.038 311.191,-203.064 307.765,-213.089 314.765,-213.038"/>
</g>
<!-- 20&#45;&gt;21 -->
<g id="edge29" class="edge"><title>20&#45;&gt;21</title>
<path fill="none" stroke="black" d="M261.404,-238.697C254.877,-230.389 246.932,-220.277 239.753,-211.141"/>
<polygon fill="black" stroke="black" points="242.369,-208.805 233.439,-203.104 236.865,-213.13 242.369,-208.805"/>
</g>
<!-- 22&#45;&gt;23 -->
<g id="edge31" class="edge"><title>22&#45;&gt;23</title>
<path fill="none" stroke="black" d="M288.506,-166.697C277.045,-157.881 262.942,-147.032 250.516,-137.474"/>
<polygon fill="black" stroke="black" points="252.296,-134.427 242.236,-131.104 248.028,-139.976 252.296,-134.427"/>
</g>
<!-- 23&#45;&gt;24 -->
<g id="edge32" class="edge"><title>23&#45;&gt;24</title>
<path fill="none" stroke="black" d="M208.382,-94.6966C202.861,-86.4741 196.153,-76.4832 190.068,-67.4207"/>
<polygon fill="black" stroke="black" points="192.965,-65.4555 184.484,-59.1043 187.153,-69.3576 192.965,-65.4555"/>
</g>
</g>
</svg>
