<?xml version="1.0" encoding="UTF-8" standalone="no"?>
<!DOCTYPE svg PUBLIC "-//W3C//DTD SVG 1.1//EN"
 "http://www.w3.org/Graphics/SVG/1.1/DTD/svg11.dtd">
<!-- Generated by graphviz version 2.38.0 (20140413.2041)
 -->
<!-- Title: void main(java.lang.String[]) Pages: 1 -->
<svg width="193pt" height="787pt"
 viewBox="0.00 0.00 193.00 787.00" xmlns="http://www.w3.org/2000/svg" xmlns:xlink="http://www.w3.org/1999/xlink">
<g id="graph0" class="graph" transform="scale(1 1) rotate(0) translate(4 783)">
<title>void main(java.lang.String[])</title>
<polygon fill="white" stroke="none" points="-4,4 -4,-783 189,-783 189,4 -4,4"/>
<text text-anchor="middle" x="92.5" y="-7.8" font-family="Times,serif" font-size="14.00">void main(java.lang.String[])</text>
<!-- 0 -->
<g id="node1" class="node"><title>0</title>
<polygon fill="gray" stroke="black" points="137,-779 83,-779 83,-743 137,-743 137,-779"/>
<text text-anchor="middle" x="110" y="-757.3" font-family="Times,serif" font-size="14.00">0</text>
</g>
<!-- 1 -->
<g id="node2" class="node"><title>1</title>
<polygon fill="none" stroke="black" points="101,-707 47,-707 47,-671 101,-671 101,-707"/>
<text text-anchor="middle" x="74" y="-685.3" font-family="Times,serif" font-size="14.00">1</text>
</g>
<!-- 0&#45;&gt;1 -->
<g id="edge1" class="edge"><title>0&#45;&gt;1</title>
<path fill="none" stroke="black" d="M101.101,-742.697C97.0032,-734.728 92.0512,-725.1 87.5073,-716.264"/>
<polygon fill="black" stroke="black" points="90.4826,-714.396 82.7965,-707.104 84.2575,-717.598 90.4826,-714.396"/>
</g>
<!-- 2 -->
<g id="node3" class="node"><title>2</title>
<polygon fill="lightgray" stroke="black" points="173,-707 119,-707 119,-671 173,-671 173,-707"/>
<text text-anchor="middle" x="146" y="-685.3" font-family="Times,serif" font-size="14.00">2</text>
</g>
<!-- 0&#45;&gt;2 -->
<g id="edge2" class="edge"><title>0&#45;&gt;2</title>
<path fill="none" stroke="black" d="M118.899,-742.697C122.997,-734.728 127.949,-725.1 132.493,-716.264"/>
<polygon fill="black" stroke="black" points="135.742,-717.598 137.203,-707.104 129.517,-714.396 135.742,-717.598"/>
</g>
<!-- 3 -->
<g id="node4" class="node"><title>3</title>
<polygon fill="none" stroke="black" points="101,-635 47,-635 47,-599 101,-599 101,-635"/>
<text text-anchor="middle" x="74" y="-613.3" font-family="Times,serif" font-size="14.00">3</text>
</g>
<!-- 1&#45;&gt;3 -->
<g id="edge3" class="edge"><title>1&#45;&gt;3</title>
<path fill="none" stroke="black" d="M74,-670.697C74,-662.983 74,-653.712 74,-645.112"/>
<polygon fill="black" stroke="black" points="77.5001,-645.104 74,-635.104 70.5001,-645.104 77.5001,-645.104"/>
</g>
<!-- 4 -->
<g id="node5" class="node"><title>4</title>
<polygon fill="none" stroke="black" points="70,-563 16,-563 16,-527 70,-527 70,-563"/>
<text text-anchor="middle" x="43" y="-541.3" font-family="Times,serif" font-size="14.00">4</text>
</g>
<!-- 3&#45;&gt;4 -->
<g id="edge4" class="edge"><title>3&#45;&gt;4</title>
<path fill="none" stroke="black" d="M66.3371,-598.697C62.8083,-590.728 58.5441,-581.1 54.6313,-572.264"/>
<polygon fill="black" stroke="black" points="57.8243,-570.831 50.5748,-563.104 51.4239,-573.665 57.8243,-570.831"/>
</g>
<!-- 5 -->
<g id="node6" class="node"><title>5</title>
<polygon fill="none" stroke="black" points="138,-491 84,-491 84,-455 138,-455 138,-491"/>
<text text-anchor="middle" x="111" y="-469.3" font-family="Times,serif" font-size="14.00">5</text>
</g>
<!-- 3&#45;&gt;5 -->
<g id="edge5" class="edge"><title>3&#45;&gt;5</title>
<path fill="none" stroke="black" d="M78.4631,-598.871C84.7968,-574.564 96.4557,-529.819 103.961,-501.013"/>
<polygon fill="black" stroke="black" points="107.387,-501.749 106.521,-491.189 100.613,-499.984 107.387,-501.749"/>
</g>
<!-- 6 -->
<g id="node7" class="node"><title>6</title>
<polygon fill="none" stroke="black" points="66,-491 12,-491 12,-455 66,-455 66,-491"/>
<text text-anchor="middle" x="39" y="-469.3" font-family="Times,serif" font-size="14.00">6</text>
</g>
<!-- 4&#45;&gt;6 -->
<g id="edge6" class="edge"><title>4&#45;&gt;6</title>
<path fill="none" stroke="black" d="M42.0112,-526.697C41.5704,-518.983 41.0407,-509.712 40.5493,-501.112"/>
<polygon fill="black" stroke="black" points="44.0423,-500.888 39.9774,-491.104 37.0537,-501.288 44.0423,-500.888"/>
</g>
<!-- 7 -->
<g id="node8" class="node"><title>7</title>
<polygon fill="none" stroke="black" points="138,-419 84,-419 84,-383 138,-383 138,-419"/>
<text text-anchor="middle" x="111" y="-397.3" font-family="Times,serif" font-size="14.00">7</text>
</g>
<!-- 5&#45;&gt;7 -->
<g id="edge7" class="edge"><title>5&#45;&gt;7</title>
<path fill="none" stroke="black" d="M111,-454.697C111,-446.983 111,-437.712 111,-429.112"/>
<polygon fill="black" stroke="black" points="114.5,-429.104 111,-419.104 107.5,-429.104 114.5,-429.104"/>
</g>
<!-- 8 -->
<g id="node9" class="node"><title>8</title>
<polygon fill="none" stroke="black" points="66,-419 12,-419 12,-383 66,-383 66,-419"/>
<text text-anchor="middle" x="39" y="-397.3" font-family="Times,serif" font-size="14.00">8</text>
</g>
<!-- 6&#45;&gt;8 -->
<g id="edge8" class="edge"><title>6&#45;&gt;8</title>
<path fill="none" stroke="black" d="M39,-454.697C39,-446.983 39,-437.712 39,-429.112"/>
<polygon fill="black" stroke="black" points="42.5001,-429.104 39,-419.104 35.5001,-429.104 42.5001,-429.104"/>
</g>
<!-- 9 -->
<g id="node10" class="node"><title>9</title>
<polygon fill="none" stroke="black" points="102,-347 48,-347 48,-311 102,-311 102,-347"/>
<text text-anchor="middle" x="75" y="-325.3" font-family="Times,serif" font-size="14.00">9</text>
</g>
<!-- 7&#45;&gt;9 -->
<g id="edge9" class="edge"><title>7&#45;&gt;9</title>
<path fill="none" stroke="black" d="M102.101,-382.697C98.0032,-374.728 93.0512,-365.1 88.5073,-356.264"/>
<polygon fill="black" stroke="black" points="91.4826,-354.396 83.7965,-347.104 85.2575,-357.598 91.4826,-354.396"/>
</g>
<!-- 8&#45;&gt;9 -->
<g id="edge10" class="edge"><title>8&#45;&gt;9</title>
<path fill="none" stroke="black" d="M47.8989,-382.697C51.9968,-374.728 56.9488,-365.1 61.4927,-356.264"/>
<polygon fill="black" stroke="black" points="64.7425,-357.598 66.2035,-347.104 58.5174,-354.396 64.7425,-357.598"/>
</g>
<!-- 10 -->
<g id="node11" class="node"><title>10</title>
<polygon fill="none" stroke="black" points="75,-275 21,-275 21,-239 75,-239 75,-275"/>
<text text-anchor="middle" x="48" y="-253.3" font-family="Times,serif" font-size="14.00">10</text>
</g>
<!-- 9&#45;&gt;10 -->
<g id="edge11" class="edge"><title>9&#45;&gt;10</title>
<path fill="none" stroke="black" d="M68.3258,-310.697C65.2851,-302.813 61.6173,-293.304 58.2393,-284.546"/>
<polygon fill="black" stroke="black" points="61.4617,-283.175 54.5974,-275.104 54.9307,-285.694 61.4617,-283.175"/>
</g>
<!-- 11 -->
<g id="node12" class="node"><title>11</title>
<polygon fill="none" stroke="black" points="143,-203 89,-203 89,-167 143,-167 143,-203"/>
<text text-anchor="middle" x="116" y="-181.3" font-family="Times,serif" font-size="14.00">11</text>
</g>
<!-- 9&#45;&gt;11 -->
<g id="edge12" class="edge"><title>9&#45;&gt;11</title>
<path fill="none" stroke="black" d="M79.9456,-310.871C86.964,-286.564 99.8833,-241.819 108.2,-213.013"/>
<polygon fill="black" stroke="black" points="111.625,-213.768 111.037,-203.189 104.9,-211.826 111.625,-213.768"/>
</g>
<!-- 12 -->
<g id="node13" class="node"><title>12</title>
<polygon fill="none" stroke="black" points="71,-203 17,-203 17,-167 71,-167 71,-203"/>
<text text-anchor="middle" x="44" y="-181.3" font-family="Times,serif" font-size="14.00">12</text>
</g>
<!-- 10&#45;&gt;12 -->
<g id="edge13" class="edge"><title>10&#45;&gt;12</title>
<path fill="none" stroke="black" d="M47.0112,-238.697C46.5704,-230.983 46.0407,-221.712 45.5493,-213.112"/>
<polygon fill="black" stroke="black" points="49.0423,-212.888 44.9774,-203.104 42.0537,-213.288 49.0423,-212.888"/>
</g>
<!-- 13 -->
<g id="node14" class="node"><title>13</title>
<polygon fill="none" stroke="black" points="143,-131 89,-131 89,-95 143,-95 143,-131"/>
<text text-anchor="middle" x="116" y="-109.3" font-family="Times,serif" font-size="14.00">13</text>
</g>
<!-- 11&#45;&gt;13 -->
<g id="edge14" class="edge"><title>11&#45;&gt;13</title>
<path fill="none" stroke="black" d="M116,-166.697C116,-158.983 116,-149.712 116,-141.112"/>
<polygon fill="black" stroke="black" points="119.5,-141.104 116,-131.104 112.5,-141.104 119.5,-141.104"/>
</g>
<!-- 14 -->
<g id="node15" class="node"><title>14</title>
<polygon fill="none" stroke="black" points="71,-131 17,-131 17,-95 71,-95 71,-131"/>
<text text-anchor="middle" x="44" y="-109.3" font-family="Times,serif" font-size="14.00">14</text>
</g>
<!-- 12&#45;&gt;14 -->
<g id="edge15" class="edge"><title>12&#45;&gt;14</title>
<path fill="none" stroke="black" d="M44,-166.697C44,-158.983 44,-149.712 44,-141.112"/>
<polygon fill="black" stroke="black" points="47.5001,-141.104 44,-131.104 40.5001,-141.104 47.5001,-141.104"/>
</g>
<!-- 15 -->
<g id="node16" class="node"><title>15</title>
<polygon fill="lightgray" stroke="black" points="107,-59 53,-59 53,-23 107,-23 107,-59"/>
<text text-anchor="middle" x="80" y="-37.3" font-family="Times,serif" font-size="14.00">15</text>
</g>
<!-- 13&#45;&gt;15 -->
<g id="edge16" class="edge"><title>13&#45;&gt;15</title>
<path fill="none" stroke="black" d="M107.101,-94.6966C103.003,-86.7284 98.0512,-77.0995 93.5073,-68.2641"/>
<polygon fill="black" stroke="black" points="96.4826,-66.3965 88.7965,-59.1043 90.2575,-69.598 96.4826,-66.3965"/>
</g>
<!-- 14&#45;&gt;15 -->
<g id="edge17" class="edge"><title>14&#45;&gt;15</title>
<path fill="none" stroke="black" d="M52.8989,-94.6966C56.9968,-86.7284 61.9488,-77.0995 66.4927,-68.2641"/>
<polygon fill="black" stroke="black" points="69.7425,-69.598 71.2035,-59.1043 63.5174,-66.3965 69.7425,-69.598"/>
</g>
</g>
</svg>
