<?xml version="1.0" encoding="UTF-8" standalone="no"?>
<!DOCTYPE svg PUBLIC "-//W3C//DTD SVG 1.1//EN"
 "http://www.w3.org/Graphics/SVG/1.1/DTD/svg11.dtd">
<!-- Generated by graphviz version 2.38.0 (20140413.2041)
 -->
<!-- Title: void quicksort(int[],int,int) Pages: 1 -->
<svg width="190pt" height="859pt"
 viewBox="0.00 0.00 190.00 859.00" xmlns="http://www.w3.org/2000/svg" xmlns:xlink="http://www.w3.org/1999/xlink">
<g id="graph0" class="graph" transform="scale(1 1) rotate(0) translate(4 855)">
<title>void quicksort(int[],int,int)</title>
<polygon fill="white" stroke="none" points="-4,4 -4,-855 186,-855 186,4 -4,4"/>
<text text-anchor="middle" x="91" y="-7.8" font-family="Times,serif" font-size="14.00">void quicksort(int[],int,int)</text>
<!-- 0 -->
<g id="node1" class="node"><title>0</title>
<polygon fill="gray" stroke="black" points="91,-851 37,-851 37,-815 91,-815 91,-851"/>
<text text-anchor="middle" x="64" y="-829.3" font-family="Times,serif" font-size="14.00">0</text>
</g>
<!-- 1 -->
<g id="node2" class="node"><title>1</title>
<polygon fill="none" stroke="black" points="55,-779 1,-779 1,-743 55,-743 55,-779"/>
<text text-anchor="middle" x="28" y="-757.3" font-family="Times,serif" font-size="14.00">1</text>
</g>
<!-- 0&#45;&gt;1 -->
<g id="edge1" class="edge"><title>0&#45;&gt;1</title>
<path fill="none" stroke="black" d="M55.1011,-814.697C51.0032,-806.728 46.0512,-797.1 41.5073,-788.264"/>
<polygon fill="black" stroke="black" points="44.4826,-786.396 36.7965,-779.104 38.2575,-789.598 44.4826,-786.396"/>
</g>
<!-- 2 -->
<g id="node3" class="node"><title>2</title>
<polygon fill="none" stroke="black" points="127,-779 73,-779 73,-743 127,-743 127,-779"/>
<text text-anchor="middle" x="100" y="-757.3" font-family="Times,serif" font-size="14.00">2</text>
</g>
<!-- 0&#45;&gt;2 -->
<g id="edge2" class="edge"><title>0&#45;&gt;2</title>
<path fill="none" stroke="black" d="M72.8989,-814.697C76.9968,-806.728 81.9488,-797.1 86.4927,-788.264"/>
<polygon fill="black" stroke="black" points="89.7425,-789.598 91.2035,-779.104 83.5174,-786.396 89.7425,-789.598"/>
</g>
<!-- 16 -->
<g id="node4" class="node"><title>16</title>
<polygon fill="none" stroke="black" points="55,-635 1,-635 1,-599 55,-599 55,-635"/>
<text text-anchor="middle" x="28" y="-613.3" font-family="Times,serif" font-size="14.00">16</text>
</g>
<!-- 1&#45;&gt;16 -->
<g id="edge3" class="edge"><title>1&#45;&gt;16</title>
<path fill="none" stroke="black" d="M28,-742.871C28,-718.67 28,-674.211 28,-645.393"/>
<polygon fill="black" stroke="black" points="31.5001,-645.189 28,-635.189 24.5001,-645.189 31.5001,-645.189"/>
</g>
<!-- 3 -->
<g id="node5" class="node"><title>3</title>
<polygon fill="none" stroke="black" points="154,-707 100,-707 100,-671 154,-671 154,-707"/>
<text text-anchor="middle" x="127" y="-685.3" font-family="Times,serif" font-size="14.00">3</text>
</g>
<!-- 2&#45;&gt;3 -->
<g id="edge4" class="edge"><title>2&#45;&gt;3</title>
<path fill="none" stroke="black" d="M106.674,-742.697C109.715,-734.813 113.383,-725.304 116.761,-716.546"/>
<polygon fill="black" stroke="black" points="120.069,-717.694 120.403,-707.104 113.538,-715.175 120.069,-717.694"/>
</g>
<!-- 17 -->
<g id="node18" class="node"><title>17</title>
<polygon fill="lightgray" stroke="black" points="54,-59 0,-59 0,-23 54,-23 54,-59"/>
<text text-anchor="middle" x="27" y="-37.3" font-family="Times,serif" font-size="14.00">17</text>
</g>
<!-- 16&#45;&gt;17 -->
<g id="edge21" class="edge"><title>16&#45;&gt;17</title>
<path fill="none" stroke="black" d="M22.3338,-598.728C14.1521,-572.21 0,-519.732 0,-474 0,-474 0,-474 0,-184 0,-143.502 10.73,-97.6322 18.6615,-69.2577"/>
<polygon fill="black" stroke="black" points="22.1288,-69.8654 21.5361,-59.2872 15.4028,-67.9262 22.1288,-69.8654"/>
</g>
<!-- 4 -->
<g id="node6" class="node"><title>4</title>
<polygon fill="none" stroke="black" points="154,-635 100,-635 100,-599 154,-599 154,-635"/>
<text text-anchor="middle" x="127" y="-613.3" font-family="Times,serif" font-size="14.00">4</text>
</g>
<!-- 3&#45;&gt;4 -->
<g id="edge5" class="edge"><title>3&#45;&gt;4</title>
<path fill="none" stroke="black" d="M127,-670.697C127,-662.983 127,-653.712 127,-645.112"/>
<polygon fill="black" stroke="black" points="130.5,-645.104 127,-635.104 123.5,-645.104 130.5,-645.104"/>
</g>
<!-- 5 -->
<g id="node7" class="node"><title>5</title>
<polygon fill="none" stroke="black" points="82,-563 28,-563 28,-527 82,-527 82,-563"/>
<text text-anchor="middle" x="55" y="-541.3" font-family="Times,serif" font-size="14.00">5</text>
</g>
<!-- 4&#45;&gt;5 -->
<g id="edge6" class="edge"><title>4&#45;&gt;5</title>
<path fill="none" stroke="black" d="M109.202,-598.697C100.396,-590.135 89.6179,-579.656 79.9989,-570.304"/>
<polygon fill="black" stroke="black" points="82.2028,-567.566 72.593,-563.104 77.3232,-572.585 82.2028,-567.566"/>
</g>
<!-- 6 -->
<g id="node8" class="node"><title>6</title>
<polygon fill="none" stroke="black" points="154,-563 100,-563 100,-527 154,-527 154,-563"/>
<text text-anchor="middle" x="127" y="-541.3" font-family="Times,serif" font-size="14.00">6</text>
</g>
<!-- 4&#45;&gt;6 -->
<g id="edge7" class="edge"><title>4&#45;&gt;6</title>
<path fill="none" stroke="black" d="M121.084,-598.697C120.289,-590.983 120.062,-581.712 120.405,-573.112"/>
<polygon fill="black" stroke="black" points="123.898,-573.324 121.105,-563.104 116.915,-572.836 123.898,-573.324"/>
</g>
<!-- 7 -->
<g id="node9" class="node"><title>7</title>
<polygon fill="none" stroke="black" points="118,-491 64,-491 64,-455 118,-455 118,-491"/>
<text text-anchor="middle" x="91" y="-469.3" font-family="Times,serif" font-size="14.00">7</text>
</g>
<!-- 5&#45;&gt;7 -->
<g id="edge8" class="edge"><title>5&#45;&gt;7</title>
<path fill="none" stroke="black" d="M63.8989,-526.697C67.9968,-518.728 72.9488,-509.1 77.4927,-500.264"/>
<polygon fill="black" stroke="black" points="80.7425,-501.598 82.2035,-491.104 74.5174,-498.396 80.7425,-501.598"/>
</g>
<!-- 6&#45;&gt;4 -->
<g id="edge9" class="edge"><title>6&#45;&gt;4</title>
<path fill="none" stroke="black" d="M132.895,-563.104C133.701,-570.791 133.937,-580.054 133.604,-588.665"/>
<polygon fill="black" stroke="black" points="130.109,-588.48 132.916,-598.697 137.092,-588.96 130.109,-588.48"/>
</g>
<!-- 8 -->
<g id="node10" class="node"><title>8</title>
<polygon fill="none" stroke="black" points="82,-419 28,-419 28,-383 82,-383 82,-419"/>
<text text-anchor="middle" x="55" y="-397.3" font-family="Times,serif" font-size="14.00">8</text>
</g>
<!-- 7&#45;&gt;8 -->
<g id="edge10" class="edge"><title>7&#45;&gt;8</title>
<path fill="none" stroke="black" d="M82.1011,-454.697C78.0032,-446.728 73.0512,-437.1 68.5073,-428.264"/>
<polygon fill="black" stroke="black" points="71.4826,-426.396 63.7965,-419.104 65.2575,-429.598 71.4826,-426.396"/>
</g>
<!-- 9 -->
<g id="node11" class="node"><title>9</title>
<polygon fill="none" stroke="black" points="154,-419 100,-419 100,-383 154,-383 154,-419"/>
<text text-anchor="middle" x="127" y="-397.3" font-family="Times,serif" font-size="14.00">9</text>
</g>
<!-- 7&#45;&gt;9 -->
<g id="edge11" class="edge"><title>7&#45;&gt;9</title>
<path fill="none" stroke="black" d="M93.9832,-454.697C97.294,-446.644 102.098,-436.894 107.091,-427.982"/>
<polygon fill="black" stroke="black" points="110.259,-429.499 112.308,-419.104 104.224,-425.952 110.259,-429.499"/>
</g>
<!-- 10 -->
<g id="node12" class="node"><title>10</title>
<polygon fill="none" stroke="black" points="82,-347 28,-347 28,-311 82,-311 82,-347"/>
<text text-anchor="middle" x="55" y="-325.3" font-family="Times,serif" font-size="14.00">10</text>
</g>
<!-- 8&#45;&gt;10 -->
<g id="edge12" class="edge"><title>8&#45;&gt;10</title>
<path fill="none" stroke="black" d="M55,-382.697C55,-374.983 55,-365.712 55,-357.112"/>
<polygon fill="black" stroke="black" points="58.5001,-357.104 55,-347.104 51.5001,-357.104 58.5001,-357.104"/>
</g>
<!-- 9&#45;&gt;7 -->
<g id="edge13" class="edge"><title>9&#45;&gt;7</title>
<path fill="none" stroke="black" d="M124.099,-419.104C120.812,-427.129 116.023,-436.871 111.033,-445.797"/>
<polygon fill="black" stroke="black" points="107.853,-444.3 105.815,-454.697 113.892,-447.84 107.853,-444.3"/>
</g>
<!-- 11 -->
<g id="node13" class="node"><title>11</title>
<polygon fill="none" stroke="black" points="82,-275 28,-275 28,-239 82,-239 82,-275"/>
<text text-anchor="middle" x="55" y="-253.3" font-family="Times,serif" font-size="14.00">11</text>
</g>
<!-- 10&#45;&gt;11 -->
<g id="edge14" class="edge"><title>10&#45;&gt;11</title>
<path fill="none" stroke="black" d="M55,-310.697C55,-302.983 55,-293.712 55,-285.112"/>
<polygon fill="black" stroke="black" points="58.5001,-285.104 55,-275.104 51.5001,-285.104 58.5001,-285.104"/>
</g>
<!-- 12 -->
<g id="node14" class="node"><title>12</title>
<polygon fill="none" stroke="black" points="154,-275 100,-275 100,-239 154,-239 154,-275"/>
<text text-anchor="middle" x="127" y="-253.3" font-family="Times,serif" font-size="14.00">12</text>
</g>
<!-- 10&#45;&gt;12 -->
<g id="edge15" class="edge"><title>10&#45;&gt;12</title>
<path fill="none" stroke="black" d="M72.7978,-310.697C81.604,-302.135 92.3821,-291.656 102.001,-282.304"/>
<polygon fill="black" stroke="black" points="104.677,-284.585 109.407,-275.104 99.7972,-279.566 104.677,-284.585"/>
</g>
<!-- 13 -->
<g id="node15" class="node"><title>13</title>
<polygon fill="none" stroke="black" points="82,-203 28,-203 28,-167 82,-167 82,-203"/>
<text text-anchor="middle" x="55" y="-181.3" font-family="Times,serif" font-size="14.00">13</text>
</g>
<!-- 11&#45;&gt;13 -->
<g id="edge16" class="edge"><title>11&#45;&gt;13</title>
<path fill="none" stroke="black" d="M55,-238.697C55,-230.983 55,-221.712 55,-213.112"/>
<polygon fill="black" stroke="black" points="58.5001,-213.104 55,-203.104 51.5001,-213.104 58.5001,-213.104"/>
</g>
<!-- 14 -->
<g id="node16" class="node"><title>14</title>
<polygon fill="none" stroke="black" points="181,-203 127,-203 127,-167 181,-167 181,-203"/>
<text text-anchor="middle" x="154" y="-181.3" font-family="Times,serif" font-size="14.00">14</text>
</g>
<!-- 12&#45;&gt;14 -->
<g id="edge17" class="edge"><title>12&#45;&gt;14</title>
<path fill="none" stroke="black" d="M133.674,-238.697C136.715,-230.813 140.383,-221.304 143.761,-212.546"/>
<polygon fill="black" stroke="black" points="147.069,-213.694 147.403,-203.104 140.538,-211.175 147.069,-213.694"/>
</g>
<!-- 15 -->
<g id="node17" class="node"><title>15</title>
<polygon fill="none" stroke="black" points="82,-131 28,-131 28,-95 82,-95 82,-131"/>
<text text-anchor="middle" x="55" y="-109.3" font-family="Times,serif" font-size="14.00">15</text>
</g>
<!-- 13&#45;&gt;15 -->
<g id="edge18" class="edge"><title>13&#45;&gt;15</title>
<path fill="none" stroke="black" d="M55,-166.697C55,-158.983 55,-149.712 55,-141.112"/>
<polygon fill="black" stroke="black" points="58.5001,-141.104 55,-131.104 51.5001,-141.104 58.5001,-141.104"/>
</g>
<!-- 14&#45;&gt;3 -->
<g id="edge19" class="edge"><title>14&#45;&gt;3</title>
<path fill="none" stroke="black" d="M159.666,-203.272C167.848,-229.79 182,-282.268 182,-328 182,-546 182,-546 182,-546 182,-586.447 178.881,-597.801 163,-635 158.916,-644.567 153.012,-654.216 147.162,-662.612"/>
<polygon fill="black" stroke="black" points="144.22,-660.706 141.165,-670.851 149.88,-664.826 144.22,-660.706"/>
</g>
<!-- 15&#45;&gt;17 -->
<g id="edge20" class="edge"><title>15&#45;&gt;17</title>
<path fill="none" stroke="black" d="M48.0786,-94.6966C44.9253,-86.8132 41.1217,-77.3042 37.6186,-68.5464"/>
<polygon fill="black" stroke="black" points="40.8054,-67.0892 33.8417,-59.1043 34.306,-69.689 40.8054,-67.0892"/>
</g>
</g>
</svg>
