<?xml version="1.0" encoding="UTF-8" standalone="no"?>
<!DOCTYPE svg PUBLIC "-//W3C//DTD SVG 1.1//EN"
 "http://www.w3.org/Graphics/SVG/1.1/DTD/svg11.dtd">
<!-- Generated by graphviz version 2.38.0 (20140413.2041)
 -->
<!-- Title: int median3(int[],int,int) Pages: 1 -->
<svg width="163pt" height="499pt"
 viewBox="0.00 0.00 163.00 499.00" xmlns="http://www.w3.org/2000/svg" xmlns:xlink="http://www.w3.org/1999/xlink">
<g id="graph0" class="graph" transform="scale(1 1) rotate(0) translate(4 495)">
<title>int median3(int[],int,int)</title>
<polygon fill="white" stroke="none" points="-4,4 -4,-495 159,-495 159,4 -4,4"/>
<text text-anchor="middle" x="77.5" y="-7.8" font-family="Times,serif" font-size="14.00">int median3(int[],int,int)</text>
<!-- 0 -->
<g id="node1" class="node"><title>0</title>
<polygon fill="gray" stroke="black" points="104.5,-491 50.5,-491 50.5,-455 104.5,-455 104.5,-491"/>
<text text-anchor="middle" x="77.5" y="-469.3" font-family="Times,serif" font-size="14.00">0</text>
</g>
<!-- 1 -->
<g id="node2" class="node"><title>1</title>
<polygon fill="none" stroke="black" points="68.5,-419 14.5,-419 14.5,-383 68.5,-383 68.5,-419"/>
<text text-anchor="middle" x="41.5" y="-397.3" font-family="Times,serif" font-size="14.00">1</text>
</g>
<!-- 0&#45;&gt;1 -->
<g id="edge1" class="edge"><title>0&#45;&gt;1</title>
<path fill="none" stroke="black" d="M68.6011,-454.697C64.5032,-446.728 59.5512,-437.1 55.0073,-428.264"/>
<polygon fill="black" stroke="black" points="57.9826,-426.396 50.2965,-419.104 51.7575,-429.598 57.9826,-426.396"/>
</g>
<!-- 2 -->
<g id="node3" class="node"><title>2</title>
<polygon fill="none" stroke="black" points="140.5,-419 86.5,-419 86.5,-383 140.5,-383 140.5,-419"/>
<text text-anchor="middle" x="113.5" y="-397.3" font-family="Times,serif" font-size="14.00">2</text>
</g>
<!-- 0&#45;&gt;2 -->
<g id="edge2" class="edge"><title>0&#45;&gt;2</title>
<path fill="none" stroke="black" d="M86.3989,-454.697C90.4968,-446.728 95.4488,-437.1 99.9927,-428.264"/>
<polygon fill="black" stroke="black" points="103.242,-429.598 104.703,-419.104 97.0174,-426.396 103.242,-429.598"/>
</g>
<!-- 3 -->
<g id="node4" class="node"><title>3</title>
<polygon fill="none" stroke="black" points="104.5,-347 50.5,-347 50.5,-311 104.5,-311 104.5,-347"/>
<text text-anchor="middle" x="77.5" y="-325.3" font-family="Times,serif" font-size="14.00">3</text>
</g>
<!-- 1&#45;&gt;3 -->
<g id="edge3" class="edge"><title>1&#45;&gt;3</title>
<path fill="none" stroke="black" d="M50.3989,-382.697C54.4968,-374.728 59.4488,-365.1 63.9927,-356.264"/>
<polygon fill="black" stroke="black" points="67.2425,-357.598 68.7035,-347.104 61.0174,-354.396 67.2425,-357.598"/>
</g>
<!-- 2&#45;&gt;3 -->
<g id="edge4" class="edge"><title>2&#45;&gt;3</title>
<path fill="none" stroke="black" d="M104.601,-382.697C100.503,-374.728 95.5512,-365.1 91.0073,-356.264"/>
<polygon fill="black" stroke="black" points="93.9826,-354.396 86.2965,-347.104 87.7575,-357.598 93.9826,-354.396"/>
</g>
<!-- 4 -->
<g id="node5" class="node"><title>4</title>
<polygon fill="none" stroke="black" points="68.5,-275 14.5,-275 14.5,-239 68.5,-239 68.5,-275"/>
<text text-anchor="middle" x="41.5" y="-253.3" font-family="Times,serif" font-size="14.00">4</text>
</g>
<!-- 3&#45;&gt;4 -->
<g id="edge5" class="edge"><title>3&#45;&gt;4</title>
<path fill="none" stroke="black" d="M68.6011,-310.697C64.5032,-302.728 59.5512,-293.1 55.0073,-284.264"/>
<polygon fill="black" stroke="black" points="57.9826,-282.396 50.2965,-275.104 51.7575,-285.598 57.9826,-282.396"/>
</g>
<!-- 5 -->
<g id="node6" class="node"><title>5</title>
<polygon fill="none" stroke="black" points="140.5,-275 86.5,-275 86.5,-239 140.5,-239 140.5,-275"/>
<text text-anchor="middle" x="113.5" y="-253.3" font-family="Times,serif" font-size="14.00">5</text>
</g>
<!-- 3&#45;&gt;5 -->
<g id="edge6" class="edge"><title>3&#45;&gt;5</title>
<path fill="none" stroke="black" d="M86.3989,-310.697C90.4968,-302.728 95.4488,-293.1 99.9927,-284.264"/>
<polygon fill="black" stroke="black" points="103.242,-285.598 104.703,-275.104 97.0174,-282.396 103.242,-285.598"/>
</g>
<!-- 6 -->
<g id="node7" class="node"><title>6</title>
<polygon fill="none" stroke="black" points="104.5,-203 50.5,-203 50.5,-167 104.5,-167 104.5,-203"/>
<text text-anchor="middle" x="77.5" y="-181.3" font-family="Times,serif" font-size="14.00">6</text>
</g>
<!-- 4&#45;&gt;6 -->
<g id="edge7" class="edge"><title>4&#45;&gt;6</title>
<path fill="none" stroke="black" d="M50.3989,-238.697C54.4968,-230.728 59.4488,-221.1 63.9927,-212.264"/>
<polygon fill="black" stroke="black" points="67.2425,-213.598 68.7035,-203.104 61.0174,-210.396 67.2425,-213.598"/>
</g>
<!-- 5&#45;&gt;6 -->
<g id="edge8" class="edge"><title>5&#45;&gt;6</title>
<path fill="none" stroke="black" d="M104.601,-238.697C100.503,-230.728 95.5512,-221.1 91.0073,-212.264"/>
<polygon fill="black" stroke="black" points="93.9826,-210.396 86.2965,-203.104 87.7575,-213.598 93.9826,-210.396"/>
</g>
<!-- 7 -->
<g id="node8" class="node"><title>7</title>
<polygon fill="none" stroke="black" points="68.5,-131 14.5,-131 14.5,-95 68.5,-95 68.5,-131"/>
<text text-anchor="middle" x="41.5" y="-109.3" font-family="Times,serif" font-size="14.00">7</text>
</g>
<!-- 6&#45;&gt;7 -->
<g id="edge9" class="edge"><title>6&#45;&gt;7</title>
<path fill="none" stroke="black" d="M68.6011,-166.697C64.5032,-158.728 59.5512,-149.1 55.0073,-140.264"/>
<polygon fill="black" stroke="black" points="57.9826,-138.396 50.2965,-131.104 51.7575,-141.598 57.9826,-138.396"/>
</g>
<!-- 8 -->
<g id="node9" class="node"><title>8</title>
<polygon fill="none" stroke="black" points="140.5,-131 86.5,-131 86.5,-95 140.5,-95 140.5,-131"/>
<text text-anchor="middle" x="113.5" y="-109.3" font-family="Times,serif" font-size="14.00">8</text>
</g>
<!-- 6&#45;&gt;8 -->
<g id="edge10" class="edge"><title>6&#45;&gt;8</title>
<path fill="none" stroke="black" d="M86.3989,-166.697C90.4968,-158.728 95.4488,-149.1 99.9927,-140.264"/>
<polygon fill="black" stroke="black" points="103.242,-141.598 104.703,-131.104 97.0174,-138.396 103.242,-141.598"/>
</g>
<!-- 9 -->
<g id="node10" class="node"><title>9</title>
<polygon fill="lightgray" stroke="black" points="104.5,-59 50.5,-59 50.5,-23 104.5,-23 104.5,-59"/>
<text text-anchor="middle" x="77.5" y="-37.3" font-family="Times,serif" font-size="14.00">9</text>
</g>
<!-- 7&#45;&gt;9 -->
<g id="edge11" class="edge"><title>7&#45;&gt;9</title>
<path fill="none" stroke="black" d="M50.3989,-94.6966C54.4968,-86.7284 59.4488,-77.0995 63.9927,-68.2641"/>
<polygon fill="black" stroke="black" points="67.2425,-69.598 68.7035,-59.1043 61.0174,-66.3965 67.2425,-69.598"/>
</g>
<!-- 8&#45;&gt;9 -->
<g id="edge12" class="edge"><title>8&#45;&gt;9</title>
<path fill="none" stroke="black" d="M104.601,-94.6966C100.503,-86.7284 95.5512,-77.0995 91.0073,-68.2641"/>
<polygon fill="black" stroke="black" points="93.9826,-66.3965 86.2965,-59.1043 87.7575,-69.598 93.9826,-66.3965"/>
</g>
</g>
</svg>
