<?xml version="1.0" encoding="UTF-8" standalone="no"?>
<!DOCTYPE svg PUBLIC "-//W3C//DTD SVG 1.1//EN"
 "http://www.w3.org/Graphics/SVG/1.1/DTD/svg11.dtd">
<!-- Generated by graphviz version 2.38.0 (20140413.2041)
 -->
<!-- Title: void insertionSort(int[],int,int) Pages: 1 -->
<svg width="218pt" height="499pt"
 viewBox="0.00 0.00 218.47 499.00" xmlns="http://www.w3.org/2000/svg" xmlns:xlink="http://www.w3.org/1999/xlink">
<g id="graph0" class="graph" transform="scale(1 1) rotate(0) translate(4 495)">
<title>void insertionSort(int[],int,int)</title>
<polygon fill="white" stroke="none" points="-4,4 -4,-495 214.469,-495 214.469,4 -4,4"/>
<text text-anchor="middle" x="105.235" y="-7.8" font-family="Times,serif" font-size="14.00">void insertionSort(int[],int,int)</text>
<!-- 0 -->
<g id="node1" class="node"><title>0</title>
<polygon fill="gray" stroke="black" points="154,-491 100,-491 100,-455 154,-455 154,-491"/>
<text text-anchor="middle" x="127" y="-469.3" font-family="Times,serif" font-size="14.00">0</text>
</g>
<!-- 1 -->
<g id="node2" class="node"><title>1</title>
<polygon fill="none" stroke="black" points="154,-419 100,-419 100,-383 154,-383 154,-419"/>
<text text-anchor="middle" x="127" y="-397.3" font-family="Times,serif" font-size="14.00">1</text>
</g>
<!-- 0&#45;&gt;1 -->
<g id="edge1" class="edge"><title>0&#45;&gt;1</title>
<path fill="none" stroke="black" d="M127,-454.697C127,-446.983 127,-437.712 127,-429.112"/>
<polygon fill="black" stroke="black" points="130.5,-429.104 127,-419.104 123.5,-429.104 130.5,-429.104"/>
</g>
<!-- 2 -->
<g id="node3" class="node"><title>2</title>
<polygon fill="none" stroke="black" points="82,-347 28,-347 28,-311 82,-311 82,-347"/>
<text text-anchor="middle" x="55" y="-325.3" font-family="Times,serif" font-size="14.00">2</text>
</g>
<!-- 1&#45;&gt;2 -->
<g id="edge2" class="edge"><title>1&#45;&gt;2</title>
<path fill="none" stroke="black" d="M109.202,-382.697C100.396,-374.135 89.6179,-363.656 79.9989,-354.304"/>
<polygon fill="black" stroke="black" points="82.2028,-351.566 72.593,-347.104 77.3232,-356.585 82.2028,-351.566"/>
</g>
<!-- 3 -->
<g id="node4" class="node"><title>3</title>
<polygon fill="none" stroke="black" points="154,-347 100,-347 100,-311 154,-311 154,-347"/>
<text text-anchor="middle" x="127" y="-325.3" font-family="Times,serif" font-size="14.00">3</text>
</g>
<!-- 1&#45;&gt;3 -->
<g id="edge3" class="edge"><title>1&#45;&gt;3</title>
<path fill="none" stroke="black" d="M127,-382.697C127,-374.983 127,-365.712 127,-357.112"/>
<polygon fill="black" stroke="black" points="130.5,-357.104 127,-347.104 123.5,-357.104 130.5,-357.104"/>
</g>
<!-- 10 -->
<g id="node5" class="node"><title>10</title>
<polygon fill="lightgray" stroke="black" points="82,-275 28,-275 28,-239 82,-239 82,-275"/>
<text text-anchor="middle" x="55" y="-253.3" font-family="Times,serif" font-size="14.00">10</text>
</g>
<!-- 2&#45;&gt;10 -->
<g id="edge4" class="edge"><title>2&#45;&gt;10</title>
<path fill="none" stroke="black" d="M55,-310.697C55,-302.983 55,-293.712 55,-285.112"/>
<polygon fill="black" stroke="black" points="58.5001,-285.104 55,-275.104 51.5001,-285.104 58.5001,-285.104"/>
</g>
<!-- 4 -->
<g id="node6" class="node"><title>4</title>
<polygon fill="none" stroke="black" points="154,-275 100,-275 100,-239 154,-239 154,-275"/>
<text text-anchor="middle" x="127" y="-253.3" font-family="Times,serif" font-size="14.00">4</text>
</g>
<!-- 3&#45;&gt;4 -->
<g id="edge5" class="edge"><title>3&#45;&gt;4</title>
<path fill="none" stroke="black" d="M127,-310.697C127,-302.983 127,-293.712 127,-285.112"/>
<polygon fill="black" stroke="black" points="130.5,-285.104 127,-275.104 123.5,-285.104 130.5,-285.104"/>
</g>
<!-- 5 -->
<g id="node7" class="node"><title>5</title>
<polygon fill="none" stroke="black" points="54,-203 0,-203 0,-167 54,-167 54,-203"/>
<text text-anchor="middle" x="27" y="-181.3" font-family="Times,serif" font-size="14.00">5</text>
</g>
<!-- 4&#45;&gt;5 -->
<g id="edge6" class="edge"><title>4&#45;&gt;5</title>
<path fill="none" stroke="black" d="M102.537,-238.876C89.7044,-229.893 73.8036,-218.763 59.9059,-209.034"/>
<polygon fill="black" stroke="black" points="61.7563,-206.057 51.5568,-203.19 57.742,-211.792 61.7563,-206.057"/>
</g>
<!-- 6 -->
<g id="node8" class="node"><title>6</title>
<polygon fill="none" stroke="black" points="126,-203 72,-203 72,-167 126,-167 126,-203"/>
<text text-anchor="middle" x="99" y="-181.3" font-family="Times,serif" font-size="14.00">6</text>
</g>
<!-- 4&#45;&gt;6 -->
<g id="edge7" class="edge"><title>4&#45;&gt;6</title>
<path fill="none" stroke="black" d="M120.079,-238.697C116.925,-230.813 113.122,-221.304 109.619,-212.546"/>
<polygon fill="black" stroke="black" points="112.805,-211.089 105.842,-203.104 106.306,-213.689 112.805,-211.089"/>
</g>
<!-- 9 -->
<g id="node9" class="node"><title>9</title>
<polygon fill="none" stroke="black" points="109,-59 55,-59 55,-23 109,-23 109,-59"/>
<text text-anchor="middle" x="82" y="-37.3" font-family="Times,serif" font-size="14.00">9</text>
</g>
<!-- 5&#45;&gt;9 -->
<g id="edge8" class="edge"><title>5&#45;&gt;9</title>
<path fill="none" stroke="black" d="M28.6972,-166.674C30.9505,-148.29 35.8884,-118.685 46,-95 50.0842,-85.4333 55.9884,-75.7836 61.8379,-67.3881"/>
<polygon fill="black" stroke="black" points="64.7797,-69.2938 67.8353,-59.1492 59.1203,-65.1741 64.7797,-69.2938"/>
</g>
<!-- 7 -->
<g id="node10" class="node"><title>7</title>
<polygon fill="none" stroke="black" points="109,-131 55,-131 55,-95 109,-95 109,-131"/>
<text text-anchor="middle" x="82" y="-109.3" font-family="Times,serif" font-size="14.00">7</text>
</g>
<!-- 6&#45;&gt;7 -->
<g id="edge9" class="edge"><title>6&#45;&gt;7</title>
<path fill="none" stroke="black" d="M94.7978,-166.697C92.9038,-158.898 90.6235,-149.509 88.5157,-140.829"/>
<polygon fill="black" stroke="black" points="91.9151,-139.996 86.1539,-131.104 85.1128,-141.648 91.9151,-139.996"/>
</g>
<!-- 8 -->
<g id="node11" class="node"><title>8</title>
<polygon fill="none" stroke="black" points="181,-131 127,-131 127,-95 181,-95 181,-131"/>
<text text-anchor="middle" x="154" y="-109.3" font-family="Times,serif" font-size="14.00">8</text>
</g>
<!-- 6&#45;&gt;8 -->
<g id="edge10" class="edge"><title>6&#45;&gt;8</title>
<path fill="none" stroke="black" d="M112.596,-166.697C119.123,-158.389 127.068,-148.277 134.247,-139.141"/>
<polygon fill="black" stroke="black" points="137.135,-141.13 140.561,-131.104 131.631,-136.805 137.135,-141.13"/>
</g>
<!-- 9&#45;&gt;1 -->
<g id="edge13" class="edge"><title>9&#45;&gt;1</title>
<path fill="none" stroke="black" d="M109.39,-48.1831C134.239,-55.2483 169.96,-69.3094 190,-95 214.877,-126.892 209,-143.553 209,-184 209,-258 209,-258 209,-258 209,-304.12 176.16,-348.736 152.045,-375.281"/>
<polygon fill="black" stroke="black" points="149.475,-372.905 145.198,-382.598 154.587,-377.688 149.475,-372.905"/>
</g>
<!-- 7&#45;&gt;9 -->
<g id="edge11" class="edge"><title>7&#45;&gt;9</title>
<path fill="none" stroke="black" d="M82,-94.6966C82,-86.9827 82,-77.7125 82,-69.1124"/>
<polygon fill="black" stroke="black" points="85.5001,-69.1043 82,-59.1043 78.5001,-69.1044 85.5001,-69.1043"/>
</g>
<!-- 8&#45;&gt;4 -->
<g id="edge12" class="edge"><title>8&#45;&gt;4</title>
<path fill="none" stroke="black" d="M150.732,-131.189C146.124,-155.424 137.669,-199.888 132.195,-228.679"/>
<polygon fill="black" stroke="black" points="128.686,-228.394 130.257,-238.871 135.563,-229.701 128.686,-228.394"/>
</g>
</g>
</svg>
