<?xml version="1.0" encoding="UTF-8" standalone="no"?>
<!DOCTYPE svg PUBLIC "-//W3C//DTD SVG 1.1//EN"
 "http://www.w3.org/Graphics/SVG/1.1/DTD/svg11.dtd">
<!-- Generated by graphviz version 2.38.0 (20140413.2041)
 -->
<!-- Title: boolean isSorted(int[]) Pages: 1 -->
<svg width="218pt" height="355pt"
 viewBox="0.00 0.00 218.25 355.00" xmlns="http://www.w3.org/2000/svg" xmlns:xlink="http://www.w3.org/1999/xlink">
<g id="graph0" class="graph" transform="scale(1 1) rotate(0) translate(4 351)">
<title>boolean isSorted(int[])</title>
<polygon fill="white" stroke="none" points="-4,4 -4,-351 214.247,-351 214.247,4 -4,4"/>
<text text-anchor="middle" x="105.123" y="-7.8" font-family="Times,serif" font-size="14.00">boolean isSorted(int[])</text>
<!-- 0 -->
<g id="node1" class="node"><title>0</title>
<polygon fill="gray" stroke="black" points="180,-347 126,-347 126,-311 180,-311 180,-347"/>
<text text-anchor="middle" x="153" y="-325.3" font-family="Times,serif" font-size="14.00">0</text>
</g>
<!-- 1 -->
<g id="node2" class="node"><title>1</title>
<polygon fill="none" stroke="black" points="180,-275 126,-275 126,-239 180,-239 180,-275"/>
<text text-anchor="middle" x="153" y="-253.3" font-family="Times,serif" font-size="14.00">1</text>
</g>
<!-- 0&#45;&gt;1 -->
<g id="edge1" class="edge"><title>0&#45;&gt;1</title>
<path fill="none" stroke="black" d="M153,-310.697C153,-302.983 153,-293.712 153,-285.112"/>
<polygon fill="black" stroke="black" points="156.5,-285.104 153,-275.104 149.5,-285.104 156.5,-285.104"/>
</g>
<!-- 2 -->
<g id="node3" class="node"><title>2</title>
<polygon fill="none" stroke="black" points="72,-203 18,-203 18,-167 72,-167 72,-203"/>
<text text-anchor="middle" x="45" y="-181.3" font-family="Times,serif" font-size="14.00">2</text>
</g>
<!-- 1&#45;&gt;2 -->
<g id="edge2" class="edge"><title>1&#45;&gt;2</title>
<path fill="none" stroke="black" d="M126.58,-238.876C112.59,-229.808 95.2236,-218.552 80.1142,-208.759"/>
<polygon fill="black" stroke="black" points="81.8165,-205.692 71.5213,-203.19 78.0092,-211.566 81.8165,-205.692"/>
</g>
<!-- 3 -->
<g id="node4" class="node"><title>3</title>
<polygon fill="none" stroke="black" points="180,-203 126,-203 126,-167 180,-167 180,-203"/>
<text text-anchor="middle" x="153" y="-181.3" font-family="Times,serif" font-size="14.00">3</text>
</g>
<!-- 1&#45;&gt;3 -->
<g id="edge3" class="edge"><title>1&#45;&gt;3</title>
<path fill="none" stroke="black" d="M153,-238.697C153,-230.983 153,-221.712 153,-213.112"/>
<polygon fill="black" stroke="black" points="156.5,-213.104 153,-203.104 149.5,-213.104 156.5,-213.104"/>
</g>
<!-- 7 -->
<g id="node5" class="node"><title>7</title>
<polygon fill="lightgray" stroke="black" points="54,-131 0,-131 0,-95 54,-95 54,-131"/>
<text text-anchor="middle" x="27" y="-109.3" font-family="Times,serif" font-size="14.00">7</text>
</g>
<!-- 2&#45;&gt;7 -->
<g id="edge4" class="edge"><title>2&#45;&gt;7</title>
<path fill="none" stroke="black" d="M40.5506,-166.697C38.5452,-158.898 36.1308,-149.509 33.8989,-140.829"/>
<polygon fill="black" stroke="black" points="37.2785,-139.918 31.3983,-131.104 30.499,-141.661 37.2785,-139.918"/>
</g>
<!-- 4 -->
<g id="node6" class="node"><title>4</title>
<polygon fill="none" stroke="black" points="126,-131 72,-131 72,-95 126,-95 126,-131"/>
<text text-anchor="middle" x="99" y="-109.3" font-family="Times,serif" font-size="14.00">4</text>
</g>
<!-- 3&#45;&gt;4 -->
<g id="edge5" class="edge"><title>3&#45;&gt;4</title>
<path fill="none" stroke="black" d="M139.652,-166.697C133.243,-158.389 125.442,-148.277 118.394,-139.141"/>
<polygon fill="black" stroke="black" points="121.074,-136.884 112.195,-131.104 115.532,-141.16 121.074,-136.884"/>
</g>
<!-- 5 -->
<g id="node7" class="node"><title>5</title>
<polygon fill="lightgray" stroke="black" points="198,-131 144,-131 144,-95 198,-95 198,-131"/>
<text text-anchor="middle" x="171" y="-109.3" font-family="Times,serif" font-size="14.00">5</text>
</g>
<!-- 3&#45;&gt;5 -->
<g id="edge6" class="edge"><title>3&#45;&gt;5</title>
<path fill="none" stroke="black" d="M157.449,-166.697C159.455,-158.898 161.869,-149.509 164.101,-140.829"/>
<polygon fill="black" stroke="black" points="167.501,-141.661 166.602,-131.104 160.722,-139.918 167.501,-141.661"/>
</g>
<!-- 6 -->
<g id="node8" class="node"><title>6</title>
<polygon fill="none" stroke="black" points="189,-59 135,-59 135,-23 189,-23 189,-59"/>
<text text-anchor="middle" x="162" y="-37.3" font-family="Times,serif" font-size="14.00">6</text>
</g>
<!-- 4&#45;&gt;6 -->
<g id="edge7" class="edge"><title>4&#45;&gt;6</title>
<path fill="none" stroke="black" d="M114.573,-94.6966C122.202,-86.2198 131.523,-75.8636 139.876,-66.5826"/>
<polygon fill="black" stroke="black" points="142.518,-68.8787 146.606,-59.1043 137.315,-64.1959 142.518,-68.8787"/>
</g>
<!-- 6&#45;&gt;1 -->
<g id="edge8" class="edge"><title>6&#45;&gt;1</title>
<path fill="none" stroke="black" d="M182.379,-59.469C191.807,-68.9079 202.006,-81.4032 207,-95 212.516,-110.019 208.955,-115.12 207,-131 202.97,-163.738 202.475,-172.893 189,-203 184.751,-212.495 178.802,-222.125 172.963,-230.525"/>
<polygon fill="black" stroke="black" points="170.019,-228.622 166.993,-238.776 175.69,-232.726 170.019,-228.622"/>
</g>
</g>
</svg>
