<?xml version="1.0" encoding="UTF-8" standalone="no"?>
<!DOCTYPE svg PUBLIC "-//W3C//DTD SVG 1.1//EN"
 "http://www.w3.org/Graphics/SVG/1.1/DTD/svg11.dtd">
<!-- Generated by graphviz version 2.38.0 (20140413.2041)
 -->
<!-- Title: boolean equals(java.lang.Object) Pages: 1 -->
<svg width="211pt" height="643pt"
 viewBox="0.00 0.00 211.00 643.00" xmlns="http://www.w3.org/2000/svg" xmlns:xlink="http://www.w3.org/1999/xlink">
<g id="graph0" class="graph" transform="scale(1 1) rotate(0) translate(4 639)">
<title>boolean equals(java.lang.Object)</title>
<polygon fill="white" stroke="none" points="-4,4 -4,-639 207,-639 207,4 -4,4"/>
<text text-anchor="middle" x="101.5" y="-7.8" font-family="Times,serif" font-size="14.00">boolean equals(java.lang.Object)</text>
<!-- 0 -->
<g id="node1" class="node"><title>0</title>
<polygon fill="gray" stroke="black" points="179.5,-635 125.5,-635 125.5,-599 179.5,-599 179.5,-635"/>
<text text-anchor="middle" x="152.5" y="-613.3" font-family="Times,serif" font-size="14.00">0</text>
</g>
<!-- 1 -->
<g id="node2" class="node"><title>1</title>
<polygon fill="none" stroke="black" points="152.5,-563 98.5,-563 98.5,-527 152.5,-527 152.5,-563"/>
<text text-anchor="middle" x="125.5" y="-541.3" font-family="Times,serif" font-size="14.00">1</text>
</g>
<!-- 0&#45;&gt;1 -->
<g id="edge1" class="edge"><title>0&#45;&gt;1</title>
<path fill="none" stroke="black" d="M145.826,-598.697C142.785,-590.813 139.117,-581.304 135.739,-572.546"/>
<polygon fill="black" stroke="black" points="138.962,-571.175 132.097,-563.104 132.431,-573.694 138.962,-571.175"/>
</g>
<!-- 9 -->
<g id="node3" class="node"><title>9</title>
<polygon fill="lightgray" stroke="black" points="158.5,-131 104.5,-131 104.5,-95 158.5,-95 158.5,-131"/>
<text text-anchor="middle" x="131.5" y="-109.3" font-family="Times,serif" font-size="14.00">9</text>
</g>
<!-- 0&#45;&gt;9 -->
<g id="edge2" class="edge"><title>0&#45;&gt;9</title>
<path fill="none" stroke="black" d="M158.166,-598.728C166.348,-572.21 180.5,-519.732 180.5,-474 180.5,-474 180.5,-474 180.5,-256 180.5,-213.775 160.9,-168.16 146.492,-140.334"/>
<polygon fill="black" stroke="black" points="149.449,-138.442 141.653,-131.268 143.274,-141.738 149.449,-138.442"/>
</g>
<!-- 2 -->
<g id="node4" class="node"><title>2</title>
<polygon fill="none" stroke="black" points="152.5,-491 98.5,-491 98.5,-455 152.5,-455 152.5,-491"/>
<text text-anchor="middle" x="125.5" y="-469.3" font-family="Times,serif" font-size="14.00">2</text>
</g>
<!-- 1&#45;&gt;2 -->
<g id="edge3" class="edge"><title>1&#45;&gt;2</title>
<path fill="none" stroke="black" d="M125.5,-526.697C125.5,-518.983 125.5,-509.712 125.5,-501.112"/>
<polygon fill="black" stroke="black" points="129,-501.104 125.5,-491.104 122,-501.104 129,-501.104"/>
</g>
<!-- 2&#45;&gt;9 -->
<g id="edge5" class="edge"><title>2&#45;&gt;9</title>
<path fill="none" stroke="black" d="M128.94,-454.592C133.908,-427.896 142.5,-375.188 142.5,-330 142.5,-330 142.5,-330 142.5,-256 142.5,-215.876 138.08,-169.565 134.844,-141.032"/>
<polygon fill="black" stroke="black" points="138.311,-140.542 133.673,-131.016 131.358,-141.355 138.311,-140.542"/>
</g>
<!-- 3 -->
<g id="node5" class="node"><title>3</title>
<polygon fill="none" stroke="black" points="114.5,-419 60.5,-419 60.5,-383 114.5,-383 114.5,-419"/>
<text text-anchor="middle" x="87.5" y="-397.3" font-family="Times,serif" font-size="14.00">3</text>
</g>
<!-- 2&#45;&gt;3 -->
<g id="edge4" class="edge"><title>2&#45;&gt;3</title>
<path fill="none" stroke="black" d="M116.107,-454.697C111.735,-446.644 106.443,-436.894 101.605,-427.982"/>
<polygon fill="black" stroke="black" points="104.632,-426.223 96.7852,-419.104 98.4802,-429.563 104.632,-426.223"/>
</g>
<!-- 4 -->
<g id="node6" class="node"><title>4</title>
<polygon fill="none" stroke="black" points="114.5,-347 60.5,-347 60.5,-311 114.5,-311 114.5,-347"/>
<text text-anchor="middle" x="87.5" y="-325.3" font-family="Times,serif" font-size="14.00">4</text>
</g>
<!-- 3&#45;&gt;4 -->
<g id="edge6" class="edge"><title>3&#45;&gt;4</title>
<path fill="none" stroke="black" d="M87.5,-382.697C87.5,-374.983 87.5,-365.712 87.5,-357.112"/>
<polygon fill="black" stroke="black" points="91.0001,-357.104 87.5,-347.104 84.0001,-357.104 91.0001,-357.104"/>
</g>
<!-- 4&#45;&gt;9 -->
<g id="edge8" class="edge"><title>4&#45;&gt;9</title>
<path fill="none" stroke="black" d="M91.0263,-310.849C98.6535,-273.753 116.735,-185.81 125.927,-141.103"/>
<polygon fill="black" stroke="black" points="129.371,-141.732 127.957,-131.232 122.515,-140.323 129.371,-141.732"/>
</g>
<!-- 5 -->
<g id="node7" class="node"><title>5</title>
<polygon fill="none" stroke="black" points="76.5,-275 22.5,-275 22.5,-239 76.5,-239 76.5,-275"/>
<text text-anchor="middle" x="49.5" y="-253.3" font-family="Times,serif" font-size="14.00">5</text>
</g>
<!-- 4&#45;&gt;5 -->
<g id="edge7" class="edge"><title>4&#45;&gt;5</title>
<path fill="none" stroke="black" d="M78.1067,-310.697C73.7351,-302.644 68.4427,-292.894 63.6047,-283.982"/>
<polygon fill="black" stroke="black" points="66.6322,-282.223 58.7852,-275.104 60.4802,-285.563 66.6322,-282.223"/>
</g>
<!-- 6 -->
<g id="node8" class="node"><title>6</title>
<polygon fill="none" stroke="black" points="76.5,-203 22.5,-203 22.5,-167 76.5,-167 76.5,-203"/>
<text text-anchor="middle" x="49.5" y="-181.3" font-family="Times,serif" font-size="14.00">6</text>
</g>
<!-- 5&#45;&gt;6 -->
<g id="edge9" class="edge"><title>5&#45;&gt;6</title>
<path fill="none" stroke="black" d="M49.5,-238.697C49.5,-230.983 49.5,-221.712 49.5,-213.112"/>
<polygon fill="black" stroke="black" points="53.0001,-213.104 49.5,-203.104 46.0001,-213.104 53.0001,-213.104"/>
</g>
<!-- 6&#45;&gt;9 -->
<g id="edge11" class="edge"><title>6&#45;&gt;9</title>
<path fill="none" stroke="black" d="M69.7697,-166.697C79.9976,-157.965 92.5611,-147.24 103.678,-137.75"/>
<polygon fill="black" stroke="black" points="106.13,-140.259 111.463,-131.104 101.585,-134.935 106.13,-140.259"/>
</g>
<!-- 7 -->
<g id="node9" class="node"><title>7</title>
<polygon fill="none" stroke="black" points="76.5,-131 22.5,-131 22.5,-95 76.5,-95 76.5,-131"/>
<text text-anchor="middle" x="49.5" y="-109.3" font-family="Times,serif" font-size="14.00">7</text>
</g>
<!-- 6&#45;&gt;7 -->
<g id="edge10" class="edge"><title>6&#45;&gt;7</title>
<path fill="none" stroke="black" d="M49.5,-166.697C49.5,-158.983 49.5,-149.712 49.5,-141.112"/>
<polygon fill="black" stroke="black" points="53.0001,-141.104 49.5,-131.104 46.0001,-141.104 53.0001,-141.104"/>
</g>
<!-- 8 -->
<g id="node10" class="node"><title>8</title>
<polygon fill="lightgray" stroke="black" points="76.5,-59 22.5,-59 22.5,-23 76.5,-23 76.5,-59"/>
<text text-anchor="middle" x="49.5" y="-37.3" font-family="Times,serif" font-size="14.00">8</text>
</g>
<!-- 7&#45;&gt;8 -->
<g id="edge12" class="edge"><title>7&#45;&gt;8</title>
<path fill="none" stroke="black" d="M49.5,-94.6966C49.5,-86.9827 49.5,-77.7125 49.5,-69.1124"/>
<polygon fill="black" stroke="black" points="53.0001,-69.1043 49.5,-59.1043 46.0001,-69.1044 53.0001,-69.1043"/>
</g>
</g>
</svg>
