<?xml version="1.0" encoding="UTF-8" standalone="no"?>
<!DOCTYPE svg PUBLIC "-//W3C//DTD SVG 1.1//EN"
 "http://www.w3.org/Graphics/SVG/1.1/DTD/svg11.dtd">
<!-- Generated by graphviz version 2.38.0 (20140413.2041)
 -->
<!-- Title: void increment() Pages: 1 -->
<svg width="189pt" height="355pt"
 viewBox="0.00 0.00 189.00 355.00" xmlns="http://www.w3.org/2000/svg" xmlns:xlink="http://www.w3.org/1999/xlink">
<g id="graph0" class="graph" transform="scale(1 1) rotate(0) translate(4 351)">
<title>void increment()</title>
<polygon fill="white" stroke="none" points="-4,4 -4,-351 185,-351 185,4 -4,4"/>
<text text-anchor="middle" x="90.5" y="-7.8" font-family="Times,serif" font-size="14.00">void increment()</text>
<!-- 0 -->
<g id="node1" class="node"><title>0</title>
<polygon fill="gray" stroke="black" points="81,-347 27,-347 27,-311 81,-311 81,-347"/>
<text text-anchor="middle" x="54" y="-325.3" font-family="Times,serif" font-size="14.00">0</text>
</g>
<!-- 1 -->
<g id="node2" class="node"><title>1</title>
<polygon fill="none" stroke="black" points="54,-131 0,-131 0,-95 54,-95 54,-131"/>
<text text-anchor="middle" x="27" y="-109.3" font-family="Times,serif" font-size="14.00">1</text>
</g>
<!-- 0&#45;&gt;1 -->
<g id="edge1" class="edge"><title>0&#45;&gt;1</title>
<path fill="none" stroke="black" d="M51.2652,-310.834C49.6497,-300.469 47.6119,-286.989 46,-275 39.6994,-228.135 33.4853,-173.44 29.9579,-141.377"/>
<polygon fill="black" stroke="black" points="33.435,-140.975 28.8684,-131.415 26.4765,-141.736 33.435,-140.975"/>
</g>
<!-- 2 -->
<g id="node3" class="node"><title>2</title>
<polygon fill="none" stroke="black" points="109,-275 55,-275 55,-239 109,-239 109,-275"/>
<text text-anchor="middle" x="82" y="-253.3" font-family="Times,serif" font-size="14.00">2</text>
</g>
<!-- 0&#45;&gt;2 -->
<g id="edge2" class="edge"><title>0&#45;&gt;2</title>
<path fill="none" stroke="black" d="M60.9214,-310.697C64.0747,-302.813 67.8783,-293.304 71.3814,-284.546"/>
<polygon fill="black" stroke="black" points="74.694,-285.689 75.1583,-275.104 68.1946,-283.089 74.694,-285.689"/>
</g>
<!-- 6 -->
<g id="node4" class="node"><title>6</title>
<polygon fill="lightgray" stroke="black" points="90,-59 36,-59 36,-23 90,-23 90,-59"/>
<text text-anchor="middle" x="63" y="-37.3" font-family="Times,serif" font-size="14.00">6</text>
</g>
<!-- 1&#45;&gt;6 -->
<g id="edge3" class="edge"><title>1&#45;&gt;6</title>
<path fill="none" stroke="black" d="M35.8989,-94.6966C39.9968,-86.7284 44.9488,-77.0995 49.4927,-68.2641"/>
<polygon fill="black" stroke="black" points="52.7425,-69.598 54.2035,-59.1043 46.5174,-66.3965 52.7425,-69.598"/>
</g>
<!-- 3 -->
<g id="node5" class="node"><title>3</title>
<polygon fill="none" stroke="black" points="109,-203 55,-203 55,-167 109,-167 109,-203"/>
<text text-anchor="middle" x="82" y="-181.3" font-family="Times,serif" font-size="14.00">3</text>
</g>
<!-- 2&#45;&gt;3 -->
<g id="edge4" class="edge"><title>2&#45;&gt;3</title>
<path fill="none" stroke="black" d="M82,-238.697C82,-230.983 82,-221.712 82,-213.112"/>
<polygon fill="black" stroke="black" points="85.5001,-213.104 82,-203.104 78.5001,-213.104 85.5001,-213.104"/>
</g>
<!-- 4 -->
<g id="node6" class="node"><title>4</title>
<polygon fill="none" stroke="black" points="181,-203 127,-203 127,-167 181,-167 181,-203"/>
<text text-anchor="middle" x="154" y="-181.3" font-family="Times,serif" font-size="14.00">4</text>
</g>
<!-- 2&#45;&gt;4 -->
<g id="edge5" class="edge"><title>2&#45;&gt;4</title>
<path fill="none" stroke="black" d="M99.7978,-238.697C108.604,-230.135 119.382,-219.656 129.001,-210.304"/>
<polygon fill="black" stroke="black" points="131.677,-212.585 136.407,-203.104 126.797,-207.566 131.677,-212.585"/>
</g>
<!-- 5 -->
<g id="node7" class="node"><title>5</title>
<polygon fill="none" stroke="black" points="126,-131 72,-131 72,-95 126,-95 126,-131"/>
<text text-anchor="middle" x="99" y="-109.3" font-family="Times,serif" font-size="14.00">5</text>
</g>
<!-- 3&#45;&gt;5 -->
<g id="edge6" class="edge"><title>3&#45;&gt;5</title>
<path fill="none" stroke="black" d="M86.2022,-166.697C88.0962,-158.898 90.3765,-149.509 92.4843,-140.829"/>
<polygon fill="black" stroke="black" points="95.8872,-141.648 94.8461,-131.104 89.0849,-139.996 95.8872,-141.648"/>
</g>
<!-- 4&#45;&gt;5 -->
<g id="edge7" class="edge"><title>4&#45;&gt;5</title>
<path fill="none" stroke="black" d="M140.404,-166.697C133.877,-158.389 125.932,-148.277 118.753,-139.141"/>
<polygon fill="black" stroke="black" points="121.369,-136.805 112.439,-131.104 115.865,-141.13 121.369,-136.805"/>
</g>
<!-- 5&#45;&gt;6 -->
<g id="edge8" class="edge"><title>5&#45;&gt;6</title>
<path fill="none" stroke="black" d="M90.1011,-94.6966C86.0032,-86.7284 81.0512,-77.0995 76.5073,-68.2641"/>
<polygon fill="black" stroke="black" points="79.4826,-66.3965 71.7965,-59.1043 73.2575,-69.598 79.4826,-66.3965"/>
</g>
</g>
</svg>
