<?xml version="1.0" encoding="UTF-8" standalone="no"?>
<!DOCTYPE svg PUBLIC "-//W3C//DTD SVG 1.1//EN"
 "http://www.w3.org/Graphics/SVG/1.1/DTD/svg11.dtd">
<!-- Generated by graphviz version 2.38.0 (20140413.2041)
 -->
<!-- Title: void setDay(int,Month) Pages: 1 -->
<svg width="159pt" height="211pt"
 viewBox="0.00 0.00 159.00 211.00" xmlns="http://www.w3.org/2000/svg" xmlns:xlink="http://www.w3.org/1999/xlink">
<g id="graph0" class="graph" transform="scale(1 1) rotate(0) translate(4 207)">
<title>void setDay(int,Month)</title>
<polygon fill="white" stroke="none" points="-4,4 -4,-207 155,-207 155,4 -4,4"/>
<text text-anchor="middle" x="75.5" y="-7.8" font-family="Times,serif" font-size="14.00">void setDay(int,Month)</text>
<!-- 0 -->
<g id="node1" class="node"><title>0</title>
<polygon fill="gray" stroke="black" points="102.5,-203 48.5,-203 48.5,-167 102.5,-167 102.5,-203"/>
<text text-anchor="middle" x="75.5" y="-181.3" font-family="Times,serif" font-size="14.00">0</text>
</g>
<!-- 1 -->
<g id="node2" class="node"><title>1</title>
<polygon fill="none" stroke="black" points="66.5,-131 12.5,-131 12.5,-95 66.5,-95 66.5,-131"/>
<text text-anchor="middle" x="39.5" y="-109.3" font-family="Times,serif" font-size="14.00">1</text>
</g>
<!-- 0&#45;&gt;1 -->
<g id="edge1" class="edge"><title>0&#45;&gt;1</title>
<path fill="none" stroke="black" d="M66.6011,-166.697C62.5032,-158.728 57.5512,-149.1 53.0073,-140.264"/>
<polygon fill="black" stroke="black" points="55.9826,-138.396 48.2965,-131.104 49.7575,-141.598 55.9826,-138.396"/>
</g>
<!-- 2 -->
<g id="node3" class="node"><title>2</title>
<polygon fill="lightgray" stroke="black" points="138.5,-131 84.5,-131 84.5,-95 138.5,-95 138.5,-131"/>
<text text-anchor="middle" x="111.5" y="-109.3" font-family="Times,serif" font-size="14.00">2</text>
</g>
<!-- 0&#45;&gt;2 -->
<g id="edge2" class="edge"><title>0&#45;&gt;2</title>
<path fill="none" stroke="black" d="M84.3989,-166.697C88.4968,-158.728 93.4488,-149.1 97.9927,-140.264"/>
<polygon fill="black" stroke="black" points="101.242,-141.598 102.703,-131.104 95.0174,-138.396 101.242,-141.598"/>
</g>
<!-- 3 -->
<g id="node4" class="node"><title>3</title>
<polygon fill="lightgray" stroke="black" points="66.5,-59 12.5,-59 12.5,-23 66.5,-23 66.5,-59"/>
<text text-anchor="middle" x="39.5" y="-37.3" font-family="Times,serif" font-size="14.00">3</text>
</g>
<!-- 1&#45;&gt;3 -->
<g id="edge3" class="edge"><title>1&#45;&gt;3</title>
<path fill="none" stroke="black" d="M39.5,-94.6966C39.5,-86.9827 39.5,-77.7125 39.5,-69.1124"/>
<polygon fill="black" stroke="black" points="43.0001,-69.1043 39.5,-59.1043 36.0001,-69.1044 43.0001,-69.1043"/>
</g>
</g>
</svg>
