<?xml version="1.0" encoding="UTF-8" standalone="no"?>
<!DOCTYPE svg PUBLIC "-//W3C//DTD SVG 1.1//EN"
 "http://www.w3.org/Graphics/SVG/1.1/DTD/svg11.dtd">
<!-- Generated by graphviz version 2.38.0 (20140413.2041)
 -->
<!-- Title: boolean isValid() Pages: 1 -->
<svg width="282pt" height="499pt"
 viewBox="0.00 0.00 282.00 499.00" xmlns="http://www.w3.org/2000/svg" xmlns:xlink="http://www.w3.org/1999/xlink">
<g id="graph0" class="graph" transform="scale(1 1) rotate(0) translate(4 495)">
<title>boolean isValid()</title>
<polygon fill="white" stroke="none" points="-4,4 -4,-495 278,-495 278,4 -4,4"/>
<text text-anchor="middle" x="137" y="-7.8" font-family="Times,serif" font-size="14.00">boolean isValid()</text>
<!-- 0 -->
<g id="node1" class="node"><title>0</title>
<polygon fill="gray" stroke="black" points="81,-491 27,-491 27,-455 81,-455 81,-491"/>
<text text-anchor="middle" x="54" y="-469.3" font-family="Times,serif" font-size="14.00">0</text>
</g>
<!-- 1 -->
<g id="node2" class="node"><title>1</title>
<polygon fill="none" stroke="black" points="54,-347 0,-347 0,-311 54,-311 54,-347"/>
<text text-anchor="middle" x="27" y="-325.3" font-family="Times,serif" font-size="14.00">1</text>
</g>
<!-- 0&#45;&gt;1 -->
<g id="edge1" class="edge"><title>0&#45;&gt;1</title>
<path fill="none" stroke="black" d="M50.7432,-454.871C46.1415,-430.67 37.688,-386.211 32.2086,-357.393"/>
<polygon fill="black" stroke="black" points="35.5748,-356.359 30.2684,-347.189 28.698,-357.667 35.5748,-356.359"/>
</g>
<!-- 2 -->
<g id="node3" class="node"><title>2</title>
<polygon fill="none" stroke="black" points="109,-419 55,-419 55,-383 109,-383 109,-419"/>
<text text-anchor="middle" x="82" y="-397.3" font-family="Times,serif" font-size="14.00">2</text>
</g>
<!-- 0&#45;&gt;2 -->
<g id="edge2" class="edge"><title>0&#45;&gt;2</title>
<path fill="none" stroke="black" d="M60.9214,-454.697C64.0747,-446.813 67.8783,-437.304 71.3814,-428.546"/>
<polygon fill="black" stroke="black" points="74.694,-429.689 75.1583,-419.104 68.1946,-427.089 74.694,-429.689"/>
</g>
<!-- 9 -->
<g id="node4" class="node"><title>9</title>
<polygon fill="lightgray" stroke="black" points="128,-59 74,-59 74,-23 128,-23 128,-59"/>
<text text-anchor="middle" x="101" y="-37.3" font-family="Times,serif" font-size="14.00">9</text>
</g>
<!-- 1&#45;&gt;9 -->
<g id="edge3" class="edge"><title>1&#45;&gt;9</title>
<path fill="none" stroke="black" d="M27.7949,-310.739C30.0867,-271.272 38.5631,-171.91 68,-95 71.5852,-85.633 76.8899,-76.1131 82.2028,-67.7747"/>
<polygon fill="black" stroke="black" points="85.2499,-69.5141 87.8901,-59.2534 79.4275,-65.6281 85.2499,-69.5141"/>
</g>
<!-- 2&#45;&gt;9 -->
<g id="edge5" class="edge"><title>2&#45;&gt;9</title>
<path fill="none" stroke="black" d="M82,-382.951C82,-356.292 82,-303.115 82,-258 82,-258 82,-258 82,-184 82,-143.86 89.5507,-97.897 95.1322,-69.4045"/>
<polygon fill="black" stroke="black" points="98.6061,-69.8834 97.1551,-59.3884 91.7446,-68.4976 98.6061,-69.8834"/>
</g>
<!-- 3 -->
<g id="node5" class="node"><title>3</title>
<polygon fill="none" stroke="black" points="164,-347 110,-347 110,-311 164,-311 164,-347"/>
<text text-anchor="middle" x="137" y="-325.3" font-family="Times,serif" font-size="14.00">3</text>
</g>
<!-- 2&#45;&gt;3 -->
<g id="edge4" class="edge"><title>2&#45;&gt;3</title>
<path fill="none" stroke="black" d="M95.5955,-382.697C102.123,-374.389 110.068,-364.277 117.247,-355.141"/>
<polygon fill="black" stroke="black" points="120.135,-357.13 123.561,-347.104 114.631,-352.805 120.135,-357.13"/>
</g>
<!-- 4 -->
<g id="node6" class="node"><title>4</title>
<polygon fill="none" stroke="black" points="164,-275 110,-275 110,-239 164,-239 164,-275"/>
<text text-anchor="middle" x="137" y="-253.3" font-family="Times,serif" font-size="14.00">4</text>
</g>
<!-- 3&#45;&gt;4 -->
<g id="edge6" class="edge"><title>3&#45;&gt;4</title>
<path fill="none" stroke="black" d="M137,-310.697C137,-302.983 137,-293.712 137,-285.112"/>
<polygon fill="black" stroke="black" points="140.5,-285.104 137,-275.104 133.5,-285.104 140.5,-285.104"/>
</g>
<!-- 5 -->
<g id="node7" class="node"><title>5</title>
<polygon fill="none" stroke="black" points="164,-203 110,-203 110,-167 164,-167 164,-203"/>
<text text-anchor="middle" x="137" y="-181.3" font-family="Times,serif" font-size="14.00">5</text>
</g>
<!-- 4&#45;&gt;5 -->
<g id="edge7" class="edge"><title>4&#45;&gt;5</title>
<path fill="none" stroke="black" d="M137,-238.697C137,-230.983 137,-221.712 137,-213.112"/>
<polygon fill="black" stroke="black" points="140.5,-213.104 137,-203.104 133.5,-213.104 140.5,-213.104"/>
</g>
<!-- 6 -->
<g id="node8" class="node"><title>6</title>
<polygon fill="none" stroke="black" points="236,-203 182,-203 182,-167 236,-167 236,-203"/>
<text text-anchor="middle" x="209" y="-181.3" font-family="Times,serif" font-size="14.00">6</text>
</g>
<!-- 4&#45;&gt;6 -->
<g id="edge8" class="edge"><title>4&#45;&gt;6</title>
<path fill="none" stroke="black" d="M154.798,-238.697C163.604,-230.135 174.382,-219.656 184.001,-210.304"/>
<polygon fill="black" stroke="black" points="186.677,-212.585 191.407,-203.104 181.797,-207.566 186.677,-212.585"/>
</g>
<!-- 5&#45;&gt;9 -->
<g id="edge9" class="edge"><title>5&#45;&gt;9</title>
<path fill="none" stroke="black" d="M132.658,-166.871C126.495,-142.564 115.151,-97.8187 107.848,-69.0132"/>
<polygon fill="black" stroke="black" points="111.208,-68.0225 105.358,-59.1893 104.423,-69.7427 111.208,-68.0225"/>
</g>
<!-- 7 -->
<g id="node9" class="node"><title>7</title>
<polygon fill="none" stroke="black" points="202,-131 148,-131 148,-95 202,-95 202,-131"/>
<text text-anchor="middle" x="175" y="-109.3" font-family="Times,serif" font-size="14.00">7</text>
</g>
<!-- 6&#45;&gt;7 -->
<g id="edge10" class="edge"><title>6&#45;&gt;7</title>
<path fill="none" stroke="black" d="M200.596,-166.697C196.725,-158.728 192.048,-149.1 187.757,-140.264"/>
<polygon fill="black" stroke="black" points="190.825,-138.57 183.308,-131.104 184.529,-141.629 190.825,-138.57"/>
</g>
<!-- 8 -->
<g id="node10" class="node"><title>8</title>
<polygon fill="lightgray" stroke="black" points="274,-131 220,-131 220,-95 274,-95 274,-131"/>
<text text-anchor="middle" x="247" y="-109.3" font-family="Times,serif" font-size="14.00">8</text>
</g>
<!-- 6&#45;&gt;8 -->
<g id="edge11" class="edge"><title>6&#45;&gt;8</title>
<path fill="none" stroke="black" d="M218.393,-166.697C222.765,-158.644 228.057,-148.894 232.895,-139.982"/>
<polygon fill="black" stroke="black" points="236.02,-141.563 237.715,-131.104 229.868,-138.223 236.02,-141.563"/>
</g>
<!-- 7&#45;&gt;9 -->
<g id="edge12" class="edge"><title>7&#45;&gt;9</title>
<path fill="none" stroke="black" d="M156.708,-94.6966C147.567,-86.0503 136.36,-75.4486 126.4,-66.027"/>
<polygon fill="black" stroke="black" points="128.752,-63.4337 119.082,-59.1043 123.941,-68.519 128.752,-63.4337"/>
</g>
</g>
</svg>
