<?xml version="1.0" encoding="UTF-8" standalone="no"?>
<!DOCTYPE svg PUBLIC "-//W3C//DTD SVG 1.1//EN"
 "http://www.w3.org/Graphics/SVG/1.1/DTD/svg11.dtd">
<!-- Generated by graphviz version 2.38.0 (20140413.2041)
 -->
<!-- Title: boolean equals(java.lang.Object) Pages: 1 -->
<svg width="211pt" height="427pt"
 viewBox="0.00 0.00 211.00 427.00" xmlns="http://www.w3.org/2000/svg" xmlns:xlink="http://www.w3.org/1999/xlink">
<g id="graph0" class="graph" transform="scale(1 1) rotate(0) translate(4 423)">
<title>boolean equals(java.lang.Object)</title>
<polygon fill="white" stroke="none" points="-4,4 -4,-423 207,-423 207,4 -4,4"/>
<text text-anchor="middle" x="101.5" y="-7.8" font-family="Times,serif" font-size="14.00">boolean equals(java.lang.Object)</text>
<!-- 0 -->
<g id="node1" class="node"><title>0</title>
<polygon fill="gray" stroke="black" points="178,-419 124,-419 124,-383 178,-383 178,-419"/>
<text text-anchor="middle" x="151" y="-397.3" font-family="Times,serif" font-size="14.00">0</text>
</g>
<!-- 1 -->
<g id="node2" class="node"><title>1</title>
<polygon fill="none" stroke="black" points="151,-347 97,-347 97,-311 151,-311 151,-347"/>
<text text-anchor="middle" x="124" y="-325.3" font-family="Times,serif" font-size="14.00">1</text>
</g>
<!-- 0&#45;&gt;1 -->
<g id="edge1" class="edge"><title>0&#45;&gt;1</title>
<path fill="none" stroke="black" d="M144.326,-382.697C141.285,-374.813 137.617,-365.304 134.239,-356.546"/>
<polygon fill="black" stroke="black" points="137.462,-355.175 130.597,-347.104 130.931,-357.694 137.462,-355.175"/>
</g>
<!-- 7 -->
<g id="node3" class="node"><title>7</title>
<polygon fill="lightgray" stroke="black" points="151,-131 97,-131 97,-95 151,-95 151,-131"/>
<text text-anchor="middle" x="124" y="-109.3" font-family="Times,serif" font-size="14.00">7</text>
</g>
<!-- 0&#45;&gt;7 -->
<g id="edge2" class="edge"><title>0&#45;&gt;7</title>
<path fill="none" stroke="black" d="M155.449,-382.834C164.823,-343.562 183.857,-244.58 160,-167 156.991,-157.215 151.493,-147.616 145.684,-139.334"/>
<polygon fill="black" stroke="black" points="148.407,-137.131 139.61,-131.226 142.805,-141.328 148.407,-137.131"/>
</g>
<!-- 2 -->
<g id="node4" class="node"><title>2</title>
<polygon fill="none" stroke="black" points="151,-275 97,-275 97,-239 151,-239 151,-275"/>
<text text-anchor="middle" x="124" y="-253.3" font-family="Times,serif" font-size="14.00">2</text>
</g>
<!-- 1&#45;&gt;2 -->
<g id="edge3" class="edge"><title>1&#45;&gt;2</title>
<path fill="none" stroke="black" d="M124,-310.697C124,-302.983 124,-293.712 124,-285.112"/>
<polygon fill="black" stroke="black" points="127.5,-285.104 124,-275.104 120.5,-285.104 127.5,-285.104"/>
</g>
<!-- 3 -->
<g id="node5" class="node"><title>3</title>
<polygon fill="none" stroke="black" points="151,-203 97,-203 97,-167 151,-167 151,-203"/>
<text text-anchor="middle" x="124" y="-181.3" font-family="Times,serif" font-size="14.00">3</text>
</g>
<!-- 2&#45;&gt;3 -->
<g id="edge4" class="edge"><title>2&#45;&gt;3</title>
<path fill="none" stroke="black" d="M124,-238.697C124,-230.983 124,-221.712 124,-213.112"/>
<polygon fill="black" stroke="black" points="127.5,-213.104 124,-203.104 120.5,-213.104 127.5,-213.104"/>
</g>
<!-- 4 -->
<g id="node6" class="node"><title>4</title>
<polygon fill="none" stroke="black" points="79,-203 25,-203 25,-167 79,-167 79,-203"/>
<text text-anchor="middle" x="52" y="-181.3" font-family="Times,serif" font-size="14.00">4</text>
</g>
<!-- 2&#45;&gt;4 -->
<g id="edge5" class="edge"><title>2&#45;&gt;4</title>
<path fill="none" stroke="black" d="M106.202,-238.697C97.396,-230.135 86.6179,-219.656 76.9989,-210.304"/>
<polygon fill="black" stroke="black" points="79.2028,-207.566 69.593,-203.104 74.3232,-212.585 79.2028,-207.566"/>
</g>
<!-- 3&#45;&gt;7 -->
<g id="edge6" class="edge"><title>3&#45;&gt;7</title>
<path fill="none" stroke="black" d="M124,-166.697C124,-158.983 124,-149.712 124,-141.112"/>
<polygon fill="black" stroke="black" points="127.5,-141.104 124,-131.104 120.5,-141.104 127.5,-141.104"/>
</g>
<!-- 4&#45;&gt;7 -->
<g id="edge8" class="edge"><title>4&#45;&gt;7</title>
<path fill="none" stroke="black" d="M69.7978,-166.697C78.604,-158.135 89.3821,-147.656 99.0011,-138.304"/>
<polygon fill="black" stroke="black" points="101.677,-140.585 106.407,-131.104 96.7972,-135.566 101.677,-140.585"/>
</g>
<!-- 5 -->
<g id="node7" class="node"><title>5</title>
<polygon fill="none" stroke="black" points="79,-131 25,-131 25,-95 79,-95 79,-131"/>
<text text-anchor="middle" x="52" y="-109.3" font-family="Times,serif" font-size="14.00">5</text>
</g>
<!-- 4&#45;&gt;5 -->
<g id="edge7" class="edge"><title>4&#45;&gt;5</title>
<path fill="none" stroke="black" d="M52,-166.697C52,-158.983 52,-149.712 52,-141.112"/>
<polygon fill="black" stroke="black" points="55.5001,-141.104 52,-131.104 48.5001,-141.104 55.5001,-141.104"/>
</g>
<!-- 6 -->
<g id="node8" class="node"><title>6</title>
<polygon fill="lightgray" stroke="black" points="79,-59 25,-59 25,-23 79,-23 79,-59"/>
<text text-anchor="middle" x="52" y="-37.3" font-family="Times,serif" font-size="14.00">6</text>
</g>
<!-- 5&#45;&gt;6 -->
<g id="edge9" class="edge"><title>5&#45;&gt;6</title>
<path fill="none" stroke="black" d="M52,-94.6966C52,-86.9827 52,-77.7125 52,-69.1124"/>
<polygon fill="black" stroke="black" points="55.5001,-69.1043 52,-59.1043 48.5001,-69.1044 55.5001,-69.1043"/>
</g>
</g>
</svg>
