<?xml version="1.0" encoding="UTF-8" standalone="no"?>
<!DOCTYPE svg PUBLIC "-//W3C//DTD SVG 1.1//EN"
 "http://www.w3.org/Graphics/SVG/1.1/DTD/svg11.dtd">
<!-- Generated by graphviz version 2.38.0 (20140413.2041)
 -->
<!-- Title: void setMonth(int,Year) Pages: 1 -->
<svg width="161pt" height="211pt"
 viewBox="0.00 0.00 161.00 211.00" xmlns="http://www.w3.org/2000/svg" xmlns:xlink="http://www.w3.org/1999/xlink">
<g id="graph0" class="graph" transform="scale(1 1) rotate(0) translate(4 207)">
<title>void setMonth(int,Year)</title>
<polygon fill="white" stroke="none" points="-4,4 -4,-207 157,-207 157,4 -4,4"/>
<text text-anchor="middle" x="76.5" y="-7.8" font-family="Times,serif" font-size="14.00">void setMonth(int,Year)</text>
<!-- 0 -->
<g id="node1" class="node"><title>0</title>
<polygon fill="gray" stroke="black" points="103.5,-203 49.5,-203 49.5,-167 103.5,-167 103.5,-203"/>
<text text-anchor="middle" x="76.5" y="-181.3" font-family="Times,serif" font-size="14.00">0</text>
</g>
<!-- 1 -->
<g id="node2" class="node"><title>1</title>
<polygon fill="none" stroke="black" points="67.5,-131 13.5,-131 13.5,-95 67.5,-95 67.5,-131"/>
<text text-anchor="middle" x="40.5" y="-109.3" font-family="Times,serif" font-size="14.00">1</text>
</g>
<!-- 0&#45;&gt;1 -->
<g id="edge1" class="edge"><title>0&#45;&gt;1</title>
<path fill="none" stroke="black" d="M67.6011,-166.697C63.5032,-158.728 58.5512,-149.1 54.0073,-140.264"/>
<polygon fill="black" stroke="black" points="56.9826,-138.396 49.2965,-131.104 50.7575,-141.598 56.9826,-138.396"/>
</g>
<!-- 2 -->
<g id="node3" class="node"><title>2</title>
<polygon fill="lightgray" stroke="black" points="139.5,-131 85.5,-131 85.5,-95 139.5,-95 139.5,-131"/>
<text text-anchor="middle" x="112.5" y="-109.3" font-family="Times,serif" font-size="14.00">2</text>
</g>
<!-- 0&#45;&gt;2 -->
<g id="edge2" class="edge"><title>0&#45;&gt;2</title>
<path fill="none" stroke="black" d="M85.3989,-166.697C89.4968,-158.728 94.4488,-149.1 98.9927,-140.264"/>
<polygon fill="black" stroke="black" points="102.242,-141.598 103.703,-131.104 96.0174,-138.396 102.242,-141.598"/>
</g>
<!-- 3 -->
<g id="node4" class="node"><title>3</title>
<polygon fill="lightgray" stroke="black" points="67.5,-59 13.5,-59 13.5,-23 67.5,-23 67.5,-59"/>
<text text-anchor="middle" x="40.5" y="-37.3" font-family="Times,serif" font-size="14.00">3</text>
</g>
<!-- 1&#45;&gt;3 -->
<g id="edge3" class="edge"><title>1&#45;&gt;3</title>
<path fill="none" stroke="black" d="M40.5,-94.6966C40.5,-86.9827 40.5,-77.7125 40.5,-69.1124"/>
<polygon fill="black" stroke="black" points="44.0001,-69.1043 40.5,-59.1043 37.0001,-69.1044 44.0001,-69.1043"/>
</g>
</g>
</svg>
