<?xml version="1.0" encoding="UTF-8" standalone="no"?>
<!DOCTYPE svg PUBLIC "-//W3C//DTD SVG 1.1//EN"
 "http://www.w3.org/Graphics/SVG/1.1/DTD/svg11.dtd">
<!-- Generated by graphviz version 2.38.0 (20140413.2041)
 -->
<!-- Title: void setYear(int) Pages: 1 -->
<svg width="134pt" height="211pt"
 viewBox="0.00 0.00 134.00 211.00" xmlns="http://www.w3.org/2000/svg" xmlns:xlink="http://www.w3.org/1999/xlink">
<g id="graph0" class="graph" transform="scale(1 1) rotate(0) translate(4 207)">
<title>void setYear(int)</title>
<polygon fill="white" stroke="none" points="-4,4 -4,-207 130,-207 130,4 -4,4"/>
<text text-anchor="middle" x="63" y="-7.8" font-family="Times,serif" font-size="14.00">void setYear(int)</text>
<!-- 0 -->
<g id="node1" class="node"><title>0</title>
<polygon fill="gray" stroke="black" points="90,-203 36,-203 36,-167 90,-167 90,-203"/>
<text text-anchor="middle" x="63" y="-181.3" font-family="Times,serif" font-size="14.00">0</text>
</g>
<!-- 1 -->
<g id="node2" class="node"><title>1</title>
<polygon fill="none" stroke="black" points="54,-131 0,-131 0,-95 54,-95 54,-131"/>
<text text-anchor="middle" x="27" y="-109.3" font-family="Times,serif" font-size="14.00">1</text>
</g>
<!-- 0&#45;&gt;1 -->
<g id="edge1" class="edge"><title>0&#45;&gt;1</title>
<path fill="none" stroke="black" d="M54.1011,-166.697C50.0032,-158.728 45.0512,-149.1 40.5073,-140.264"/>
<polygon fill="black" stroke="black" points="43.4826,-138.396 35.7965,-131.104 37.2575,-141.598 43.4826,-138.396"/>
</g>
<!-- 2 -->
<g id="node3" class="node"><title>2</title>
<polygon fill="lightgray" stroke="black" points="126,-131 72,-131 72,-95 126,-95 126,-131"/>
<text text-anchor="middle" x="99" y="-109.3" font-family="Times,serif" font-size="14.00">2</text>
</g>
<!-- 0&#45;&gt;2 -->
<g id="edge2" class="edge"><title>0&#45;&gt;2</title>
<path fill="none" stroke="black" d="M71.8989,-166.697C75.9968,-158.728 80.9488,-149.1 85.4927,-140.264"/>
<polygon fill="black" stroke="black" points="88.7425,-141.598 90.2035,-131.104 82.5174,-138.396 88.7425,-141.598"/>
</g>
<!-- 3 -->
<g id="node4" class="node"><title>3</title>
<polygon fill="lightgray" stroke="black" points="54,-59 0,-59 0,-23 54,-23 54,-59"/>
<text text-anchor="middle" x="27" y="-37.3" font-family="Times,serif" font-size="14.00">3</text>
</g>
<!-- 1&#45;&gt;3 -->
<g id="edge3" class="edge"><title>1&#45;&gt;3</title>
<path fill="none" stroke="black" d="M27,-94.6966C27,-86.9827 27,-77.7125 27,-69.1124"/>
<polygon fill="black" stroke="black" points="30.5001,-69.1043 27,-59.1043 23.5001,-69.1044 30.5001,-69.1043"/>
</g>
</g>
</svg>
