<?xml version="1.0" encoding="UTF-8" standalone="no"?>
<!DOCTYPE svg PUBLIC "-//W3C//DTD SVG 1.1//EN"
 "http://www.w3.org/Graphics/SVG/1.1/DTD/svg11.dtd">
<!-- Generated by graphviz version 2.38.0 (20140413.2041)
 -->
<!-- Title: boolean isLeap() Pages: 1 -->
<svg width="229pt" height="931pt"
 viewBox="0.00 0.00 229.00 931.00" xmlns="http://www.w3.org/2000/svg" xmlns:xlink="http://www.w3.org/1999/xlink">
<g id="graph0" class="graph" transform="scale(1 1) rotate(0) translate(4 927)">
<title>boolean isLeap()</title>
<polygon fill="white" stroke="none" points="-4,4 -4,-927 225,-927 225,4 -4,4"/>
<text text-anchor="middle" x="110.5" y="-7.8" font-family="Times,serif" font-size="14.00">boolean isLeap()</text>
<!-- 0 -->
<g id="node1" class="node"><title>0</title>
<polygon fill="gray" stroke="black" points="81,-923 27,-923 27,-887 81,-887 81,-923"/>
<text text-anchor="middle" x="54" y="-901.3" font-family="Times,serif" font-size="14.00">0</text>
</g>
<!-- 1 -->
<g id="node2" class="node"><title>1</title>
<polygon fill="none" stroke="black" points="54,-707 0,-707 0,-671 54,-671 54,-707"/>
<text text-anchor="middle" x="27" y="-685.3" font-family="Times,serif" font-size="14.00">1</text>
</g>
<!-- 0&#45;&gt;1 -->
<g id="edge1" class="edge"><title>0&#45;&gt;1</title>
<path fill="none" stroke="black" d="M51.2652,-886.834C49.6497,-876.469 47.6119,-862.989 46,-851 39.6994,-804.135 33.4853,-749.44 29.9579,-717.377"/>
<polygon fill="black" stroke="black" points="33.435,-716.975 28.8684,-707.415 26.4765,-717.736 33.435,-716.975"/>
</g>
<!-- 2 -->
<g id="node3" class="node"><title>2</title>
<polygon fill="none" stroke="black" points="109,-851 55,-851 55,-815 109,-815 109,-851"/>
<text text-anchor="middle" x="82" y="-829.3" font-family="Times,serif" font-size="14.00">2</text>
</g>
<!-- 0&#45;&gt;2 -->
<g id="edge2" class="edge"><title>0&#45;&gt;2</title>
<path fill="none" stroke="black" d="M60.9214,-886.697C64.0747,-878.813 67.8783,-869.304 71.3814,-860.546"/>
<polygon fill="black" stroke="black" points="74.694,-861.689 75.1583,-851.104 68.1946,-859.089 74.694,-861.689"/>
</g>
<!-- 9 -->
<g id="node4" class="node"><title>9</title>
<polygon fill="none" stroke="black" points="89,-491 35,-491 35,-455 89,-455 89,-491"/>
<text text-anchor="middle" x="62" y="-469.3" font-family="Times,serif" font-size="14.00">9</text>
</g>
<!-- 1&#45;&gt;9 -->
<g id="edge3" class="edge"><title>1&#45;&gt;9</title>
<path fill="none" stroke="black" d="M29.805,-670.849C35.8721,-633.753 50.2554,-545.81 57.5673,-501.103"/>
<polygon fill="black" stroke="black" points="61.0216,-501.666 59.1816,-491.232 54.1133,-500.536 61.0216,-501.666"/>
</g>
<!-- 3 -->
<g id="node5" class="node"><title>3</title>
<polygon fill="none" stroke="black" points="109,-779 55,-779 55,-743 109,-743 109,-779"/>
<text text-anchor="middle" x="82" y="-757.3" font-family="Times,serif" font-size="14.00">3</text>
</g>
<!-- 2&#45;&gt;3 -->
<g id="edge4" class="edge"><title>2&#45;&gt;3</title>
<path fill="none" stroke="black" d="M82,-814.697C82,-806.983 82,-797.712 82,-789.112"/>
<polygon fill="black" stroke="black" points="85.5001,-789.104 82,-779.104 78.5001,-789.104 85.5001,-789.104"/>
</g>
<!-- 4 -->
<g id="node6" class="node"><title>4</title>
<polygon fill="none" stroke="black" points="181,-779 127,-779 127,-743 181,-743 181,-779"/>
<text text-anchor="middle" x="154" y="-757.3" font-family="Times,serif" font-size="14.00">4</text>
</g>
<!-- 2&#45;&gt;4 -->
<g id="edge5" class="edge"><title>2&#45;&gt;4</title>
<path fill="none" stroke="black" d="M99.7978,-814.697C108.604,-806.135 119.382,-795.656 129.001,-786.304"/>
<polygon fill="black" stroke="black" points="131.677,-788.585 136.407,-779.104 126.797,-783.566 131.677,-788.585"/>
</g>
<!-- 10 -->
<g id="node11" class="node"><title>10</title>
<polygon fill="none" stroke="black" points="62,-275 8,-275 8,-239 62,-239 62,-275"/>
<text text-anchor="middle" x="35" y="-253.3" font-family="Times,serif" font-size="14.00">10</text>
</g>
<!-- 9&#45;&gt;10 -->
<g id="edge13" class="edge"><title>9&#45;&gt;10</title>
<path fill="none" stroke="black" d="M59.2652,-454.834C57.6497,-444.469 55.6119,-430.989 54,-419 47.6994,-372.135 41.4853,-317.44 37.9579,-285.377"/>
<polygon fill="black" stroke="black" points="41.435,-284.975 36.8684,-275.415 34.4765,-285.736 41.435,-284.975"/>
</g>
<!-- 11 -->
<g id="node12" class="node"><title>11</title>
<polygon fill="none" stroke="black" points="117,-419 63,-419 63,-383 117,-383 117,-419"/>
<text text-anchor="middle" x="90" y="-397.3" font-family="Times,serif" font-size="14.00">11</text>
</g>
<!-- 9&#45;&gt;11 -->
<g id="edge14" class="edge"><title>9&#45;&gt;11</title>
<path fill="none" stroke="black" d="M68.9214,-454.697C72.0747,-446.813 75.8783,-437.304 79.3814,-428.546"/>
<polygon fill="black" stroke="black" points="82.694,-429.689 83.1583,-419.104 76.1946,-427.089 82.694,-429.689"/>
</g>
<!-- 6 -->
<g id="node7" class="node"><title>6</title>
<polygon fill="none" stroke="black" points="137,-635 83,-635 83,-599 137,-599 137,-635"/>
<text text-anchor="middle" x="110" y="-613.3" font-family="Times,serif" font-size="14.00">6</text>
</g>
<!-- 3&#45;&gt;6 -->
<g id="edge6" class="edge"><title>3&#45;&gt;6</title>
<path fill="none" stroke="black" d="M85.3775,-742.871C90.1706,-718.564 98.9935,-673.819 104.673,-645.013"/>
<polygon fill="black" stroke="black" points="108.11,-645.677 106.611,-635.189 101.242,-644.323 108.11,-645.677"/>
</g>
<!-- 5 -->
<g id="node8" class="node"><title>5</title>
<polygon fill="none" stroke="black" points="164,-707 110,-707 110,-671 164,-671 164,-707"/>
<text text-anchor="middle" x="137" y="-685.3" font-family="Times,serif" font-size="14.00">5</text>
</g>
<!-- 4&#45;&gt;5 -->
<g id="edge7" class="edge"><title>4&#45;&gt;5</title>
<path fill="none" stroke="black" d="M149.798,-742.697C147.904,-734.898 145.623,-725.509 143.516,-716.829"/>
<polygon fill="black" stroke="black" points="146.915,-715.996 141.154,-707.104 140.113,-717.648 146.915,-715.996"/>
</g>
<!-- 8 -->
<g id="node9" class="node"><title>8</title>
<polygon fill="lightgray" stroke="black" points="200,-563 146,-563 146,-527 200,-527 200,-563"/>
<text text-anchor="middle" x="173" y="-541.3" font-family="Times,serif" font-size="14.00">8</text>
</g>
<!-- 4&#45;&gt;8 -->
<g id="edge8" class="edge"><title>4&#45;&gt;8</title>
<path fill="none" stroke="black" d="M161.893,-742.745C166.107,-732.577 170.857,-719.327 173,-707 181.086,-660.486 178.502,-605.264 175.808,-573.073"/>
<polygon fill="black" stroke="black" points="179.291,-572.73 174.905,-563.085 172.319,-573.36 179.291,-572.73"/>
</g>
<!-- 6&#45;&gt;8 -->
<g id="edge11" class="edge"><title>6&#45;&gt;8</title>
<path fill="none" stroke="black" d="M125.573,-598.697C133.202,-590.22 142.523,-579.864 150.876,-570.583"/>
<polygon fill="black" stroke="black" points="153.518,-572.879 157.606,-563.104 148.315,-568.196 153.518,-572.879"/>
</g>
<!-- 7 -->
<g id="node10" class="node"><title>7</title>
<polygon fill="none" stroke="black" points="119,-563 65,-563 65,-527 119,-527 119,-563"/>
<text text-anchor="middle" x="92" y="-541.3" font-family="Times,serif" font-size="14.00">7</text>
</g>
<!-- 6&#45;&gt;7 -->
<g id="edge10" class="edge"><title>6&#45;&gt;7</title>
<path fill="none" stroke="black" d="M105.551,-598.697C103.545,-590.898 101.131,-581.509 98.8989,-572.829"/>
<polygon fill="black" stroke="black" points="102.278,-571.918 96.3983,-563.104 95.499,-573.661 102.278,-571.918"/>
</g>
<!-- 5&#45;&gt;6 -->
<g id="edge9" class="edge"><title>5&#45;&gt;6</title>
<path fill="none" stroke="black" d="M130.326,-670.697C127.285,-662.813 123.617,-653.304 120.239,-644.546"/>
<polygon fill="black" stroke="black" points="123.462,-643.175 116.597,-635.104 116.931,-645.694 123.462,-643.175"/>
</g>
<!-- 7&#45;&gt;9 -->
<g id="edge12" class="edge"><title>7&#45;&gt;9</title>
<path fill="none" stroke="black" d="M84.5843,-526.697C81.2056,-518.813 77.1304,-509.304 73.377,-500.546"/>
<polygon fill="black" stroke="black" points="76.4867,-498.917 69.3304,-491.104 70.0527,-501.675 76.4867,-498.917"/>
</g>
<!-- 18 -->
<g id="node13" class="node"><title>18</title>
<polygon fill="lightgray" stroke="black" points="109,-59 55,-59 55,-23 109,-23 109,-59"/>
<text text-anchor="middle" x="82" y="-37.3" font-family="Times,serif" font-size="14.00">18</text>
</g>
<!-- 10&#45;&gt;18 -->
<g id="edge15" class="edge"><title>10&#45;&gt;18</title>
<path fill="none" stroke="black" d="M38.7668,-238.849C46.914,-201.753 66.2286,-113.81 76.0475,-69.1027"/>
<polygon fill="black" stroke="black" points="79.4886,-69.7505 78.2153,-59.2325 72.6516,-68.2488 79.4886,-69.7505"/>
</g>
<!-- 12 -->
<g id="node14" class="node"><title>12</title>
<polygon fill="none" stroke="black" points="117,-347 63,-347 63,-311 117,-311 117,-347"/>
<text text-anchor="middle" x="90" y="-325.3" font-family="Times,serif" font-size="14.00">12</text>
</g>
<!-- 11&#45;&gt;12 -->
<g id="edge16" class="edge"><title>11&#45;&gt;12</title>
<path fill="none" stroke="black" d="M90,-382.697C90,-374.983 90,-365.712 90,-357.112"/>
<polygon fill="black" stroke="black" points="93.5001,-357.104 90,-347.104 86.5001,-357.104 93.5001,-357.104"/>
</g>
<!-- 13 -->
<g id="node15" class="node"><title>13</title>
<polygon fill="none" stroke="black" points="189,-347 135,-347 135,-311 189,-311 189,-347"/>
<text text-anchor="middle" x="162" y="-325.3" font-family="Times,serif" font-size="14.00">13</text>
</g>
<!-- 11&#45;&gt;13 -->
<g id="edge17" class="edge"><title>11&#45;&gt;13</title>
<path fill="none" stroke="black" d="M107.798,-382.697C116.604,-374.135 127.382,-363.656 137.001,-354.304"/>
<polygon fill="black" stroke="black" points="139.677,-356.585 144.407,-347.104 134.797,-351.566 139.677,-356.585"/>
</g>
<!-- 15 -->
<g id="node16" class="node"><title>15</title>
<polygon fill="none" stroke="black" points="158,-203 104,-203 104,-167 158,-167 158,-203"/>
<text text-anchor="middle" x="131" y="-181.3" font-family="Times,serif" font-size="14.00">15</text>
</g>
<!-- 12&#45;&gt;15 -->
<g id="edge18" class="edge"><title>12&#45;&gt;15</title>
<path fill="none" stroke="black" d="M92.7257,-310.698C95.8028,-292.587 101.39,-263.438 109,-239 111.725,-230.249 115.333,-220.943 118.837,-212.611"/>
<polygon fill="black" stroke="black" points="122.077,-213.935 122.844,-203.368 115.655,-211.151 122.077,-213.935"/>
</g>
<!-- 14 -->
<g id="node17" class="node"><title>14</title>
<polygon fill="none" stroke="black" points="172,-275 118,-275 118,-239 172,-239 172,-275"/>
<text text-anchor="middle" x="145" y="-253.3" font-family="Times,serif" font-size="14.00">14</text>
</g>
<!-- 13&#45;&gt;14 -->
<g id="edge19" class="edge"><title>13&#45;&gt;14</title>
<path fill="none" stroke="black" d="M157.798,-310.697C155.904,-302.898 153.623,-293.509 151.516,-284.829"/>
<polygon fill="black" stroke="black" points="154.915,-283.996 149.154,-275.104 148.113,-285.648 154.915,-283.996"/>
</g>
<!-- 17 -->
<g id="node18" class="node"><title>17</title>
<polygon fill="lightgray" stroke="black" points="221,-131 167,-131 167,-95 221,-95 221,-131"/>
<text text-anchor="middle" x="194" y="-109.3" font-family="Times,serif" font-size="14.00">17</text>
</g>
<!-- 13&#45;&gt;17 -->
<g id="edge20" class="edge"><title>13&#45;&gt;17</title>
<path fill="none" stroke="black" d="M169.522,-310.673C173.613,-300.481 178.363,-287.231 181,-275 190.985,-228.699 193.453,-173.409 193.977,-141.147"/>
<polygon fill="black" stroke="black" points="197.477,-141.174 194.088,-131.136 190.477,-141.096 197.477,-141.174"/>
</g>
<!-- 15&#45;&gt;17 -->
<g id="edge23" class="edge"><title>15&#45;&gt;17</title>
<path fill="none" stroke="black" d="M146.573,-166.697C154.202,-158.22 163.523,-147.864 171.876,-138.583"/>
<polygon fill="black" stroke="black" points="174.518,-140.879 178.606,-131.104 169.315,-136.196 174.518,-140.879"/>
</g>
<!-- 16 -->
<g id="node19" class="node"><title>16</title>
<polygon fill="none" stroke="black" points="143,-131 89,-131 89,-95 143,-95 143,-131"/>
<text text-anchor="middle" x="116" y="-109.3" font-family="Times,serif" font-size="14.00">16</text>
</g>
<!-- 15&#45;&gt;16 -->
<g id="edge22" class="edge"><title>15&#45;&gt;16</title>
<path fill="none" stroke="black" d="M127.292,-166.697C125.639,-158.983 123.653,-149.712 121.81,-141.112"/>
<polygon fill="black" stroke="black" points="125.183,-140.149 119.665,-131.104 118.338,-141.616 125.183,-140.149"/>
</g>
<!-- 14&#45;&gt;15 -->
<g id="edge21" class="edge"><title>14&#45;&gt;15</title>
<path fill="none" stroke="black" d="M141.539,-238.697C139.997,-230.983 138.142,-221.712 136.422,-213.112"/>
<polygon fill="black" stroke="black" points="139.814,-212.224 134.421,-203.104 132.95,-213.597 139.814,-212.224"/>
</g>
<!-- 16&#45;&gt;18 -->
<g id="edge24" class="edge"><title>16&#45;&gt;18</title>
<path fill="none" stroke="black" d="M107.596,-94.6966C103.725,-86.7284 99.0483,-77.0995 94.7569,-68.2641"/>
<polygon fill="black" stroke="black" points="97.8252,-66.5702 90.3078,-59.1043 91.5286,-69.6286 97.8252,-66.5702"/>
</g>
</g>
</svg>
