<?xml version="1.0" encoding="UTF-8" standalone="no"?>
<!DOCTYPE svg PUBLIC "-//W3C//DTD SVG 1.1//EN"
 "http://www.w3.org/Graphics/SVG/1.1/DTD/svg11.dtd">
<!-- Generated by graphviz version 2.38.0 (20140413.2041)
 -->
<!-- Title: boolean increment() Pages: 1 -->
<svg width="140pt" height="211pt"
 viewBox="0.00 0.00 140.00 211.00" xmlns="http://www.w3.org/2000/svg" xmlns:xlink="http://www.w3.org/1999/xlink">
<g id="graph0" class="graph" transform="scale(1 1) rotate(0) translate(4 207)">
<title>boolean increment()</title>
<polygon fill="white" stroke="none" points="-4,4 -4,-207 136,-207 136,4 -4,4"/>
<text text-anchor="middle" x="66" y="-7.8" font-family="Times,serif" font-size="14.00">boolean increment()</text>
<!-- 0 -->
<g id="node1" class="node"><title>0</title>
<polygon fill="gray" stroke="black" points="93,-203 39,-203 39,-167 93,-167 93,-203"/>
<text text-anchor="middle" x="66" y="-181.3" font-family="Times,serif" font-size="14.00">0</text>
</g>
<!-- 1 -->
<g id="node2" class="node"><title>1</title>
<polygon fill="none" stroke="black" points="57,-131 3,-131 3,-95 57,-95 57,-131"/>
<text text-anchor="middle" x="30" y="-109.3" font-family="Times,serif" font-size="14.00">1</text>
</g>
<!-- 0&#45;&gt;1 -->
<g id="edge1" class="edge"><title>0&#45;&gt;1</title>
<path fill="none" stroke="black" d="M57.1011,-166.697C53.0032,-158.728 48.0512,-149.1 43.5073,-140.264"/>
<polygon fill="black" stroke="black" points="46.4826,-138.396 38.7965,-131.104 40.2575,-141.598 46.4826,-138.396"/>
</g>
<!-- 2 -->
<g id="node3" class="node"><title>2</title>
<polygon fill="none" stroke="black" points="129,-131 75,-131 75,-95 129,-95 129,-131"/>
<text text-anchor="middle" x="102" y="-109.3" font-family="Times,serif" font-size="14.00">2</text>
</g>
<!-- 0&#45;&gt;2 -->
<g id="edge2" class="edge"><title>0&#45;&gt;2</title>
<path fill="none" stroke="black" d="M74.8989,-166.697C78.9968,-158.728 83.9488,-149.1 88.4927,-140.264"/>
<polygon fill="black" stroke="black" points="91.7425,-141.598 93.2035,-131.104 85.5174,-138.396 91.7425,-141.598"/>
</g>
<!-- 3 -->
<g id="node4" class="node"><title>3</title>
<polygon fill="lightgray" stroke="black" points="93,-59 39,-59 39,-23 93,-23 93,-59"/>
<text text-anchor="middle" x="66" y="-37.3" font-family="Times,serif" font-size="14.00">3</text>
</g>
<!-- 1&#45;&gt;3 -->
<g id="edge3" class="edge"><title>1&#45;&gt;3</title>
<path fill="none" stroke="black" d="M38.8989,-94.6966C42.9968,-86.7284 47.9488,-77.0995 52.4927,-68.2641"/>
<polygon fill="black" stroke="black" points="55.7425,-69.598 57.2035,-59.1043 49.5174,-66.3965 55.7425,-69.598"/>
</g>
<!-- 2&#45;&gt;3 -->
<g id="edge4" class="edge"><title>2&#45;&gt;3</title>
<path fill="none" stroke="black" d="M93.1011,-94.6966C89.0032,-86.7284 84.0512,-77.0995 79.5073,-68.2641"/>
<polygon fill="black" stroke="black" points="82.4826,-66.3965 74.7965,-59.1043 76.2575,-69.598 82.4826,-66.3965"/>
</g>
</g>
</svg>
