<?xml version="1.0" encoding="UTF-8" standalone="no"?>
<!DOCTYPE svg PUBLIC "-//W3C//DTD SVG 1.1//EN"
 "http://www.w3.org/Graphics/SVG/1.1/DTD/svg11.dtd">
<!-- Generated by graphviz version 2.38.0 (20140413.2041)
 -->
<!-- Title: boolean equals(java.lang.Object) Pages: 1 -->
<svg width="211pt" height="355pt"
 viewBox="0.00 0.00 211.00 355.00" xmlns="http://www.w3.org/2000/svg" xmlns:xlink="http://www.w3.org/1999/xlink">
<g id="graph0" class="graph" transform="scale(1 1) rotate(0) translate(4 351)">
<title>boolean equals(java.lang.Object)</title>
<polygon fill="white" stroke="none" points="-4,4 -4,-351 207,-351 207,4 -4,4"/>
<text text-anchor="middle" x="101.5" y="-7.8" font-family="Times,serif" font-size="14.00">boolean equals(java.lang.Object)</text>
<!-- 0 -->
<g id="node1" class="node"><title>0</title>
<polygon fill="gray" stroke="black" points="178,-347 124,-347 124,-311 178,-311 178,-347"/>
<text text-anchor="middle" x="151" y="-325.3" font-family="Times,serif" font-size="14.00">0</text>
</g>
<!-- 1 -->
<g id="node2" class="node"><title>1</title>
<polygon fill="none" stroke="black" points="151,-275 97,-275 97,-239 151,-239 151,-275"/>
<text text-anchor="middle" x="124" y="-253.3" font-family="Times,serif" font-size="14.00">1</text>
</g>
<!-- 0&#45;&gt;1 -->
<g id="edge1" class="edge"><title>0&#45;&gt;1</title>
<path fill="none" stroke="black" d="M144.326,-310.697C141.285,-302.813 137.617,-293.304 134.239,-284.546"/>
<polygon fill="black" stroke="black" points="137.462,-283.175 130.597,-275.104 130.931,-285.694 137.462,-283.175"/>
</g>
<!-- 5 -->
<g id="node3" class="node"><title>5</title>
<polygon fill="lightgray" stroke="black" points="142,-59 88,-59 88,-23 142,-23 142,-59"/>
<text text-anchor="middle" x="115" y="-37.3" font-family="Times,serif" font-size="14.00">5</text>
</g>
<!-- 0&#45;&gt;5 -->
<g id="edge2" class="edge"><title>0&#45;&gt;5</title>
<path fill="none" stroke="black" d="M155.952,-310.933C166.505,-271.457 188.052,-171.38 160,-95 156.216,-84.6962 149.442,-75.0249 142.28,-66.837"/>
<polygon fill="black" stroke="black" points="144.769,-64.3751 135.379,-59.469 139.66,-69.1603 144.769,-64.3751"/>
</g>
<!-- 2 -->
<g id="node4" class="node"><title>2</title>
<polygon fill="none" stroke="black" points="151,-203 97,-203 97,-167 151,-167 151,-203"/>
<text text-anchor="middle" x="124" y="-181.3" font-family="Times,serif" font-size="14.00">2</text>
</g>
<!-- 1&#45;&gt;2 -->
<g id="edge3" class="edge"><title>1&#45;&gt;2</title>
<path fill="none" stroke="black" d="M124,-238.697C124,-230.983 124,-221.712 124,-213.112"/>
<polygon fill="black" stroke="black" points="127.5,-213.104 124,-203.104 120.5,-213.104 127.5,-213.104"/>
</g>
<!-- 3 -->
<g id="node5" class="node"><title>3</title>
<polygon fill="none" stroke="black" points="79,-131 25,-131 25,-95 79,-95 79,-131"/>
<text text-anchor="middle" x="52" y="-109.3" font-family="Times,serif" font-size="14.00">3</text>
</g>
<!-- 2&#45;&gt;3 -->
<g id="edge4" class="edge"><title>2&#45;&gt;3</title>
<path fill="none" stroke="black" d="M106.202,-166.697C97.396,-158.135 86.6179,-147.656 76.9989,-138.304"/>
<polygon fill="black" stroke="black" points="79.2028,-135.566 69.593,-131.104 74.3232,-140.585 79.2028,-135.566"/>
</g>
<!-- 4 -->
<g id="node6" class="node"><title>4</title>
<polygon fill="lightgray" stroke="black" points="151,-131 97,-131 97,-95 151,-95 151,-131"/>
<text text-anchor="middle" x="124" y="-109.3" font-family="Times,serif" font-size="14.00">4</text>
</g>
<!-- 2&#45;&gt;4 -->
<g id="edge5" class="edge"><title>2&#45;&gt;4</title>
<path fill="none" stroke="black" d="M124,-166.697C124,-158.983 124,-149.712 124,-141.112"/>
<polygon fill="black" stroke="black" points="127.5,-141.104 124,-131.104 120.5,-141.104 127.5,-141.104"/>
</g>
<!-- 3&#45;&gt;5 -->
<g id="edge6" class="edge"><title>3&#45;&gt;5</title>
<path fill="none" stroke="black" d="M67.573,-94.6966C75.2022,-86.2198 84.5228,-75.8636 92.8757,-66.5826"/>
<polygon fill="black" stroke="black" points="95.518,-68.8787 99.6061,-59.1043 90.3149,-64.1959 95.518,-68.8787"/>
</g>
</g>
</svg>
