<?xml version="1.0" encoding="UTF-8" standalone="no"?>
<!DOCTYPE svg PUBLIC "-//W3C//DTD SVG 1.1//EN"
 "http://www.w3.org/Graphics/SVG/1.1/DTD/svg11.dtd">
<!-- Generated by graphviz version 2.38.0 (20140413.2041)
 -->
<!-- Title: void removeElementAt(int) Pages: 1 -->
<svg width="205pt" height="643pt"
 viewBox="0.00 0.00 205.00 643.00" xmlns="http://www.w3.org/2000/svg" xmlns:xlink="http://www.w3.org/1999/xlink">
<g id="graph0" class="graph" transform="scale(1 1) rotate(0) translate(4 639)">
<title>void removeElementAt(int)</title>
<polygon fill="white" stroke="none" points="-4,4 -4,-639 201,-639 201,4 -4,4"/>
<text text-anchor="middle" x="98.5" y="-7.8" font-family="Times,serif" font-size="14.00">void removeElementAt(int)</text>
<!-- 0 -->
<g id="node1" class="node"><title>0</title>
<polygon fill="gray" stroke="black" points="161,-635 107,-635 107,-599 161,-599 161,-635"/>
<text text-anchor="middle" x="134" y="-613.3" font-family="Times,serif" font-size="14.00">0</text>
</g>
<!-- 1 -->
<g id="node2" class="node"><title>1</title>
<polygon fill="none" stroke="black" points="125,-563 71,-563 71,-527 125,-527 125,-563"/>
<text text-anchor="middle" x="98" y="-541.3" font-family="Times,serif" font-size="14.00">1</text>
</g>
<!-- 0&#45;&gt;1 -->
<g id="edge1" class="edge"><title>0&#45;&gt;1</title>
<path fill="none" stroke="black" d="M125.101,-598.697C121.003,-590.728 116.051,-581.1 111.507,-572.264"/>
<polygon fill="black" stroke="black" points="114.483,-570.396 106.797,-563.104 108.258,-573.598 114.483,-570.396"/>
</g>
<!-- 2 -->
<g id="node3" class="node"><title>2</title>
<polygon fill="lightgray" stroke="black" points="197,-563 143,-563 143,-527 197,-527 197,-563"/>
<text text-anchor="middle" x="170" y="-541.3" font-family="Times,serif" font-size="14.00">2</text>
</g>
<!-- 0&#45;&gt;2 -->
<g id="edge2" class="edge"><title>0&#45;&gt;2</title>
<path fill="none" stroke="black" d="M142.899,-598.697C146.997,-590.728 151.949,-581.1 156.493,-572.264"/>
<polygon fill="black" stroke="black" points="159.742,-573.598 161.203,-563.104 153.517,-570.396 159.742,-573.598"/>
</g>
<!-- 3 -->
<g id="node4" class="node"><title>3</title>
<polygon fill="none" stroke="black" points="125,-491 71,-491 71,-455 125,-455 125,-491"/>
<text text-anchor="middle" x="98" y="-469.3" font-family="Times,serif" font-size="14.00">3</text>
</g>
<!-- 1&#45;&gt;3 -->
<g id="edge3" class="edge"><title>1&#45;&gt;3</title>
<path fill="none" stroke="black" d="M98,-526.697C98,-518.983 98,-509.712 98,-501.112"/>
<polygon fill="black" stroke="black" points="101.5,-501.104 98,-491.104 94.5001,-501.104 101.5,-501.104"/>
</g>
<!-- 4 -->
<g id="node5" class="node"><title>4</title>
<polygon fill="none" stroke="black" points="89,-419 35,-419 35,-383 89,-383 89,-419"/>
<text text-anchor="middle" x="62" y="-397.3" font-family="Times,serif" font-size="14.00">4</text>
</g>
<!-- 3&#45;&gt;4 -->
<g id="edge4" class="edge"><title>3&#45;&gt;4</title>
<path fill="none" stroke="black" d="M89.1011,-454.697C85.0032,-446.728 80.0512,-437.1 75.5073,-428.264"/>
<polygon fill="black" stroke="black" points="78.4826,-426.396 70.7965,-419.104 72.2575,-429.598 78.4826,-426.396"/>
</g>
<!-- 5 -->
<g id="node6" class="node"><title>5</title>
<polygon fill="lightgray" stroke="black" points="161,-419 107,-419 107,-383 161,-383 161,-419"/>
<text text-anchor="middle" x="134" y="-397.3" font-family="Times,serif" font-size="14.00">5</text>
</g>
<!-- 3&#45;&gt;5 -->
<g id="edge5" class="edge"><title>3&#45;&gt;5</title>
<path fill="none" stroke="black" d="M106.899,-454.697C110.997,-446.728 115.949,-437.1 120.493,-428.264"/>
<polygon fill="black" stroke="black" points="123.742,-429.598 125.203,-419.104 117.517,-426.396 123.742,-429.598"/>
</g>
<!-- 6 -->
<g id="node7" class="node"><title>6</title>
<polygon fill="none" stroke="black" points="89,-347 35,-347 35,-311 89,-311 89,-347"/>
<text text-anchor="middle" x="62" y="-325.3" font-family="Times,serif" font-size="14.00">6</text>
</g>
<!-- 4&#45;&gt;6 -->
<g id="edge6" class="edge"><title>4&#45;&gt;6</title>
<path fill="none" stroke="black" d="M62,-382.697C62,-374.983 62,-365.712 62,-357.112"/>
<polygon fill="black" stroke="black" points="65.5001,-357.104 62,-347.104 58.5001,-357.104 65.5001,-357.104"/>
</g>
<!-- 7 -->
<g id="node8" class="node"><title>7</title>
<polygon fill="none" stroke="black" points="54,-203 0,-203 0,-167 54,-167 54,-203"/>
<text text-anchor="middle" x="27" y="-181.3" font-family="Times,serif" font-size="14.00">7</text>
</g>
<!-- 6&#45;&gt;7 -->
<g id="edge7" class="edge"><title>6&#45;&gt;7</title>
<path fill="none" stroke="black" d="M57.7782,-310.871C51.7868,-286.564 40.7581,-241.819 33.6582,-213.013"/>
<polygon fill="black" stroke="black" points="37.0283,-212.061 31.2368,-203.189 30.2317,-213.736 37.0283,-212.061"/>
</g>
<!-- 8 -->
<g id="node9" class="node"><title>8</title>
<polygon fill="none" stroke="black" points="121,-275 67,-275 67,-239 121,-239 121,-275"/>
<text text-anchor="middle" x="94" y="-253.3" font-family="Times,serif" font-size="14.00">8</text>
</g>
<!-- 6&#45;&gt;8 -->
<g id="edge8" class="edge"><title>6&#45;&gt;8</title>
<path fill="none" stroke="black" d="M69.9101,-310.697C73.5527,-302.728 77.9545,-293.1 81.9935,-284.264"/>
<polygon fill="black" stroke="black" points="85.2064,-285.654 86.1809,-275.104 78.8401,-282.744 85.2064,-285.654"/>
</g>
<!-- 12 -->
<g id="node10" class="node"><title>12</title>
<polygon fill="lightgray" stroke="black" points="67,-59 13,-59 13,-23 67,-23 67,-59"/>
<text text-anchor="middle" x="40" y="-37.3" font-family="Times,serif" font-size="14.00">12</text>
</g>
<!-- 7&#45;&gt;12 -->
<g id="edge9" class="edge"><title>7&#45;&gt;12</title>
<path fill="none" stroke="black" d="M27.485,-166.9C28.1053,-148.954 29.4231,-119.938 32,-95 32.8743,-86.5391 34.1441,-77.3634 35.4156,-69.0619"/>
<polygon fill="black" stroke="black" points="38.8803,-69.56 36.9974,-59.1339 31.9675,-68.4586 38.8803,-69.56"/>
</g>
<!-- 9 -->
<g id="node11" class="node"><title>9</title>
<polygon fill="none" stroke="black" points="153,-203 99,-203 99,-167 153,-167 153,-203"/>
<text text-anchor="middle" x="126" y="-181.3" font-family="Times,serif" font-size="14.00">9</text>
</g>
<!-- 8&#45;&gt;9 -->
<g id="edge10" class="edge"><title>8&#45;&gt;9</title>
<path fill="none" stroke="black" d="M101.91,-238.697C105.553,-230.728 109.954,-221.1 113.994,-212.264"/>
<polygon fill="black" stroke="black" points="117.206,-213.654 118.181,-203.104 110.84,-210.744 117.206,-213.654"/>
</g>
<!-- 10 -->
<g id="node12" class="node"><title>10</title>
<polygon fill="none" stroke="black" points="95,-131 41,-131 41,-95 95,-95 95,-131"/>
<text text-anchor="middle" x="68" y="-109.3" font-family="Times,serif" font-size="14.00">10</text>
</g>
<!-- 9&#45;&gt;10 -->
<g id="edge11" class="edge"><title>9&#45;&gt;10</title>
<path fill="none" stroke="black" d="M111.663,-166.697C104.709,-158.305 96.2298,-148.07 88.5994,-138.861"/>
<polygon fill="black" stroke="black" points="91.2475,-136.571 82.1722,-131.104 85.8573,-141.038 91.2475,-136.571"/>
</g>
<!-- 11 -->
<g id="node13" class="node"><title>11</title>
<polygon fill="none" stroke="black" points="167,-131 113,-131 113,-95 167,-95 167,-131"/>
<text text-anchor="middle" x="140" y="-109.3" font-family="Times,serif" font-size="14.00">11</text>
</g>
<!-- 9&#45;&gt;11 -->
<g id="edge12" class="edge"><title>9&#45;&gt;11</title>
<path fill="none" stroke="black" d="M123.545,-166.697C124.3,-158.898 125.955,-149.509 128.05,-140.829"/>
<polygon fill="black" stroke="black" points="131.448,-141.672 130.684,-131.104 124.692,-139.842 131.448,-141.672"/>
</g>
<!-- 10&#45;&gt;12 -->
<g id="edge13" class="edge"><title>10&#45;&gt;12</title>
<path fill="none" stroke="black" d="M61.0786,-94.6966C57.9253,-86.8132 54.1217,-77.3042 50.6186,-68.5464"/>
<polygon fill="black" stroke="black" points="53.8054,-67.0892 46.8417,-59.1043 47.306,-69.689 53.8054,-67.0892"/>
</g>
<!-- 11&#45;&gt;9 -->
<g id="edge14" class="edge"><title>11&#45;&gt;9</title>
<path fill="none" stroke="black" d="M142.474,-131.104C141.734,-138.876 140.09,-148.257 138.003,-156.949"/>
<polygon fill="black" stroke="black" points="134.599,-156.13 135.376,-166.697 141.358,-157.952 134.599,-156.13"/>
</g>
</g>
</svg>
