<?xml version="1.0" encoding="UTF-8" standalone="no"?>
<!DOCTYPE svg PUBLIC "-//W3C//DTD SVG 1.1//EN"
 "http://www.w3.org/Graphics/SVG/1.1/DTD/svg11.dtd">
<!-- Generated by graphviz version 2.38.0 (20140413.2041)
 -->
<!-- Title: boolean removeElement(java.lang.Object) Pages: 1 -->
<svg width="265pt" height="211pt"
 viewBox="0.00 0.00 265.00 211.00" xmlns="http://www.w3.org/2000/svg" xmlns:xlink="http://www.w3.org/1999/xlink">
<g id="graph0" class="graph" transform="scale(1 1) rotate(0) translate(4 207)">
<title>boolean removeElement(java.lang.Object)</title>
<polygon fill="white" stroke="none" points="-4,4 -4,-207 261,-207 261,4 -4,4"/>
<text text-anchor="middle" x="128.5" y="-7.8" font-family="Times,serif" font-size="14.00">boolean removeElement(java.lang.Object)</text>
<!-- 0 -->
<g id="node1" class="node"><title>0</title>
<polygon fill="gray" stroke="black" points="155.5,-203 101.5,-203 101.5,-167 155.5,-167 155.5,-203"/>
<text text-anchor="middle" x="128.5" y="-181.3" font-family="Times,serif" font-size="14.00">0</text>
</g>
<!-- 1 -->
<g id="node2" class="node"><title>1</title>
<polygon fill="none" stroke="black" points="119.5,-131 65.5,-131 65.5,-95 119.5,-95 119.5,-131"/>
<text text-anchor="middle" x="92.5" y="-109.3" font-family="Times,serif" font-size="14.00">1</text>
</g>
<!-- 0&#45;&gt;1 -->
<g id="edge1" class="edge"><title>0&#45;&gt;1</title>
<path fill="none" stroke="black" d="M119.601,-166.697C115.503,-158.728 110.551,-149.1 106.007,-140.264"/>
<polygon fill="black" stroke="black" points="108.983,-138.396 101.297,-131.104 102.758,-141.598 108.983,-138.396"/>
</g>
<!-- 2 -->
<g id="node3" class="node"><title>2</title>
<polygon fill="lightgray" stroke="black" points="191.5,-131 137.5,-131 137.5,-95 191.5,-95 191.5,-131"/>
<text text-anchor="middle" x="164.5" y="-109.3" font-family="Times,serif" font-size="14.00">2</text>
</g>
<!-- 0&#45;&gt;2 -->
<g id="edge2" class="edge"><title>0&#45;&gt;2</title>
<path fill="none" stroke="black" d="M137.399,-166.697C141.497,-158.728 146.449,-149.1 150.993,-140.264"/>
<polygon fill="black" stroke="black" points="154.242,-141.598 155.703,-131.104 148.017,-138.396 154.242,-141.598"/>
</g>
<!-- 3 -->
<g id="node4" class="node"><title>3</title>
<polygon fill="lightgray" stroke="black" points="119.5,-59 65.5,-59 65.5,-23 119.5,-23 119.5,-59"/>
<text text-anchor="middle" x="92.5" y="-37.3" font-family="Times,serif" font-size="14.00">3</text>
</g>
<!-- 1&#45;&gt;3 -->
<g id="edge3" class="edge"><title>1&#45;&gt;3</title>
<path fill="none" stroke="black" d="M92.5,-94.6966C92.5,-86.9827 92.5,-77.7125 92.5,-69.1124"/>
<polygon fill="black" stroke="black" points="96.0001,-69.1043 92.5,-59.1043 89.0001,-69.1044 96.0001,-69.1043"/>
</g>
</g>
</svg>
