<?xml version="1.0" encoding="UTF-8" standalone="no"?>
<!DOCTYPE svg PUBLIC "-//W3C//DTD SVG 1.1//EN"
 "http://www.w3.org/Graphics/SVG/1.1/DTD/svg11.dtd">
<!-- Generated by graphviz version 2.38.0 (20140413.2041)
 -->
<!-- Title: java.lang.Object get(int) Pages: 1 -->
<svg width="162pt" height="211pt"
 viewBox="0.00 0.00 162.00 211.00" xmlns="http://www.w3.org/2000/svg" xmlns:xlink="http://www.w3.org/1999/xlink">
<g id="graph0" class="graph" transform="scale(1 1) rotate(0) translate(4 207)">
<title>java.lang.Object get(int)</title>
<polygon fill="white" stroke="none" points="-4,4 -4,-207 158,-207 158,4 -4,4"/>
<text text-anchor="middle" x="77" y="-7.8" font-family="Times,serif" font-size="14.00">java.lang.Object get(int)</text>
<!-- 0 -->
<g id="node1" class="node"><title>0</title>
<polygon fill="gray" stroke="black" points="104,-203 50,-203 50,-167 104,-167 104,-203"/>
<text text-anchor="middle" x="77" y="-181.3" font-family="Times,serif" font-size="14.00">0</text>
</g>
<!-- 1 -->
<g id="node2" class="node"><title>1</title>
<polygon fill="none" stroke="black" points="68,-131 14,-131 14,-95 68,-95 68,-131"/>
<text text-anchor="middle" x="41" y="-109.3" font-family="Times,serif" font-size="14.00">1</text>
</g>
<!-- 0&#45;&gt;1 -->
<g id="edge1" class="edge"><title>0&#45;&gt;1</title>
<path fill="none" stroke="black" d="M68.1011,-166.697C64.0032,-158.728 59.0512,-149.1 54.5073,-140.264"/>
<polygon fill="black" stroke="black" points="57.4826,-138.396 49.7965,-131.104 51.2575,-141.598 57.4826,-138.396"/>
</g>
<!-- 2 -->
<g id="node3" class="node"><title>2</title>
<polygon fill="lightgray" stroke="black" points="140,-131 86,-131 86,-95 140,-95 140,-131"/>
<text text-anchor="middle" x="113" y="-109.3" font-family="Times,serif" font-size="14.00">2</text>
</g>
<!-- 0&#45;&gt;2 -->
<g id="edge2" class="edge"><title>0&#45;&gt;2</title>
<path fill="none" stroke="black" d="M85.8989,-166.697C89.9968,-158.728 94.9488,-149.1 99.4927,-140.264"/>
<polygon fill="black" stroke="black" points="102.742,-141.598 104.203,-131.104 96.5174,-138.396 102.742,-141.598"/>
</g>
<!-- 3 -->
<g id="node4" class="node"><title>3</title>
<polygon fill="lightgray" stroke="black" points="68,-59 14,-59 14,-23 68,-23 68,-59"/>
<text text-anchor="middle" x="41" y="-37.3" font-family="Times,serif" font-size="14.00">3</text>
</g>
<!-- 1&#45;&gt;3 -->
<g id="edge3" class="edge"><title>1&#45;&gt;3</title>
<path fill="none" stroke="black" d="M41,-94.6966C41,-86.9827 41,-77.7125 41,-69.1124"/>
<polygon fill="black" stroke="black" points="44.5001,-69.1043 41,-59.1043 37.5001,-69.1044 44.5001,-69.1043"/>
</g>
</g>
</svg>
