<?xml version="1.0" encoding="UTF-8" standalone="no"?>
<!DOCTYPE svg PUBLIC "-//W3C//DTD SVG 1.1//EN"
 "http://www.w3.org/Graphics/SVG/1.1/DTD/svg11.dtd">
<!-- Generated by graphviz version 2.38.0 (20140413.2041)
 -->
<!-- Title: void setElementAt(java.lang.Object,int) Pages: 1 -->
<svg width="250pt" height="211pt"
 viewBox="0.00 0.00 250.00 211.00" xmlns="http://www.w3.org/2000/svg" xmlns:xlink="http://www.w3.org/1999/xlink">
<g id="graph0" class="graph" transform="scale(1 1) rotate(0) translate(4 207)">
<title>void setElementAt(java.lang.Object,int)</title>
<polygon fill="white" stroke="none" points="-4,4 -4,-207 246,-207 246,4 -4,4"/>
<text text-anchor="middle" x="121" y="-7.8" font-family="Times,serif" font-size="14.00">void setElementAt(java.lang.Object,int)</text>
<!-- 0 -->
<g id="node1" class="node"><title>0</title>
<polygon fill="gray" stroke="black" points="148,-203 94,-203 94,-167 148,-167 148,-203"/>
<text text-anchor="middle" x="121" y="-181.3" font-family="Times,serif" font-size="14.00">0</text>
</g>
<!-- 1 -->
<g id="node2" class="node"><title>1</title>
<polygon fill="none" stroke="black" points="112,-131 58,-131 58,-95 112,-95 112,-131"/>
<text text-anchor="middle" x="85" y="-109.3" font-family="Times,serif" font-size="14.00">1</text>
</g>
<!-- 0&#45;&gt;1 -->
<g id="edge1" class="edge"><title>0&#45;&gt;1</title>
<path fill="none" stroke="black" d="M112.101,-166.697C108.003,-158.728 103.051,-149.1 98.5073,-140.264"/>
<polygon fill="black" stroke="black" points="101.483,-138.396 93.7965,-131.104 95.2575,-141.598 101.483,-138.396"/>
</g>
<!-- 2 -->
<g id="node3" class="node"><title>2</title>
<polygon fill="lightgray" stroke="black" points="184,-131 130,-131 130,-95 184,-95 184,-131"/>
<text text-anchor="middle" x="157" y="-109.3" font-family="Times,serif" font-size="14.00">2</text>
</g>
<!-- 0&#45;&gt;2 -->
<g id="edge2" class="edge"><title>0&#45;&gt;2</title>
<path fill="none" stroke="black" d="M129.899,-166.697C133.997,-158.728 138.949,-149.1 143.493,-140.264"/>
<polygon fill="black" stroke="black" points="146.742,-141.598 148.203,-131.104 140.517,-138.396 146.742,-141.598"/>
</g>
<!-- 3 -->
<g id="node4" class="node"><title>3</title>
<polygon fill="lightgray" stroke="black" points="112,-59 58,-59 58,-23 112,-23 112,-59"/>
<text text-anchor="middle" x="85" y="-37.3" font-family="Times,serif" font-size="14.00">3</text>
</g>
<!-- 1&#45;&gt;3 -->
<g id="edge3" class="edge"><title>1&#45;&gt;3</title>
<path fill="none" stroke="black" d="M85,-94.6966C85,-86.9827 85,-77.7125 85,-69.1124"/>
<polygon fill="black" stroke="black" points="88.5001,-69.1043 85,-59.1043 81.5001,-69.1044 88.5001,-69.1043"/>
</g>
</g>
</svg>
