<?xml version="1.0" encoding="UTF-8" standalone="no"?>
<!DOCTYPE svg PUBLIC "-//W3C//DTD SVG 1.1//EN"
 "http://www.w3.org/Graphics/SVG/1.1/DTD/svg11.dtd">
<!-- Generated by graphviz version 2.38.0 (20140413.2041)
 -->
<!-- Title: void ensureCapacityHelper(int) Pages: 1 -->
<svg width="212pt" height="715pt"
 viewBox="0.00 0.00 212.00 715.00" xmlns="http://www.w3.org/2000/svg" xmlns:xlink="http://www.w3.org/1999/xlink">
<g id="graph0" class="graph" transform="scale(1 1) rotate(0) translate(4 711)">
<title>void ensureCapacityHelper(int)</title>
<polygon fill="white" stroke="none" points="-4,4 -4,-711 208,-711 208,4 -4,4"/>
<text text-anchor="middle" x="102" y="-7.8" font-family="Times,serif" font-size="14.00">void ensureCapacityHelper(int)</text>
<!-- 0 -->
<g id="node1" class="node"><title>0</title>
<polygon fill="gray" stroke="black" points="81,-707 27,-707 27,-671 81,-671 81,-707"/>
<text text-anchor="middle" x="54" y="-685.3" font-family="Times,serif" font-size="14.00">0</text>
</g>
<!-- 1 -->
<g id="node2" class="node"><title>1</title>
<polygon fill="none" stroke="black" points="54,-491 0,-491 0,-455 54,-455 54,-491"/>
<text text-anchor="middle" x="27" y="-469.3" font-family="Times,serif" font-size="14.00">1</text>
</g>
<!-- 0&#45;&gt;1 -->
<g id="edge1" class="edge"><title>0&#45;&gt;1</title>
<path fill="none" stroke="black" d="M51.2652,-670.834C49.6497,-660.469 47.6119,-646.989 46,-635 39.6994,-588.135 33.4853,-533.44 29.9579,-501.377"/>
<polygon fill="black" stroke="black" points="33.435,-500.975 28.8684,-491.415 26.4765,-501.736 33.435,-500.975"/>
</g>
<!-- 2 -->
<g id="node3" class="node"><title>2</title>
<polygon fill="none" stroke="black" points="109,-635 55,-635 55,-599 109,-599 109,-635"/>
<text text-anchor="middle" x="82" y="-613.3" font-family="Times,serif" font-size="14.00">2</text>
</g>
<!-- 0&#45;&gt;2 -->
<g id="edge2" class="edge"><title>0&#45;&gt;2</title>
<path fill="none" stroke="black" d="M60.9214,-670.697C64.0747,-662.813 67.8783,-653.304 71.3814,-644.546"/>
<polygon fill="black" stroke="black" points="74.694,-645.689 75.1583,-635.104 68.1946,-643.089 74.694,-645.689"/>
</g>
<!-- 13 -->
<g id="node4" class="node"><title>13</title>
<polygon fill="lightgray" stroke="black" points="81,-59 27,-59 27,-23 81,-23 81,-59"/>
<text text-anchor="middle" x="54" y="-37.3" font-family="Times,serif" font-size="14.00">13</text>
</g>
<!-- 1&#45;&gt;13 -->
<g id="edge3" class="edge"><title>1&#45;&gt;13</title>
<path fill="none" stroke="black" d="M27,-454.951C27,-428.292 27,-375.115 27,-330 27,-330 27,-330 27,-184 27,-143.502 37.73,-97.6322 45.6615,-69.2577"/>
<polygon fill="black" stroke="black" points="49.1288,-69.8654 48.5361,-59.2872 42.4028,-67.9262 49.1288,-69.8654"/>
</g>
<!-- 3 -->
<g id="node5" class="node"><title>3</title>
<polygon fill="none" stroke="black" points="109,-563 55,-563 55,-527 109,-527 109,-563"/>
<text text-anchor="middle" x="82" y="-541.3" font-family="Times,serif" font-size="14.00">3</text>
</g>
<!-- 2&#45;&gt;3 -->
<g id="edge4" class="edge"><title>2&#45;&gt;3</title>
<path fill="none" stroke="black" d="M82,-598.697C82,-590.983 82,-581.712 82,-573.112"/>
<polygon fill="black" stroke="black" points="85.5001,-573.104 82,-563.104 78.5001,-573.104 85.5001,-573.104"/>
</g>
<!-- 4 -->
<g id="node6" class="node"><title>4</title>
<polygon fill="none" stroke="black" points="181,-563 127,-563 127,-527 181,-527 181,-563"/>
<text text-anchor="middle" x="154" y="-541.3" font-family="Times,serif" font-size="14.00">4</text>
</g>
<!-- 2&#45;&gt;4 -->
<g id="edge5" class="edge"><title>2&#45;&gt;4</title>
<path fill="none" stroke="black" d="M99.7978,-598.697C108.604,-590.135 119.382,-579.656 129.001,-570.304"/>
<polygon fill="black" stroke="black" points="131.677,-572.585 136.407,-563.104 126.797,-567.566 131.677,-572.585"/>
</g>
<!-- 5 -->
<g id="node7" class="node"><title>5</title>
<polygon fill="none" stroke="black" points="126,-491 72,-491 72,-455 126,-455 126,-491"/>
<text text-anchor="middle" x="99" y="-469.3" font-family="Times,serif" font-size="14.00">5</text>
</g>
<!-- 3&#45;&gt;5 -->
<g id="edge6" class="edge"><title>3&#45;&gt;5</title>
<path fill="none" stroke="black" d="M86.2022,-526.697C88.0962,-518.898 90.3765,-509.509 92.4843,-500.829"/>
<polygon fill="black" stroke="black" points="95.8872,-501.648 94.8461,-491.104 89.0849,-499.996 95.8872,-501.648"/>
</g>
<!-- 6 -->
<g id="node8" class="node"><title>6</title>
<polygon fill="none" stroke="black" points="154,-419 100,-419 100,-383 154,-383 154,-419"/>
<text text-anchor="middle" x="127" y="-397.3" font-family="Times,serif" font-size="14.00">6</text>
</g>
<!-- 4&#45;&gt;6 -->
<g id="edge7" class="edge"><title>4&#45;&gt;6</title>
<path fill="none" stroke="black" d="M150.743,-526.871C146.142,-502.67 137.688,-458.211 132.209,-429.393"/>
<polygon fill="black" stroke="black" points="135.575,-428.359 130.268,-419.189 128.698,-429.667 135.575,-428.359"/>
</g>
<!-- 5&#45;&gt;6 -->
<g id="edge8" class="edge"><title>5&#45;&gt;6</title>
<path fill="none" stroke="black" d="M105.921,-454.697C109.075,-446.813 112.878,-437.304 116.381,-428.546"/>
<polygon fill="black" stroke="black" points="119.694,-429.689 120.158,-419.104 113.195,-427.089 119.694,-429.689"/>
</g>
<!-- 7 -->
<g id="node9" class="node"><title>7</title>
<polygon fill="none" stroke="black" points="132,-347 78,-347 78,-311 132,-311 132,-347"/>
<text text-anchor="middle" x="105" y="-325.3" font-family="Times,serif" font-size="14.00">7</text>
</g>
<!-- 6&#45;&gt;7 -->
<g id="edge9" class="edge"><title>6&#45;&gt;7</title>
<path fill="none" stroke="black" d="M121.562,-382.697C119.111,-374.898 116.16,-365.509 113.432,-356.829"/>
<polygon fill="black" stroke="black" points="116.713,-355.595 110.376,-347.104 110.035,-357.694 116.713,-355.595"/>
</g>
<!-- 8 -->
<g id="node10" class="node"><title>8</title>
<polygon fill="none" stroke="black" points="204,-347 150,-347 150,-311 204,-311 204,-347"/>
<text text-anchor="middle" x="177" y="-325.3" font-family="Times,serif" font-size="14.00">8</text>
</g>
<!-- 6&#45;&gt;8 -->
<g id="edge10" class="edge"><title>6&#45;&gt;8</title>
<path fill="none" stroke="black" d="M139.36,-382.697C145.233,-374.474 152.369,-364.483 158.842,-355.421"/>
<polygon fill="black" stroke="black" points="161.818,-357.276 164.783,-347.104 156.122,-353.207 161.818,-357.276"/>
</g>
<!-- 9 -->
<g id="node11" class="node"><title>9</title>
<polygon fill="none" stroke="black" points="181,-275 127,-275 127,-239 181,-239 181,-275"/>
<text text-anchor="middle" x="154" y="-253.3" font-family="Times,serif" font-size="14.00">9</text>
</g>
<!-- 7&#45;&gt;9 -->
<g id="edge11" class="edge"><title>7&#45;&gt;9</title>
<path fill="none" stroke="black" d="M117.112,-310.697C122.868,-302.474 129.862,-292.483 136.206,-283.421"/>
<polygon fill="black" stroke="black" points="139.16,-285.304 142.027,-275.104 133.425,-281.29 139.16,-285.304"/>
</g>
<!-- 8&#45;&gt;9 -->
<g id="edge12" class="edge"><title>8&#45;&gt;9</title>
<path fill="none" stroke="black" d="M171.315,-310.697C168.752,-302.898 165.667,-293.509 162.815,-284.829"/>
<polygon fill="black" stroke="black" points="166.067,-283.512 159.62,-275.104 159.416,-285.697 166.067,-283.512"/>
</g>
<!-- 10 -->
<g id="node12" class="node"><title>10</title>
<polygon fill="none" stroke="black" points="181,-203 127,-203 127,-167 181,-167 181,-203"/>
<text text-anchor="middle" x="154" y="-181.3" font-family="Times,serif" font-size="14.00">10</text>
</g>
<!-- 9&#45;&gt;10 -->
<g id="edge13" class="edge"><title>9&#45;&gt;10</title>
<path fill="none" stroke="black" d="M154,-238.697C154,-230.983 154,-221.712 154,-213.112"/>
<polygon fill="black" stroke="black" points="157.5,-213.104 154,-203.104 150.5,-213.104 157.5,-213.104"/>
</g>
<!-- 11 -->
<g id="node13" class="node"><title>11</title>
<polygon fill="none" stroke="black" points="109,-131 55,-131 55,-95 109,-95 109,-131"/>
<text text-anchor="middle" x="82" y="-109.3" font-family="Times,serif" font-size="14.00">11</text>
</g>
<!-- 10&#45;&gt;11 -->
<g id="edge14" class="edge"><title>10&#45;&gt;11</title>
<path fill="none" stroke="black" d="M136.202,-166.697C127.396,-158.135 116.618,-147.656 106.999,-138.304"/>
<polygon fill="black" stroke="black" points="109.203,-135.566 99.593,-131.104 104.323,-140.585 109.203,-135.566"/>
</g>
<!-- 12 -->
<g id="node14" class="node"><title>12</title>
<polygon fill="none" stroke="black" points="181,-131 127,-131 127,-95 181,-95 181,-131"/>
<text text-anchor="middle" x="154" y="-109.3" font-family="Times,serif" font-size="14.00">12</text>
</g>
<!-- 10&#45;&gt;12 -->
<g id="edge15" class="edge"><title>10&#45;&gt;12</title>
<path fill="none" stroke="black" d="M148.084,-166.697C147.289,-158.983 147.062,-149.712 147.405,-141.112"/>
<polygon fill="black" stroke="black" points="150.898,-141.324 148.105,-131.104 143.915,-140.836 150.898,-141.324"/>
</g>
<!-- 11&#45;&gt;13 -->
<g id="edge16" class="edge"><title>11&#45;&gt;13</title>
<path fill="none" stroke="black" d="M75.0786,-94.6966C71.9253,-86.8132 68.1217,-77.3042 64.6186,-68.5464"/>
<polygon fill="black" stroke="black" points="67.8054,-67.0892 60.8417,-59.1043 61.306,-69.689 67.8054,-67.0892"/>
</g>
<!-- 12&#45;&gt;10 -->
<g id="edge17" class="edge"><title>12&#45;&gt;10</title>
<path fill="none" stroke="black" d="M159.895,-131.104C160.701,-138.791 160.937,-148.054 160.604,-156.665"/>
<polygon fill="black" stroke="black" points="157.109,-156.48 159.916,-166.697 164.092,-156.96 157.109,-156.48"/>
</g>
</g>
</svg>
