<?xml version="1.0" encoding="UTF-8" standalone="no"?>
<!DOCTYPE svg PUBLIC "-//W3C//DTD SVG 1.1//EN"
 "http://www.w3.org/Graphics/SVG/1.1/DTD/svg11.dtd">
<!-- Generated by graphviz version 2.38.0 (20140413.2041)
 -->
<!-- Title: java.util.List normalMatch() Pages: 1 -->
<svg width="206pt" height="355pt"
 viewBox="0.00 0.00 206.00 355.00" xmlns="http://www.w3.org/2000/svg" xmlns:xlink="http://www.w3.org/1999/xlink">
<g id="graph0" class="graph" transform="scale(1 1) rotate(0) translate(4 351)">
<title>java.util.List normalMatch()</title>
<polygon fill="white" stroke="none" points="-4,4 -4,-351 202,-351 202,4 -4,4"/>
<text text-anchor="middle" x="99" y="-7.8" font-family="Times,serif" font-size="14.00">java.util.List normalMatch()</text>
<!-- 0 -->
<g id="node1" class="node"><title>0</title>
<polygon fill="gray" stroke="black" points="90,-347 36,-347 36,-311 90,-311 90,-347"/>
<text text-anchor="middle" x="63" y="-325.3" font-family="Times,serif" font-size="14.00">0</text>
</g>
<!-- 1 -->
<g id="node2" class="node"><title>1</title>
<polygon fill="none" stroke="black" points="54,-275 0,-275 0,-239 54,-239 54,-275"/>
<text text-anchor="middle" x="27" y="-253.3" font-family="Times,serif" font-size="14.00">1</text>
</g>
<!-- 0&#45;&gt;1 -->
<g id="edge1" class="edge"><title>0&#45;&gt;1</title>
<path fill="none" stroke="black" d="M54.1011,-310.697C50.0032,-302.728 45.0512,-293.1 40.5073,-284.264"/>
<polygon fill="black" stroke="black" points="43.4826,-282.396 35.7965,-275.104 37.2575,-285.598 43.4826,-282.396"/>
</g>
<!-- 2 -->
<g id="node3" class="node"><title>2</title>
<polygon fill="none" stroke="black" points="126,-275 72,-275 72,-239 126,-239 126,-275"/>
<text text-anchor="middle" x="99" y="-253.3" font-family="Times,serif" font-size="14.00">2</text>
</g>
<!-- 0&#45;&gt;2 -->
<g id="edge2" class="edge"><title>0&#45;&gt;2</title>
<path fill="none" stroke="black" d="M71.8989,-310.697C75.9968,-302.728 80.9488,-293.1 85.4927,-284.264"/>
<polygon fill="black" stroke="black" points="88.7425,-285.598 90.2035,-275.104 82.5174,-282.396 88.7425,-285.598"/>
</g>
<!-- 6 -->
<g id="node4" class="node"><title>6</title>
<polygon fill="none" stroke="black" points="54,-131 0,-131 0,-95 54,-95 54,-131"/>
<text text-anchor="middle" x="27" y="-109.3" font-family="Times,serif" font-size="14.00">6</text>
</g>
<!-- 1&#45;&gt;6 -->
<g id="edge3" class="edge"><title>1&#45;&gt;6</title>
<path fill="none" stroke="black" d="M27,-238.871C27,-214.67 27,-170.211 27,-141.393"/>
<polygon fill="black" stroke="black" points="30.5001,-141.189 27,-131.189 23.5001,-141.189 30.5001,-141.189"/>
</g>
<!-- 3 -->
<g id="node5" class="node"><title>3</title>
<polygon fill="none" stroke="black" points="126,-203 72,-203 72,-167 126,-167 126,-203"/>
<text text-anchor="middle" x="99" y="-181.3" font-family="Times,serif" font-size="14.00">3</text>
</g>
<!-- 2&#45;&gt;3 -->
<g id="edge4" class="edge"><title>2&#45;&gt;3</title>
<path fill="none" stroke="black" d="M99,-238.697C99,-230.983 99,-221.712 99,-213.112"/>
<polygon fill="black" stroke="black" points="102.5,-213.104 99,-203.104 95.5001,-213.104 102.5,-213.104"/>
</g>
<!-- 4 -->
<g id="node6" class="node"><title>4</title>
<polygon fill="lightgray" stroke="black" points="198,-203 144,-203 144,-167 198,-167 198,-203"/>
<text text-anchor="middle" x="171" y="-181.3" font-family="Times,serif" font-size="14.00">4</text>
</g>
<!-- 2&#45;&gt;4 -->
<g id="edge5" class="edge"><title>2&#45;&gt;4</title>
<path fill="none" stroke="black" d="M116.798,-238.697C125.604,-230.135 136.382,-219.656 146.001,-210.304"/>
<polygon fill="black" stroke="black" points="148.677,-212.585 153.407,-203.104 143.797,-207.566 148.677,-212.585"/>
</g>
<!-- 7 -->
<g id="node8" class="node"><title>7</title>
<polygon fill="lightgray" stroke="black" points="90,-59 36,-59 36,-23 90,-23 90,-59"/>
<text text-anchor="middle" x="63" y="-37.3" font-family="Times,serif" font-size="14.00">7</text>
</g>
<!-- 6&#45;&gt;7 -->
<g id="edge8" class="edge"><title>6&#45;&gt;7</title>
<path fill="none" stroke="black" d="M35.8989,-94.6966C39.9968,-86.7284 44.9488,-77.0995 49.4927,-68.2641"/>
<polygon fill="black" stroke="black" points="52.7425,-69.598 54.2035,-59.1043 46.5174,-66.3965 52.7425,-69.598"/>
</g>
<!-- 5 -->
<g id="node7" class="node"><title>5</title>
<polygon fill="none" stroke="black" points="126,-131 72,-131 72,-95 126,-95 126,-131"/>
<text text-anchor="middle" x="99" y="-109.3" font-family="Times,serif" font-size="14.00">5</text>
</g>
<!-- 3&#45;&gt;5 -->
<g id="edge6" class="edge"><title>3&#45;&gt;5</title>
<path fill="none" stroke="black" d="M99,-166.697C99,-158.983 99,-149.712 99,-141.112"/>
<polygon fill="black" stroke="black" points="102.5,-141.104 99,-131.104 95.5001,-141.104 102.5,-141.104"/>
</g>
<!-- 5&#45;&gt;7 -->
<g id="edge7" class="edge"><title>5&#45;&gt;7</title>
<path fill="none" stroke="black" d="M90.1011,-94.6966C86.0032,-86.7284 81.0512,-77.0995 76.5073,-68.2641"/>
<polygon fill="black" stroke="black" points="79.4826,-66.3965 71.7965,-59.1043 73.2575,-69.598 79.4826,-66.3965"/>
</g>
</g>
</svg>
