<?xml version="1.0" encoding="UTF-8" standalone="no"?>
<!DOCTYPE svg PUBLIC "-//W3C//DTD SVG 1.1//EN"
 "http://www.w3.org/Graphics/SVG/1.1/DTD/svg11.dtd">
<!-- Generated by graphviz version 2.38.0 (20140413.2041)
 -->
<!-- Title: void initMap() Pages: 1 -->
<svg width="134pt" height="283pt"
 viewBox="0.00 0.00 134.00 283.00" xmlns="http://www.w3.org/2000/svg" xmlns:xlink="http://www.w3.org/1999/xlink">
<g id="graph0" class="graph" transform="scale(1 1) rotate(0) translate(4 279)">
<title>void initMap()</title>
<polygon fill="white" stroke="none" points="-4,4 -4,-279 130,-279 130,4 -4,4"/>
<text text-anchor="middle" x="63" y="-7.8" font-family="Times,serif" font-size="14.00">void initMap()</text>
<!-- 0 -->
<g id="node1" class="node"><title>0</title>
<polygon fill="gray" stroke="black" points="126,-275 72,-275 72,-239 126,-239 126,-275"/>
<text text-anchor="middle" x="99" y="-253.3" font-family="Times,serif" font-size="14.00">0</text>
</g>
<!-- 1 -->
<g id="node2" class="node"><title>1</title>
<polygon fill="none" stroke="black" points="126,-203 72,-203 72,-167 126,-167 126,-203"/>
<text text-anchor="middle" x="99" y="-181.3" font-family="Times,serif" font-size="14.00">1</text>
</g>
<!-- 0&#45;&gt;1 -->
<g id="edge1" class="edge"><title>0&#45;&gt;1</title>
<path fill="none" stroke="black" d="M99,-238.697C99,-230.983 99,-221.712 99,-213.112"/>
<polygon fill="black" stroke="black" points="102.5,-213.104 99,-203.104 95.5001,-213.104 102.5,-213.104"/>
</g>
<!-- 2 -->
<g id="node3" class="node"><title>2</title>
<polygon fill="none" stroke="black" points="54,-131 0,-131 0,-95 54,-95 54,-131"/>
<text text-anchor="middle" x="27" y="-109.3" font-family="Times,serif" font-size="14.00">2</text>
</g>
<!-- 1&#45;&gt;2 -->
<g id="edge2" class="edge"><title>1&#45;&gt;2</title>
<path fill="none" stroke="black" d="M81.2022,-166.697C72.396,-158.135 61.6179,-147.656 51.9989,-138.304"/>
<polygon fill="black" stroke="black" points="54.2028,-135.566 44.593,-131.104 49.3232,-140.585 54.2028,-135.566"/>
</g>
<!-- 3 -->
<g id="node4" class="node"><title>3</title>
<polygon fill="none" stroke="black" points="126,-131 72,-131 72,-95 126,-95 126,-131"/>
<text text-anchor="middle" x="99" y="-109.3" font-family="Times,serif" font-size="14.00">3</text>
</g>
<!-- 1&#45;&gt;3 -->
<g id="edge3" class="edge"><title>1&#45;&gt;3</title>
<path fill="none" stroke="black" d="M93.0843,-166.697C92.2886,-158.983 92.0621,-149.712 92.4047,-141.112"/>
<polygon fill="black" stroke="black" points="95.8984,-141.324 93.105,-131.104 88.9154,-140.836 95.8984,-141.324"/>
</g>
<!-- 4 -->
<g id="node5" class="node"><title>4</title>
<polygon fill="lightgray" stroke="black" points="54,-59 0,-59 0,-23 54,-23 54,-59"/>
<text text-anchor="middle" x="27" y="-37.3" font-family="Times,serif" font-size="14.00">4</text>
</g>
<!-- 2&#45;&gt;4 -->
<g id="edge4" class="edge"><title>2&#45;&gt;4</title>
<path fill="none" stroke="black" d="M27,-94.6966C27,-86.9827 27,-77.7125 27,-69.1124"/>
<polygon fill="black" stroke="black" points="30.5001,-69.1043 27,-59.1043 23.5001,-69.1044 30.5001,-69.1043"/>
</g>
<!-- 3&#45;&gt;1 -->
<g id="edge5" class="edge"><title>3&#45;&gt;1</title>
<path fill="none" stroke="black" d="M104.895,-131.104C105.701,-138.791 105.937,-148.054 105.604,-156.665"/>
<polygon fill="black" stroke="black" points="102.109,-156.48 104.916,-166.697 109.092,-156.96 102.109,-156.48"/>
</g>
</g>
</svg>
