<?xml version="1.0" encoding="UTF-8" standalone="no"?>
<!DOCTYPE svg PUBLIC "-//W3C//DTD SVG 1.1//EN"
 "http://www.w3.org/Graphics/SVG/1.1/DTD/svg11.dtd">
<!-- Generated by graphviz version 2.38.0 (20140413.2041)
 -->
<!-- Title: java.util.List sundayMatch() Pages: 1 -->
<svg width="244pt" height="787pt"
 viewBox="0.00 0.00 244.00 787.00" xmlns="http://www.w3.org/2000/svg" xmlns:xlink="http://www.w3.org/1999/xlink">
<g id="graph0" class="graph" transform="scale(1 1) rotate(0) translate(4 783)">
<title>java.util.List sundayMatch()</title>
<polygon fill="white" stroke="none" points="-4,4 -4,-783 240,-783 240,4 -4,4"/>
<text text-anchor="middle" x="118" y="-7.8" font-family="Times,serif" font-size="14.00">java.util.List sundayMatch()</text>
<!-- 0 -->
<g id="node1" class="node"><title>0</title>
<polygon fill="gray" stroke="black" points="90,-779 36,-779 36,-743 90,-743 90,-779"/>
<text text-anchor="middle" x="63" y="-757.3" font-family="Times,serif" font-size="14.00">0</text>
</g>
<!-- 1 -->
<g id="node2" class="node"><title>1</title>
<polygon fill="none" stroke="black" points="54,-707 0,-707 0,-671 54,-671 54,-707"/>
<text text-anchor="middle" x="27" y="-685.3" font-family="Times,serif" font-size="14.00">1</text>
</g>
<!-- 0&#45;&gt;1 -->
<g id="edge1" class="edge"><title>0&#45;&gt;1</title>
<path fill="none" stroke="black" d="M54.1011,-742.697C50.0032,-734.728 45.0512,-725.1 40.5073,-716.264"/>
<polygon fill="black" stroke="black" points="43.4826,-714.396 35.7965,-707.104 37.2575,-717.598 43.4826,-714.396"/>
</g>
<!-- 2 -->
<g id="node3" class="node"><title>2</title>
<polygon fill="none" stroke="black" points="126,-707 72,-707 72,-671 126,-671 126,-707"/>
<text text-anchor="middle" x="99" y="-685.3" font-family="Times,serif" font-size="14.00">2</text>
</g>
<!-- 0&#45;&gt;2 -->
<g id="edge2" class="edge"><title>0&#45;&gt;2</title>
<path fill="none" stroke="black" d="M71.8989,-742.697C75.9968,-734.728 80.9488,-725.1 85.4927,-716.264"/>
<polygon fill="black" stroke="black" points="88.7425,-717.598 90.2035,-707.104 82.5174,-714.396 88.7425,-717.598"/>
</g>
<!-- 15 -->
<g id="node4" class="node"><title>15</title>
<polygon fill="none" stroke="black" points="54,-491 0,-491 0,-455 54,-455 54,-491"/>
<text text-anchor="middle" x="27" y="-469.3" font-family="Times,serif" font-size="14.00">15</text>
</g>
<!-- 1&#45;&gt;15 -->
<g id="edge3" class="edge"><title>1&#45;&gt;15</title>
<path fill="none" stroke="black" d="M27,-670.849C27,-633.832 27,-546.181 27,-501.386"/>
<polygon fill="black" stroke="black" points="30.5001,-501.232 27,-491.232 23.5001,-501.232 30.5001,-501.232"/>
</g>
<!-- 3 -->
<g id="node5" class="node"><title>3</title>
<polygon fill="none" stroke="black" points="109,-563 55,-563 55,-527 109,-527 109,-563"/>
<text text-anchor="middle" x="82" y="-541.3" font-family="Times,serif" font-size="14.00">3</text>
</g>
<!-- 2&#45;&gt;3 -->
<g id="edge4" class="edge"><title>2&#45;&gt;3</title>
<path fill="none" stroke="black" d="M96.9494,-670.871C94.0521,-646.67 88.7295,-602.211 85.2795,-573.393"/>
<polygon fill="black" stroke="black" points="88.7218,-572.702 84.0579,-563.189 81.7715,-573.534 88.7218,-572.702"/>
</g>
<!-- 4 -->
<g id="node6" class="node"><title>4</title>
<polygon fill="none" stroke="black" points="181,-635 127,-635 127,-599 181,-599 181,-635"/>
<text text-anchor="middle" x="154" y="-613.3" font-family="Times,serif" font-size="14.00">4</text>
</g>
<!-- 2&#45;&gt;4 -->
<g id="edge5" class="edge"><title>2&#45;&gt;4</title>
<path fill="none" stroke="black" d="M112.596,-670.697C119.123,-662.389 127.068,-652.277 134.247,-643.141"/>
<polygon fill="black" stroke="black" points="137.135,-645.13 140.561,-635.104 131.631,-640.805 137.135,-645.13"/>
</g>
<!-- 16 -->
<g id="node17" class="node"><title>16</title>
<polygon fill="lightgray" stroke="black" points="81,-59 27,-59 27,-23 81,-23 81,-59"/>
<text text-anchor="middle" x="54" y="-37.3" font-family="Times,serif" font-size="14.00">16</text>
</g>
<!-- 15&#45;&gt;16 -->
<g id="edge20" class="edge"><title>15&#45;&gt;16</title>
<path fill="none" stroke="black" d="M27,-454.951C27,-428.292 27,-375.115 27,-330 27,-330 27,-330 27,-184 27,-143.502 37.73,-97.6322 45.6615,-69.2577"/>
<polygon fill="black" stroke="black" points="49.1288,-69.8654 48.5361,-59.2872 42.4028,-67.9262 49.1288,-69.8654"/>
</g>
<!-- 7 -->
<g id="node7" class="node"><title>7</title>
<polygon fill="none" stroke="black" points="154,-491 100,-491 100,-455 154,-455 154,-491"/>
<text text-anchor="middle" x="127" y="-469.3" font-family="Times,serif" font-size="14.00">7</text>
</g>
<!-- 3&#45;&gt;7 -->
<g id="edge6" class="edge"><title>3&#45;&gt;7</title>
<path fill="none" stroke="black" d="M93.1236,-526.697C98.355,-518.559 104.7,-508.689 110.478,-499.701"/>
<polygon fill="black" stroke="black" points="113.541,-501.409 116.004,-491.104 107.653,-497.623 113.541,-501.409"/>
</g>
<!-- 5 -->
<g id="node8" class="node"><title>5</title>
<polygon fill="none" stroke="black" points="181,-563 127,-563 127,-527 181,-527 181,-563"/>
<text text-anchor="middle" x="154" y="-541.3" font-family="Times,serif" font-size="14.00">5</text>
</g>
<!-- 4&#45;&gt;5 -->
<g id="edge7" class="edge"><title>4&#45;&gt;5</title>
<path fill="none" stroke="black" d="M154,-598.697C154,-590.983 154,-581.712 154,-573.112"/>
<polygon fill="black" stroke="black" points="157.5,-573.104 154,-563.104 150.5,-573.104 157.5,-573.104"/>
</g>
<!-- 6 -->
<g id="node9" class="node"><title>6</title>
<polygon fill="none" stroke="black" points="236,-347 182,-347 182,-311 236,-311 236,-347"/>
<text text-anchor="middle" x="209" y="-325.3" font-family="Times,serif" font-size="14.00">6</text>
</g>
<!-- 4&#45;&gt;6 -->
<g id="edge8" class="edge"><title>4&#45;&gt;6</title>
<path fill="none" stroke="black" d="M169.185,-598.633C176.823,-588.849 185.413,-576.008 190,-563 215,-492.103 213.77,-401.821 211.179,-357.321"/>
<polygon fill="black" stroke="black" points="214.667,-357.035 210.524,-347.284 207.682,-357.491 214.667,-357.035"/>
</g>
<!-- 8 -->
<g id="node11" class="node"><title>8</title>
<polygon fill="none" stroke="black" points="109,-419 55,-419 55,-383 109,-383 109,-419"/>
<text text-anchor="middle" x="82" y="-397.3" font-family="Times,serif" font-size="14.00">8</text>
</g>
<!-- 7&#45;&gt;8 -->
<g id="edge11" class="edge"><title>7&#45;&gt;8</title>
<path fill="none" stroke="black" d="M115.876,-454.697C110.645,-446.559 104.3,-436.689 98.5222,-427.701"/>
<polygon fill="black" stroke="black" points="101.347,-425.623 92.9956,-419.104 95.4591,-429.409 101.347,-425.623"/>
</g>
<!-- 9 -->
<g id="node12" class="node"><title>9</title>
<polygon fill="none" stroke="black" points="181,-419 127,-419 127,-383 181,-383 181,-419"/>
<text text-anchor="middle" x="154" y="-397.3" font-family="Times,serif" font-size="14.00">9</text>
</g>
<!-- 7&#45;&gt;9 -->
<g id="edge12" class="edge"><title>7&#45;&gt;9</title>
<path fill="none" stroke="black" d="M133.674,-454.697C136.715,-446.813 140.383,-437.304 143.761,-428.546"/>
<polygon fill="black" stroke="black" points="147.069,-429.694 147.403,-419.104 140.538,-427.175 147.069,-429.694"/>
</g>
<!-- 5&#45;&gt;7 -->
<g id="edge9" class="edge"><title>5&#45;&gt;7</title>
<path fill="none" stroke="black" d="M147.326,-526.697C144.285,-518.813 140.617,-509.304 137.239,-500.546"/>
<polygon fill="black" stroke="black" points="140.462,-499.175 133.597,-491.104 133.931,-501.694 140.462,-499.175"/>
</g>
<!-- 11 -->
<g id="node10" class="node"><title>11</title>
<polygon fill="none" stroke="black" points="181,-275 127,-275 127,-239 181,-239 181,-275"/>
<text text-anchor="middle" x="154" y="-253.3" font-family="Times,serif" font-size="14.00">11</text>
</g>
<!-- 6&#45;&gt;11 -->
<g id="edge10" class="edge"><title>6&#45;&gt;11</title>
<path fill="none" stroke="black" d="M195.404,-310.697C188.877,-302.389 180.932,-292.277 173.753,-283.141"/>
<polygon fill="black" stroke="black" points="176.369,-280.805 167.439,-275.104 170.865,-285.13 176.369,-280.805"/>
</g>
<!-- 12 -->
<g id="node14" class="node"><title>12</title>
<polygon fill="none" stroke="black" points="109,-203 55,-203 55,-167 109,-167 109,-203"/>
<text text-anchor="middle" x="82" y="-181.3" font-family="Times,serif" font-size="14.00">12</text>
</g>
<!-- 11&#45;&gt;12 -->
<g id="edge16" class="edge"><title>11&#45;&gt;12</title>
<path fill="none" stroke="black" d="M136.202,-238.697C127.396,-230.135 116.618,-219.656 106.999,-210.304"/>
<polygon fill="black" stroke="black" points="109.203,-207.566 99.593,-203.104 104.323,-212.585 109.203,-207.566"/>
</g>
<!-- 13 -->
<g id="node15" class="node"><title>13</title>
<polygon fill="lightgray" stroke="black" points="181,-203 127,-203 127,-167 181,-167 181,-203"/>
<text text-anchor="middle" x="154" y="-181.3" font-family="Times,serif" font-size="14.00">13</text>
</g>
<!-- 11&#45;&gt;13 -->
<g id="edge17" class="edge"><title>11&#45;&gt;13</title>
<path fill="none" stroke="black" d="M154,-238.697C154,-230.983 154,-221.712 154,-213.112"/>
<polygon fill="black" stroke="black" points="157.5,-213.104 154,-203.104 150.5,-213.104 157.5,-213.104"/>
</g>
<!-- 10 -->
<g id="node13" class="node"><title>10</title>
<polygon fill="none" stroke="black" points="118,-347 64,-347 64,-311 118,-311 118,-347"/>
<text text-anchor="middle" x="91" y="-325.3" font-family="Times,serif" font-size="14.00">10</text>
</g>
<!-- 8&#45;&gt;10 -->
<g id="edge13" class="edge"><title>8&#45;&gt;10</title>
<path fill="none" stroke="black" d="M84.2247,-382.697C85.2165,-374.983 86.4084,-365.712 87.5141,-357.112"/>
<polygon fill="black" stroke="black" points="90.997,-357.469 88.8009,-347.104 84.0541,-356.576 90.997,-357.469"/>
</g>
<!-- 9&#45;&gt;11 -->
<g id="edge14" class="edge"><title>9&#45;&gt;11</title>
<path fill="none" stroke="black" d="M154,-382.871C154,-358.67 154,-314.211 154,-285.393"/>
<polygon fill="black" stroke="black" points="157.5,-285.189 154,-275.189 150.5,-285.189 157.5,-285.189"/>
</g>
<!-- 10&#45;&gt;11 -->
<g id="edge15" class="edge"><title>10&#45;&gt;11</title>
<path fill="none" stroke="black" d="M106.573,-310.697C114.202,-302.22 123.523,-291.864 131.876,-282.583"/>
<polygon fill="black" stroke="black" points="134.518,-284.879 138.606,-275.104 129.315,-280.196 134.518,-284.879"/>
</g>
<!-- 14 -->
<g id="node16" class="node"><title>14</title>
<polygon fill="none" stroke="black" points="109,-131 55,-131 55,-95 109,-95 109,-131"/>
<text text-anchor="middle" x="82" y="-109.3" font-family="Times,serif" font-size="14.00">14</text>
</g>
<!-- 12&#45;&gt;14 -->
<g id="edge18" class="edge"><title>12&#45;&gt;14</title>
<path fill="none" stroke="black" d="M82,-166.697C82,-158.983 82,-149.712 82,-141.112"/>
<polygon fill="black" stroke="black" points="85.5001,-141.104 82,-131.104 78.5001,-141.104 85.5001,-141.104"/>
</g>
<!-- 14&#45;&gt;16 -->
<g id="edge19" class="edge"><title>14&#45;&gt;16</title>
<path fill="none" stroke="black" d="M75.0786,-94.6966C71.9253,-86.8132 68.1217,-77.3042 64.6186,-68.5464"/>
<polygon fill="black" stroke="black" points="67.8054,-67.0892 60.8417,-59.1043 61.306,-69.689 67.8054,-67.0892"/>
</g>
</g>
</svg>
