<?xml version="1.0" encoding="UTF-8" standalone="no"?>
<!DOCTYPE svg PUBLIC "-//W3C//DTD SVG 1.1//EN"
 "http://www.w3.org/Graphics/SVG/1.1/DTD/svg11.dtd">
<!-- Generated by graphviz version 2.38.0 (20140413.2041)
 -->
<!-- Title: boolean matchFromSpecialPos(int) Pages: 1 -->
<svg width="275pt" height="643pt"
 viewBox="0.00 0.00 275.00 643.00" xmlns="http://www.w3.org/2000/svg" xmlns:xlink="http://www.w3.org/1999/xlink">
<g id="graph0" class="graph" transform="scale(1 1) rotate(0) translate(4 639)">
<title>boolean matchFromSpecialPos(int)</title>
<polygon fill="white" stroke="none" points="-4,4 -4,-639 271,-639 271,4 -4,4"/>
<text text-anchor="middle" x="133.5" y="-7.8" font-family="Times,serif" font-size="14.00">boolean matchFromSpecialPos(int)</text>
<!-- 0 -->
<g id="node1" class="node"><title>0</title>
<polygon fill="gray" stroke="black" points="189,-635 135,-635 135,-599 189,-599 189,-635"/>
<text text-anchor="middle" x="162" y="-613.3" font-family="Times,serif" font-size="14.00">0</text>
</g>
<!-- 1 -->
<g id="node2" class="node"><title>1</title>
<polygon fill="none" stroke="black" points="153,-563 99,-563 99,-527 153,-527 153,-563"/>
<text text-anchor="middle" x="126" y="-541.3" font-family="Times,serif" font-size="14.00">1</text>
</g>
<!-- 0&#45;&gt;1 -->
<g id="edge1" class="edge"><title>0&#45;&gt;1</title>
<path fill="none" stroke="black" d="M153.101,-598.697C149.003,-590.728 144.051,-581.1 139.507,-572.264"/>
<polygon fill="black" stroke="black" points="142.483,-570.396 134.797,-563.104 136.258,-573.598 142.483,-570.396"/>
</g>
<!-- 2 -->
<g id="node3" class="node"><title>2</title>
<polygon fill="lightgray" stroke="black" points="225,-563 171,-563 171,-527 225,-527 225,-563"/>
<text text-anchor="middle" x="198" y="-541.3" font-family="Times,serif" font-size="14.00">2</text>
</g>
<!-- 0&#45;&gt;2 -->
<g id="edge2" class="edge"><title>0&#45;&gt;2</title>
<path fill="none" stroke="black" d="M170.899,-598.697C174.997,-590.728 179.949,-581.1 184.493,-572.264"/>
<polygon fill="black" stroke="black" points="187.742,-573.598 189.203,-563.104 181.517,-570.396 187.742,-573.598"/>
</g>
<!-- 3 -->
<g id="node4" class="node"><title>3</title>
<polygon fill="none" stroke="black" points="153,-491 99,-491 99,-455 153,-455 153,-491"/>
<text text-anchor="middle" x="126" y="-469.3" font-family="Times,serif" font-size="14.00">3</text>
</g>
<!-- 1&#45;&gt;3 -->
<g id="edge3" class="edge"><title>1&#45;&gt;3</title>
<path fill="none" stroke="black" d="M126,-526.697C126,-518.983 126,-509.712 126,-501.112"/>
<polygon fill="black" stroke="black" points="129.5,-501.104 126,-491.104 122.5,-501.104 129.5,-501.104"/>
</g>
<!-- 4 -->
<g id="node5" class="node"><title>4</title>
<polygon fill="none" stroke="black" points="153,-419 99,-419 99,-383 153,-383 153,-419"/>
<text text-anchor="middle" x="126" y="-397.3" font-family="Times,serif" font-size="14.00">4</text>
</g>
<!-- 3&#45;&gt;4 -->
<g id="edge4" class="edge"><title>3&#45;&gt;4</title>
<path fill="none" stroke="black" d="M126,-454.697C126,-446.983 126,-437.712 126,-429.112"/>
<polygon fill="black" stroke="black" points="129.5,-429.104 126,-419.104 122.5,-429.104 129.5,-429.104"/>
</g>
<!-- 5 -->
<g id="node6" class="node"><title>5</title>
<polygon fill="none" stroke="black" points="54,-347 0,-347 0,-311 54,-311 54,-347"/>
<text text-anchor="middle" x="27" y="-325.3" font-family="Times,serif" font-size="14.00">5</text>
</g>
<!-- 4&#45;&gt;5 -->
<g id="edge5" class="edge"><title>4&#45;&gt;5</title>
<path fill="none" stroke="black" d="M101.782,-382.876C89.0773,-373.893 73.3356,-362.763 59.5768,-353.034"/>
<polygon fill="black" stroke="black" points="61.497,-350.105 51.3112,-347.19 57.4557,-355.821 61.497,-350.105"/>
</g>
<!-- 6 -->
<g id="node7" class="node"><title>6</title>
<polygon fill="none" stroke="black" points="153,-347 99,-347 99,-311 153,-311 153,-347"/>
<text text-anchor="middle" x="126" y="-325.3" font-family="Times,serif" font-size="14.00">6</text>
</g>
<!-- 4&#45;&gt;6 -->
<g id="edge6" class="edge"><title>4&#45;&gt;6</title>
<path fill="none" stroke="black" d="M126,-382.697C126,-374.983 126,-365.712 126,-357.112"/>
<polygon fill="black" stroke="black" points="129.5,-357.104 126,-347.104 122.5,-357.104 129.5,-357.104"/>
</g>
<!-- 14 -->
<g id="node8" class="node"><title>14</title>
<polygon fill="lightgray" stroke="black" points="81,-131 27,-131 27,-95 81,-95 81,-131"/>
<text text-anchor="middle" x="54" y="-109.3" font-family="Times,serif" font-size="14.00">14</text>
</g>
<!-- 5&#45;&gt;14 -->
<g id="edge7" class="edge"><title>5&#45;&gt;14</title>
<path fill="none" stroke="black" d="M25.5267,-310.835C23.4198,-281.132 20.9249,-218.394 32,-167 33.9308,-158.04 37.3152,-148.675 40.859,-140.353"/>
<polygon fill="black" stroke="black" points="44.089,-141.705 45.0148,-131.151 37.7093,-138.824 44.089,-141.705"/>
</g>
<!-- 7 -->
<g id="node9" class="node"><title>7</title>
<polygon fill="none" stroke="black" points="95,-275 41,-275 41,-239 95,-239 95,-275"/>
<text text-anchor="middle" x="68" y="-253.3" font-family="Times,serif" font-size="14.00">7</text>
</g>
<!-- 6&#45;&gt;7 -->
<g id="edge8" class="edge"><title>6&#45;&gt;7</title>
<path fill="none" stroke="black" d="M111.663,-310.697C104.709,-302.305 96.2298,-292.07 88.5994,-282.861"/>
<polygon fill="black" stroke="black" points="91.2475,-280.571 82.1722,-275.104 85.8573,-285.038 91.2475,-280.571"/>
</g>
<!-- 8 -->
<g id="node10" class="node"><title>8</title>
<polygon fill="none" stroke="black" points="167,-275 113,-275 113,-239 167,-239 167,-275"/>
<text text-anchor="middle" x="140" y="-253.3" font-family="Times,serif" font-size="14.00">8</text>
</g>
<!-- 6&#45;&gt;8 -->
<g id="edge9" class="edge"><title>6&#45;&gt;8</title>
<path fill="none" stroke="black" d="M129.461,-310.697C131.003,-302.983 132.858,-293.712 134.578,-285.112"/>
<polygon fill="black" stroke="black" points="138.05,-285.597 136.579,-275.104 131.186,-284.224 138.05,-285.597"/>
</g>
<!-- 12 -->
<g id="node11" class="node"><title>12</title>
<polygon fill="none" stroke="black" points="95,-203 41,-203 41,-167 95,-167 95,-203"/>
<text text-anchor="middle" x="68" y="-181.3" font-family="Times,serif" font-size="14.00">12</text>
</g>
<!-- 7&#45;&gt;12 -->
<g id="edge10" class="edge"><title>7&#45;&gt;12</title>
<path fill="none" stroke="black" d="M68,-238.697C68,-230.983 68,-221.712 68,-213.112"/>
<polygon fill="black" stroke="black" points="71.5001,-213.104 68,-203.104 64.5001,-213.104 71.5001,-213.104"/>
</g>
<!-- 9 -->
<g id="node12" class="node"><title>9</title>
<polygon fill="none" stroke="black" points="167,-203 113,-203 113,-167 167,-167 167,-203"/>
<text text-anchor="middle" x="140" y="-181.3" font-family="Times,serif" font-size="14.00">9</text>
</g>
<!-- 8&#45;&gt;9 -->
<g id="edge11" class="edge"><title>8&#45;&gt;9</title>
<path fill="none" stroke="black" d="M140,-238.697C140,-230.983 140,-221.712 140,-213.112"/>
<polygon fill="black" stroke="black" points="143.5,-213.104 140,-203.104 136.5,-213.104 143.5,-213.104"/>
</g>
<!-- 10 -->
<g id="node13" class="node"><title>10</title>
<polygon fill="lightgray" stroke="black" points="239,-203 185,-203 185,-167 239,-167 239,-203"/>
<text text-anchor="middle" x="212" y="-181.3" font-family="Times,serif" font-size="14.00">10</text>
</g>
<!-- 8&#45;&gt;10 -->
<g id="edge12" class="edge"><title>8&#45;&gt;10</title>
<path fill="none" stroke="black" d="M157.798,-238.697C166.604,-230.135 177.382,-219.656 187.001,-210.304"/>
<polygon fill="black" stroke="black" points="189.677,-212.585 194.407,-203.104 184.797,-207.566 189.677,-212.585"/>
</g>
<!-- 12&#45;&gt;14 -->
<g id="edge15" class="edge"><title>12&#45;&gt;14</title>
<path fill="none" stroke="black" d="M64.5393,-166.697C62.9965,-158.983 61.1425,-149.712 59.4225,-141.112"/>
<polygon fill="black" stroke="black" points="62.8141,-140.224 57.4209,-131.104 55.9501,-141.597 62.8141,-140.224"/>
</g>
<!-- 11 -->
<g id="node14" class="node"><title>11</title>
<polygon fill="none" stroke="black" points="180,-131 126,-131 126,-95 180,-95 180,-131"/>
<text text-anchor="middle" x="153" y="-109.3" font-family="Times,serif" font-size="14.00">11</text>
</g>
<!-- 9&#45;&gt;11 -->
<g id="edge13" class="edge"><title>9&#45;&gt;11</title>
<path fill="none" stroke="black" d="M143.213,-166.697C144.646,-158.983 146.368,-149.712 147.965,-141.112"/>
<polygon fill="black" stroke="black" points="151.439,-141.575 149.823,-131.104 144.556,-140.297 151.439,-141.575"/>
</g>
<!-- 13 -->
<g id="node15" class="node"><title>13</title>
<polygon fill="none" stroke="black" points="237,-59 183,-59 183,-23 237,-23 237,-59"/>
<text text-anchor="middle" x="210" y="-37.3" font-family="Times,serif" font-size="14.00">13</text>
</g>
<!-- 11&#45;&gt;13 -->
<g id="edge14" class="edge"><title>11&#45;&gt;13</title>
<path fill="none" stroke="black" d="M167.09,-94.6966C173.923,-86.3046 182.257,-76.0705 189.756,-66.8613"/>
<polygon fill="black" stroke="black" points="192.472,-69.0687 196.072,-59.1043 187.044,-64.6487 192.472,-69.0687"/>
</g>
<!-- 13&#45;&gt;4 -->
<g id="edge16" class="edge"><title>13&#45;&gt;4</title>
<path fill="none" stroke="black" d="M221.81,-59.0417C238.506,-84.842 267,-135.918 267,-184 267,-258 267,-258 267,-258 267,-317.43 204.042,-360.84 162.265,-383.104"/>
<polygon fill="black" stroke="black" points="160.467,-380.094 153.186,-387.791 163.678,-386.314 160.467,-380.094"/>
</g>
</g>
</svg>
