<?xml version="1.0" encoding="UTF-8" standalone="no"?>
<!DOCTYPE svg PUBLIC "-//W3C//DTD SVG 1.1//EN"
 "http://www.w3.org/Graphics/SVG/1.1/DTD/svg11.dtd">
<!-- Generated by graphviz version 2.38.0 (20140413.2041)
 -->
<!-- Title: boolean repOK() Pages: 1 -->
<svg width="214pt" height="1075pt"
 viewBox="0.00 0.00 214.00 1075.00" xmlns="http://www.w3.org/2000/svg" xmlns:xlink="http://www.w3.org/1999/xlink">
<g id="graph0" class="graph" transform="scale(1 1) rotate(0) translate(4 1071)">
<title>boolean repOK()</title>
<polygon fill="white" stroke="none" points="-4,4 -4,-1071 210,-1071 210,4 -4,4"/>
<text text-anchor="middle" x="103" y="-7.8" font-family="Times,serif" font-size="14.00">boolean repOK()</text>
<!-- 0 -->
<g id="node1" class="node"><title>0</title>
<polygon fill="gray" stroke="black" points="170,-1067 116,-1067 116,-1031 170,-1031 170,-1067"/>
<text text-anchor="middle" x="143" y="-1045.3" font-family="Times,serif" font-size="14.00">0</text>
</g>
<!-- 1 -->
<g id="node2" class="node"><title>1</title>
<polygon fill="none" stroke="black" points="134,-995 80,-995 80,-959 134,-959 134,-995"/>
<text text-anchor="middle" x="107" y="-973.3" font-family="Times,serif" font-size="14.00">1</text>
</g>
<!-- 0&#45;&gt;1 -->
<g id="edge1" class="edge"><title>0&#45;&gt;1</title>
<path fill="none" stroke="black" d="M134.101,-1030.7C130.003,-1022.73 125.051,-1013.1 120.507,-1004.26"/>
<polygon fill="black" stroke="black" points="123.483,-1002.4 115.797,-995.104 117.258,-1005.6 123.483,-1002.4"/>
</g>
<!-- 2 -->
<g id="node3" class="node"><title>2</title>
<polygon fill="lightgray" stroke="black" points="206,-995 152,-995 152,-959 206,-959 206,-995"/>
<text text-anchor="middle" x="179" y="-973.3" font-family="Times,serif" font-size="14.00">2</text>
</g>
<!-- 0&#45;&gt;2 -->
<g id="edge2" class="edge"><title>0&#45;&gt;2</title>
<path fill="none" stroke="black" d="M151.899,-1030.7C155.997,-1022.73 160.949,-1013.1 165.493,-1004.26"/>
<polygon fill="black" stroke="black" points="168.742,-1005.6 170.203,-995.104 162.517,-1002.4 168.742,-1005.6"/>
</g>
<!-- 3 -->
<g id="node4" class="node"><title>3</title>
<polygon fill="none" stroke="black" points="134,-923 80,-923 80,-887 134,-887 134,-923"/>
<text text-anchor="middle" x="107" y="-901.3" font-family="Times,serif" font-size="14.00">3</text>
</g>
<!-- 1&#45;&gt;3 -->
<g id="edge3" class="edge"><title>1&#45;&gt;3</title>
<path fill="none" stroke="black" d="M107,-958.697C107,-950.983 107,-941.712 107,-933.112"/>
<polygon fill="black" stroke="black" points="110.5,-933.104 107,-923.104 103.5,-933.104 110.5,-933.104"/>
</g>
<!-- 4 -->
<g id="node5" class="node"><title>4</title>
<polygon fill="none" stroke="black" points="134,-851 80,-851 80,-815 134,-815 134,-851"/>
<text text-anchor="middle" x="107" y="-829.3" font-family="Times,serif" font-size="14.00">4</text>
</g>
<!-- 3&#45;&gt;4 -->
<g id="edge4" class="edge"><title>3&#45;&gt;4</title>
<path fill="none" stroke="black" d="M107,-886.697C107,-878.983 107,-869.712 107,-861.112"/>
<polygon fill="black" stroke="black" points="110.5,-861.104 107,-851.104 103.5,-861.104 110.5,-861.104"/>
</g>
<!-- 5 -->
<g id="node6" class="node"><title>5</title>
<polygon fill="none" stroke="black" points="79,-779 25,-779 25,-743 79,-743 79,-779"/>
<text text-anchor="middle" x="52" y="-757.3" font-family="Times,serif" font-size="14.00">5</text>
</g>
<!-- 4&#45;&gt;5 -->
<g id="edge5" class="edge"><title>4&#45;&gt;5</title>
<path fill="none" stroke="black" d="M93.4045,-814.697C86.8773,-806.389 78.932,-796.277 71.7534,-787.141"/>
<polygon fill="black" stroke="black" points="74.3695,-784.805 65.4391,-779.104 68.8653,-789.13 74.3695,-784.805"/>
</g>
<!-- 8 -->
<g id="node7" class="node"><title>8</title>
<polygon fill="lightgray" stroke="black" points="126,-635 72,-635 72,-599 126,-599 126,-635"/>
<text text-anchor="middle" x="99" y="-613.3" font-family="Times,serif" font-size="14.00">8</text>
</g>
<!-- 4&#45;&gt;8 -->
<g id="edge6" class="edge"><title>4&#45;&gt;8</title>
<path fill="none" stroke="black" d="M106.359,-814.849C104.975,-777.832 101.698,-690.181 100.024,-645.386"/>
<polygon fill="black" stroke="black" points="103.515,-645.095 99.6442,-635.232 96.5203,-645.356 103.515,-645.095"/>
</g>
<!-- 6 -->
<g id="node8" class="node"><title>6</title>
<polygon fill="none" stroke="black" points="79,-707 25,-707 25,-671 79,-671 79,-707"/>
<text text-anchor="middle" x="52" y="-685.3" font-family="Times,serif" font-size="14.00">6</text>
</g>
<!-- 5&#45;&gt;6 -->
<g id="edge7" class="edge"><title>5&#45;&gt;6</title>
<path fill="none" stroke="black" d="M52,-742.697C52,-734.983 52,-725.712 52,-717.112"/>
<polygon fill="black" stroke="black" points="55.5001,-717.104 52,-707.104 48.5001,-717.104 55.5001,-717.104"/>
</g>
<!-- 6&#45;&gt;8 -->
<g id="edge9" class="edge"><title>6&#45;&gt;8</title>
<path fill="none" stroke="black" d="M63.618,-670.697C69.1388,-662.474 75.847,-652.483 81.9318,-643.421"/>
<polygon fill="black" stroke="black" points="84.8471,-645.358 87.5157,-635.104 79.0355,-641.456 84.8471,-645.358"/>
</g>
<!-- 7 -->
<g id="node9" class="node"><title>7</title>
<polygon fill="none" stroke="black" points="54,-635 0,-635 0,-599 54,-599 54,-635"/>
<text text-anchor="middle" x="27" y="-613.3" font-family="Times,serif" font-size="14.00">7</text>
</g>
<!-- 6&#45;&gt;7 -->
<g id="edge8" class="edge"><title>6&#45;&gt;7</title>
<path fill="none" stroke="black" d="M45.8202,-670.697C43.0047,-662.813 39.6087,-653.304 36.4809,-644.546"/>
<polygon fill="black" stroke="black" points="39.7682,-643.345 33.1087,-635.104 33.176,-645.699 39.7682,-643.345"/>
</g>
<!-- 9 -->
<g id="node10" class="node"><title>9</title>
<polygon fill="none" stroke="black" points="54,-563 0,-563 0,-527 54,-527 54,-563"/>
<text text-anchor="middle" x="27" y="-541.3" font-family="Times,serif" font-size="14.00">9</text>
</g>
<!-- 7&#45;&gt;9 -->
<g id="edge10" class="edge"><title>7&#45;&gt;9</title>
<path fill="none" stroke="black" d="M27,-598.697C27,-590.983 27,-581.712 27,-573.112"/>
<polygon fill="black" stroke="black" points="30.5001,-573.104 27,-563.104 23.5001,-573.104 30.5001,-573.104"/>
</g>
<!-- 10 -->
<g id="node11" class="node"><title>10</title>
<polygon fill="none" stroke="black" points="54,-491 0,-491 0,-455 54,-455 54,-491"/>
<text text-anchor="middle" x="27" y="-469.3" font-family="Times,serif" font-size="14.00">10</text>
</g>
<!-- 9&#45;&gt;10 -->
<g id="edge11" class="edge"><title>9&#45;&gt;10</title>
<path fill="none" stroke="black" d="M27,-526.697C27,-518.983 27,-509.712 27,-501.112"/>
<polygon fill="black" stroke="black" points="30.5001,-501.104 27,-491.104 23.5001,-501.104 30.5001,-501.104"/>
</g>
<!-- 11 -->
<g id="node12" class="node"><title>11</title>
<polygon fill="none" stroke="black" points="126,-491 72,-491 72,-455 126,-455 126,-491"/>
<text text-anchor="middle" x="99" y="-469.3" font-family="Times,serif" font-size="14.00">11</text>
</g>
<!-- 9&#45;&gt;11 -->
<g id="edge12" class="edge"><title>9&#45;&gt;11</title>
<path fill="none" stroke="black" d="M44.7978,-526.697C53.604,-518.135 64.3821,-507.656 74.0011,-498.304"/>
<polygon fill="black" stroke="black" points="76.6768,-500.585 81.407,-491.104 71.7972,-495.566 76.6768,-500.585"/>
</g>
<!-- 12 -->
<g id="node13" class="node"><title>12</title>
<polygon fill="none" stroke="black" points="126,-419 72,-419 72,-383 126,-383 126,-419"/>
<text text-anchor="middle" x="99" y="-397.3" font-family="Times,serif" font-size="14.00">12</text>
</g>
<!-- 10&#45;&gt;12 -->
<g id="edge13" class="edge"><title>10&#45;&gt;12</title>
<path fill="none" stroke="black" d="M44.7978,-454.697C53.604,-446.135 64.3821,-435.656 74.0011,-426.304"/>
<polygon fill="black" stroke="black" points="76.6768,-428.585 81.407,-419.104 71.7972,-423.566 76.6768,-428.585"/>
</g>
<!-- 11&#45;&gt;12 -->
<g id="edge14" class="edge"><title>11&#45;&gt;12</title>
<path fill="none" stroke="black" d="M99,-454.697C99,-446.983 99,-437.712 99,-429.112"/>
<polygon fill="black" stroke="black" points="102.5,-429.104 99,-419.104 95.5001,-429.104 102.5,-429.104"/>
</g>
<!-- 12&#45;&gt;4 -->
<g id="edge15" class="edge"><title>12&#45;&gt;4</title>
<path fill="none" stroke="black" d="M113.165,-419.149C120.69,-429.07 129.497,-442.11 135,-455 150.881,-492.199 154,-503.553 154,-544 154,-690 154,-690 154,-690 154,-732.045 135.2,-777.707 121.38,-805.593"/>
<polygon fill="black" stroke="black" points="118.17,-804.183 116.738,-814.68 124.404,-807.367 118.17,-804.183"/>
</g>
<!-- 13 -->
<g id="node14" class="node"><title>13</title>
<polygon fill="none" stroke="black" points="126,-347 72,-347 72,-311 126,-311 126,-347"/>
<text text-anchor="middle" x="99" y="-325.3" font-family="Times,serif" font-size="14.00">13</text>
</g>
<!-- 12&#45;&gt;13 -->
<g id="edge16" class="edge"><title>12&#45;&gt;13</title>
<path fill="none" stroke="black" d="M99,-382.697C99,-374.983 99,-365.712 99,-357.112"/>
<polygon fill="black" stroke="black" points="102.5,-357.104 99,-347.104 95.5001,-357.104 102.5,-357.104"/>
</g>
<!-- 14 -->
<g id="node15" class="node"><title>14</title>
<polygon fill="none" stroke="black" points="126,-275 72,-275 72,-239 126,-239 126,-275"/>
<text text-anchor="middle" x="99" y="-253.3" font-family="Times,serif" font-size="14.00">14</text>
</g>
<!-- 13&#45;&gt;14 -->
<g id="edge17" class="edge"><title>13&#45;&gt;14</title>
<path fill="none" stroke="black" d="M99,-310.697C99,-302.983 99,-293.712 99,-285.112"/>
<polygon fill="black" stroke="black" points="102.5,-285.104 99,-275.104 95.5001,-285.104 102.5,-285.104"/>
</g>
<!-- 15 -->
<g id="node16" class="node"><title>15</title>
<polygon fill="none" stroke="black" points="99,-203 45,-203 45,-167 99,-167 99,-203"/>
<text text-anchor="middle" x="72" y="-181.3" font-family="Times,serif" font-size="14.00">15</text>
</g>
<!-- 14&#45;&gt;15 -->
<g id="edge18" class="edge"><title>14&#45;&gt;15</title>
<path fill="none" stroke="black" d="M92.3258,-238.697C89.2851,-230.813 85.6173,-221.304 82.2393,-212.546"/>
<polygon fill="black" stroke="black" points="85.4617,-211.175 78.5974,-203.104 78.9307,-213.694 85.4617,-211.175"/>
</g>
<!-- 17 -->
<g id="node17" class="node"><title>17</title>
<polygon fill="none" stroke="black" points="167,-131 113,-131 113,-95 167,-95 167,-131"/>
<text text-anchor="middle" x="140" y="-109.3" font-family="Times,serif" font-size="14.00">17</text>
</g>
<!-- 14&#45;&gt;17 -->
<g id="edge19" class="edge"><title>14&#45;&gt;17</title>
<path fill="none" stroke="black" d="M103.946,-238.871C110.964,-214.564 123.883,-169.819 132.2,-141.013"/>
<polygon fill="black" stroke="black" points="135.625,-141.768 135.037,-131.189 128.9,-139.826 135.625,-141.768"/>
</g>
<!-- 16 -->
<g id="node18" class="node"><title>16</title>
<polygon fill="none" stroke="black" points="95,-131 41,-131 41,-95 95,-95 95,-131"/>
<text text-anchor="middle" x="68" y="-109.3" font-family="Times,serif" font-size="14.00">16</text>
</g>
<!-- 15&#45;&gt;16 -->
<g id="edge20" class="edge"><title>15&#45;&gt;16</title>
<path fill="none" stroke="black" d="M71.0112,-166.697C70.5704,-158.983 70.0407,-149.712 69.5493,-141.112"/>
<polygon fill="black" stroke="black" points="73.0423,-140.888 68.9774,-131.104 66.0537,-141.288 73.0423,-140.888"/>
</g>
<!-- 18 -->
<g id="node19" class="node"><title>18</title>
<polygon fill="lightgray" stroke="black" points="131,-59 77,-59 77,-23 131,-23 131,-59"/>
<text text-anchor="middle" x="104" y="-37.3" font-family="Times,serif" font-size="14.00">18</text>
</g>
<!-- 17&#45;&gt;18 -->
<g id="edge22" class="edge"><title>17&#45;&gt;18</title>
<path fill="none" stroke="black" d="M131.101,-94.6966C127.003,-86.7284 122.051,-77.0995 117.507,-68.2641"/>
<polygon fill="black" stroke="black" points="120.483,-66.3965 112.797,-59.1043 114.258,-69.598 120.483,-66.3965"/>
</g>
<!-- 16&#45;&gt;18 -->
<g id="edge21" class="edge"><title>16&#45;&gt;18</title>
<path fill="none" stroke="black" d="M76.8989,-94.6966C80.9968,-86.7284 85.9488,-77.0995 90.4927,-68.2641"/>
<polygon fill="black" stroke="black" points="93.7425,-69.598 95.2035,-59.1043 87.5174,-66.3965 93.7425,-69.598"/>
</g>
</g>
</svg>
