<?xml version="1.0" encoding="UTF-8" standalone="no"?>
<!DOCTYPE svg PUBLIC "-//W3C//DTD SVG 1.1//EN"
 "http://www.w3.org/Graphics/SVG/1.1/DTD/svg11.dtd">
<!-- Generated by graphviz version 2.38.0 (20140413.2041)
 -->
<!-- Title: int lastIndexOf(java.lang.Object) Pages: 1 -->
<svg width="488pt" height="499pt"
 viewBox="0.00 0.00 488.00 499.00" xmlns="http://www.w3.org/2000/svg" xmlns:xlink="http://www.w3.org/1999/xlink">
<g id="graph0" class="graph" transform="scale(1 1) rotate(0) translate(4 495)">
<title>int lastIndexOf(java.lang.Object)</title>
<polygon fill="white" stroke="none" points="-4,4 -4,-495 484,-495 484,4 -4,4"/>
<text text-anchor="middle" x="240" y="-7.8" font-family="Times,serif" font-size="14.00">int lastIndexOf(java.lang.Object)</text>
<!-- 0 -->
<g id="node1" class="node"><title>0</title>
<polygon fill="gray" stroke="black" points="220,-491 166,-491 166,-455 220,-455 220,-491"/>
<text text-anchor="middle" x="193" y="-469.3" font-family="Times,serif" font-size="14.00">0</text>
</g>
<!-- 1 -->
<g id="node2" class="node"><title>1</title>
<polygon fill="none" stroke="black" points="269,-419 215,-419 215,-383 269,-383 269,-419"/>
<text text-anchor="middle" x="242" y="-397.3" font-family="Times,serif" font-size="14.00">1</text>
</g>
<!-- 0&#45;&gt;1 -->
<g id="edge1" class="edge"><title>0&#45;&gt;1</title>
<path fill="none" stroke="black" d="M205.112,-454.697C210.868,-446.474 217.862,-436.483 224.206,-427.421"/>
<polygon fill="black" stroke="black" points="227.16,-429.304 230.027,-419.104 221.425,-425.29 227.16,-429.304"/>
</g>
<!-- 2 -->
<g id="node3" class="node"><title>2</title>
<polygon fill="none" stroke="black" points="172,-419 118,-419 118,-383 172,-383 172,-419"/>
<text text-anchor="middle" x="145" y="-397.3" font-family="Times,serif" font-size="14.00">2</text>
</g>
<!-- 0&#45;&gt;2 -->
<g id="edge2" class="edge"><title>0&#45;&gt;2</title>
<path fill="none" stroke="black" d="M181.135,-454.697C175.497,-446.474 168.646,-436.483 162.431,-427.421"/>
<polygon fill="black" stroke="black" points="165.271,-425.372 156.729,-419.104 159.497,-429.331 165.271,-425.372"/>
</g>
<!-- 10 -->
<g id="node4" class="node"><title>10</title>
<polygon fill="none" stroke="black" points="318,-347 264,-347 264,-311 318,-311 318,-347"/>
<text text-anchor="middle" x="291" y="-325.3" font-family="Times,serif" font-size="14.00">10</text>
</g>
<!-- 1&#45;&gt;10 -->
<g id="edge3" class="edge"><title>1&#45;&gt;10</title>
<path fill="none" stroke="black" d="M254.112,-382.697C259.868,-374.474 266.862,-364.483 273.206,-355.421"/>
<polygon fill="black" stroke="black" points="276.16,-357.304 279.027,-347.104 270.425,-353.29 276.16,-357.304"/>
</g>
<!-- 3 -->
<g id="node5" class="node"><title>3</title>
<polygon fill="none" stroke="black" points="160,-347 106,-347 106,-311 160,-311 160,-347"/>
<text text-anchor="middle" x="133" y="-325.3" font-family="Times,serif" font-size="14.00">3</text>
</g>
<!-- 2&#45;&gt;3 -->
<g id="edge4" class="edge"><title>2&#45;&gt;3</title>
<path fill="none" stroke="black" d="M142.034,-382.697C140.711,-374.983 139.122,-365.712 137.648,-357.112"/>
<polygon fill="black" stroke="black" points="141.072,-356.369 135.932,-347.104 134.172,-357.552 141.072,-356.369"/>
</g>
<!-- 11 -->
<g id="node13" class="node"><title>11</title>
<polygon fill="none" stroke="black" points="325,-275 271,-275 271,-239 325,-239 325,-275"/>
<text text-anchor="middle" x="298" y="-253.3" font-family="Times,serif" font-size="14.00">11</text>
</g>
<!-- 10&#45;&gt;11 -->
<g id="edge13" class="edge"><title>10&#45;&gt;11</title>
<path fill="none" stroke="black" d="M292.73,-310.697C293.502,-302.983 294.429,-293.712 295.289,-285.112"/>
<polygon fill="black" stroke="black" points="298.777,-285.403 296.29,-275.104 291.812,-284.706 298.777,-285.403"/>
</g>
<!-- 4 -->
<g id="node6" class="node"><title>4</title>
<polygon fill="none" stroke="black" points="226,-275 172,-275 172,-239 226,-239 226,-275"/>
<text text-anchor="middle" x="199" y="-253.3" font-family="Times,serif" font-size="14.00">4</text>
</g>
<!-- 3&#45;&gt;4 -->
<g id="edge5" class="edge"><title>3&#45;&gt;4</title>
<path fill="none" stroke="black" d="M149.315,-310.697C157.307,-302.22 167.072,-291.864 175.822,-282.583"/>
<polygon fill="black" stroke="black" points="178.559,-284.781 182.873,-275.104 173.466,-279.979 178.559,-284.781"/>
</g>
<!-- 5 -->
<g id="node7" class="node"><title>5</title>
<polygon fill="none" stroke="black" points="154,-275 100,-275 100,-239 154,-239 154,-275"/>
<text text-anchor="middle" x="127" y="-253.3" font-family="Times,serif" font-size="14.00">5</text>
</g>
<!-- 3&#45;&gt;5 -->
<g id="edge6" class="edge"><title>3&#45;&gt;5</title>
<path fill="none" stroke="black" d="M131.517,-310.697C130.856,-302.983 130.061,-293.712 129.324,-285.112"/>
<polygon fill="black" stroke="black" points="132.807,-284.769 128.466,-275.104 125.833,-285.367 132.807,-284.769"/>
</g>
<!-- 9 -->
<g id="node8" class="node"><title>9</title>
<polygon fill="none" stroke="black" points="226,-203 172,-203 172,-167 226,-167 226,-203"/>
<text text-anchor="middle" x="199" y="-181.3" font-family="Times,serif" font-size="14.00">9</text>
</g>
<!-- 4&#45;&gt;9 -->
<g id="edge7" class="edge"><title>4&#45;&gt;9</title>
<path fill="none" stroke="black" d="M199,-238.697C199,-230.983 199,-221.712 199,-213.112"/>
<polygon fill="black" stroke="black" points="202.5,-213.104 199,-203.104 195.5,-213.104 202.5,-213.104"/>
</g>
<!-- 6 -->
<g id="node9" class="node"><title>6</title>
<polygon fill="none" stroke="black" points="82,-203 28,-203 28,-167 82,-167 82,-203"/>
<text text-anchor="middle" x="55" y="-181.3" font-family="Times,serif" font-size="14.00">6</text>
</g>
<!-- 5&#45;&gt;6 -->
<g id="edge8" class="edge"><title>5&#45;&gt;6</title>
<path fill="none" stroke="black" d="M109.202,-238.697C100.396,-230.135 89.6179,-219.656 79.9989,-210.304"/>
<polygon fill="black" stroke="black" points="82.2028,-207.566 72.593,-203.104 77.3232,-212.585 82.2028,-207.566"/>
</g>
<!-- 7 -->
<g id="node10" class="node"><title>7</title>
<polygon fill="lightgray" stroke="black" points="154,-203 100,-203 100,-167 154,-167 154,-203"/>
<text text-anchor="middle" x="127" y="-181.3" font-family="Times,serif" font-size="14.00">7</text>
</g>
<!-- 5&#45;&gt;7 -->
<g id="edge9" class="edge"><title>5&#45;&gt;7</title>
<path fill="none" stroke="black" d="M127,-238.697C127,-230.983 127,-221.712 127,-213.112"/>
<polygon fill="black" stroke="black" points="130.5,-213.104 127,-203.104 123.5,-213.104 130.5,-213.104"/>
</g>
<!-- 17 -->
<g id="node12" class="node"><title>17</title>
<polygon fill="lightgray" stroke="black" points="262,-131 208,-131 208,-95 262,-95 262,-131"/>
<text text-anchor="middle" x="235" y="-109.3" font-family="Times,serif" font-size="14.00">17</text>
</g>
<!-- 9&#45;&gt;17 -->
<g id="edge12" class="edge"><title>9&#45;&gt;17</title>
<path fill="none" stroke="black" d="M207.899,-166.697C211.997,-158.728 216.949,-149.1 221.493,-140.264"/>
<polygon fill="black" stroke="black" points="224.742,-141.598 226.203,-131.104 218.517,-138.396 224.742,-141.598"/>
</g>
<!-- 8 -->
<g id="node11" class="node"><title>8</title>
<polygon fill="none" stroke="black" points="54,-131 0,-131 0,-95 54,-95 54,-131"/>
<text text-anchor="middle" x="27" y="-109.3" font-family="Times,serif" font-size="14.00">8</text>
</g>
<!-- 6&#45;&gt;8 -->
<g id="edge10" class="edge"><title>6&#45;&gt;8</title>
<path fill="none" stroke="black" d="M48.0786,-166.697C44.9253,-158.813 41.1217,-149.304 37.6186,-140.546"/>
<polygon fill="black" stroke="black" points="40.8054,-139.089 33.8417,-131.104 34.306,-141.689 40.8054,-139.089"/>
</g>
<!-- 8&#45;&gt;3 -->
<g id="edge11" class="edge"><title>8&#45;&gt;3</title>
<path fill="none" stroke="black" d="M21.081,-131.03C15.6755,-149.423 9.80667,-179.277 19,-203 35.421,-245.374 73.6365,-282.189 101.303,-304.685"/>
<polygon fill="black" stroke="black" points="99.148,-307.444 109.156,-310.92 103.5,-301.961 99.148,-307.444"/>
</g>
<!-- 12 -->
<g id="node14" class="node"><title>12</title>
<polygon fill="none" stroke="black" points="298,-203 244,-203 244,-167 298,-167 298,-203"/>
<text text-anchor="middle" x="271" y="-181.3" font-family="Times,serif" font-size="14.00">12</text>
</g>
<!-- 11&#45;&gt;12 -->
<g id="edge14" class="edge"><title>11&#45;&gt;12</title>
<path fill="none" stroke="black" d="M291.326,-238.697C288.285,-230.813 284.617,-221.304 281.239,-212.546"/>
<polygon fill="black" stroke="black" points="284.462,-211.175 277.597,-203.104 277.931,-213.694 284.462,-211.175"/>
</g>
<!-- 13 -->
<g id="node15" class="node"><title>13</title>
<polygon fill="none" stroke="black" points="408,-203 354,-203 354,-167 408,-167 408,-203"/>
<text text-anchor="middle" x="381" y="-181.3" font-family="Times,serif" font-size="14.00">13</text>
</g>
<!-- 11&#45;&gt;13 -->
<g id="edge15" class="edge"><title>11&#45;&gt;13</title>
<path fill="none" stroke="black" d="M318.517,-238.697C328.869,-229.965 341.586,-219.24 352.839,-209.75"/>
<polygon fill="black" stroke="black" points="355.331,-212.227 360.719,-203.104 350.818,-206.876 355.331,-212.227"/>
</g>
<!-- 12&#45;&gt;17 -->
<g id="edge16" class="edge"><title>12&#45;&gt;17</title>
<path fill="none" stroke="black" d="M262.101,-166.697C258.003,-158.728 253.051,-149.1 248.507,-140.264"/>
<polygon fill="black" stroke="black" points="251.483,-138.396 243.797,-131.104 245.258,-141.598 251.483,-138.396"/>
</g>
<!-- 14 -->
<g id="node16" class="node"><title>14</title>
<polygon fill="none" stroke="black" points="480,-131 426,-131 426,-95 480,-95 480,-131"/>
<text text-anchor="middle" x="453" y="-109.3" font-family="Times,serif" font-size="14.00">14</text>
</g>
<!-- 13&#45;&gt;14 -->
<g id="edge17" class="edge"><title>13&#45;&gt;14</title>
<path fill="none" stroke="black" d="M398.798,-166.697C407.604,-158.135 418.382,-147.656 428.001,-138.304"/>
<polygon fill="black" stroke="black" points="430.677,-140.585 435.407,-131.104 425.797,-135.566 430.677,-140.585"/>
</g>
<!-- 15 -->
<g id="node17" class="node"><title>15</title>
<polygon fill="lightgray" stroke="black" points="408,-131 354,-131 354,-95 408,-95 408,-131"/>
<text text-anchor="middle" x="381" y="-109.3" font-family="Times,serif" font-size="14.00">15</text>
</g>
<!-- 13&#45;&gt;15 -->
<g id="edge18" class="edge"><title>13&#45;&gt;15</title>
<path fill="none" stroke="black" d="M381,-166.697C381,-158.983 381,-149.712 381,-141.112"/>
<polygon fill="black" stroke="black" points="384.5,-141.104 381,-131.104 377.5,-141.104 384.5,-141.104"/>
</g>
<!-- 16 -->
<g id="node18" class="node"><title>16</title>
<polygon fill="none" stroke="black" points="416,-59 362,-59 362,-23 416,-23 416,-59"/>
<text text-anchor="middle" x="389" y="-37.3" font-family="Times,serif" font-size="14.00">16</text>
</g>
<!-- 14&#45;&gt;16 -->
<g id="edge19" class="edge"><title>14&#45;&gt;16</title>
<path fill="none" stroke="black" d="M437.18,-94.6966C429.43,-86.2198 419.961,-75.8636 411.476,-66.5826"/>
<polygon fill="black" stroke="black" points="413.969,-64.1229 404.638,-59.1043 408.803,-68.8464 413.969,-64.1229"/>
</g>
<!-- 16&#45;&gt;11 -->
<g id="edge20" class="edge"><title>16&#45;&gt;11</title>
<path fill="none" stroke="black" d="M371.519,-59.2971C362.499,-69.0609 351.959,-81.905 345,-95 321.697,-138.852 308.584,-195.729 302.425,-228.815"/>
<polygon fill="black" stroke="black" points="298.977,-228.216 300.666,-238.675 305.868,-229.445 298.977,-228.216"/>
</g>
</g>
</svg>
