<?xml version="1.0" encoding="UTF-8" standalone="no"?>
<!DOCTYPE svg PUBLIC "-//W3C//DTD SVG 1.1//EN"
 "http://www.w3.org/Graphics/SVG/1.1/DTD/svg11.dtd">
<!-- Generated by graphviz version 2.38.0 (20140413.2041)
 -->
<!-- Title: void add(int,java.lang.Object) Pages: 1 -->
<svg width="194pt" height="283pt"
 viewBox="0.00 0.00 194.00 283.00" xmlns="http://www.w3.org/2000/svg" xmlns:xlink="http://www.w3.org/1999/xlink">
<g id="graph0" class="graph" transform="scale(1 1) rotate(0) translate(4 279)">
<title>void add(int,java.lang.Object)</title>
<polygon fill="white" stroke="none" points="-4,4 -4,-279 190,-279 190,4 -4,4"/>
<text text-anchor="middle" x="93" y="-7.8" font-family="Times,serif" font-size="14.00">void add(int,java.lang.Object)</text>
<!-- 0 -->
<g id="node1" class="node"><title>0</title>
<polygon fill="gray" stroke="black" points="119,-275 65,-275 65,-239 119,-239 119,-275"/>
<text text-anchor="middle" x="92" y="-253.3" font-family="Times,serif" font-size="14.00">0</text>
</g>
<!-- 1 -->
<g id="node2" class="node"><title>1</title>
<polygon fill="none" stroke="black" points="88,-203 34,-203 34,-167 88,-167 88,-203"/>
<text text-anchor="middle" x="61" y="-181.3" font-family="Times,serif" font-size="14.00">1</text>
</g>
<!-- 0&#45;&gt;1 -->
<g id="edge1" class="edge"><title>0&#45;&gt;1</title>
<path fill="none" stroke="black" d="M84.3371,-238.697C80.8083,-230.728 76.5441,-221.1 72.6313,-212.264"/>
<polygon fill="black" stroke="black" points="75.8243,-210.831 68.5748,-203.104 69.4239,-213.665 75.8243,-210.831"/>
</g>
<!-- 2 -->
<g id="node3" class="node"><title>2</title>
<polygon fill="none" stroke="black" points="156,-131 102,-131 102,-95 156,-95 156,-131"/>
<text text-anchor="middle" x="129" y="-109.3" font-family="Times,serif" font-size="14.00">2</text>
</g>
<!-- 0&#45;&gt;2 -->
<g id="edge2" class="edge"><title>0&#45;&gt;2</title>
<path fill="none" stroke="black" d="M96.4631,-238.871C102.797,-214.564 114.456,-169.819 121.961,-141.013"/>
<polygon fill="black" stroke="black" points="125.387,-141.749 124.521,-131.189 118.613,-139.984 125.387,-141.749"/>
</g>
<!-- 3 -->
<g id="node4" class="node"><title>3</title>
<polygon fill="none" stroke="black" points="84,-131 30,-131 30,-95 84,-95 84,-131"/>
<text text-anchor="middle" x="57" y="-109.3" font-family="Times,serif" font-size="14.00">3</text>
</g>
<!-- 1&#45;&gt;3 -->
<g id="edge3" class="edge"><title>1&#45;&gt;3</title>
<path fill="none" stroke="black" d="M60.0112,-166.697C59.5704,-158.983 59.0407,-149.712 58.5493,-141.112"/>
<polygon fill="black" stroke="black" points="62.0423,-140.888 57.9774,-131.104 55.0537,-141.288 62.0423,-140.888"/>
</g>
<!-- 4 -->
<g id="node5" class="node"><title>4</title>
<polygon fill="lightgray" stroke="black" points="120,-59 66,-59 66,-23 120,-23 120,-59"/>
<text text-anchor="middle" x="93" y="-37.3" font-family="Times,serif" font-size="14.00">4</text>
</g>
<!-- 2&#45;&gt;4 -->
<g id="edge4" class="edge"><title>2&#45;&gt;4</title>
<path fill="none" stroke="black" d="M120.101,-94.6966C116.003,-86.7284 111.051,-77.0995 106.507,-68.2641"/>
<polygon fill="black" stroke="black" points="109.483,-66.3965 101.797,-59.1043 103.258,-69.598 109.483,-66.3965"/>
</g>
<!-- 3&#45;&gt;4 -->
<g id="edge5" class="edge"><title>3&#45;&gt;4</title>
<path fill="none" stroke="black" d="M65.8989,-94.6966C69.9968,-86.7284 74.9488,-77.0995 79.4927,-68.2641"/>
<polygon fill="black" stroke="black" points="82.7425,-69.598 84.2035,-59.1043 76.5174,-66.3965 82.7425,-69.598"/>
</g>
</g>
</svg>
