<?xml version="1.0" encoding="UTF-8" standalone="no"?>
<!DOCTYPE svg PUBLIC "-//W3C//DTD SVG 1.1//EN"
 "http://www.w3.org/Graphics/SVG/1.1/DTD/svg11.dtd">
<!-- Generated by graphviz version 2.38.0 (20140413.2041)
 -->
<!-- Title: void remove(DoubleLinkedList$Entry) Pages: 1 -->
<svg width="253pt" height="211pt"
 viewBox="0.00 0.00 253.00 211.00" xmlns="http://www.w3.org/2000/svg" xmlns:xlink="http://www.w3.org/1999/xlink">
<g id="graph0" class="graph" transform="scale(1 1) rotate(0) translate(4 207)">
<title>void remove(DoubleLinkedList$Entry)</title>
<polygon fill="white" stroke="none" points="-4,4 -4,-207 249,-207 249,4 -4,4"/>
<text text-anchor="middle" x="122.5" y="-7.8" font-family="Times,serif" font-size="14.00">void remove(DoubleLinkedList$Entry)</text>
<!-- 0 -->
<g id="node1" class="node"><title>0</title>
<polygon fill="gray" stroke="black" points="149.5,-203 95.5,-203 95.5,-167 149.5,-167 149.5,-203"/>
<text text-anchor="middle" x="122.5" y="-181.3" font-family="Times,serif" font-size="14.00">0</text>
</g>
<!-- 1 -->
<g id="node2" class="node"><title>1</title>
<polygon fill="none" stroke="black" points="113.5,-131 59.5,-131 59.5,-95 113.5,-95 113.5,-131"/>
<text text-anchor="middle" x="86.5" y="-109.3" font-family="Times,serif" font-size="14.00">1</text>
</g>
<!-- 0&#45;&gt;1 -->
<g id="edge1" class="edge"><title>0&#45;&gt;1</title>
<path fill="none" stroke="black" d="M113.601,-166.697C109.503,-158.728 104.551,-149.1 100.007,-140.264"/>
<polygon fill="black" stroke="black" points="102.983,-138.396 95.2965,-131.104 96.7575,-141.598 102.983,-138.396"/>
</g>
<!-- 2 -->
<g id="node3" class="node"><title>2</title>
<polygon fill="lightgray" stroke="black" points="185.5,-131 131.5,-131 131.5,-95 185.5,-95 185.5,-131"/>
<text text-anchor="middle" x="158.5" y="-109.3" font-family="Times,serif" font-size="14.00">2</text>
</g>
<!-- 0&#45;&gt;2 -->
<g id="edge2" class="edge"><title>0&#45;&gt;2</title>
<path fill="none" stroke="black" d="M131.399,-166.697C135.497,-158.728 140.449,-149.1 144.993,-140.264"/>
<polygon fill="black" stroke="black" points="148.242,-141.598 149.703,-131.104 142.017,-138.396 148.242,-141.598"/>
</g>
<!-- 3 -->
<g id="node4" class="node"><title>3</title>
<polygon fill="lightgray" stroke="black" points="113.5,-59 59.5,-59 59.5,-23 113.5,-23 113.5,-59"/>
<text text-anchor="middle" x="86.5" y="-37.3" font-family="Times,serif" font-size="14.00">3</text>
</g>
<!-- 1&#45;&gt;3 -->
<g id="edge3" class="edge"><title>1&#45;&gt;3</title>
<path fill="none" stroke="black" d="M86.5,-94.6966C86.5,-86.9827 86.5,-77.7125 86.5,-69.1124"/>
<polygon fill="black" stroke="black" points="90.0001,-69.1043 86.5,-59.1043 83.0001,-69.1044 90.0001,-69.1043"/>
</g>
</g>
</svg>
