<?xml version="1.0" encoding="UTF-8" standalone="no"?>
<!DOCTYPE svg PUBLIC "-//W3C//DTD SVG 1.1//EN"
 "http://www.w3.org/Graphics/SVG/1.1/DTD/svg11.dtd">
<!-- Generated by graphviz version 2.38.0 (20140413.2041)
 -->
<!-- Title: boolean addAll(int,java.util.Collection) Pages: 1 -->
<svg width="248pt" height="643pt"
 viewBox="0.00 0.00 248.00 643.00" xmlns="http://www.w3.org/2000/svg" xmlns:xlink="http://www.w3.org/1999/xlink">
<g id="graph0" class="graph" transform="scale(1 1) rotate(0) translate(4 639)">
<title>boolean addAll(int,java.util.Collection)</title>
<polygon fill="white" stroke="none" points="-4,4 -4,-639 244,-639 244,4 -4,4"/>
<text text-anchor="middle" x="120" y="-7.8" font-family="Times,serif" font-size="14.00">boolean addAll(int,java.util.Collection)</text>
<!-- 0 -->
<g id="node1" class="node"><title>0</title>
<polygon fill="gray" stroke="black" points="182.5,-635 128.5,-635 128.5,-599 182.5,-599 182.5,-635"/>
<text text-anchor="middle" x="155.5" y="-613.3" font-family="Times,serif" font-size="14.00">0</text>
</g>
<!-- 1 -->
<g id="node2" class="node"><title>1</title>
<polygon fill="none" stroke="black" points="146.5,-563 92.5,-563 92.5,-527 146.5,-527 146.5,-563"/>
<text text-anchor="middle" x="119.5" y="-541.3" font-family="Times,serif" font-size="14.00">1</text>
</g>
<!-- 0&#45;&gt;1 -->
<g id="edge1" class="edge"><title>0&#45;&gt;1</title>
<path fill="none" stroke="black" d="M146.601,-598.697C142.503,-590.728 137.551,-581.1 133.007,-572.264"/>
<polygon fill="black" stroke="black" points="135.983,-570.396 128.297,-563.104 129.758,-573.598 135.983,-570.396"/>
</g>
<!-- 2 -->
<g id="node3" class="node"><title>2</title>
<polygon fill="lightgray" stroke="black" points="218.5,-563 164.5,-563 164.5,-527 218.5,-527 218.5,-563"/>
<text text-anchor="middle" x="191.5" y="-541.3" font-family="Times,serif" font-size="14.00">2</text>
</g>
<!-- 0&#45;&gt;2 -->
<g id="edge2" class="edge"><title>0&#45;&gt;2</title>
<path fill="none" stroke="black" d="M164.399,-598.697C168.497,-590.728 173.449,-581.1 177.993,-572.264"/>
<polygon fill="black" stroke="black" points="181.242,-573.598 182.703,-563.104 175.017,-570.396 181.242,-573.598"/>
</g>
<!-- 3 -->
<g id="node4" class="node"><title>3</title>
<polygon fill="none" stroke="black" points="146.5,-491 92.5,-491 92.5,-455 146.5,-455 146.5,-491"/>
<text text-anchor="middle" x="119.5" y="-469.3" font-family="Times,serif" font-size="14.00">3</text>
</g>
<!-- 1&#45;&gt;3 -->
<g id="edge3" class="edge"><title>1&#45;&gt;3</title>
<path fill="none" stroke="black" d="M119.5,-526.697C119.5,-518.983 119.5,-509.712 119.5,-501.112"/>
<polygon fill="black" stroke="black" points="123,-501.104 119.5,-491.104 116,-501.104 123,-501.104"/>
</g>
<!-- 4 -->
<g id="node5" class="node"><title>4</title>
<polygon fill="none" stroke="black" points="115.5,-419 61.5,-419 61.5,-383 115.5,-383 115.5,-419"/>
<text text-anchor="middle" x="88.5" y="-397.3" font-family="Times,serif" font-size="14.00">4</text>
</g>
<!-- 3&#45;&gt;4 -->
<g id="edge4" class="edge"><title>3&#45;&gt;4</title>
<path fill="none" stroke="black" d="M111.837,-454.697C108.308,-446.728 104.044,-437.1 100.131,-428.264"/>
<polygon fill="black" stroke="black" points="103.324,-426.831 96.0748,-419.104 96.9239,-429.665 103.324,-426.831"/>
</g>
<!-- 5 -->
<g id="node6" class="node"><title>5</title>
<polygon fill="none" stroke="black" points="183.5,-347 129.5,-347 129.5,-311 183.5,-311 183.5,-347"/>
<text text-anchor="middle" x="156.5" y="-325.3" font-family="Times,serif" font-size="14.00">5</text>
</g>
<!-- 3&#45;&gt;5 -->
<g id="edge5" class="edge"><title>3&#45;&gt;5</title>
<path fill="none" stroke="black" d="M123.963,-454.871C130.297,-430.564 141.956,-385.819 149.461,-357.013"/>
<polygon fill="black" stroke="black" points="152.887,-357.749 152.021,-347.189 146.113,-355.984 152.887,-357.749"/>
</g>
<!-- 6 -->
<g id="node7" class="node"><title>6</title>
<polygon fill="none" stroke="black" points="111.5,-347 57.5,-347 57.5,-311 111.5,-311 111.5,-347"/>
<text text-anchor="middle" x="84.5" y="-325.3" font-family="Times,serif" font-size="14.00">6</text>
</g>
<!-- 4&#45;&gt;6 -->
<g id="edge6" class="edge"><title>4&#45;&gt;6</title>
<path fill="none" stroke="black" d="M87.5112,-382.697C87.0704,-374.983 86.5407,-365.712 86.0493,-357.112"/>
<polygon fill="black" stroke="black" points="89.5423,-356.888 85.4774,-347.104 82.5537,-357.288 89.5423,-356.888"/>
</g>
<!-- 7 -->
<g id="node8" class="node"><title>7</title>
<polygon fill="none" stroke="black" points="147.5,-275 93.5,-275 93.5,-239 147.5,-239 147.5,-275"/>
<text text-anchor="middle" x="120.5" y="-253.3" font-family="Times,serif" font-size="14.00">7</text>
</g>
<!-- 5&#45;&gt;7 -->
<g id="edge7" class="edge"><title>5&#45;&gt;7</title>
<path fill="none" stroke="black" d="M147.601,-310.697C143.503,-302.728 138.551,-293.1 134.007,-284.264"/>
<polygon fill="black" stroke="black" points="136.983,-282.396 129.297,-275.104 130.758,-285.598 136.983,-282.396"/>
</g>
<!-- 6&#45;&gt;7 -->
<g id="edge8" class="edge"><title>6&#45;&gt;7</title>
<path fill="none" stroke="black" d="M93.3989,-310.697C97.4968,-302.728 102.449,-293.1 106.993,-284.264"/>
<polygon fill="black" stroke="black" points="110.242,-285.598 111.703,-275.104 104.017,-282.396 110.242,-285.598"/>
</g>
<!-- 8 -->
<g id="node9" class="node"><title>8</title>
<polygon fill="none" stroke="black" points="147.5,-203 93.5,-203 93.5,-167 147.5,-167 147.5,-203"/>
<text text-anchor="middle" x="120.5" y="-181.3" font-family="Times,serif" font-size="14.00">8</text>
</g>
<!-- 7&#45;&gt;8 -->
<g id="edge9" class="edge"><title>7&#45;&gt;8</title>
<path fill="none" stroke="black" d="M120.5,-238.697C120.5,-230.983 120.5,-221.712 120.5,-213.112"/>
<polygon fill="black" stroke="black" points="124,-213.104 120.5,-203.104 117,-213.104 124,-213.104"/>
</g>
<!-- 9 -->
<g id="node10" class="node"><title>9</title>
<polygon fill="none" stroke="black" points="75.5,-131 21.5,-131 21.5,-95 75.5,-95 75.5,-131"/>
<text text-anchor="middle" x="48.5" y="-109.3" font-family="Times,serif" font-size="14.00">9</text>
</g>
<!-- 8&#45;&gt;9 -->
<g id="edge10" class="edge"><title>8&#45;&gt;9</title>
<path fill="none" stroke="black" d="M102.702,-166.697C93.896,-158.135 83.1179,-147.656 73.4989,-138.304"/>
<polygon fill="black" stroke="black" points="75.7028,-135.566 66.093,-131.104 70.8232,-140.585 75.7028,-135.566"/>
</g>
<!-- 10 -->
<g id="node11" class="node"><title>10</title>
<polygon fill="none" stroke="black" points="147.5,-131 93.5,-131 93.5,-95 147.5,-95 147.5,-131"/>
<text text-anchor="middle" x="120.5" y="-109.3" font-family="Times,serif" font-size="14.00">10</text>
</g>
<!-- 8&#45;&gt;10 -->
<g id="edge11" class="edge"><title>8&#45;&gt;10</title>
<path fill="none" stroke="black" d="M114.584,-166.697C113.789,-158.983 113.562,-149.712 113.905,-141.112"/>
<polygon fill="black" stroke="black" points="117.398,-141.324 114.605,-131.104 110.415,-140.836 117.398,-141.324"/>
</g>
<!-- 11 -->
<g id="node12" class="node"><title>11</title>
<polygon fill="lightgray" stroke="black" points="75.5,-59 21.5,-59 21.5,-23 75.5,-23 75.5,-59"/>
<text text-anchor="middle" x="48.5" y="-37.3" font-family="Times,serif" font-size="14.00">11</text>
</g>
<!-- 9&#45;&gt;11 -->
<g id="edge12" class="edge"><title>9&#45;&gt;11</title>
<path fill="none" stroke="black" d="M48.5,-94.6966C48.5,-86.9827 48.5,-77.7125 48.5,-69.1124"/>
<polygon fill="black" stroke="black" points="52.0001,-69.1043 48.5,-59.1043 45.0001,-69.1044 52.0001,-69.1043"/>
</g>
<!-- 10&#45;&gt;8 -->
<g id="edge13" class="edge"><title>10&#45;&gt;8</title>
<path fill="none" stroke="black" d="M126.395,-131.104C127.201,-138.791 127.437,-148.054 127.104,-156.665"/>
<polygon fill="black" stroke="black" points="123.609,-156.48 126.416,-166.697 130.592,-156.96 123.609,-156.48"/>
</g>
</g>
</svg>
