<?xml version="1.0" encoding="UTF-8" standalone="no"?>
<!DOCTYPE svg PUBLIC "-//W3C//DTD SVG 1.1//EN"
 "http://www.w3.org/Graphics/SVG/1.1/DTD/svg11.dtd">
<!-- Generated by graphviz version 2.38.0 (20140413.2041)
 -->
<!-- Title: DoubleLinkedList$Entry entry(int) Pages: 1 -->
<svg width="229pt" height="571pt"
 viewBox="0.00 0.00 229.00 571.00" xmlns="http://www.w3.org/2000/svg" xmlns:xlink="http://www.w3.org/1999/xlink">
<g id="graph0" class="graph" transform="scale(1 1) rotate(0) translate(4 567)">
<title>DoubleLinkedList$Entry entry(int)</title>
<polygon fill="white" stroke="none" points="-4,4 -4,-567 225,-567 225,4 -4,4"/>
<text text-anchor="middle" x="110.5" y="-7.8" font-family="Times,serif" font-size="14.00">DoubleLinkedList$Entry entry(int)</text>
<!-- 0 -->
<g id="node1" class="node"><title>0</title>
<polygon fill="gray" stroke="black" points="181.5,-563 127.5,-563 127.5,-527 181.5,-527 181.5,-563"/>
<text text-anchor="middle" x="154.5" y="-541.3" font-family="Times,serif" font-size="14.00">0</text>
</g>
<!-- 1 -->
<g id="node2" class="node"><title>1</title>
<polygon fill="none" stroke="black" points="154.5,-491 100.5,-491 100.5,-455 154.5,-455 154.5,-491"/>
<text text-anchor="middle" x="127.5" y="-469.3" font-family="Times,serif" font-size="14.00">1</text>
</g>
<!-- 0&#45;&gt;1 -->
<g id="edge1" class="edge"><title>0&#45;&gt;1</title>
<path fill="none" stroke="black" d="M147.826,-526.697C144.785,-518.813 141.117,-509.304 137.739,-500.546"/>
<polygon fill="black" stroke="black" points="140.962,-499.175 134.097,-491.104 134.431,-501.694 140.962,-499.175"/>
</g>
<!-- 4 -->
<g id="node3" class="node"><title>4</title>
<polygon fill="lightgray" stroke="black" points="209.5,-347 155.5,-347 155.5,-311 209.5,-311 209.5,-347"/>
<text text-anchor="middle" x="182.5" y="-325.3" font-family="Times,serif" font-size="14.00">4</text>
</g>
<!-- 0&#45;&gt;4 -->
<g id="edge2" class="edge"><title>0&#45;&gt;4</title>
<path fill="none" stroke="black" d="M157.639,-526.849C159.479,-516.489 161.773,-503.009 163.5,-491 170.231,-444.195 176.311,-389.481 179.695,-357.398"/>
<polygon fill="black" stroke="black" points="183.178,-357.739 180.736,-347.43 176.216,-357.012 183.178,-357.739"/>
</g>
<!-- 2 -->
<g id="node4" class="node"><title>2</title>
<polygon fill="none" stroke="black" points="154.5,-419 100.5,-419 100.5,-383 154.5,-383 154.5,-419"/>
<text text-anchor="middle" x="127.5" y="-397.3" font-family="Times,serif" font-size="14.00">2</text>
</g>
<!-- 1&#45;&gt;2 -->
<g id="edge3" class="edge"><title>1&#45;&gt;2</title>
<path fill="none" stroke="black" d="M127.5,-454.697C127.5,-446.983 127.5,-437.712 127.5,-429.112"/>
<polygon fill="black" stroke="black" points="131,-429.104 127.5,-419.104 124,-429.104 131,-429.104"/>
</g>
<!-- 2&#45;&gt;4 -->
<g id="edge5" class="edge"><title>2&#45;&gt;4</title>
<path fill="none" stroke="black" d="M141.096,-382.697C147.623,-374.389 155.568,-364.277 162.747,-355.141"/>
<polygon fill="black" stroke="black" points="165.635,-357.13 169.061,-347.104 160.131,-352.805 165.635,-357.13"/>
</g>
<!-- 3 -->
<g id="node5" class="node"><title>3</title>
<polygon fill="none" stroke="black" points="137.5,-347 83.5,-347 83.5,-311 137.5,-311 137.5,-347"/>
<text text-anchor="middle" x="110.5" y="-325.3" font-family="Times,serif" font-size="14.00">3</text>
</g>
<!-- 2&#45;&gt;3 -->
<g id="edge4" class="edge"><title>2&#45;&gt;3</title>
<path fill="none" stroke="black" d="M123.298,-382.697C121.404,-374.898 119.123,-365.509 117.016,-356.829"/>
<polygon fill="black" stroke="black" points="120.415,-355.996 114.654,-347.104 113.613,-357.648 120.415,-355.996"/>
</g>
<!-- 5 -->
<g id="node6" class="node"><title>5</title>
<polygon fill="none" stroke="black" points="137.5,-275 83.5,-275 83.5,-239 137.5,-239 137.5,-275"/>
<text text-anchor="middle" x="110.5" y="-253.3" font-family="Times,serif" font-size="14.00">5</text>
</g>
<!-- 3&#45;&gt;5 -->
<g id="edge6" class="edge"><title>3&#45;&gt;5</title>
<path fill="none" stroke="black" d="M110.5,-310.697C110.5,-302.983 110.5,-293.712 110.5,-285.112"/>
<polygon fill="black" stroke="black" points="114,-285.104 110.5,-275.104 107,-285.104 114,-285.104"/>
</g>
<!-- 6 -->
<g id="node7" class="node"><title>6</title>
<polygon fill="none" stroke="black" points="137.5,-203 83.5,-203 83.5,-167 137.5,-167 137.5,-203"/>
<text text-anchor="middle" x="110.5" y="-181.3" font-family="Times,serif" font-size="14.00">6</text>
</g>
<!-- 5&#45;&gt;6 -->
<g id="edge7" class="edge"><title>5&#45;&gt;6</title>
<path fill="none" stroke="black" d="M110.5,-238.697C110.5,-230.983 110.5,-221.712 110.5,-213.112"/>
<polygon fill="black" stroke="black" points="114,-213.104 110.5,-203.104 107,-213.104 114,-213.104"/>
</g>
<!-- 7 -->
<g id="node8" class="node"><title>7</title>
<polygon fill="none" stroke="black" points="65.5,-131 11.5,-131 11.5,-95 65.5,-95 65.5,-131"/>
<text text-anchor="middle" x="38.5" y="-109.3" font-family="Times,serif" font-size="14.00">7</text>
</g>
<!-- 6&#45;&gt;7 -->
<g id="edge8" class="edge"><title>6&#45;&gt;7</title>
<path fill="none" stroke="black" d="M92.7022,-166.697C83.896,-158.135 73.1179,-147.656 63.4989,-138.304"/>
<polygon fill="black" stroke="black" points="65.7028,-135.566 56.093,-131.104 60.8232,-140.585 65.7028,-135.566"/>
</g>
<!-- 8 -->
<g id="node9" class="node"><title>8</title>
<polygon fill="none" stroke="black" points="137.5,-131 83.5,-131 83.5,-95 137.5,-95 137.5,-131"/>
<text text-anchor="middle" x="110.5" y="-109.3" font-family="Times,serif" font-size="14.00">8</text>
</g>
<!-- 6&#45;&gt;8 -->
<g id="edge9" class="edge"><title>6&#45;&gt;8</title>
<path fill="none" stroke="black" d="M104.584,-166.697C103.789,-158.983 103.562,-149.712 103.905,-141.112"/>
<polygon fill="black" stroke="black" points="107.398,-141.324 104.605,-131.104 100.415,-140.836 107.398,-141.324"/>
</g>
<!-- 9 -->
<g id="node10" class="node"><title>9</title>
<polygon fill="lightgray" stroke="black" points="65.5,-59 11.5,-59 11.5,-23 65.5,-23 65.5,-59"/>
<text text-anchor="middle" x="38.5" y="-37.3" font-family="Times,serif" font-size="14.00">9</text>
</g>
<!-- 7&#45;&gt;9 -->
<g id="edge10" class="edge"><title>7&#45;&gt;9</title>
<path fill="none" stroke="black" d="M38.5,-94.6966C38.5,-86.9827 38.5,-77.7125 38.5,-69.1124"/>
<polygon fill="black" stroke="black" points="42.0001,-69.1043 38.5,-59.1043 35.0001,-69.1044 42.0001,-69.1043"/>
</g>
<!-- 8&#45;&gt;6 -->
<g id="edge11" class="edge"><title>8&#45;&gt;6</title>
<path fill="none" stroke="black" d="M116.395,-131.104C117.201,-138.791 117.437,-148.054 117.104,-156.665"/>
<polygon fill="black" stroke="black" points="113.609,-156.48 116.416,-166.697 120.592,-156.96 113.609,-156.48"/>
</g>
</g>
</svg>
