<?xml version="1.0" encoding="UTF-8" standalone="no"?>
<!DOCTYPE svg PUBLIC "-//W3C//DTD SVG 1.1//EN"
 "http://www.w3.org/Graphics/SVG/1.1/DTD/svg11.dtd">
<!-- Generated by graphviz version 2.38.0 (20140413.2041)
 -->
<!-- Title: boolean nonNullPointers() Pages: 1 -->
<svg width="178pt" height="355pt"
 viewBox="0.00 0.00 178.00 355.00" xmlns="http://www.w3.org/2000/svg" xmlns:xlink="http://www.w3.org/1999/xlink">
<g id="graph0" class="graph" transform="scale(1 1) rotate(0) translate(4 351)">
<title>boolean nonNullPointers()</title>
<polygon fill="white" stroke="none" points="-4,4 -4,-351 174,-351 174,4 -4,4"/>
<text text-anchor="middle" x="85" y="-7.8" font-family="Times,serif" font-size="14.00">boolean nonNullPointers()</text>
<!-- 0 -->
<g id="node1" class="node"><title>0</title>
<polygon fill="gray" stroke="black" points="93,-347 39,-347 39,-311 93,-311 93,-347"/>
<text text-anchor="middle" x="66" y="-325.3" font-family="Times,serif" font-size="14.00">0</text>
</g>
<!-- 1 -->
<g id="node2" class="node"><title>1</title>
<polygon fill="none" stroke="black" points="57,-275 3,-275 3,-239 57,-239 57,-275"/>
<text text-anchor="middle" x="30" y="-253.3" font-family="Times,serif" font-size="14.00">1</text>
</g>
<!-- 0&#45;&gt;1 -->
<g id="edge1" class="edge"><title>0&#45;&gt;1</title>
<path fill="none" stroke="black" d="M57.1011,-310.697C53.0032,-302.728 48.0512,-293.1 43.5073,-284.264"/>
<polygon fill="black" stroke="black" points="46.4826,-282.396 38.7965,-275.104 40.2575,-285.598 46.4826,-282.396"/>
</g>
<!-- 2 -->
<g id="node3" class="node"><title>2</title>
<polygon fill="none" stroke="black" points="129,-275 75,-275 75,-239 129,-239 129,-275"/>
<text text-anchor="middle" x="102" y="-253.3" font-family="Times,serif" font-size="14.00">2</text>
</g>
<!-- 0&#45;&gt;2 -->
<g id="edge2" class="edge"><title>0&#45;&gt;2</title>
<path fill="none" stroke="black" d="M74.8989,-310.697C78.9968,-302.728 83.9488,-293.1 88.4927,-284.264"/>
<polygon fill="black" stroke="black" points="91.7425,-285.598 93.2035,-275.104 85.5174,-282.396 91.7425,-285.598"/>
</g>
<!-- 4 -->
<g id="node4" class="node"><title>4</title>
<polygon fill="none" stroke="black" points="95,-131 41,-131 41,-95 95,-95 95,-131"/>
<text text-anchor="middle" x="68" y="-109.3" font-family="Times,serif" font-size="14.00">4</text>
</g>
<!-- 1&#45;&gt;4 -->
<g id="edge3" class="edge"><title>1&#45;&gt;4</title>
<path fill="none" stroke="black" d="M32.97,-238.771C36.2462,-220.719 41.9937,-191.618 49,-167 51.4349,-158.445 54.5395,-149.275 57.5301,-141.008"/>
<polygon fill="black" stroke="black" points="60.8701,-142.068 61.0687,-131.475 54.3075,-139.632 60.8701,-142.068"/>
</g>
<!-- 3 -->
<g id="node5" class="node"><title>3</title>
<polygon fill="none" stroke="black" points="112,-203 58,-203 58,-167 112,-167 112,-203"/>
<text text-anchor="middle" x="85" y="-181.3" font-family="Times,serif" font-size="14.00">3</text>
</g>
<!-- 2&#45;&gt;3 -->
<g id="edge4" class="edge"><title>2&#45;&gt;3</title>
<path fill="none" stroke="black" d="M97.7978,-238.697C95.9038,-230.898 93.6235,-221.509 91.5157,-212.829"/>
<polygon fill="black" stroke="black" points="94.9151,-211.996 89.1539,-203.104 88.1128,-213.648 94.9151,-211.996"/>
</g>
<!-- 5 -->
<g id="node6" class="node"><title>5</title>
<polygon fill="none" stroke="black" points="167,-131 113,-131 113,-95 167,-95 167,-131"/>
<text text-anchor="middle" x="140" y="-109.3" font-family="Times,serif" font-size="14.00">5</text>
</g>
<!-- 2&#45;&gt;5 -->
<g id="edge5" class="edge"><title>2&#45;&gt;5</title>
<path fill="none" stroke="black" d="M108.931,-238.525C112.825,-228.284 117.575,-215.034 121,-203 126.802,-182.613 131.741,-159.152 135.128,-141.438"/>
<polygon fill="black" stroke="black" points="138.639,-141.701 137.03,-131.229 131.757,-140.419 138.639,-141.701"/>
</g>
<!-- 6 -->
<g id="node7" class="node"><title>6</title>
<polygon fill="lightgray" stroke="black" points="131,-59 77,-59 77,-23 131,-23 131,-59"/>
<text text-anchor="middle" x="104" y="-37.3" font-family="Times,serif" font-size="14.00">6</text>
</g>
<!-- 4&#45;&gt;6 -->
<g id="edge7" class="edge"><title>4&#45;&gt;6</title>
<path fill="none" stroke="black" d="M76.8989,-94.6966C80.9968,-86.7284 85.9488,-77.0995 90.4927,-68.2641"/>
<polygon fill="black" stroke="black" points="93.7425,-69.598 95.2035,-59.1043 87.5174,-66.3965 93.7425,-69.598"/>
</g>
<!-- 3&#45;&gt;4 -->
<g id="edge6" class="edge"><title>3&#45;&gt;4</title>
<path fill="none" stroke="black" d="M80.7978,-166.697C78.9038,-158.898 76.6235,-149.509 74.5157,-140.829"/>
<polygon fill="black" stroke="black" points="77.9151,-139.996 72.1539,-131.104 71.1128,-141.648 77.9151,-139.996"/>
</g>
<!-- 5&#45;&gt;6 -->
<g id="edge8" class="edge"><title>5&#45;&gt;6</title>
<path fill="none" stroke="black" d="M131.101,-94.6966C127.003,-86.7284 122.051,-77.0995 117.507,-68.2641"/>
<polygon fill="black" stroke="black" points="120.483,-66.3965 112.797,-59.1043 114.258,-69.598 120.483,-66.3965"/>
</g>
</g>
</svg>
