<?xml version="1.0" encoding="UTF-8" standalone="no"?>
<!DOCTYPE svg PUBLIC "-//W3C//DTD SVG 1.1//EN"
 "http://www.w3.org/Graphics/SVG/1.1/DTD/svg11.dtd">
<!-- Generated by graphviz version 2.38.0 (20140413.2041)
 -->
<!-- Title: boolean repOK() Pages: 1 -->
<svg width="134pt" height="283pt"
 viewBox="0.00 0.00 134.00 283.00" xmlns="http://www.w3.org/2000/svg" xmlns:xlink="http://www.w3.org/1999/xlink">
<g id="graph0" class="graph" transform="scale(1 1) rotate(0) translate(4 279)">
<title>boolean repOK()</title>
<polygon fill="white" stroke="none" points="-4,4 -4,-279 130,-279 130,4 -4,4"/>
<text text-anchor="middle" x="63" y="-7.8" font-family="Times,serif" font-size="14.00">boolean repOK()</text>
<!-- 0 -->
<g id="node1" class="node"><title>0</title>
<polygon fill="gray" stroke="black" points="89,-275 35,-275 35,-239 89,-239 89,-275"/>
<text text-anchor="middle" x="62" y="-253.3" font-family="Times,serif" font-size="14.00">0</text>
</g>
<!-- 1 -->
<g id="node2" class="node"><title>1</title>
<polygon fill="none" stroke="black" points="58,-203 4,-203 4,-167 58,-167 58,-203"/>
<text text-anchor="middle" x="31" y="-181.3" font-family="Times,serif" font-size="14.00">1</text>
</g>
<!-- 0&#45;&gt;1 -->
<g id="edge1" class="edge"><title>0&#45;&gt;1</title>
<path fill="none" stroke="black" d="M54.3371,-238.697C50.8083,-230.728 46.5441,-221.1 42.6313,-212.264"/>
<polygon fill="black" stroke="black" points="45.8243,-210.831 38.5748,-203.104 39.4239,-213.665 45.8243,-210.831"/>
</g>
<!-- 3 -->
<g id="node3" class="node"><title>3</title>
<polygon fill="none" stroke="black" points="126,-131 72,-131 72,-95 126,-95 126,-131"/>
<text text-anchor="middle" x="99" y="-109.3" font-family="Times,serif" font-size="14.00">3</text>
</g>
<!-- 0&#45;&gt;3 -->
<g id="edge2" class="edge"><title>0&#45;&gt;3</title>
<path fill="none" stroke="black" d="M66.4631,-238.871C72.7968,-214.564 84.4557,-169.819 91.9613,-141.013"/>
<polygon fill="black" stroke="black" points="95.3865,-141.749 94.5211,-131.189 88.6127,-139.984 95.3865,-141.749"/>
</g>
<!-- 2 -->
<g id="node4" class="node"><title>2</title>
<polygon fill="none" stroke="black" points="54,-131 0,-131 0,-95 54,-95 54,-131"/>
<text text-anchor="middle" x="27" y="-109.3" font-family="Times,serif" font-size="14.00">2</text>
</g>
<!-- 1&#45;&gt;2 -->
<g id="edge3" class="edge"><title>1&#45;&gt;2</title>
<path fill="none" stroke="black" d="M30.0112,-166.697C29.5704,-158.983 29.0407,-149.712 28.5493,-141.112"/>
<polygon fill="black" stroke="black" points="32.0423,-140.888 27.9774,-131.104 25.0537,-141.288 32.0423,-140.888"/>
</g>
<!-- 4 -->
<g id="node5" class="node"><title>4</title>
<polygon fill="lightgray" stroke="black" points="90,-59 36,-59 36,-23 90,-23 90,-59"/>
<text text-anchor="middle" x="63" y="-37.3" font-family="Times,serif" font-size="14.00">4</text>
</g>
<!-- 3&#45;&gt;4 -->
<g id="edge5" class="edge"><title>3&#45;&gt;4</title>
<path fill="none" stroke="black" d="M90.1011,-94.6966C86.0032,-86.7284 81.0512,-77.0995 76.5073,-68.2641"/>
<polygon fill="black" stroke="black" points="79.4826,-66.3965 71.7965,-59.1043 73.2575,-69.598 79.4826,-66.3965"/>
</g>
<!-- 2&#45;&gt;4 -->
<g id="edge4" class="edge"><title>2&#45;&gt;4</title>
<path fill="none" stroke="black" d="M35.8989,-94.6966C39.9968,-86.7284 44.9488,-77.0995 49.4927,-68.2641"/>
<polygon fill="black" stroke="black" points="52.7425,-69.598 54.2035,-59.1043 46.5174,-66.3965 52.7425,-69.598"/>
</g>
</g>
</svg>
