<?xml version="1.0" encoding="UTF-8" standalone="no"?>
<!DOCTYPE svg PUBLIC "-//W3C//DTD SVG 1.1//EN"
 "http://www.w3.org/Graphics/SVG/1.1/DTD/svg11.dtd">
<!-- Generated by graphviz version 2.38.0 (20140413.2041)
 -->
<!-- Title: boolean inList(DoubleLinkedList$Entry) Pages: 1 -->
<svg width="263pt" height="499pt"
 viewBox="0.00 0.00 263.00 499.00" xmlns="http://www.w3.org/2000/svg" xmlns:xlink="http://www.w3.org/1999/xlink">
<g id="graph0" class="graph" transform="scale(1 1) rotate(0) translate(4 495)">
<title>boolean inList(DoubleLinkedList$Entry)</title>
<polygon fill="white" stroke="none" points="-4,4 -4,-495 259,-495 259,4 -4,4"/>
<text text-anchor="middle" x="127.5" y="-7.8" font-family="Times,serif" font-size="14.00">boolean inList(DoubleLinkedList$Entry)</text>
<!-- 0 -->
<g id="node1" class="node"><title>0</title>
<polygon fill="gray" stroke="black" points="217.5,-491 163.5,-491 163.5,-455 217.5,-455 217.5,-491"/>
<text text-anchor="middle" x="190.5" y="-469.3" font-family="Times,serif" font-size="14.00">0</text>
</g>
<!-- 1 -->
<g id="node2" class="node"><title>1</title>
<polygon fill="none" stroke="black" points="181.5,-419 127.5,-419 127.5,-383 181.5,-383 181.5,-419"/>
<text text-anchor="middle" x="154.5" y="-397.3" font-family="Times,serif" font-size="14.00">1</text>
</g>
<!-- 0&#45;&gt;1 -->
<g id="edge1" class="edge"><title>0&#45;&gt;1</title>
<path fill="none" stroke="black" d="M181.601,-454.697C177.503,-446.728 172.551,-437.1 168.007,-428.264"/>
<polygon fill="black" stroke="black" points="170.983,-426.396 163.297,-419.104 164.758,-429.598 170.983,-426.396"/>
</g>
<!-- 2 -->
<g id="node3" class="node"><title>2</title>
<polygon fill="lightgray" stroke="black" points="253.5,-419 199.5,-419 199.5,-383 253.5,-383 253.5,-419"/>
<text text-anchor="middle" x="226.5" y="-397.3" font-family="Times,serif" font-size="14.00">2</text>
</g>
<!-- 0&#45;&gt;2 -->
<g id="edge2" class="edge"><title>0&#45;&gt;2</title>
<path fill="none" stroke="black" d="M199.399,-454.697C203.497,-446.728 208.449,-437.1 212.993,-428.264"/>
<polygon fill="black" stroke="black" points="216.242,-429.598 217.703,-419.104 210.017,-426.396 216.242,-429.598"/>
</g>
<!-- 3 -->
<g id="node4" class="node"><title>3</title>
<polygon fill="none" stroke="black" points="181.5,-347 127.5,-347 127.5,-311 181.5,-311 181.5,-347"/>
<text text-anchor="middle" x="154.5" y="-325.3" font-family="Times,serif" font-size="14.00">3</text>
</g>
<!-- 1&#45;&gt;3 -->
<g id="edge3" class="edge"><title>1&#45;&gt;3</title>
<path fill="none" stroke="black" d="M154.5,-382.697C154.5,-374.983 154.5,-365.712 154.5,-357.112"/>
<polygon fill="black" stroke="black" points="158,-357.104 154.5,-347.104 151,-357.104 158,-357.104"/>
</g>
<!-- 4 -->
<g id="node5" class="node"><title>4</title>
<polygon fill="none" stroke="black" points="181.5,-275 127.5,-275 127.5,-239 181.5,-239 181.5,-275"/>
<text text-anchor="middle" x="154.5" y="-253.3" font-family="Times,serif" font-size="14.00">4</text>
</g>
<!-- 3&#45;&gt;4 -->
<g id="edge4" class="edge"><title>3&#45;&gt;4</title>
<path fill="none" stroke="black" d="M154.5,-310.697C154.5,-302.983 154.5,-293.712 154.5,-285.112"/>
<polygon fill="black" stroke="black" points="158,-285.104 154.5,-275.104 151,-285.104 158,-285.104"/>
</g>
<!-- 5 -->
<g id="node6" class="node"><title>5</title>
<polygon fill="none" stroke="black" points="73.5,-203 19.5,-203 19.5,-167 73.5,-167 73.5,-203"/>
<text text-anchor="middle" x="46.5" y="-181.3" font-family="Times,serif" font-size="14.00">5</text>
</g>
<!-- 4&#45;&gt;5 -->
<g id="edge5" class="edge"><title>4&#45;&gt;5</title>
<path fill="none" stroke="black" d="M128.08,-238.876C114.09,-229.808 96.7236,-218.552 81.6142,-208.759"/>
<polygon fill="black" stroke="black" points="83.3165,-205.692 73.0213,-203.19 79.5092,-211.566 83.3165,-205.692"/>
</g>
<!-- 6 -->
<g id="node7" class="node"><title>6</title>
<polygon fill="none" stroke="black" points="181.5,-203 127.5,-203 127.5,-167 181.5,-167 181.5,-203"/>
<text text-anchor="middle" x="154.5" y="-181.3" font-family="Times,serif" font-size="14.00">6</text>
</g>
<!-- 4&#45;&gt;6 -->
<g id="edge6" class="edge"><title>4&#45;&gt;6</title>
<path fill="none" stroke="black" d="M154.5,-238.697C154.5,-230.983 154.5,-221.712 154.5,-213.112"/>
<polygon fill="black" stroke="black" points="158,-213.104 154.5,-203.104 151,-213.104 158,-213.104"/>
</g>
<!-- 10 -->
<g id="node8" class="node"><title>10</title>
<polygon fill="lightgray" stroke="black" points="55.5,-131 1.5,-131 1.5,-95 55.5,-95 55.5,-131"/>
<text text-anchor="middle" x="28.5" y="-109.3" font-family="Times,serif" font-size="14.00">10</text>
</g>
<!-- 5&#45;&gt;10 -->
<g id="edge7" class="edge"><title>5&#45;&gt;10</title>
<path fill="none" stroke="black" d="M42.0506,-166.697C40.0452,-158.898 37.6308,-149.509 35.3989,-140.829"/>
<polygon fill="black" stroke="black" points="38.7785,-139.918 32.8983,-131.104 31.999,-141.661 38.7785,-139.918"/>
</g>
<!-- 7 -->
<g id="node9" class="node"><title>7</title>
<polygon fill="none" stroke="black" points="127.5,-131 73.5,-131 73.5,-95 127.5,-95 127.5,-131"/>
<text text-anchor="middle" x="100.5" y="-109.3" font-family="Times,serif" font-size="14.00">7</text>
</g>
<!-- 6&#45;&gt;7 -->
<g id="edge8" class="edge"><title>6&#45;&gt;7</title>
<path fill="none" stroke="black" d="M141.152,-166.697C134.743,-158.389 126.942,-148.277 119.894,-139.141"/>
<polygon fill="black" stroke="black" points="122.574,-136.884 113.695,-131.104 117.032,-141.16 122.574,-136.884"/>
</g>
<!-- 8 -->
<g id="node10" class="node"><title>8</title>
<polygon fill="lightgray" stroke="black" points="199.5,-131 145.5,-131 145.5,-95 199.5,-95 199.5,-131"/>
<text text-anchor="middle" x="172.5" y="-109.3" font-family="Times,serif" font-size="14.00">8</text>
</g>
<!-- 6&#45;&gt;8 -->
<g id="edge9" class="edge"><title>6&#45;&gt;8</title>
<path fill="none" stroke="black" d="M158.949,-166.697C160.955,-158.898 163.369,-149.509 165.601,-140.829"/>
<polygon fill="black" stroke="black" points="169.001,-141.661 168.102,-131.104 162.222,-139.918 169.001,-141.661"/>
</g>
<!-- 9 -->
<g id="node11" class="node"><title>9</title>
<polygon fill="none" stroke="black" points="190.5,-59 136.5,-59 136.5,-23 190.5,-23 190.5,-59"/>
<text text-anchor="middle" x="163.5" y="-37.3" font-family="Times,serif" font-size="14.00">9</text>
</g>
<!-- 7&#45;&gt;9 -->
<g id="edge10" class="edge"><title>7&#45;&gt;9</title>
<path fill="none" stroke="black" d="M116.073,-94.6966C123.702,-86.2198 133.023,-75.8636 141.376,-66.5826"/>
<polygon fill="black" stroke="black" points="144.018,-68.8787 148.106,-59.1043 138.815,-64.1959 144.018,-68.8787"/>
</g>
<!-- 9&#45;&gt;4 -->
<g id="edge11" class="edge"><title>9&#45;&gt;4</title>
<path fill="none" stroke="black" d="M183.879,-59.469C193.307,-68.9079 203.506,-81.4032 208.5,-95 214.016,-110.019 210.455,-115.12 208.5,-131 204.47,-163.738 203.975,-172.893 190.5,-203 186.251,-212.495 180.302,-222.125 174.463,-230.525"/>
<polygon fill="black" stroke="black" points="171.519,-228.622 168.493,-238.776 177.19,-232.726 171.519,-228.622"/>
</g>
</g>
</svg>
