<?xml version="1.0" encoding="UTF-8" standalone="no"?>
<!DOCTYPE svg PUBLIC "-//W3C//DTD SVG 1.1//EN"
 "http://www.w3.org/Graphics/SVG/1.1/DTD/svg11.dtd">
<!-- Generated by graphviz version 2.38.0 (20140413.2041)
 -->
<!-- Title: boolean contains(java.lang.Object) Pages: 1 -->
<svg width="223pt" height="283pt"
 viewBox="0.00 0.00 223.00 283.00" xmlns="http://www.w3.org/2000/svg" xmlns:xlink="http://www.w3.org/1999/xlink">
<g id="graph0" class="graph" transform="scale(1 1) rotate(0) translate(4 279)">
<title>boolean contains(java.lang.Object)</title>
<polygon fill="white" stroke="none" points="-4,4 -4,-279 219,-279 219,4 -4,4"/>
<text text-anchor="middle" x="107.5" y="-7.8" font-family="Times,serif" font-size="14.00">boolean contains(java.lang.Object)</text>
<!-- 0 -->
<g id="node1" class="node"><title>0</title>
<polygon fill="gray" stroke="black" points="133.5,-275 79.5,-275 79.5,-239 133.5,-239 133.5,-275"/>
<text text-anchor="middle" x="106.5" y="-253.3" font-family="Times,serif" font-size="14.00">0</text>
</g>
<!-- 1 -->
<g id="node2" class="node"><title>1</title>
<polygon fill="none" stroke="black" points="102.5,-203 48.5,-203 48.5,-167 102.5,-167 102.5,-203"/>
<text text-anchor="middle" x="75.5" y="-181.3" font-family="Times,serif" font-size="14.00">1</text>
</g>
<!-- 0&#45;&gt;1 -->
<g id="edge1" class="edge"><title>0&#45;&gt;1</title>
<path fill="none" stroke="black" d="M98.8371,-238.697C95.3083,-230.728 91.0441,-221.1 87.1313,-212.264"/>
<polygon fill="black" stroke="black" points="90.3243,-210.831 83.0748,-203.104 83.9239,-213.665 90.3243,-210.831"/>
</g>
<!-- 3 -->
<g id="node3" class="node"><title>3</title>
<polygon fill="none" stroke="black" points="170.5,-131 116.5,-131 116.5,-95 170.5,-95 170.5,-131"/>
<text text-anchor="middle" x="143.5" y="-109.3" font-family="Times,serif" font-size="14.00">3</text>
</g>
<!-- 0&#45;&gt;3 -->
<g id="edge2" class="edge"><title>0&#45;&gt;3</title>
<path fill="none" stroke="black" d="M110.963,-238.871C117.297,-214.564 128.956,-169.819 136.461,-141.013"/>
<polygon fill="black" stroke="black" points="139.887,-141.749 139.021,-131.189 133.113,-139.984 139.887,-141.749"/>
</g>
<!-- 2 -->
<g id="node4" class="node"><title>2</title>
<polygon fill="none" stroke="black" points="98.5,-131 44.5,-131 44.5,-95 98.5,-95 98.5,-131"/>
<text text-anchor="middle" x="71.5" y="-109.3" font-family="Times,serif" font-size="14.00">2</text>
</g>
<!-- 1&#45;&gt;2 -->
<g id="edge3" class="edge"><title>1&#45;&gt;2</title>
<path fill="none" stroke="black" d="M74.5112,-166.697C74.0704,-158.983 73.5407,-149.712 73.0493,-141.112"/>
<polygon fill="black" stroke="black" points="76.5423,-140.888 72.4774,-131.104 69.5537,-141.288 76.5423,-140.888"/>
</g>
<!-- 4 -->
<g id="node5" class="node"><title>4</title>
<polygon fill="lightgray" stroke="black" points="134.5,-59 80.5,-59 80.5,-23 134.5,-23 134.5,-59"/>
<text text-anchor="middle" x="107.5" y="-37.3" font-family="Times,serif" font-size="14.00">4</text>
</g>
<!-- 3&#45;&gt;4 -->
<g id="edge5" class="edge"><title>3&#45;&gt;4</title>
<path fill="none" stroke="black" d="M134.601,-94.6966C130.503,-86.7284 125.551,-77.0995 121.007,-68.2641"/>
<polygon fill="black" stroke="black" points="123.983,-66.3965 116.297,-59.1043 117.758,-69.598 123.983,-66.3965"/>
</g>
<!-- 2&#45;&gt;4 -->
<g id="edge4" class="edge"><title>2&#45;&gt;4</title>
<path fill="none" stroke="black" d="M80.3989,-94.6966C84.4968,-86.7284 89.4488,-77.0995 93.9927,-68.2641"/>
<polygon fill="black" stroke="black" points="97.2425,-69.598 98.7035,-59.1043 91.0174,-66.3965 97.2425,-69.598"/>
</g>
</g>
</svg>
