<?xml version="1.0" encoding="UTF-8" standalone="no"?>
<!DOCTYPE svg PUBLIC "-//W3C//DTD SVG 1.1//EN"
 "http://www.w3.org/Graphics/SVG/1.1/DTD/svg11.dtd">
<!-- Generated by graphviz version 2.38.0 (20140413.2041)
 -->
<!-- Title: java.lang.Object[] toArray(java.lang.Object[]) Pages: 1 -->
<svg width="289pt" height="571pt"
 viewBox="0.00 0.00 289.00 571.00" xmlns="http://www.w3.org/2000/svg" xmlns:xlink="http://www.w3.org/1999/xlink">
<g id="graph0" class="graph" transform="scale(1 1) rotate(0) translate(4 567)">
<title>java.lang.Object[] toArray(java.lang.Object[])</title>
<polygon fill="white" stroke="none" points="-4,4 -4,-567 285,-567 285,4 -4,4"/>
<text text-anchor="middle" x="140.5" y="-7.8" font-family="Times,serif" font-size="14.00">java.lang.Object[] toArray(java.lang.Object[])</text>
<!-- 0 -->
<g id="node1" class="node"><title>0</title>
<polygon fill="gray" stroke="black" points="203.5,-563 149.5,-563 149.5,-527 203.5,-527 203.5,-563"/>
<text text-anchor="middle" x="176.5" y="-541.3" font-family="Times,serif" font-size="14.00">0</text>
</g>
<!-- 1 -->
<g id="node2" class="node"><title>1</title>
<polygon fill="none" stroke="black" points="167.5,-491 113.5,-491 113.5,-455 167.5,-455 167.5,-491"/>
<text text-anchor="middle" x="140.5" y="-469.3" font-family="Times,serif" font-size="14.00">1</text>
</g>
<!-- 0&#45;&gt;1 -->
<g id="edge1" class="edge"><title>0&#45;&gt;1</title>
<path fill="none" stroke="black" d="M167.601,-526.697C163.503,-518.728 158.551,-509.1 154.007,-500.264"/>
<polygon fill="black" stroke="black" points="156.983,-498.396 149.297,-491.104 150.758,-501.598 156.983,-498.396"/>
</g>
<!-- 2 -->
<g id="node3" class="node"><title>2</title>
<polygon fill="none" stroke="black" points="239.5,-491 185.5,-491 185.5,-455 239.5,-455 239.5,-491"/>
<text text-anchor="middle" x="212.5" y="-469.3" font-family="Times,serif" font-size="14.00">2</text>
</g>
<!-- 0&#45;&gt;2 -->
<g id="edge2" class="edge"><title>0&#45;&gt;2</title>
<path fill="none" stroke="black" d="M185.399,-526.697C189.497,-518.728 194.449,-509.1 198.993,-500.264"/>
<polygon fill="black" stroke="black" points="202.242,-501.598 203.703,-491.104 196.017,-498.396 202.242,-501.598"/>
</g>
<!-- 3 -->
<g id="node4" class="node"><title>3</title>
<polygon fill="none" stroke="black" points="203.5,-419 149.5,-419 149.5,-383 203.5,-383 203.5,-419"/>
<text text-anchor="middle" x="176.5" y="-397.3" font-family="Times,serif" font-size="14.00">3</text>
</g>
<!-- 1&#45;&gt;3 -->
<g id="edge3" class="edge"><title>1&#45;&gt;3</title>
<path fill="none" stroke="black" d="M149.399,-454.697C153.497,-446.728 158.449,-437.1 162.993,-428.264"/>
<polygon fill="black" stroke="black" points="166.242,-429.598 167.703,-419.104 160.017,-426.396 166.242,-429.598"/>
</g>
<!-- 2&#45;&gt;3 -->
<g id="edge4" class="edge"><title>2&#45;&gt;3</title>
<path fill="none" stroke="black" d="M203.601,-454.697C199.503,-446.728 194.551,-437.1 190.007,-428.264"/>
<polygon fill="black" stroke="black" points="192.983,-426.396 185.297,-419.104 186.758,-429.598 192.983,-426.396"/>
</g>
<!-- 4 -->
<g id="node5" class="node"><title>4</title>
<polygon fill="none" stroke="black" points="203.5,-347 149.5,-347 149.5,-311 203.5,-311 203.5,-347"/>
<text text-anchor="middle" x="176.5" y="-325.3" font-family="Times,serif" font-size="14.00">4</text>
</g>
<!-- 3&#45;&gt;4 -->
<g id="edge5" class="edge"><title>3&#45;&gt;4</title>
<path fill="none" stroke="black" d="M176.5,-382.697C176.5,-374.983 176.5,-365.712 176.5,-357.112"/>
<polygon fill="black" stroke="black" points="180,-357.104 176.5,-347.104 173,-357.104 180,-357.104"/>
</g>
<!-- 5 -->
<g id="node6" class="node"><title>5</title>
<polygon fill="none" stroke="black" points="131.5,-275 77.5,-275 77.5,-239 131.5,-239 131.5,-275"/>
<text text-anchor="middle" x="104.5" y="-253.3" font-family="Times,serif" font-size="14.00">5</text>
</g>
<!-- 4&#45;&gt;5 -->
<g id="edge6" class="edge"><title>4&#45;&gt;5</title>
<path fill="none" stroke="black" d="M158.702,-310.697C149.896,-302.135 139.118,-291.656 129.499,-282.304"/>
<polygon fill="black" stroke="black" points="131.703,-279.566 122.093,-275.104 126.823,-284.585 131.703,-279.566"/>
</g>
<!-- 6 -->
<g id="node7" class="node"><title>6</title>
<polygon fill="none" stroke="black" points="203.5,-275 149.5,-275 149.5,-239 203.5,-239 203.5,-275"/>
<text text-anchor="middle" x="176.5" y="-253.3" font-family="Times,serif" font-size="14.00">6</text>
</g>
<!-- 4&#45;&gt;6 -->
<g id="edge7" class="edge"><title>4&#45;&gt;6</title>
<path fill="none" stroke="black" d="M170.584,-310.697C169.789,-302.983 169.562,-293.712 169.905,-285.112"/>
<polygon fill="black" stroke="black" points="173.398,-285.324 170.605,-275.104 166.415,-284.836 173.398,-285.324"/>
</g>
<!-- 7 -->
<g id="node8" class="node"><title>7</title>
<polygon fill="none" stroke="black" points="131.5,-203 77.5,-203 77.5,-167 131.5,-167 131.5,-203"/>
<text text-anchor="middle" x="104.5" y="-181.3" font-family="Times,serif" font-size="14.00">7</text>
</g>
<!-- 5&#45;&gt;7 -->
<g id="edge8" class="edge"><title>5&#45;&gt;7</title>
<path fill="none" stroke="black" d="M104.5,-238.697C104.5,-230.983 104.5,-221.712 104.5,-213.112"/>
<polygon fill="black" stroke="black" points="108,-213.104 104.5,-203.104 101,-213.104 108,-213.104"/>
</g>
<!-- 6&#45;&gt;4 -->
<g id="edge9" class="edge"><title>6&#45;&gt;4</title>
<path fill="none" stroke="black" d="M182.395,-275.104C183.201,-282.791 183.437,-292.054 183.104,-300.665"/>
<polygon fill="black" stroke="black" points="179.609,-300.48 182.416,-310.697 186.592,-300.96 179.609,-300.48"/>
</g>
<!-- 8 -->
<g id="node9" class="node"><title>8</title>
<polygon fill="none" stroke="black" points="95.5,-131 41.5,-131 41.5,-95 95.5,-95 95.5,-131"/>
<text text-anchor="middle" x="68.5" y="-109.3" font-family="Times,serif" font-size="14.00">8</text>
</g>
<!-- 7&#45;&gt;8 -->
<g id="edge10" class="edge"><title>7&#45;&gt;8</title>
<path fill="none" stroke="black" d="M95.6011,-166.697C91.5032,-158.728 86.5512,-149.1 82.0073,-140.264"/>
<polygon fill="black" stroke="black" points="84.9826,-138.396 77.2965,-131.104 78.7575,-141.598 84.9826,-138.396"/>
</g>
<!-- 9 -->
<g id="node10" class="node"><title>9</title>
<polygon fill="none" stroke="black" points="167.5,-131 113.5,-131 113.5,-95 167.5,-95 167.5,-131"/>
<text text-anchor="middle" x="140.5" y="-109.3" font-family="Times,serif" font-size="14.00">9</text>
</g>
<!-- 7&#45;&gt;9 -->
<g id="edge11" class="edge"><title>7&#45;&gt;9</title>
<path fill="none" stroke="black" d="M113.399,-166.697C117.497,-158.728 122.449,-149.1 126.993,-140.264"/>
<polygon fill="black" stroke="black" points="130.242,-141.598 131.703,-131.104 124.017,-138.396 130.242,-141.598"/>
</g>
<!-- 10 -->
<g id="node11" class="node"><title>10</title>
<polygon fill="lightgray" stroke="black" points="131.5,-59 77.5,-59 77.5,-23 131.5,-23 131.5,-59"/>
<text text-anchor="middle" x="104.5" y="-37.3" font-family="Times,serif" font-size="14.00">10</text>
</g>
<!-- 8&#45;&gt;10 -->
<g id="edge12" class="edge"><title>8&#45;&gt;10</title>
<path fill="none" stroke="black" d="M77.3989,-94.6966C81.4968,-86.7284 86.4488,-77.0995 90.9927,-68.2641"/>
<polygon fill="black" stroke="black" points="94.2425,-69.598 95.7035,-59.1043 88.0174,-66.3965 94.2425,-69.598"/>
</g>
<!-- 9&#45;&gt;10 -->
<g id="edge13" class="edge"><title>9&#45;&gt;10</title>
<path fill="none" stroke="black" d="M131.601,-94.6966C127.503,-86.7284 122.551,-77.0995 118.007,-68.2641"/>
<polygon fill="black" stroke="black" points="120.983,-66.3965 113.297,-59.1043 114.758,-69.598 120.983,-66.3965"/>
</g>
</g>
</svg>
