<?xml version="1.0" encoding="UTF-8" standalone="no"?>
<!DOCTYPE svg PUBLIC "-//W3C//DTD SVG 1.1//EN"
 "http://www.w3.org/Graphics/SVG/1.1/DTD/svg11.dtd">
<!-- Generated by graphviz version 2.38.0 (20140413.2041)
 -->
<!-- Title: boolean isTriangle(Triangle) Pages: 1 -->
<svg width="386pt" height="1435pt"
 viewBox="0.00 0.00 386.16 1435.00" xmlns="http://www.w3.org/2000/svg" xmlns:xlink="http://www.w3.org/1999/xlink">
<g id="graph0" class="graph" transform="scale(1 1) rotate(0) translate(4 1431)">
<title>boolean isTriangle(Triangle)</title>
<polygon fill="white" stroke="none" points="-4,4 -4,-1431 382.156,-1431 382.156,4 -4,4"/>
<text text-anchor="middle" x="189.078" y="-7.8" font-family="Times,serif" font-size="14.00">boolean isTriangle(Triangle)</text>
<!-- 0 -->
<g id="node1" class="node"><title>0</title>
<polygon fill="gray" stroke="black" points="327,-1427 273,-1427 273,-1391 327,-1391 327,-1427"/>
<text text-anchor="middle" x="300" y="-1405.3" font-family="Times,serif" font-size="14.00">0</text>
</g>
<!-- 1 -->
<g id="node2" class="node"><title>1</title>
<polygon fill="none" stroke="black" points="176,-1355 122,-1355 122,-1319 176,-1319 176,-1355"/>
<text text-anchor="middle" x="149" y="-1333.3" font-family="Times,serif" font-size="14.00">1</text>
</g>
<!-- 0&#45;&gt;1 -->
<g id="edge1" class="edge"><title>0&#45;&gt;1</title>
<path fill="none" stroke="black" d="M272.655,-1395.32C248.175,-1383.98 212.103,-1367.25 185.229,-1354.8"/>
<polygon fill="black" stroke="black" points="186.686,-1351.61 176.142,-1350.58 183.742,-1357.96 186.686,-1351.61"/>
</g>
<!-- 19 -->
<g id="node3" class="node"><title>19</title>
<polygon fill="lightgray" stroke="black" points="198,-59 144,-59 144,-23 198,-23 198,-59"/>
<text text-anchor="middle" x="171" y="-37.3" font-family="Times,serif" font-size="14.00">19</text>
</g>
<!-- 0&#45;&gt;19 -->
<g id="edge2" class="edge"><title>0&#45;&gt;19</title>
<path fill="none" stroke="black" d="M316.491,-1390.77C338.843,-1365.53 376,-1316.05 376,-1266 376,-1266 376,-1266 376,-184 376,-143.553 384.622,-124.546 357,-95 318.526,-53.8475 250.589,-43.8715 208.334,-41.883"/>
<polygon fill="black" stroke="black" points="208.292,-38.3796 198.178,-41.5354 208.053,-45.3755 208.292,-38.3796"/>
</g>
<!-- 2 -->
<g id="node4" class="node"><title>2</title>
<polygon fill="none" stroke="black" points="101,-1283 47,-1283 47,-1247 101,-1247 101,-1283"/>
<text text-anchor="middle" x="74" y="-1261.3" font-family="Times,serif" font-size="14.00">2</text>
</g>
<!-- 1&#45;&gt;2 -->
<g id="edge3" class="edge"><title>1&#45;&gt;2</title>
<path fill="none" stroke="black" d="M130.461,-1318.7C121.197,-1310.05 109.838,-1299.45 99.7433,-1290.03"/>
<polygon fill="black" stroke="black" points="102.025,-1287.37 92.3261,-1283.1 97.2485,-1292.49 102.025,-1287.37"/>
</g>
<!-- 2&#45;&gt;19 -->
<g id="edge5" class="edge"><title>2&#45;&gt;19</title>
<path fill="none" stroke="black" d="M57.9431,-1246.69C36.1791,-1221.36 0,-1171.76 0,-1122 0,-1122 0,-1122 0,-184 3.55271e-15,-137.962 18.6298,-125.63 53,-95 76.2379,-74.2909 108.902,-60.4704 133.974,-52.1497"/>
<polygon fill="black" stroke="black" points="135.043,-55.4826 143.517,-49.1237 132.927,-48.81 135.043,-55.4826"/>
</g>
<!-- 3 -->
<g id="node5" class="node"><title>3</title>
<polygon fill="none" stroke="black" points="101,-1211 47,-1211 47,-1175 101,-1175 101,-1211"/>
<text text-anchor="middle" x="74" y="-1189.3" font-family="Times,serif" font-size="14.00">3</text>
</g>
<!-- 2&#45;&gt;3 -->
<g id="edge4" class="edge"><title>2&#45;&gt;3</title>
<path fill="none" stroke="black" d="M74,-1246.7C74,-1238.98 74,-1229.71 74,-1221.11"/>
<polygon fill="black" stroke="black" points="77.5001,-1221.1 74,-1211.1 70.5001,-1221.1 77.5001,-1221.1"/>
</g>
<!-- 4 -->
<g id="node6" class="node"><title>4</title>
<polygon fill="none" stroke="black" points="101,-1139 47,-1139 47,-1103 101,-1103 101,-1139"/>
<text text-anchor="middle" x="74" y="-1117.3" font-family="Times,serif" font-size="14.00">4</text>
</g>
<!-- 3&#45;&gt;4 -->
<g id="edge6" class="edge"><title>3&#45;&gt;4</title>
<path fill="none" stroke="black" d="M74,-1174.7C74,-1166.98 74,-1157.71 74,-1149.11"/>
<polygon fill="black" stroke="black" points="77.5001,-1149.1 74,-1139.1 70.5001,-1149.1 77.5001,-1149.1"/>
</g>
<!-- 4&#45;&gt;19 -->
<g id="edge8" class="edge"><title>4&#45;&gt;19</title>
<path fill="none" stroke="black" d="M66.7149,-1102.87C56.1956,-1076.53 38,-1024.29 38,-978 38,-978 38,-978 38,-184 38,-127.244 95.2983,-83.8175 134.678,-60.6739"/>
<polygon fill="black" stroke="black" points="136.805,-63.4906 143.765,-55.5024 133.342,-57.4069 136.805,-63.4906"/>
</g>
<!-- 5 -->
<g id="node7" class="node"><title>5</title>
<polygon fill="none" stroke="black" points="120,-1067 66,-1067 66,-1031 120,-1031 120,-1067"/>
<text text-anchor="middle" x="93" y="-1045.3" font-family="Times,serif" font-size="14.00">5</text>
</g>
<!-- 4&#45;&gt;5 -->
<g id="edge7" class="edge"><title>4&#45;&gt;5</title>
<path fill="none" stroke="black" d="M78.6966,-1102.7C80.8134,-1094.9 83.362,-1085.51 85.7178,-1076.83"/>
<polygon fill="black" stroke="black" points="89.1156,-1077.67 88.3574,-1067.1 82.36,-1075.84 89.1156,-1077.67"/>
</g>
<!-- 6 -->
<g id="node8" class="node"><title>6</title>
<polygon fill="none" stroke="black" points="120,-995 66,-995 66,-959 120,-959 120,-995"/>
<text text-anchor="middle" x="93" y="-973.3" font-family="Times,serif" font-size="14.00">6</text>
</g>
<!-- 5&#45;&gt;6 -->
<g id="edge9" class="edge"><title>5&#45;&gt;6</title>
<path fill="none" stroke="black" d="M93,-1030.7C93,-1022.98 93,-1013.71 93,-1005.11"/>
<polygon fill="black" stroke="black" points="96.5001,-1005.1 93,-995.104 89.5001,-1005.1 96.5001,-1005.1"/>
</g>
<!-- 6&#45;&gt;19 -->
<g id="edge11" class="edge"><title>6&#45;&gt;19</title>
<path fill="none" stroke="black" d="M89.5598,-958.592C84.5923,-931.896 76,-879.188 76,-834 76,-834 76,-834 76,-184 76,-136.012 113.944,-91.9633 141.871,-66.0419"/>
<polygon fill="black" stroke="black" points="144.354,-68.516 149.443,-59.2232 139.67,-63.3144 144.354,-68.516"/>
</g>
<!-- 7 -->
<g id="node9" class="node"><title>7</title>
<polygon fill="none" stroke="black" points="158,-923 104,-923 104,-887 158,-887 158,-923"/>
<text text-anchor="middle" x="131" y="-901.3" font-family="Times,serif" font-size="14.00">7</text>
</g>
<!-- 6&#45;&gt;7 -->
<g id="edge10" class="edge"><title>6&#45;&gt;7</title>
<path fill="none" stroke="black" d="M102.393,-958.697C106.765,-950.644 112.057,-940.894 116.895,-931.982"/>
<polygon fill="black" stroke="black" points="120.02,-933.563 121.715,-923.104 113.868,-930.223 120.02,-933.563"/>
</g>
<!-- 8 -->
<g id="node10" class="node"><title>8</title>
<polygon fill="none" stroke="black" points="158,-851 104,-851 104,-815 158,-815 158,-851"/>
<text text-anchor="middle" x="131" y="-829.3" font-family="Times,serif" font-size="14.00">8</text>
</g>
<!-- 7&#45;&gt;8 -->
<g id="edge12" class="edge"><title>7&#45;&gt;8</title>
<path fill="none" stroke="black" d="M131,-886.697C131,-878.983 131,-869.712 131,-861.112"/>
<polygon fill="black" stroke="black" points="134.5,-861.104 131,-851.104 127.5,-861.104 134.5,-861.104"/>
</g>
<!-- 8&#45;&gt;19 -->
<g id="edge14" class="edge"><title>8&#45;&gt;19</title>
<path fill="none" stroke="black" d="M127.56,-814.592C122.592,-787.896 114,-735.188 114,-690 114,-690 114,-690 114,-184 114,-140.801 137,-95.1859 153.78,-67.6553"/>
<polygon fill="black" stroke="black" points="156.835,-69.3716 159.19,-59.0417 150.907,-65.6485 156.835,-69.3716"/>
</g>
<!-- 9 -->
<g id="node11" class="node"><title>9</title>
<polygon fill="none" stroke="black" points="196,-779 142,-779 142,-743 196,-743 196,-779"/>
<text text-anchor="middle" x="169" y="-757.3" font-family="Times,serif" font-size="14.00">9</text>
</g>
<!-- 8&#45;&gt;9 -->
<g id="edge13" class="edge"><title>8&#45;&gt;9</title>
<path fill="none" stroke="black" d="M140.393,-814.697C144.765,-806.644 150.057,-796.894 154.895,-787.982"/>
<polygon fill="black" stroke="black" points="158.02,-789.563 159.715,-779.104 151.868,-786.223 158.02,-789.563"/>
</g>
<!-- 10 -->
<g id="node12" class="node"><title>10</title>
<polygon fill="none" stroke="black" points="196,-707 142,-707 142,-671 196,-671 196,-707"/>
<text text-anchor="middle" x="169" y="-685.3" font-family="Times,serif" font-size="14.00">10</text>
</g>
<!-- 9&#45;&gt;10 -->
<g id="edge15" class="edge"><title>9&#45;&gt;10</title>
<path fill="none" stroke="black" d="M169,-742.697C169,-734.983 169,-725.712 169,-717.112"/>
<polygon fill="black" stroke="black" points="172.5,-717.104 169,-707.104 165.5,-717.104 172.5,-717.104"/>
</g>
<!-- 10&#45;&gt;19 -->
<g id="edge17" class="edge"><title>10&#45;&gt;19</title>
<path fill="none" stroke="black" d="M165.56,-670.592C160.592,-643.896 152,-591.188 152,-546 152,-546 152,-546 152,-184 152,-143.86 159.551,-97.897 165.132,-69.4045"/>
<polygon fill="black" stroke="black" points="168.606,-69.8834 167.155,-59.3884 161.745,-68.4976 168.606,-69.8834"/>
</g>
<!-- 11 -->
<g id="node13" class="node"><title>11</title>
<polygon fill="none" stroke="black" points="234,-635 180,-635 180,-599 234,-599 234,-635"/>
<text text-anchor="middle" x="207" y="-613.3" font-family="Times,serif" font-size="14.00">11</text>
</g>
<!-- 10&#45;&gt;11 -->
<g id="edge16" class="edge"><title>10&#45;&gt;11</title>
<path fill="none" stroke="black" d="M178.393,-670.697C182.765,-662.644 188.057,-652.894 192.895,-643.982"/>
<polygon fill="black" stroke="black" points="196.02,-645.563 197.715,-635.104 189.868,-642.223 196.02,-645.563"/>
</g>
<!-- 12 -->
<g id="node14" class="node"><title>12</title>
<polygon fill="none" stroke="black" points="234,-563 180,-563 180,-527 234,-527 234,-563"/>
<text text-anchor="middle" x="207" y="-541.3" font-family="Times,serif" font-size="14.00">12</text>
</g>
<!-- 11&#45;&gt;12 -->
<g id="edge18" class="edge"><title>11&#45;&gt;12</title>
<path fill="none" stroke="black" d="M207,-598.697C207,-590.983 207,-581.712 207,-573.112"/>
<polygon fill="black" stroke="black" points="210.5,-573.104 207,-563.104 203.5,-573.104 210.5,-573.104"/>
</g>
<!-- 12&#45;&gt;19 -->
<g id="edge20" class="edge"><title>12&#45;&gt;19</title>
<path fill="none" stroke="black" d="M203.56,-526.592C198.592,-499.896 190,-447.188 190,-402 190,-402 190,-402 190,-184 190,-143.86 182.449,-97.897 176.868,-69.4045"/>
<polygon fill="black" stroke="black" points="180.255,-68.4976 174.845,-59.3884 173.394,-69.8834 180.255,-68.4976"/>
</g>
<!-- 13 -->
<g id="node15" class="node"><title>13</title>
<polygon fill="none" stroke="black" points="272,-491 218,-491 218,-455 272,-455 272,-491"/>
<text text-anchor="middle" x="245" y="-469.3" font-family="Times,serif" font-size="14.00">13</text>
</g>
<!-- 12&#45;&gt;13 -->
<g id="edge19" class="edge"><title>12&#45;&gt;13</title>
<path fill="none" stroke="black" d="M216.393,-526.697C220.765,-518.644 226.057,-508.894 230.895,-499.982"/>
<polygon fill="black" stroke="black" points="234.02,-501.563 235.715,-491.104 227.868,-498.223 234.02,-501.563"/>
</g>
<!-- 14 -->
<g id="node16" class="node"><title>14</title>
<polygon fill="none" stroke="black" points="272,-419 218,-419 218,-383 272,-383 272,-419"/>
<text text-anchor="middle" x="245" y="-397.3" font-family="Times,serif" font-size="14.00">14</text>
</g>
<!-- 13&#45;&gt;14 -->
<g id="edge21" class="edge"><title>13&#45;&gt;14</title>
<path fill="none" stroke="black" d="M245,-454.697C245,-446.983 245,-437.712 245,-429.112"/>
<polygon fill="black" stroke="black" points="248.5,-429.104 245,-419.104 241.5,-429.104 248.5,-429.104"/>
</g>
<!-- 14&#45;&gt;19 -->
<g id="edge23" class="edge"><title>14&#45;&gt;19</title>
<path fill="none" stroke="black" d="M241.56,-382.592C236.592,-355.896 228,-303.188 228,-258 228,-258 228,-258 228,-184 228,-143.031 220.336,-132.571 204,-95 200.001,-85.8022 194.581,-76.3292 189.291,-67.9817"/>
<polygon fill="black" stroke="black" points="192.09,-65.8677 183.674,-59.4317 186.239,-69.7112 192.09,-65.8677"/>
</g>
<!-- 15 -->
<g id="node17" class="node"><title>15</title>
<polygon fill="none" stroke="black" points="310,-347 256,-347 256,-311 310,-311 310,-347"/>
<text text-anchor="middle" x="283" y="-325.3" font-family="Times,serif" font-size="14.00">15</text>
</g>
<!-- 14&#45;&gt;15 -->
<g id="edge22" class="edge"><title>14&#45;&gt;15</title>
<path fill="none" stroke="black" d="M254.393,-382.697C258.765,-374.644 264.057,-364.894 268.895,-355.982"/>
<polygon fill="black" stroke="black" points="272.02,-357.563 273.715,-347.104 265.868,-354.223 272.02,-357.563"/>
</g>
<!-- 16 -->
<g id="node18" class="node"><title>16</title>
<polygon fill="none" stroke="black" points="310,-275 256,-275 256,-239 310,-239 310,-275"/>
<text text-anchor="middle" x="283" y="-253.3" font-family="Times,serif" font-size="14.00">16</text>
</g>
<!-- 15&#45;&gt;16 -->
<g id="edge24" class="edge"><title>15&#45;&gt;16</title>
<path fill="none" stroke="black" d="M283,-310.697C283,-302.983 283,-293.712 283,-285.112"/>
<polygon fill="black" stroke="black" points="286.5,-285.104 283,-275.104 279.5,-285.104 286.5,-285.104"/>
</g>
<!-- 16&#45;&gt;19 -->
<g id="edge26" class="edge"><title>16&#45;&gt;19</title>
<path fill="none" stroke="black" d="M282.336,-238.989C280.375,-207.876 272.626,-140.794 242,-95 233.107,-81.7024 219.722,-70.462 206.962,-61.802"/>
<polygon fill="black" stroke="black" points="208.595,-58.6909 198.291,-56.2253 204.808,-64.5784 208.595,-58.6909"/>
</g>
<!-- 17 -->
<g id="node19" class="node"><title>17</title>
<polygon fill="none" stroke="black" points="348,-203 294,-203 294,-167 348,-167 348,-203"/>
<text text-anchor="middle" x="321" y="-181.3" font-family="Times,serif" font-size="14.00">17</text>
</g>
<!-- 16&#45;&gt;17 -->
<g id="edge25" class="edge"><title>16&#45;&gt;17</title>
<path fill="none" stroke="black" d="M292.393,-238.697C296.765,-230.644 302.057,-220.894 306.895,-211.982"/>
<polygon fill="black" stroke="black" points="310.02,-213.563 311.715,-203.104 303.868,-210.223 310.02,-213.563"/>
</g>
<!-- 18 -->
<g id="node20" class="node"><title>18</title>
<polygon fill="none" stroke="black" points="348,-131 294,-131 294,-95 348,-95 348,-131"/>
<text text-anchor="middle" x="321" y="-109.3" font-family="Times,serif" font-size="14.00">18</text>
</g>
<!-- 17&#45;&gt;18 -->
<g id="edge27" class="edge"><title>17&#45;&gt;18</title>
<path fill="none" stroke="black" d="M321,-166.697C321,-158.983 321,-149.712 321,-141.112"/>
<polygon fill="black" stroke="black" points="324.5,-141.104 321,-131.104 317.5,-141.104 324.5,-141.104"/>
</g>
<!-- 18&#45;&gt;19 -->
<g id="edge28" class="edge"><title>18&#45;&gt;19</title>
<path fill="none" stroke="black" d="M293.836,-99.3235C269.7,-88.0598 234.219,-71.5022 207.588,-59.0745"/>
<polygon fill="black" stroke="black" points="208.757,-55.7575 198.215,-54.7002 205.797,-62.1008 208.757,-55.7575"/>
</g>
</g>
</svg>
