<?xml version="1.0" encoding="UTF-8" standalone="no"?>
<!DOCTYPE svg PUBLIC "-//W3C//DTD SVG 1.1//EN"
 "http://www.w3.org/Graphics/SVG/1.1/DTD/svg11.dtd">
<!-- Generated by graphviz version 2.38.0 (20140413.2041)
 -->
<!-- Title: java.lang.String getType(Triangle) Pages: 1 -->
<svg width="238pt" height="931pt"
 viewBox="0.00 0.00 238.00 931.00" xmlns="http://www.w3.org/2000/svg" xmlns:xlink="http://www.w3.org/1999/xlink">
<g id="graph0" class="graph" transform="scale(1 1) rotate(0) translate(4 927)">
<title>java.lang.String getType(Triangle)</title>
<polygon fill="white" stroke="none" points="-4,4 -4,-927 234,-927 234,4 -4,4"/>
<text text-anchor="middle" x="115" y="-7.8" font-family="Times,serif" font-size="14.00">java.lang.String getType(Triangle)</text>
<!-- 0 -->
<g id="node1" class="node"><title>0</title>
<polygon fill="gray" stroke="black" points="229,-923 175,-923 175,-887 229,-887 229,-923"/>
<text text-anchor="middle" x="202" y="-901.3" font-family="Times,serif" font-size="14.00">0</text>
</g>
<!-- 1 -->
<g id="node2" class="node"><title>1</title>
<polygon fill="none" stroke="black" points="202,-851 148,-851 148,-815 202,-815 202,-851"/>
<text text-anchor="middle" x="175" y="-829.3" font-family="Times,serif" font-size="14.00">1</text>
</g>
<!-- 0&#45;&gt;1 -->
<g id="edge1" class="edge"><title>0&#45;&gt;1</title>
<path fill="none" stroke="black" d="M195.326,-886.697C192.285,-878.813 188.617,-869.304 185.239,-860.546"/>
<polygon fill="black" stroke="black" points="188.462,-859.175 181.597,-851.104 181.931,-861.694 188.462,-859.175"/>
</g>
<!-- 15 -->
<g id="node3" class="node"><title>15</title>
<polygon fill="lightgray" stroke="black" points="176,-59 122,-59 122,-23 176,-23 176,-59"/>
<text text-anchor="middle" x="149" y="-37.3" font-family="Times,serif" font-size="14.00">15</text>
</g>
<!-- 0&#45;&gt;15 -->
<g id="edge2" class="edge"><title>0&#45;&gt;15</title>
<path fill="none" stroke="black" d="M207.666,-886.728C215.848,-860.21 230,-807.732 230,-762 230,-762 230,-762 230,-184 230,-137.96 197.476,-93.2501 173.646,-66.6714"/>
<polygon fill="black" stroke="black" points="175.934,-63.9904 166.576,-59.0235 170.794,-68.7423 175.934,-63.9904"/>
</g>
<!-- 2 -->
<g id="node4" class="node"><title>2</title>
<polygon fill="none" stroke="black" points="202,-779 148,-779 148,-743 202,-743 202,-779"/>
<text text-anchor="middle" x="175" y="-757.3" font-family="Times,serif" font-size="14.00">2</text>
</g>
<!-- 1&#45;&gt;2 -->
<g id="edge3" class="edge"><title>1&#45;&gt;2</title>
<path fill="none" stroke="black" d="M175,-814.697C175,-806.983 175,-797.712 175,-789.112"/>
<polygon fill="black" stroke="black" points="178.5,-789.104 175,-779.104 171.5,-789.104 178.5,-789.104"/>
</g>
<!-- 3 -->
<g id="node5" class="node"><title>3</title>
<polygon fill="none" stroke="black" points="202,-707 148,-707 148,-671 202,-671 202,-707"/>
<text text-anchor="middle" x="175" y="-685.3" font-family="Times,serif" font-size="14.00">3</text>
</g>
<!-- 2&#45;&gt;3 -->
<g id="edge4" class="edge"><title>2&#45;&gt;3</title>
<path fill="none" stroke="black" d="M175,-742.697C175,-734.983 175,-725.712 175,-717.112"/>
<polygon fill="black" stroke="black" points="178.5,-717.104 175,-707.104 171.5,-717.104 178.5,-717.104"/>
</g>
<!-- 7 -->
<g id="node6" class="node"><title>7</title>
<polygon fill="none" stroke="black" points="147,-563 93,-563 93,-527 147,-527 147,-563"/>
<text text-anchor="middle" x="120" y="-541.3" font-family="Times,serif" font-size="14.00">7</text>
</g>
<!-- 2&#45;&gt;7 -->
<g id="edge5" class="edge"><title>2&#45;&gt;7</title>
<path fill="none" stroke="black" d="M160.002,-742.566C152.418,-732.762 143.821,-719.923 139,-707 122.295,-662.222 119.392,-606.012 119.33,-573.236"/>
<polygon fill="black" stroke="black" points="122.831,-573.095 119.402,-563.07 115.831,-573.045 122.831,-573.095"/>
</g>
<!-- 4 -->
<g id="node7" class="node"><title>4</title>
<polygon fill="none" stroke="black" points="202,-635 148,-635 148,-599 202,-599 202,-635"/>
<text text-anchor="middle" x="175" y="-613.3" font-family="Times,serif" font-size="14.00">4</text>
</g>
<!-- 3&#45;&gt;4 -->
<g id="edge6" class="edge"><title>3&#45;&gt;4</title>
<path fill="none" stroke="black" d="M175,-670.697C175,-662.983 175,-653.712 175,-645.112"/>
<polygon fill="black" stroke="black" points="178.5,-645.104 175,-635.104 171.5,-645.104 178.5,-645.104"/>
</g>
<!-- 8 -->
<g id="node10" class="node"><title>8</title>
<polygon fill="none" stroke="black" points="92,-491 38,-491 38,-455 92,-455 92,-491"/>
<text text-anchor="middle" x="65" y="-469.3" font-family="Times,serif" font-size="14.00">8</text>
</g>
<!-- 7&#45;&gt;8 -->
<g id="edge11" class="edge"><title>7&#45;&gt;8</title>
<path fill="none" stroke="black" d="M106.404,-526.697C99.8773,-518.389 91.932,-508.277 84.7534,-499.141"/>
<polygon fill="black" stroke="black" points="87.3695,-496.805 78.4391,-491.104 81.8653,-501.13 87.3695,-496.805"/>
</g>
<!-- 14 -->
<g id="node11" class="node"><title>14</title>
<polygon fill="none" stroke="black" points="137,-203 83,-203 83,-167 137,-167 137,-203"/>
<text text-anchor="middle" x="110" y="-181.3" font-family="Times,serif" font-size="14.00">14</text>
</g>
<!-- 7&#45;&gt;14 -->
<g id="edge12" class="edge"><title>7&#45;&gt;14</title>
<path fill="none" stroke="black" d="M120,-526.951C120,-500.292 120,-447.115 120,-402 120,-402 120,-402 120,-328 120,-287.897 115.982,-241.58 113.04,-213.04"/>
<polygon fill="black" stroke="black" points="116.513,-212.596 111.976,-203.022 109.552,-213.336 116.513,-212.596"/>
</g>
<!-- 4&#45;&gt;7 -->
<g id="edge8" class="edge"><title>4&#45;&gt;7</title>
<path fill="none" stroke="black" d="M161.404,-598.697C154.877,-590.389 146.932,-580.277 139.753,-571.141"/>
<polygon fill="black" stroke="black" points="142.369,-568.805 133.439,-563.104 136.865,-573.13 142.369,-568.805"/>
</g>
<!-- 5 -->
<g id="node8" class="node"><title>5</title>
<polygon fill="none" stroke="black" points="202,-491 148,-491 148,-455 202,-455 202,-491"/>
<text text-anchor="middle" x="175" y="-469.3" font-family="Times,serif" font-size="14.00">5</text>
</g>
<!-- 4&#45;&gt;5 -->
<g id="edge7" class="edge"><title>4&#45;&gt;5</title>
<path fill="none" stroke="black" d="M175,-598.871C175,-574.67 175,-530.211 175,-501.393"/>
<polygon fill="black" stroke="black" points="178.5,-501.189 175,-491.189 171.5,-501.189 178.5,-501.189"/>
</g>
<!-- 6 -->
<g id="node9" class="node"><title>6</title>
<polygon fill="none" stroke="black" points="202,-419 148,-419 148,-383 202,-383 202,-419"/>
<text text-anchor="middle" x="175" y="-397.3" font-family="Times,serif" font-size="14.00">6</text>
</g>
<!-- 5&#45;&gt;6 -->
<g id="edge9" class="edge"><title>5&#45;&gt;6</title>
<path fill="none" stroke="black" d="M175,-454.697C175,-446.983 175,-437.712 175,-429.112"/>
<polygon fill="black" stroke="black" points="178.5,-429.104 175,-419.104 171.5,-429.104 178.5,-429.104"/>
</g>
<!-- 6&#45;&gt;15 -->
<g id="edge10" class="edge"><title>6&#45;&gt;15</title>
<path fill="none" stroke="black" d="M174.012,-382.958C172.555,-356.308 170,-303.143 170,-258 170,-258 170,-258 170,-184 170,-143.782 161.654,-97.8393 155.485,-69.3725"/>
<polygon fill="black" stroke="black" points="158.846,-68.3624 153.25,-59.3664 152.015,-69.889 158.846,-68.3624"/>
</g>
<!-- 9 -->
<g id="node12" class="node"><title>9</title>
<polygon fill="none" stroke="black" points="92,-419 38,-419 38,-383 92,-383 92,-419"/>
<text text-anchor="middle" x="65" y="-397.3" font-family="Times,serif" font-size="14.00">9</text>
</g>
<!-- 8&#45;&gt;9 -->
<g id="edge13" class="edge"><title>8&#45;&gt;9</title>
<path fill="none" stroke="black" d="M65,-454.697C65,-446.983 65,-437.712 65,-429.112"/>
<polygon fill="black" stroke="black" points="68.5001,-429.104 65,-419.104 61.5001,-429.104 68.5001,-429.104"/>
</g>
<!-- 14&#45;&gt;15 -->
<g id="edge21" class="edge"><title>14&#45;&gt;15</title>
<path fill="none" stroke="black" d="M114.704,-166.871C121.38,-142.564 133.67,-97.8187 141.581,-69.0132"/>
<polygon fill="black" stroke="black" points="145.006,-69.7592 144.279,-59.1893 138.256,-67.9052 145.006,-69.7592"/>
</g>
<!-- 9&#45;&gt;14 -->
<g id="edge15" class="edge"><title>9&#45;&gt;14</title>
<path fill="none" stroke="black" d="M68.6065,-382.849C76.407,-345.753 94.8998,-257.81 104.301,-213.103"/>
<polygon fill="black" stroke="black" points="107.744,-213.739 106.376,-203.232 100.893,-212.298 107.744,-213.739"/>
</g>
<!-- 10 -->
<g id="node13" class="node"><title>10</title>
<polygon fill="none" stroke="black" points="54,-347 0,-347 0,-311 54,-311 54,-347"/>
<text text-anchor="middle" x="27" y="-325.3" font-family="Times,serif" font-size="14.00">10</text>
</g>
<!-- 9&#45;&gt;10 -->
<g id="edge14" class="edge"><title>9&#45;&gt;10</title>
<path fill="none" stroke="black" d="M55.6067,-382.697C51.2351,-374.644 45.9427,-364.894 41.1047,-355.982"/>
<polygon fill="black" stroke="black" points="44.1322,-354.223 36.2852,-347.104 37.9802,-357.563 44.1322,-354.223"/>
</g>
<!-- 11 -->
<g id="node14" class="node"><title>11</title>
<polygon fill="none" stroke="black" points="54,-275 0,-275 0,-239 54,-239 54,-275"/>
<text text-anchor="middle" x="27" y="-253.3" font-family="Times,serif" font-size="14.00">11</text>
</g>
<!-- 10&#45;&gt;11 -->
<g id="edge16" class="edge"><title>10&#45;&gt;11</title>
<path fill="none" stroke="black" d="M27,-310.697C27,-302.983 27,-293.712 27,-285.112"/>
<polygon fill="black" stroke="black" points="30.5001,-285.104 27,-275.104 23.5001,-285.104 30.5001,-285.104"/>
</g>
<!-- 11&#45;&gt;14 -->
<g id="edge18" class="edge"><title>11&#45;&gt;14</title>
<path fill="none" stroke="black" d="M47.5169,-238.697C57.8695,-229.965 70.5863,-219.24 81.839,-209.75"/>
<polygon fill="black" stroke="black" points="84.3313,-212.227 89.7191,-203.104 79.8183,-206.876 84.3313,-212.227"/>
</g>
<!-- 12 -->
<g id="node15" class="node"><title>12</title>
<polygon fill="none" stroke="black" points="60,-203 6,-203 6,-167 60,-167 60,-203"/>
<text text-anchor="middle" x="33" y="-181.3" font-family="Times,serif" font-size="14.00">12</text>
</g>
<!-- 11&#45;&gt;12 -->
<g id="edge17" class="edge"><title>11&#45;&gt;12</title>
<path fill="none" stroke="black" d="M28.4831,-238.697C29.1443,-230.983 29.9389,-221.712 30.6761,-213.112"/>
<polygon fill="black" stroke="black" points="34.167,-213.367 31.5339,-203.104 27.1926,-212.769 34.167,-213.367"/>
</g>
<!-- 13 -->
<g id="node16" class="node"><title>13</title>
<polygon fill="none" stroke="black" points="84,-131 30,-131 30,-95 84,-95 84,-131"/>
<text text-anchor="middle" x="57" y="-109.3" font-family="Times,serif" font-size="14.00">13</text>
</g>
<!-- 12&#45;&gt;13 -->
<g id="edge19" class="edge"><title>12&#45;&gt;13</title>
<path fill="none" stroke="black" d="M38.9326,-166.697C41.6064,-158.898 44.8256,-149.509 47.8014,-140.829"/>
<polygon fill="black" stroke="black" points="51.2032,-141.699 51.1357,-131.104 44.5815,-139.429 51.2032,-141.699"/>
</g>
<!-- 13&#45;&gt;15 -->
<g id="edge20" class="edge"><title>13&#45;&gt;15</title>
<path fill="none" stroke="black" d="M79.7416,-94.6966C91.4396,-85.796 105.861,-74.8232 118.51,-65.1989"/>
<polygon fill="black" stroke="black" points="120.681,-67.945 126.52,-59.1043 116.442,-62.3742 120.681,-67.945"/>
</g>
</g>
</svg>
