<?xml version="1.0" encoding="UTF-8" standalone="no"?>
<!DOCTYPE svg PUBLIC "-//W3C//DTD SVG 1.1//EN"
 "http://www.w3.org/Graphics/SVG/1.1/DTD/svg11.dtd">
<!-- Generated by graphviz version 2.38.0 (20140413.2041)
 -->
<!-- Title: long diffOfBorders(long,long) Pages: 1 -->
<svg width="201pt" height="283pt"
 viewBox="0.00 0.00 201.00 283.00" xmlns="http://www.w3.org/2000/svg" xmlns:xlink="http://www.w3.org/1999/xlink">
<g id="graph0" class="graph" transform="scale(1 1) rotate(0) translate(4 279)">
<title>long diffOfBorders(long,long)</title>
<polygon fill="white" stroke="none" points="-4,4 -4,-279 197,-279 197,4 -4,4"/>
<text text-anchor="middle" x="96.5" y="-7.8" font-family="Times,serif" font-size="14.00">long diffOfBorders(long,long)</text>
<!-- 0 -->
<g id="node1" class="node"><title>0</title>
<polygon fill="gray" stroke="black" points="122.5,-275 68.5,-275 68.5,-239 122.5,-239 122.5,-275"/>
<text text-anchor="middle" x="95.5" y="-253.3" font-family="Times,serif" font-size="14.00">0</text>
</g>
<!-- 1 -->
<g id="node2" class="node"><title>1</title>
<polygon fill="none" stroke="black" points="91.5,-203 37.5,-203 37.5,-167 91.5,-167 91.5,-203"/>
<text text-anchor="middle" x="64.5" y="-181.3" font-family="Times,serif" font-size="14.00">1</text>
</g>
<!-- 0&#45;&gt;1 -->
<g id="edge1" class="edge"><title>0&#45;&gt;1</title>
<path fill="none" stroke="black" d="M87.8371,-238.697C84.3083,-230.728 80.0441,-221.1 76.1313,-212.264"/>
<polygon fill="black" stroke="black" points="79.3243,-210.831 72.0748,-203.104 72.9239,-213.665 79.3243,-210.831"/>
</g>
<!-- 3 -->
<g id="node3" class="node"><title>3</title>
<polygon fill="none" stroke="black" points="159.5,-131 105.5,-131 105.5,-95 159.5,-95 159.5,-131"/>
<text text-anchor="middle" x="132.5" y="-109.3" font-family="Times,serif" font-size="14.00">3</text>
</g>
<!-- 0&#45;&gt;3 -->
<g id="edge2" class="edge"><title>0&#45;&gt;3</title>
<path fill="none" stroke="black" d="M99.9631,-238.871C106.297,-214.564 117.956,-169.819 125.461,-141.013"/>
<polygon fill="black" stroke="black" points="128.887,-141.749 128.021,-131.189 122.113,-139.984 128.887,-141.749"/>
</g>
<!-- 2 -->
<g id="node4" class="node"><title>2</title>
<polygon fill="none" stroke="black" points="87.5,-131 33.5,-131 33.5,-95 87.5,-95 87.5,-131"/>
<text text-anchor="middle" x="60.5" y="-109.3" font-family="Times,serif" font-size="14.00">2</text>
</g>
<!-- 1&#45;&gt;2 -->
<g id="edge3" class="edge"><title>1&#45;&gt;2</title>
<path fill="none" stroke="black" d="M63.5112,-166.697C63.0704,-158.983 62.5407,-149.712 62.0493,-141.112"/>
<polygon fill="black" stroke="black" points="65.5423,-140.888 61.4774,-131.104 58.5537,-141.288 65.5423,-140.888"/>
</g>
<!-- 4 -->
<g id="node5" class="node"><title>4</title>
<polygon fill="lightgray" stroke="black" points="123.5,-59 69.5,-59 69.5,-23 123.5,-23 123.5,-59"/>
<text text-anchor="middle" x="96.5" y="-37.3" font-family="Times,serif" font-size="14.00">4</text>
</g>
<!-- 3&#45;&gt;4 -->
<g id="edge5" class="edge"><title>3&#45;&gt;4</title>
<path fill="none" stroke="black" d="M123.601,-94.6966C119.503,-86.7284 114.551,-77.0995 110.007,-68.2641"/>
<polygon fill="black" stroke="black" points="112.983,-66.3965 105.297,-59.1043 106.758,-69.598 112.983,-66.3965"/>
</g>
<!-- 2&#45;&gt;4 -->
<g id="edge4" class="edge"><title>2&#45;&gt;4</title>
<path fill="none" stroke="black" d="M69.3989,-94.6966C73.4968,-86.7284 78.4488,-77.0995 82.9927,-68.2641"/>
<polygon fill="black" stroke="black" points="86.2425,-69.598 87.7035,-59.1043 80.0174,-66.3965 86.2425,-69.598"/>
</g>
</g>
</svg>
