<?xml version="1.0" encoding="UTF-8" standalone="no"?>
<!DOCTYPE svg PUBLIC "-//W3C//DTD SVG 1.1//EN"
 "http://www.w3.org/Graphics/SVG/1.1/DTD/svg11.dtd">
<!-- Generated by graphviz version 2.38.0 (20140413.2041)
 -->
<!-- Title: java.util.List SJF(java.util.List) Pages: 1 -->
<svg width="591pt" height="1075pt"
 viewBox="0.00 0.00 591.00 1075.00" xmlns="http://www.w3.org/2000/svg" xmlns:xlink="http://www.w3.org/1999/xlink">
<g id="graph0" class="graph" transform="scale(1 1) rotate(0) translate(4 1071)">
<title>java.util.List SJF(java.util.List)</title>
<polygon fill="white" stroke="none" points="-4,4 -4,-1071 587,-1071 587,4 -4,4"/>
<text text-anchor="middle" x="291.5" y="-7.8" font-family="Times,serif" font-size="14.00">java.util.List SJF(java.util.List)</text>
<!-- 0 -->
<g id="node1" class="node"><title>0</title>
<polygon fill="gray" stroke="black" points="236,-1067 182,-1067 182,-1031 236,-1031 236,-1067"/>
<text text-anchor="middle" x="209" y="-1045.3" font-family="Times,serif" font-size="14.00">0</text>
</g>
<!-- 1 -->
<g id="node2" class="node"><title>1</title>
<polygon fill="none" stroke="black" points="236,-995 182,-995 182,-959 236,-959 236,-995"/>
<text text-anchor="middle" x="209" y="-973.3" font-family="Times,serif" font-size="14.00">1</text>
</g>
<!-- 0&#45;&gt;1 -->
<g id="edge1" class="edge"><title>0&#45;&gt;1</title>
<path fill="none" stroke="black" d="M209,-1030.7C209,-1022.98 209,-1013.71 209,-1005.11"/>
<polygon fill="black" stroke="black" points="212.5,-1005.1 209,-995.104 205.5,-1005.1 212.5,-1005.1"/>
</g>
<!-- 2 -->
<g id="node3" class="node"><title>2</title>
<polygon fill="none" stroke="black" points="147,-851 93,-851 93,-815 147,-815 147,-851"/>
<text text-anchor="middle" x="120" y="-829.3" font-family="Times,serif" font-size="14.00">2</text>
</g>
<!-- 1&#45;&gt;2 -->
<g id="edge2" class="edge"><title>1&#45;&gt;2</title>
<path fill="none" stroke="black" d="M197.065,-958.986C189.927,-948.675 180.765,-935.198 173,-923 159.677,-902.072 145.323,-877.854 134.917,-859.97"/>
<polygon fill="black" stroke="black" points="137.904,-858.143 129.862,-851.246 131.847,-861.653 137.904,-858.143"/>
</g>
<!-- 3 -->
<g id="node4" class="node"><title>3</title>
<polygon fill="none" stroke="black" points="236,-923 182,-923 182,-887 236,-887 236,-923"/>
<text text-anchor="middle" x="209" y="-901.3" font-family="Times,serif" font-size="14.00">3</text>
</g>
<!-- 1&#45;&gt;3 -->
<g id="edge3" class="edge"><title>1&#45;&gt;3</title>
<path fill="none" stroke="black" d="M209,-958.697C209,-950.983 209,-941.712 209,-933.112"/>
<polygon fill="black" stroke="black" points="212.5,-933.104 209,-923.104 205.5,-933.104 212.5,-933.104"/>
</g>
<!-- 29 -->
<g id="node5" class="node"><title>29</title>
<polygon fill="none" stroke="black" points="126,-419 72,-419 72,-383 126,-383 126,-419"/>
<text text-anchor="middle" x="99" y="-397.3" font-family="Times,serif" font-size="14.00">29</text>
</g>
<!-- 2&#45;&gt;29 -->
<g id="edge4" class="edge"><title>2&#45;&gt;29</title>
<path fill="none" stroke="black" d="M117.167,-814.566C113.076,-787.836 106,-735.086 106,-690 106,-690 106,-690 106,-544 106,-503.947 103.188,-457.617 101.128,-429.06"/>
<polygon fill="black" stroke="black" points="104.615,-428.749 100.383,-419.036 97.6339,-429.268 104.615,-428.749"/>
</g>
<!-- 4 -->
<g id="node6" class="node"><title>4</title>
<polygon fill="none" stroke="black" points="236,-851 182,-851 182,-815 236,-815 236,-851"/>
<text text-anchor="middle" x="209" y="-829.3" font-family="Times,serif" font-size="14.00">4</text>
</g>
<!-- 3&#45;&gt;4 -->
<g id="edge5" class="edge"><title>3&#45;&gt;4</title>
<path fill="none" stroke="black" d="M209,-886.697C209,-878.983 209,-869.712 209,-861.112"/>
<polygon fill="black" stroke="black" points="212.5,-861.104 209,-851.104 205.5,-861.104 212.5,-861.104"/>
</g>
<!-- 30 -->
<g id="node31" class="node"><title>30</title>
<polygon fill="none" stroke="black" points="126,-347 72,-347 72,-311 126,-311 126,-347"/>
<text text-anchor="middle" x="99" y="-325.3" font-family="Times,serif" font-size="14.00">30</text>
</g>
<!-- 29&#45;&gt;30 -->
<g id="edge38" class="edge"><title>29&#45;&gt;30</title>
<path fill="none" stroke="black" d="M99,-382.697C99,-374.983 99,-365.712 99,-357.112"/>
<polygon fill="black" stroke="black" points="102.5,-357.104 99,-347.104 95.5001,-357.104 102.5,-357.104"/>
</g>
<!-- 5 -->
<g id="node7" class="node"><title>5</title>
<polygon fill="none" stroke="black" points="236,-779 182,-779 182,-743 236,-743 236,-779"/>
<text text-anchor="middle" x="209" y="-757.3" font-family="Times,serif" font-size="14.00">5</text>
</g>
<!-- 4&#45;&gt;5 -->
<g id="edge6" class="edge"><title>4&#45;&gt;5</title>
<path fill="none" stroke="black" d="M209,-814.697C209,-806.983 209,-797.712 209,-789.112"/>
<polygon fill="black" stroke="black" points="212.5,-789.104 209,-779.104 205.5,-789.104 212.5,-789.104"/>
</g>
<!-- 6 -->
<g id="node8" class="node"><title>6</title>
<polygon fill="none" stroke="black" points="308,-779 254,-779 254,-743 308,-743 308,-779"/>
<text text-anchor="middle" x="281" y="-757.3" font-family="Times,serif" font-size="14.00">6</text>
</g>
<!-- 4&#45;&gt;6 -->
<g id="edge7" class="edge"><title>4&#45;&gt;6</title>
<path fill="none" stroke="black" d="M226.798,-814.697C235.604,-806.135 246.382,-795.656 256.001,-786.304"/>
<polygon fill="black" stroke="black" points="258.677,-788.585 263.407,-779.104 253.797,-783.566 258.677,-788.585"/>
</g>
<!-- 25 -->
<g id="node9" class="node"><title>25</title>
<polygon fill="none" stroke="black" points="255,-563 201,-563 201,-527 255,-527 255,-563"/>
<text text-anchor="middle" x="228" y="-541.3" font-family="Times,serif" font-size="14.00">25</text>
</g>
<!-- 5&#45;&gt;25 -->
<g id="edge8" class="edge"><title>5&#45;&gt;25</title>
<path fill="none" stroke="black" d="M207.561,-742.935C205.435,-713.384 202.555,-650.87 211,-599 212.413,-590.321 214.97,-581.115 217.678,-572.854"/>
<polygon fill="black" stroke="black" points="221.006,-573.939 220.991,-563.344 214.396,-571.636 221.006,-573.939"/>
</g>
<!-- 7 -->
<g id="node10" class="node"><title>7</title>
<polygon fill="none" stroke="black" points="274,-707 220,-707 220,-671 274,-671 274,-707"/>
<text text-anchor="middle" x="247" y="-685.3" font-family="Times,serif" font-size="14.00">7</text>
</g>
<!-- 6&#45;&gt;7 -->
<g id="edge9" class="edge"><title>6&#45;&gt;7</title>
<path fill="none" stroke="black" d="M272.596,-742.697C268.725,-734.728 264.048,-725.1 259.757,-716.264"/>
<polygon fill="black" stroke="black" points="262.825,-714.57 255.308,-707.104 256.529,-717.629 262.825,-714.57"/>
</g>
<!-- 8 -->
<g id="node11" class="node"><title>8</title>
<polygon fill="none" stroke="black" points="346,-707 292,-707 292,-671 346,-671 346,-707"/>
<text text-anchor="middle" x="319" y="-685.3" font-family="Times,serif" font-size="14.00">8</text>
</g>
<!-- 6&#45;&gt;8 -->
<g id="edge10" class="edge"><title>6&#45;&gt;8</title>
<path fill="none" stroke="black" d="M290.393,-742.697C294.765,-734.644 300.057,-724.894 304.895,-715.982"/>
<polygon fill="black" stroke="black" points="308.02,-717.563 309.715,-707.104 301.868,-714.223 308.02,-717.563"/>
</g>
<!-- 26 -->
<g id="node28" class="node"><title>26</title>
<polygon fill="none" stroke="black" points="332,-491 278,-491 278,-455 332,-455 332,-491"/>
<text text-anchor="middle" x="305" y="-469.3" font-family="Times,serif" font-size="14.00">26</text>
</g>
<!-- 25&#45;&gt;26 -->
<g id="edge33" class="edge"><title>25&#45;&gt;26</title>
<path fill="none" stroke="black" d="M247.034,-526.697C256.545,-518.05 268.207,-507.449 278.57,-498.027"/>
<polygon fill="black" stroke="black" points="281.14,-500.421 286.185,-491.104 276.431,-495.241 281.14,-500.421"/>
</g>
<!-- 27 -->
<g id="node29" class="node"><title>27</title>
<polygon fill="none" stroke="black" points="246,-491 192,-491 192,-455 246,-455 246,-491"/>
<text text-anchor="middle" x="219" y="-469.3" font-family="Times,serif" font-size="14.00">27</text>
</g>
<!-- 25&#45;&gt;27 -->
<g id="edge34" class="edge"><title>25&#45;&gt;27</title>
<path fill="none" stroke="black" d="M225.775,-526.697C224.783,-518.983 223.592,-509.712 222.486,-501.112"/>
<polygon fill="black" stroke="black" points="225.946,-500.576 221.199,-491.104 219.003,-501.469 225.946,-500.576"/>
</g>
<!-- 23 -->
<g id="node12" class="node"><title>23</title>
<polygon fill="none" stroke="black" points="274,-635 220,-635 220,-599 274,-599 274,-635"/>
<text text-anchor="middle" x="247" y="-613.3" font-family="Times,serif" font-size="14.00">23</text>
</g>
<!-- 7&#45;&gt;23 -->
<g id="edge11" class="edge"><title>7&#45;&gt;23</title>
<path fill="none" stroke="black" d="M247,-670.697C247,-662.983 247,-653.712 247,-645.112"/>
<polygon fill="black" stroke="black" points="250.5,-645.104 247,-635.104 243.5,-645.104 250.5,-645.104"/>
</g>
<!-- 9 -->
<g id="node13" class="node"><title>9</title>
<polygon fill="none" stroke="black" points="484,-635 430,-635 430,-599 484,-599 484,-635"/>
<text text-anchor="middle" x="457" y="-613.3" font-family="Times,serif" font-size="14.00">9</text>
</g>
<!-- 8&#45;&gt;9 -->
<g id="edge12" class="edge"><title>8&#45;&gt;9</title>
<path fill="none" stroke="black" d="M346.264,-674.17C367.528,-663.384 397.262,-648.302 420.565,-636.481"/>
<polygon fill="black" stroke="black" points="422.457,-639.446 429.792,-631.801 419.291,-633.203 422.457,-639.446"/>
</g>
<!-- 23&#45;&gt;25 -->
<g id="edge31" class="edge"><title>23&#45;&gt;25</title>
<path fill="none" stroke="black" d="M242.303,-598.697C240.187,-590.898 237.638,-581.509 235.282,-572.829"/>
<polygon fill="black" stroke="black" points="238.64,-571.838 232.643,-563.104 231.884,-573.672 238.64,-571.838"/>
</g>
<!-- 10 -->
<g id="node14" class="node"><title>10</title>
<polygon fill="none" stroke="black" points="583,-563 529,-563 529,-527 583,-527 583,-563"/>
<text text-anchor="middle" x="556" y="-541.3" font-family="Times,serif" font-size="14.00">10</text>
</g>
<!-- 9&#45;&gt;10 -->
<g id="edge13" class="edge"><title>9&#45;&gt;10</title>
<path fill="none" stroke="black" d="M481.218,-598.876C493.923,-589.893 509.664,-578.763 523.423,-569.034"/>
<polygon fill="black" stroke="black" points="525.544,-571.821 531.689,-563.19 521.503,-566.105 525.544,-571.821"/>
</g>
<!-- 11 -->
<g id="node15" class="node"><title>11</title>
<polygon fill="none" stroke="black" points="511,-563 457,-563 457,-527 511,-527 511,-563"/>
<text text-anchor="middle" x="484" y="-541.3" font-family="Times,serif" font-size="14.00">11</text>
</g>
<!-- 9&#45;&gt;11 -->
<g id="edge14" class="edge"><title>9&#45;&gt;11</title>
<path fill="none" stroke="black" d="M463.674,-598.697C466.715,-590.813 470.383,-581.304 473.761,-572.546"/>
<polygon fill="black" stroke="black" points="477.069,-573.694 477.403,-563.104 470.538,-571.175 477.069,-573.694"/>
</g>
<!-- 14 -->
<g id="node16" class="node"><title>14</title>
<polygon fill="none" stroke="black" points="528,-419 474,-419 474,-383 528,-383 528,-419"/>
<text text-anchor="middle" x="501" y="-397.3" font-family="Times,serif" font-size="14.00">14</text>
</g>
<!-- 10&#45;&gt;14 -->
<g id="edge15" class="edge"><title>10&#45;&gt;14</title>
<path fill="none" stroke="black" d="M554.303,-526.674C552.05,-508.29 547.112,-478.685 537,-455 532.916,-445.433 527.012,-435.784 521.162,-427.388"/>
<polygon fill="black" stroke="black" points="523.88,-425.174 515.165,-419.149 518.22,-429.294 523.88,-425.174"/>
</g>
<!-- 12 -->
<g id="node17" class="node"><title>12</title>
<polygon fill="none" stroke="black" points="528,-491 474,-491 474,-455 528,-455 528,-491"/>
<text text-anchor="middle" x="501" y="-469.3" font-family="Times,serif" font-size="14.00">12</text>
</g>
<!-- 11&#45;&gt;12 -->
<g id="edge16" class="edge"><title>11&#45;&gt;12</title>
<path fill="none" stroke="black" d="M488.202,-526.697C490.096,-518.898 492.377,-509.509 494.484,-500.829"/>
<polygon fill="black" stroke="black" points="497.887,-501.648 496.846,-491.104 491.085,-499.996 497.887,-501.648"/>
</g>
<!-- 13 -->
<g id="node18" class="node"><title>13</title>
<polygon fill="none" stroke="black" points="456,-491 402,-491 402,-455 456,-455 456,-491"/>
<text text-anchor="middle" x="429" y="-469.3" font-family="Times,serif" font-size="14.00">13</text>
</g>
<!-- 11&#45;&gt;13 -->
<g id="edge17" class="edge"><title>11&#45;&gt;13</title>
<path fill="none" stroke="black" d="M470.404,-526.697C463.877,-518.389 455.932,-508.277 448.753,-499.141"/>
<polygon fill="black" stroke="black" points="451.369,-496.805 442.439,-491.104 445.865,-501.13 451.369,-496.805"/>
</g>
<!-- 15 -->
<g id="node19" class="node"><title>15</title>
<polygon fill="none" stroke="black" points="471,-347 417,-347 417,-311 471,-311 471,-347"/>
<text text-anchor="middle" x="444" y="-325.3" font-family="Times,serif" font-size="14.00">15</text>
</g>
<!-- 14&#45;&gt;15 -->
<g id="edge20" class="edge"><title>14&#45;&gt;15</title>
<path fill="none" stroke="black" d="M486.91,-382.697C480.077,-374.305 471.743,-364.07 464.244,-354.861"/>
<polygon fill="black" stroke="black" points="466.956,-352.649 457.928,-347.104 461.528,-357.069 466.956,-352.649"/>
</g>
<!-- 12&#45;&gt;14 -->
<g id="edge18" class="edge"><title>12&#45;&gt;14</title>
<path fill="none" stroke="black" d="M501,-454.697C501,-446.983 501,-437.712 501,-429.112"/>
<polygon fill="black" stroke="black" points="504.5,-429.104 501,-419.104 497.5,-429.104 504.5,-429.104"/>
</g>
<!-- 13&#45;&gt;9 -->
<g id="edge19" class="edge"><title>13&#45;&gt;9</title>
<path fill="none" stroke="black" d="M432.389,-491.189C437.189,-515.531 446.013,-560.28 451.688,-589.059"/>
<polygon fill="black" stroke="black" points="448.254,-589.738 453.623,-598.871 455.122,-588.383 448.254,-589.738"/>
</g>
<!-- 16 -->
<g id="node20" class="node"><title>16</title>
<polygon fill="none" stroke="black" points="345,-275 291,-275 291,-239 345,-239 345,-275"/>
<text text-anchor="middle" x="318" y="-253.3" font-family="Times,serif" font-size="14.00">16</text>
</g>
<!-- 15&#45;&gt;16 -->
<g id="edge21" class="edge"><title>15&#45;&gt;16</title>
<path fill="none" stroke="black" d="M416.97,-312.983C398.659,-302.811 374.253,-289.252 354.259,-278.144"/>
<polygon fill="black" stroke="black" points="355.862,-275.03 345.42,-273.233 352.462,-281.149 355.862,-275.03"/>
</g>
<!-- 17 -->
<g id="node21" class="node"><title>17</title>
<polygon fill="none" stroke="black" points="444,-275 390,-275 390,-239 444,-239 444,-275"/>
<text text-anchor="middle" x="417" y="-253.3" font-family="Times,serif" font-size="14.00">17</text>
</g>
<!-- 15&#45;&gt;17 -->
<g id="edge22" class="edge"><title>15&#45;&gt;17</title>
<path fill="none" stroke="black" d="M437.326,-310.697C434.285,-302.813 430.617,-293.304 427.239,-284.546"/>
<polygon fill="black" stroke="black" points="430.462,-283.175 423.597,-275.104 423.931,-285.694 430.462,-283.175"/>
</g>
<!-- 22 -->
<g id="node22" class="node"><title>22</title>
<polygon fill="none" stroke="black" points="305,-203 251,-203 251,-167 305,-167 305,-203"/>
<text text-anchor="middle" x="278" y="-181.3" font-family="Times,serif" font-size="14.00">22</text>
</g>
<!-- 16&#45;&gt;22 -->
<g id="edge23" class="edge"><title>16&#45;&gt;22</title>
<path fill="none" stroke="black" d="M308.112,-238.697C303.511,-230.644 297.94,-220.894 292.847,-211.982"/>
<polygon fill="black" stroke="black" points="295.774,-210.05 287.774,-203.104 289.696,-213.523 295.774,-210.05"/>
</g>
<!-- 18 -->
<g id="node23" class="node"><title>18</title>
<polygon fill="none" stroke="black" points="385,-203 331,-203 331,-167 385,-167 385,-203"/>
<text text-anchor="middle" x="358" y="-181.3" font-family="Times,serif" font-size="14.00">18</text>
</g>
<!-- 17&#45;&gt;18 -->
<g id="edge24" class="edge"><title>17&#45;&gt;18</title>
<path fill="none" stroke="black" d="M402.416,-238.697C395.342,-230.305 386.717,-220.07 378.955,-210.861"/>
<polygon fill="black" stroke="black" points="381.537,-208.495 372.417,-203.104 376.185,-213.006 381.537,-208.495"/>
</g>
<!-- 19 -->
<g id="node24" class="node"><title>19</title>
<polygon fill="none" stroke="black" points="444,-131 390,-131 390,-95 444,-95 444,-131"/>
<text text-anchor="middle" x="417" y="-109.3" font-family="Times,serif" font-size="14.00">19</text>
</g>
<!-- 17&#45;&gt;19 -->
<g id="edge25" class="edge"><title>17&#45;&gt;19</title>
<path fill="none" stroke="black" d="M417,-238.871C417,-214.67 417,-170.211 417,-141.393"/>
<polygon fill="black" stroke="black" points="420.5,-141.189 417,-131.189 413.5,-141.189 420.5,-141.189"/>
</g>
<!-- 24 -->
<g id="node27" class="node"><title>24</title>
<polygon fill="none" stroke="black" points="241,-131 187,-131 187,-95 241,-95 241,-131"/>
<text text-anchor="middle" x="214" y="-109.3" font-family="Times,serif" font-size="14.00">24</text>
</g>
<!-- 22&#45;&gt;24 -->
<g id="edge30" class="edge"><title>22&#45;&gt;24</title>
<path fill="none" stroke="black" d="M262.18,-166.697C254.43,-158.22 244.961,-147.864 236.476,-138.583"/>
<polygon fill="black" stroke="black" points="238.969,-136.123 229.638,-131.104 233.803,-140.846 238.969,-136.123"/>
</g>
<!-- 20 -->
<g id="node25" class="node"><title>20</title>
<polygon fill="none" stroke="black" points="372,-131 318,-131 318,-95 372,-95 372,-131"/>
<text text-anchor="middle" x="345" y="-109.3" font-family="Times,serif" font-size="14.00">20</text>
</g>
<!-- 18&#45;&gt;20 -->
<g id="edge26" class="edge"><title>18&#45;&gt;20</title>
<path fill="none" stroke="black" d="M354.787,-166.697C353.354,-158.983 351.632,-149.712 350.035,-141.112"/>
<polygon fill="black" stroke="black" points="353.444,-140.297 348.177,-131.104 346.561,-141.575 353.444,-140.297"/>
</g>
<!-- 21 -->
<g id="node26" class="node"><title>21</title>
<polygon fill="none" stroke="black" points="444,-59 390,-59 390,-23 444,-23 444,-59"/>
<text text-anchor="middle" x="417" y="-37.3" font-family="Times,serif" font-size="14.00">21</text>
</g>
<!-- 19&#45;&gt;21 -->
<g id="edge27" class="edge"><title>19&#45;&gt;21</title>
<path fill="none" stroke="black" d="M417,-94.6966C417,-86.9827 417,-77.7125 417,-69.1124"/>
<polygon fill="black" stroke="black" points="420.5,-69.1043 417,-59.1043 413.5,-69.1044 420.5,-69.1043"/>
</g>
<!-- 20&#45;&gt;21 -->
<g id="edge28" class="edge"><title>20&#45;&gt;21</title>
<path fill="none" stroke="black" d="M362.798,-94.6966C371.604,-86.135 382.382,-75.6562 392.001,-66.3045"/>
<polygon fill="black" stroke="black" points="394.677,-68.5846 399.407,-59.1043 389.797,-63.5657 394.677,-68.5846"/>
</g>
<!-- 21&#45;&gt;15 -->
<g id="edge29" class="edge"><title>21&#45;&gt;15</title>
<path fill="none" stroke="black" d="M432.61,-59.2264C440.373,-68.9695 448.946,-81.8163 453,-95 475.039,-166.671 460.474,-256.607 450.736,-300.856"/>
<polygon fill="black" stroke="black" points="447.272,-300.305 448.449,-310.834 454.095,-301.869 447.272,-300.305"/>
</g>
<!-- 24&#45;&gt;4 -->
<g id="edge32" class="edge"><title>24&#45;&gt;4</title>
<path fill="none" stroke="black" d="M201.276,-131.377C183.663,-157.194 154,-207.826 154,-256 154,-690 154,-690 154,-690 154,-730.447 157.119,-741.801 173,-779 177.084,-788.567 182.988,-798.216 188.838,-806.612"/>
<polygon fill="black" stroke="black" points="186.12,-808.826 194.835,-814.851 191.78,-804.706 186.12,-808.826"/>
</g>
<!-- 28 -->
<g id="node30" class="node"><title>28</title>
<polygon fill="none" stroke="black" points="366,-419 312,-419 312,-383 366,-383 366,-419"/>
<text text-anchor="middle" x="339" y="-397.3" font-family="Times,serif" font-size="14.00">28</text>
</g>
<!-- 26&#45;&gt;28 -->
<g id="edge35" class="edge"><title>26&#45;&gt;28</title>
<path fill="none" stroke="black" d="M313.404,-454.697C317.275,-446.728 321.952,-437.1 326.243,-428.264"/>
<polygon fill="black" stroke="black" points="329.471,-429.629 330.692,-419.104 323.175,-426.57 329.471,-429.629"/>
</g>
<!-- 27&#45;&gt;29 -->
<g id="edge36" class="edge"><title>27&#45;&gt;29</title>
<path fill="none" stroke="black" d="M191.77,-456.116C174.893,-446.271 153.026,-433.515 134.761,-422.861"/>
<polygon fill="black" stroke="black" points="136.523,-419.837 126.122,-417.821 132.996,-425.883 136.523,-419.837"/>
</g>
<!-- 28&#45;&gt;1 -->
<g id="edge37" class="edge"><title>28&#45;&gt;1</title>
<path fill="none" stroke="black" d="M346.083,-419.152C356.31,-445.513 374,-497.789 374,-544 374,-834 374,-834 374,-834 374,-901.179 294.45,-943.528 245.821,-963.14"/>
<polygon fill="black" stroke="black" points="244.294,-959.978 236.246,-966.87 246.835,-966.501 244.294,-959.978"/>
</g>
<!-- 31 -->
<g id="node32" class="node"><title>31</title>
<polygon fill="none" stroke="black" points="54,-275 0,-275 0,-239 54,-239 54,-275"/>
<text text-anchor="middle" x="27" y="-253.3" font-family="Times,serif" font-size="14.00">31</text>
</g>
<!-- 30&#45;&gt;31 -->
<g id="edge39" class="edge"><title>30&#45;&gt;31</title>
<path fill="none" stroke="black" d="M81.2022,-310.697C72.396,-302.135 61.6179,-291.656 51.9989,-282.304"/>
<polygon fill="black" stroke="black" points="54.2028,-279.566 44.593,-275.104 49.3232,-284.585 54.2028,-279.566"/>
</g>
<!-- 32 -->
<g id="node33" class="node"><title>32</title>
<polygon fill="none" stroke="black" points="126,-275 72,-275 72,-239 126,-239 126,-275"/>
<text text-anchor="middle" x="99" y="-253.3" font-family="Times,serif" font-size="14.00">32</text>
</g>
<!-- 30&#45;&gt;32 -->
<g id="edge40" class="edge"><title>30&#45;&gt;32</title>
<path fill="none" stroke="black" d="M93.0843,-310.697C92.2886,-302.983 92.0621,-293.712 92.4047,-285.112"/>
<polygon fill="black" stroke="black" points="95.8984,-285.324 93.105,-275.104 88.9154,-284.836 95.8984,-285.324"/>
</g>
<!-- 33 -->
<g id="node34" class="node"><title>33</title>
<polygon fill="lightgray" stroke="black" points="54,-203 0,-203 0,-167 54,-167 54,-203"/>
<text text-anchor="middle" x="27" y="-181.3" font-family="Times,serif" font-size="14.00">33</text>
</g>
<!-- 31&#45;&gt;33 -->
<g id="edge41" class="edge"><title>31&#45;&gt;33</title>
<path fill="none" stroke="black" d="M27,-238.697C27,-230.983 27,-221.712 27,-213.112"/>
<polygon fill="black" stroke="black" points="30.5001,-213.104 27,-203.104 23.5001,-213.104 30.5001,-213.104"/>
</g>
<!-- 32&#45;&gt;30 -->
<g id="edge42" class="edge"><title>32&#45;&gt;30</title>
<path fill="none" stroke="black" d="M104.895,-275.104C105.701,-282.791 105.937,-292.054 105.604,-300.665"/>
<polygon fill="black" stroke="black" points="102.109,-300.48 104.916,-310.697 109.092,-300.96 102.109,-300.48"/>
</g>
</g>
</svg>
