<?xml version="1.0" encoding="UTF-8" standalone="no"?>
<!DOCTYPE svg PUBLIC "-//W3C//DTD SVG 1.1//EN"
 "http://www.w3.org/Graphics/SVG/1.1/DTD/svg11.dtd">
<!-- Generated by graphviz version 2.38.0 (20140413.2041)
 -->
<!-- Title: java.util.List sortByServiceTime(java.util.List) Pages: 1 -->
<svg width="289pt" height="499pt"
 viewBox="0.00 0.00 289.00 499.00" xmlns="http://www.w3.org/2000/svg" xmlns:xlink="http://www.w3.org/1999/xlink">
<g id="graph0" class="graph" transform="scale(1 1) rotate(0) translate(4 495)">
<title>java.util.List sortByServiceTime(java.util.List)</title>
<polygon fill="white" stroke="none" points="-4,4 -4,-495 285,-495 285,4 -4,4"/>
<text text-anchor="middle" x="140.5" y="-7.8" font-family="Times,serif" font-size="14.00">java.util.List sortByServiceTime(java.util.List)</text>
<!-- 0 -->
<g id="node1" class="node"><title>0</title>
<polygon fill="gray" stroke="black" points="218,-491 164,-491 164,-455 218,-455 218,-491"/>
<text text-anchor="middle" x="191" y="-469.3" font-family="Times,serif" font-size="14.00">0</text>
</g>
<!-- 1 -->
<g id="node2" class="node"><title>1</title>
<polygon fill="none" stroke="black" points="218,-419 164,-419 164,-383 218,-383 218,-419"/>
<text text-anchor="middle" x="191" y="-397.3" font-family="Times,serif" font-size="14.00">1</text>
</g>
<!-- 0&#45;&gt;1 -->
<g id="edge1" class="edge"><title>0&#45;&gt;1</title>
<path fill="none" stroke="black" d="M191,-454.697C191,-446.983 191,-437.712 191,-429.112"/>
<polygon fill="black" stroke="black" points="194.5,-429.104 191,-419.104 187.5,-429.104 194.5,-429.104"/>
</g>
<!-- 2 -->
<g id="node3" class="node"><title>2</title>
<polygon fill="none" stroke="black" points="146,-347 92,-347 92,-311 146,-311 146,-347"/>
<text text-anchor="middle" x="119" y="-325.3" font-family="Times,serif" font-size="14.00">2</text>
</g>
<!-- 1&#45;&gt;2 -->
<g id="edge2" class="edge"><title>1&#45;&gt;2</title>
<path fill="none" stroke="black" d="M173.202,-382.697C164.396,-374.135 153.618,-363.656 143.999,-354.304"/>
<polygon fill="black" stroke="black" points="146.203,-351.566 136.593,-347.104 141.323,-356.585 146.203,-351.566"/>
</g>
<!-- 3 -->
<g id="node4" class="node"><title>3</title>
<polygon fill="none" stroke="black" points="218,-347 164,-347 164,-311 218,-311 218,-347"/>
<text text-anchor="middle" x="191" y="-325.3" font-family="Times,serif" font-size="14.00">3</text>
</g>
<!-- 1&#45;&gt;3 -->
<g id="edge3" class="edge"><title>1&#45;&gt;3</title>
<path fill="none" stroke="black" d="M191,-382.697C191,-374.983 191,-365.712 191,-357.112"/>
<polygon fill="black" stroke="black" points="194.5,-357.104 191,-347.104 187.5,-357.104 194.5,-357.104"/>
</g>
<!-- 11 -->
<g id="node5" class="node"><title>11</title>
<polygon fill="lightgray" stroke="black" points="146,-275 92,-275 92,-239 146,-239 146,-275"/>
<text text-anchor="middle" x="119" y="-253.3" font-family="Times,serif" font-size="14.00">11</text>
</g>
<!-- 2&#45;&gt;11 -->
<g id="edge4" class="edge"><title>2&#45;&gt;11</title>
<path fill="none" stroke="black" d="M119,-310.697C119,-302.983 119,-293.712 119,-285.112"/>
<polygon fill="black" stroke="black" points="122.5,-285.104 119,-275.104 115.5,-285.104 122.5,-285.104"/>
</g>
<!-- 4 -->
<g id="node6" class="node"><title>4</title>
<polygon fill="none" stroke="black" points="218,-275 164,-275 164,-239 218,-239 218,-275"/>
<text text-anchor="middle" x="191" y="-253.3" font-family="Times,serif" font-size="14.00">4</text>
</g>
<!-- 3&#45;&gt;4 -->
<g id="edge5" class="edge"><title>3&#45;&gt;4</title>
<path fill="none" stroke="black" d="M191,-310.697C191,-302.983 191,-293.712 191,-285.112"/>
<polygon fill="black" stroke="black" points="194.5,-285.104 191,-275.104 187.5,-285.104 194.5,-285.104"/>
</g>
<!-- 5 -->
<g id="node7" class="node"><title>5</title>
<polygon fill="none" stroke="black" points="245,-203 191,-203 191,-167 245,-167 245,-203"/>
<text text-anchor="middle" x="218" y="-181.3" font-family="Times,serif" font-size="14.00">5</text>
</g>
<!-- 4&#45;&gt;5 -->
<g id="edge6" class="edge"><title>4&#45;&gt;5</title>
<path fill="none" stroke="black" d="M197.674,-238.697C200.715,-230.813 204.383,-221.304 207.761,-212.546"/>
<polygon fill="black" stroke="black" points="211.069,-213.694 211.403,-203.104 204.538,-211.175 211.069,-213.694"/>
</g>
<!-- 6 -->
<g id="node8" class="node"><title>6</title>
<polygon fill="none" stroke="black" points="135,-203 81,-203 81,-167 135,-167 135,-203"/>
<text text-anchor="middle" x="108" y="-181.3" font-family="Times,serif" font-size="14.00">6</text>
</g>
<!-- 4&#45;&gt;6 -->
<g id="edge7" class="edge"><title>4&#45;&gt;6</title>
<path fill="none" stroke="black" d="M170.483,-238.697C160.131,-229.965 147.414,-219.24 136.161,-209.75"/>
<polygon fill="black" stroke="black" points="138.182,-206.876 128.281,-203.104 133.669,-212.227 138.182,-206.876"/>
</g>
<!-- 10 -->
<g id="node9" class="node"><title>10</title>
<polygon fill="none" stroke="black" points="272,-131 218,-131 218,-95 272,-95 272,-131"/>
<text text-anchor="middle" x="245" y="-109.3" font-family="Times,serif" font-size="14.00">10</text>
</g>
<!-- 5&#45;&gt;10 -->
<g id="edge8" class="edge"><title>5&#45;&gt;10</title>
<path fill="none" stroke="black" d="M224.674,-166.697C227.715,-158.813 231.383,-149.304 234.761,-140.546"/>
<polygon fill="black" stroke="black" points="238.069,-141.694 238.403,-131.104 231.538,-139.175 238.069,-141.694"/>
</g>
<!-- 7 -->
<g id="node10" class="node"><title>7</title>
<polygon fill="none" stroke="black" points="135,-131 81,-131 81,-95 135,-95 135,-131"/>
<text text-anchor="middle" x="108" y="-109.3" font-family="Times,serif" font-size="14.00">7</text>
</g>
<!-- 6&#45;&gt;7 -->
<g id="edge9" class="edge"><title>6&#45;&gt;7</title>
<path fill="none" stroke="black" d="M108,-166.697C108,-158.983 108,-149.712 108,-141.112"/>
<polygon fill="black" stroke="black" points="111.5,-141.104 108,-131.104 104.5,-141.104 111.5,-141.104"/>
</g>
<!-- 8 -->
<g id="node11" class="node"><title>8</title>
<polygon fill="none" stroke="black" points="63,-131 9,-131 9,-95 63,-95 63,-131"/>
<text text-anchor="middle" x="36" y="-109.3" font-family="Times,serif" font-size="14.00">8</text>
</g>
<!-- 6&#45;&gt;8 -->
<g id="edge10" class="edge"><title>6&#45;&gt;8</title>
<path fill="none" stroke="black" d="M90.2022,-166.697C81.396,-158.135 70.6179,-147.656 60.9989,-138.304"/>
<polygon fill="black" stroke="black" points="63.2028,-135.566 53.593,-131.104 58.3232,-140.585 63.2028,-135.566"/>
</g>
<!-- 10&#45;&gt;1 -->
<g id="edge14" class="edge"><title>10&#45;&gt;1</title>
<path fill="none" stroke="black" d="M248.654,-131.092C250.676,-141.431 252.981,-154.91 254,-167 260.796,-247.609 257.83,-272.21 227,-347 223.036,-356.617 217.164,-366.28 211.307,-374.673"/>
<polygon fill="black" stroke="black" points="208.366,-372.765 205.29,-382.903 214.017,-376.896 208.366,-372.765"/>
</g>
<!-- 9 -->
<g id="node12" class="node"><title>9</title>
<polygon fill="none" stroke="black" points="135,-59 81,-59 81,-23 135,-23 135,-59"/>
<text text-anchor="middle" x="108" y="-37.3" font-family="Times,serif" font-size="14.00">9</text>
</g>
<!-- 7&#45;&gt;9 -->
<g id="edge11" class="edge"><title>7&#45;&gt;9</title>
<path fill="none" stroke="black" d="M108,-94.6966C108,-86.9827 108,-77.7125 108,-69.1124"/>
<polygon fill="black" stroke="black" points="111.5,-69.1043 108,-59.1043 104.5,-69.1044 111.5,-69.1043"/>
</g>
<!-- 8&#45;&gt;9 -->
<g id="edge12" class="edge"><title>8&#45;&gt;9</title>
<path fill="none" stroke="black" d="M53.7978,-94.6966C62.604,-86.135 73.3821,-75.6562 83.0011,-66.3045"/>
<polygon fill="black" stroke="black" points="85.6768,-68.5846 90.407,-59.1043 80.7972,-63.5657 85.6768,-68.5846"/>
</g>
<!-- 9&#45;&gt;4 -->
<g id="edge13" class="edge"><title>9&#45;&gt;4</title>
<path fill="none" stroke="black" d="M121.8,-59.3128C129.212,-69.2844 138.026,-82.3216 144,-95 165.076,-139.727 178.871,-195.954 185.771,-228.746"/>
<polygon fill="black" stroke="black" points="182.418,-229.821 187.847,-238.918 189.277,-228.421 182.418,-229.821"/>
</g>
</g>
</svg>
