<?xml version="1.0" encoding="UTF-8" standalone="no"?>
<!DOCTYPE svg PUBLIC "-//W3C//DTD SVG 1.1//EN"
 "http://www.w3.org/Graphics/SVG/1.1/DTD/svg11.dtd">
<!-- Generated by graphviz version 2.38.0 (20140413.2041)
 -->
<!-- Title: java.util.List FCFS(java.util.List) Pages: 1 -->
<svg width="213pt" height="427pt"
 viewBox="0.00 0.00 213.00 427.00" xmlns="http://www.w3.org/2000/svg" xmlns:xlink="http://www.w3.org/1999/xlink">
<g id="graph0" class="graph" transform="scale(1 1) rotate(0) translate(4 423)">
<title>java.util.List FCFS(java.util.List)</title>
<polygon fill="white" stroke="none" points="-4,4 -4,-423 209,-423 209,4 -4,4"/>
<text text-anchor="middle" x="102.5" y="-7.8" font-family="Times,serif" font-size="14.00">java.util.List FCFS(java.util.List)</text>
<!-- 0 -->
<g id="node1" class="node"><title>0</title>
<polygon fill="gray" stroke="black" points="173.227,-419 119.227,-419 119.227,-383 173.227,-383 173.227,-419"/>
<text text-anchor="middle" x="146.227" y="-397.3" font-family="Times,serif" font-size="14.00">0</text>
</g>
<!-- 1 -->
<g id="node2" class="node"><title>1</title>
<polygon fill="none" stroke="black" points="173.227,-347 119.227,-347 119.227,-311 173.227,-311 173.227,-347"/>
<text text-anchor="middle" x="146.227" y="-325.3" font-family="Times,serif" font-size="14.00">1</text>
</g>
<!-- 0&#45;&gt;1 -->
<g id="edge1" class="edge"><title>0&#45;&gt;1</title>
<path fill="none" stroke="black" d="M146.227,-382.697C146.227,-374.983 146.227,-365.712 146.227,-357.112"/>
<polygon fill="black" stroke="black" points="149.728,-357.104 146.227,-347.104 142.728,-357.104 149.728,-357.104"/>
</g>
<!-- 2 -->
<g id="node3" class="node"><title>2</title>
<polygon fill="none" stroke="black" points="74.2274,-275 20.2274,-275 20.2274,-239 74.2274,-239 74.2274,-275"/>
<text text-anchor="middle" x="47.2274" y="-253.3" font-family="Times,serif" font-size="14.00">2</text>
</g>
<!-- 1&#45;&gt;2 -->
<g id="edge2" class="edge"><title>1&#45;&gt;2</title>
<path fill="none" stroke="black" d="M122.009,-310.876C109.305,-301.893 93.563,-290.763 79.8043,-281.034"/>
<polygon fill="black" stroke="black" points="81.7244,-278.105 71.5386,-275.19 77.6831,-283.821 81.7244,-278.105"/>
</g>
<!-- 3 -->
<g id="node4" class="node"><title>3</title>
<polygon fill="none" stroke="black" points="173.227,-275 119.227,-275 119.227,-239 173.227,-239 173.227,-275"/>
<text text-anchor="middle" x="146.227" y="-253.3" font-family="Times,serif" font-size="14.00">3</text>
</g>
<!-- 1&#45;&gt;3 -->
<g id="edge3" class="edge"><title>1&#45;&gt;3</title>
<path fill="none" stroke="black" d="M146.227,-310.697C146.227,-302.983 146.227,-293.712 146.227,-285.112"/>
<polygon fill="black" stroke="black" points="149.728,-285.104 146.227,-275.104 142.728,-285.104 149.728,-285.104"/>
</g>
<!-- 8 -->
<g id="node5" class="node"><title>8</title>
<polygon fill="lightgray" stroke="black" points="60.2274,-203 6.22742,-203 6.22742,-167 60.2274,-167 60.2274,-203"/>
<text text-anchor="middle" x="33.2274" y="-181.3" font-family="Times,serif" font-size="14.00">8</text>
</g>
<!-- 2&#45;&gt;8 -->
<g id="edge4" class="edge"><title>2&#45;&gt;8</title>
<path fill="none" stroke="black" d="M43.7667,-238.697C42.224,-230.983 40.3699,-221.712 38.6499,-213.112"/>
<polygon fill="black" stroke="black" points="42.0416,-212.224 36.6483,-203.104 35.1775,-213.597 42.0416,-212.224"/>
</g>
<!-- 4 -->
<g id="node6" class="node"><title>4</title>
<polygon fill="none" stroke="black" points="132.227,-203 78.2274,-203 78.2274,-167 132.227,-167 132.227,-203"/>
<text text-anchor="middle" x="105.227" y="-181.3" font-family="Times,serif" font-size="14.00">4</text>
</g>
<!-- 3&#45;&gt;4 -->
<g id="edge5" class="edge"><title>3&#45;&gt;4</title>
<path fill="none" stroke="black" d="M136.093,-238.697C131.376,-230.644 125.666,-220.894 120.446,-211.982"/>
<polygon fill="black" stroke="black" points="123.32,-209.964 115.246,-203.104 117.28,-213.502 123.32,-209.964"/>
</g>
<!-- 5 -->
<g id="node7" class="node"><title>5</title>
<polygon fill="none" stroke="black" points="187.227,-131 133.227,-131 133.227,-95 187.227,-95 187.227,-131"/>
<text text-anchor="middle" x="160.227" y="-109.3" font-family="Times,serif" font-size="14.00">5</text>
</g>
<!-- 3&#45;&gt;5 -->
<g id="edge6" class="edge"><title>3&#45;&gt;5</title>
<path fill="none" stroke="black" d="M147.916,-238.871C150.302,-214.67 154.686,-170.211 157.527,-141.393"/>
<polygon fill="black" stroke="black" points="161.035,-141.484 158.533,-131.189 154.068,-140.798 161.035,-141.484"/>
</g>
<!-- 6 -->
<g id="node8" class="node"><title>6</title>
<polygon fill="none" stroke="black" points="115.227,-131 61.2274,-131 61.2274,-95 115.227,-95 115.227,-131"/>
<text text-anchor="middle" x="88.2274" y="-109.3" font-family="Times,serif" font-size="14.00">6</text>
</g>
<!-- 4&#45;&gt;6 -->
<g id="edge7" class="edge"><title>4&#45;&gt;6</title>
<path fill="none" stroke="black" d="M101.025,-166.697C99.1312,-158.898 96.8509,-149.509 94.7431,-140.829"/>
<polygon fill="black" stroke="black" points="98.1425,-139.996 92.3813,-131.104 91.3402,-141.648 98.1425,-139.996"/>
</g>
<!-- 7 -->
<g id="node9" class="node"><title>7</title>
<polygon fill="none" stroke="black" points="187.227,-59 133.227,-59 133.227,-23 187.227,-23 187.227,-59"/>
<text text-anchor="middle" x="160.227" y="-37.3" font-family="Times,serif" font-size="14.00">7</text>
</g>
<!-- 5&#45;&gt;7 -->
<g id="edge8" class="edge"><title>5&#45;&gt;7</title>
<path fill="none" stroke="black" d="M160.227,-94.6966C160.227,-86.9827 160.227,-77.7125 160.227,-69.1124"/>
<polygon fill="black" stroke="black" points="163.728,-69.1043 160.227,-59.1043 156.728,-69.1044 163.728,-69.1043"/>
</g>
<!-- 6&#45;&gt;7 -->
<g id="edge9" class="edge"><title>6&#45;&gt;7</title>
<path fill="none" stroke="black" d="M106.025,-94.6966C114.831,-86.135 125.61,-75.6562 135.229,-66.3045"/>
<polygon fill="black" stroke="black" points="137.904,-68.5846 142.634,-59.1043 133.025,-63.5657 137.904,-68.5846"/>
</g>
<!-- 7&#45;&gt;1 -->
<g id="edge10" class="edge"><title>7&#45;&gt;1</title>
<path fill="none" stroke="black" d="M175.837,-59.2264C183.6,-68.9695 192.173,-81.8163 196.227,-95 200.93,-110.293 197.002,-115.019 196.227,-131 193.113,-195.226 204.082,-214.526 182.227,-275 178.748,-284.628 173.118,-294.183 167.333,-302.473"/>
<polygon fill="black" stroke="black" points="164.454,-300.48 161.332,-310.605 170.086,-304.637 164.454,-300.48"/>
</g>
</g>
</svg>
