<?xml version="1.0" encoding="UTF-8" standalone="no"?>
<!DOCTYPE svg PUBLIC "-//W3C//DTD SVG 1.1//EN"
 "http://www.w3.org/Graphics/SVG/1.1/DTD/svg11.dtd">
<!-- Generated by graphviz version 2.38.0 (20140413.2041)
 -->
<!-- Title: boolean goodValues() Pages: 1 -->
<svg width="217pt" height="571pt"
 viewBox="0.00 0.00 217.00 571.00" xmlns="http://www.w3.org/2000/svg" xmlns:xlink="http://www.w3.org/1999/xlink">
<g id="graph0" class="graph" transform="scale(1 1) rotate(0) translate(4 567)">
<title>boolean goodValues()</title>
<polygon fill="white" stroke="none" points="-4,4 -4,-567 213,-567 213,4 -4,4"/>
<text text-anchor="middle" x="104.5" y="-7.8" font-family="Times,serif" font-size="14.00">boolean goodValues()</text>
<!-- 0 -->
<g id="node1" class="node"><title>0</title>
<polygon fill="gray" stroke="black" points="167,-563 113,-563 113,-527 167,-527 167,-563"/>
<text text-anchor="middle" x="140" y="-541.3" font-family="Times,serif" font-size="14.00">0</text>
</g>
<!-- 1 -->
<g id="node2" class="node"><title>1</title>
<polygon fill="none" stroke="black" points="167,-491 113,-491 113,-455 167,-455 167,-491"/>
<text text-anchor="middle" x="140" y="-469.3" font-family="Times,serif" font-size="14.00">1</text>
</g>
<!-- 0&#45;&gt;1 -->
<g id="edge1" class="edge"><title>0&#45;&gt;1</title>
<path fill="none" stroke="black" d="M140,-526.697C140,-518.983 140,-509.712 140,-501.112"/>
<polygon fill="black" stroke="black" points="143.5,-501.104 140,-491.104 136.5,-501.104 143.5,-501.104"/>
</g>
<!-- 2 -->
<g id="node3" class="node"><title>2</title>
<polygon fill="none" stroke="black" points="68,-419 14,-419 14,-383 68,-383 68,-419"/>
<text text-anchor="middle" x="41" y="-397.3" font-family="Times,serif" font-size="14.00">2</text>
</g>
<!-- 1&#45;&gt;2 -->
<g id="edge2" class="edge"><title>1&#45;&gt;2</title>
<path fill="none" stroke="black" d="M115.782,-454.876C103.077,-445.893 87.3356,-434.763 73.5768,-425.034"/>
<polygon fill="black" stroke="black" points="75.497,-422.105 65.3112,-419.19 71.4557,-427.821 75.497,-422.105"/>
</g>
<!-- 3 -->
<g id="node4" class="node"><title>3</title>
<polygon fill="none" stroke="black" points="167,-419 113,-419 113,-383 167,-383 167,-419"/>
<text text-anchor="middle" x="140" y="-397.3" font-family="Times,serif" font-size="14.00">3</text>
</g>
<!-- 1&#45;&gt;3 -->
<g id="edge3" class="edge"><title>1&#45;&gt;3</title>
<path fill="none" stroke="black" d="M140,-454.697C140,-446.983 140,-437.712 140,-429.112"/>
<polygon fill="black" stroke="black" points="143.5,-429.104 140,-419.104 136.5,-429.104 143.5,-429.104"/>
</g>
<!-- 12 -->
<g id="node5" class="node"><title>12</title>
<polygon fill="lightgray" stroke="black" points="54,-347 0,-347 0,-311 54,-311 54,-347"/>
<text text-anchor="middle" x="27" y="-325.3" font-family="Times,serif" font-size="14.00">12</text>
</g>
<!-- 2&#45;&gt;12 -->
<g id="edge4" class="edge"><title>2&#45;&gt;12</title>
<path fill="none" stroke="black" d="M37.5393,-382.697C35.9965,-374.983 34.1425,-365.712 32.4225,-357.112"/>
<polygon fill="black" stroke="black" points="35.8141,-356.224 30.4209,-347.104 28.9501,-357.597 35.8141,-356.224"/>
</g>
<!-- 4 -->
<g id="node6" class="node"><title>4</title>
<polygon fill="none" stroke="black" points="126,-347 72,-347 72,-311 126,-311 126,-347"/>
<text text-anchor="middle" x="99" y="-325.3" font-family="Times,serif" font-size="14.00">4</text>
</g>
<!-- 3&#45;&gt;4 -->
<g id="edge5" class="edge"><title>3&#45;&gt;4</title>
<path fill="none" stroke="black" d="M129.865,-382.697C125.148,-374.644 119.438,-364.894 114.218,-355.982"/>
<polygon fill="black" stroke="black" points="117.092,-353.964 109.018,-347.104 111.052,-357.502 117.092,-353.964"/>
</g>
<!-- 5 -->
<g id="node7" class="node"><title>5</title>
<polygon fill="none" stroke="black" points="181,-275 127,-275 127,-239 181,-239 181,-275"/>
<text text-anchor="middle" x="154" y="-253.3" font-family="Times,serif" font-size="14.00">5</text>
</g>
<!-- 3&#45;&gt;5 -->
<g id="edge6" class="edge"><title>3&#45;&gt;5</title>
<path fill="none" stroke="black" d="M141.689,-382.871C144.075,-358.67 148.458,-314.211 151.299,-285.393"/>
<polygon fill="black" stroke="black" points="154.807,-285.484 152.305,-275.189 147.841,-284.798 154.807,-285.484"/>
</g>
<!-- 6 -->
<g id="node8" class="node"><title>6</title>
<polygon fill="none" stroke="black" points="109,-275 55,-275 55,-239 109,-239 109,-275"/>
<text text-anchor="middle" x="82" y="-253.3" font-family="Times,serif" font-size="14.00">6</text>
</g>
<!-- 4&#45;&gt;6 -->
<g id="edge7" class="edge"><title>4&#45;&gt;6</title>
<path fill="none" stroke="black" d="M94.7978,-310.697C92.9038,-302.898 90.6235,-293.509 88.5157,-284.829"/>
<polygon fill="black" stroke="black" points="91.9151,-283.996 86.1539,-275.104 85.1128,-285.648 91.9151,-283.996"/>
</g>
<!-- 11 -->
<g id="node9" class="node"><title>11</title>
<polygon fill="none" stroke="black" points="190,-131 136,-131 136,-95 190,-95 190,-131"/>
<text text-anchor="middle" x="163" y="-109.3" font-family="Times,serif" font-size="14.00">11</text>
</g>
<!-- 5&#45;&gt;11 -->
<g id="edge8" class="edge"><title>5&#45;&gt;11</title>
<path fill="none" stroke="black" d="M155.086,-238.871C156.619,-214.67 159.437,-170.211 161.264,-141.393"/>
<polygon fill="black" stroke="black" points="164.771,-141.391 161.911,-131.189 157.785,-140.948 164.771,-141.391"/>
</g>
<!-- 7 -->
<g id="node10" class="node"><title>7</title>
<polygon fill="none" stroke="black" points="63,-203 9,-203 9,-167 63,-167 63,-203"/>
<text text-anchor="middle" x="36" y="-181.3" font-family="Times,serif" font-size="14.00">7</text>
</g>
<!-- 6&#45;&gt;7 -->
<g id="edge9" class="edge"><title>6&#45;&gt;7</title>
<path fill="none" stroke="black" d="M70.6292,-238.697C65.2815,-230.559 58.7957,-220.689 52.8894,-211.701"/>
<polygon fill="black" stroke="black" points="55.6568,-209.539 47.24,-203.104 49.8068,-213.384 55.6568,-209.539"/>
</g>
<!-- 8 -->
<g id="node11" class="node"><title>8</title>
<polygon fill="none" stroke="black" points="135,-203 81,-203 81,-167 135,-167 135,-203"/>
<text text-anchor="middle" x="108" y="-181.3" font-family="Times,serif" font-size="14.00">8</text>
</g>
<!-- 6&#45;&gt;8 -->
<g id="edge10" class="edge"><title>6&#45;&gt;8</title>
<path fill="none" stroke="black" d="M88.427,-238.697C91.3551,-230.813 94.887,-221.304 98.1399,-212.546"/>
<polygon fill="black" stroke="black" points="101.446,-213.697 101.647,-203.104 94.884,-211.26 101.446,-213.697"/>
</g>
<!-- 11&#45;&gt;1 -->
<g id="edge15" class="edge"><title>11&#45;&gt;1</title>
<path fill="none" stroke="black" d="M172.531,-131.345C186.005,-157.532 209,-209.096 209,-256 209,-330 209,-330 209,-330 209,-374.518 181.225,-419.707 160.919,-446.795"/>
<polygon fill="black" stroke="black" points="157.978,-444.877 154.633,-454.93 163.517,-449.157 157.978,-444.877"/>
</g>
<!-- 10 -->
<g id="node12" class="node"><title>10</title>
<polygon fill="lightgray" stroke="black" points="90,-59 36,-59 36,-23 90,-23 90,-59"/>
<text text-anchor="middle" x="63" y="-37.3" font-family="Times,serif" font-size="14.00">10</text>
</g>
<!-- 7&#45;&gt;10 -->
<g id="edge11" class="edge"><title>7&#45;&gt;10</title>
<path fill="none" stroke="black" d="M39.2568,-166.871C43.8585,-142.67 52.312,-98.2108 57.7914,-69.3932"/>
<polygon fill="black" stroke="black" points="61.302,-69.6671 59.7316,-59.1893 54.4252,-68.3594 61.302,-69.6671"/>
</g>
<!-- 8&#45;&gt;11 -->
<g id="edge13" class="edge"><title>8&#45;&gt;11</title>
<path fill="none" stroke="black" d="M121.596,-166.697C128.123,-158.389 136.068,-148.277 143.247,-139.141"/>
<polygon fill="black" stroke="black" points="146.135,-141.13 149.561,-131.104 140.631,-136.805 146.135,-141.13"/>
</g>
<!-- 9 -->
<g id="node13" class="node"><title>9</title>
<polygon fill="none" stroke="black" points="118,-131 64,-131 64,-95 118,-95 118,-131"/>
<text text-anchor="middle" x="91" y="-109.3" font-family="Times,serif" font-size="14.00">9</text>
</g>
<!-- 8&#45;&gt;9 -->
<g id="edge12" class="edge"><title>8&#45;&gt;9</title>
<path fill="none" stroke="black" d="M103.798,-166.697C101.904,-158.898 99.6235,-149.509 97.5157,-140.829"/>
<polygon fill="black" stroke="black" points="100.915,-139.996 95.1539,-131.104 94.1128,-141.648 100.915,-139.996"/>
</g>
<!-- 9&#45;&gt;10 -->
<g id="edge14" class="edge"><title>9&#45;&gt;10</title>
<path fill="none" stroke="black" d="M84.0786,-94.6966C80.9253,-86.8132 77.1217,-77.3042 73.6186,-68.5464"/>
<polygon fill="black" stroke="black" points="76.8054,-67.0892 69.8417,-59.1043 70.306,-69.689 76.8054,-67.0892"/>
</g>
</g>
</svg>
