<?xml version="1.0" encoding="UTF-8" standalone="no"?>
<!DOCTYPE svg PUBLIC "-//W3C//DTD SVG 1.1//EN"
 "http://www.w3.org/Graphics/SVG/1.1/DTD/svg11.dtd">
<!-- Generated by graphviz version 2.38.0 (20140413.2041)
 -->
<!-- Title: boolean acyclic() Pages: 1 -->
<svg width="271pt" height="931pt"
 viewBox="0.00 0.00 271.00 931.00" xmlns="http://www.w3.org/2000/svg" xmlns:xlink="http://www.w3.org/1999/xlink">
<g id="graph0" class="graph" transform="scale(1 1) rotate(0) translate(4 927)">
<title>boolean acyclic()</title>
<polygon fill="white" stroke="none" points="-4,4 -4,-927 267,-927 267,4 -4,4"/>
<text text-anchor="middle" x="131.5" y="-7.8" font-family="Times,serif" font-size="14.00">boolean acyclic()</text>
<!-- 0 -->
<g id="node1" class="node"><title>0</title>
<polygon fill="gray" stroke="black" points="262,-923 208,-923 208,-887 262,-887 262,-923"/>
<text text-anchor="middle" x="235" y="-901.3" font-family="Times,serif" font-size="14.00">0</text>
</g>
<!-- 1 -->
<g id="node2" class="node"><title>1</title>
<polygon fill="none" stroke="black" points="262,-851 208,-851 208,-815 262,-815 262,-851"/>
<text text-anchor="middle" x="235" y="-829.3" font-family="Times,serif" font-size="14.00">1</text>
</g>
<!-- 0&#45;&gt;1 -->
<g id="edge1" class="edge"><title>0&#45;&gt;1</title>
<path fill="none" stroke="black" d="M235,-886.697C235,-878.983 235,-869.712 235,-861.112"/>
<polygon fill="black" stroke="black" points="238.5,-861.104 235,-851.104 231.5,-861.104 238.5,-861.104"/>
</g>
<!-- 2 -->
<g id="node3" class="node"><title>2</title>
<polygon fill="none" stroke="black" points="190,-779 136,-779 136,-743 190,-743 190,-779"/>
<text text-anchor="middle" x="163" y="-757.3" font-family="Times,serif" font-size="14.00">2</text>
</g>
<!-- 1&#45;&gt;2 -->
<g id="edge2" class="edge"><title>1&#45;&gt;2</title>
<path fill="none" stroke="black" d="M217.202,-814.697C208.396,-806.135 197.618,-795.656 187.999,-786.304"/>
<polygon fill="black" stroke="black" points="190.203,-783.566 180.593,-779.104 185.323,-788.585 190.203,-783.566"/>
</g>
<!-- 3 -->
<g id="node4" class="node"><title>3</title>
<polygon fill="none" stroke="black" points="262,-779 208,-779 208,-743 262,-743 262,-779"/>
<text text-anchor="middle" x="235" y="-757.3" font-family="Times,serif" font-size="14.00">3</text>
</g>
<!-- 1&#45;&gt;3 -->
<g id="edge3" class="edge"><title>1&#45;&gt;3</title>
<path fill="none" stroke="black" d="M229.084,-814.697C228.289,-806.983 228.062,-797.712 228.405,-789.112"/>
<polygon fill="black" stroke="black" points="231.898,-789.324 229.105,-779.104 224.915,-788.836 231.898,-789.324"/>
</g>
<!-- 4 -->
<g id="node5" class="node"><title>4</title>
<polygon fill="none" stroke="black" points="190,-707 136,-707 136,-671 190,-671 190,-707"/>
<text text-anchor="middle" x="163" y="-685.3" font-family="Times,serif" font-size="14.00">4</text>
</g>
<!-- 2&#45;&gt;4 -->
<g id="edge4" class="edge"><title>2&#45;&gt;4</title>
<path fill="none" stroke="black" d="M163,-742.697C163,-734.983 163,-725.712 163,-717.112"/>
<polygon fill="black" stroke="black" points="166.5,-717.104 163,-707.104 159.5,-717.104 166.5,-717.104"/>
</g>
<!-- 3&#45;&gt;1 -->
<g id="edge5" class="edge"><title>3&#45;&gt;1</title>
<path fill="none" stroke="black" d="M240.895,-779.104C241.701,-786.791 241.937,-796.054 241.604,-804.665"/>
<polygon fill="black" stroke="black" points="238.109,-804.48 240.916,-814.697 245.092,-804.96 238.109,-804.48"/>
</g>
<!-- 5 -->
<g id="node6" class="node"><title>5</title>
<polygon fill="none" stroke="black" points="190,-635 136,-635 136,-599 190,-599 190,-635"/>
<text text-anchor="middle" x="163" y="-613.3" font-family="Times,serif" font-size="14.00">5</text>
</g>
<!-- 4&#45;&gt;5 -->
<g id="edge6" class="edge"><title>4&#45;&gt;5</title>
<path fill="none" stroke="black" d="M163,-670.697C163,-662.983 163,-653.712 163,-645.112"/>
<polygon fill="black" stroke="black" points="166.5,-645.104 163,-635.104 159.5,-645.104 166.5,-645.104"/>
</g>
<!-- 6 -->
<g id="node7" class="node"><title>6</title>
<polygon fill="none" stroke="black" points="118,-563 64,-563 64,-527 118,-527 118,-563"/>
<text text-anchor="middle" x="91" y="-541.3" font-family="Times,serif" font-size="14.00">6</text>
</g>
<!-- 5&#45;&gt;6 -->
<g id="edge7" class="edge"><title>5&#45;&gt;6</title>
<path fill="none" stroke="black" d="M145.202,-598.697C136.396,-590.135 125.618,-579.656 115.999,-570.304"/>
<polygon fill="black" stroke="black" points="118.203,-567.566 108.593,-563.104 113.323,-572.585 118.203,-567.566"/>
</g>
<!-- 7 -->
<g id="node8" class="node"><title>7</title>
<polygon fill="none" stroke="black" points="190,-563 136,-563 136,-527 190,-527 190,-563"/>
<text text-anchor="middle" x="163" y="-541.3" font-family="Times,serif" font-size="14.00">7</text>
</g>
<!-- 5&#45;&gt;7 -->
<g id="edge8" class="edge"><title>5&#45;&gt;7</title>
<path fill="none" stroke="black" d="M163,-598.697C163,-590.983 163,-581.712 163,-573.112"/>
<polygon fill="black" stroke="black" points="166.5,-573.104 163,-563.104 159.5,-573.104 166.5,-573.104"/>
</g>
<!-- 21 -->
<g id="node9" class="node"><title>21</title>
<polygon fill="lightgray" stroke="black" points="91,-491 37,-491 37,-455 91,-455 91,-491"/>
<text text-anchor="middle" x="64" y="-469.3" font-family="Times,serif" font-size="14.00">21</text>
</g>
<!-- 6&#45;&gt;21 -->
<g id="edge9" class="edge"><title>6&#45;&gt;21</title>
<path fill="none" stroke="black" d="M84.3258,-526.697C81.2851,-518.813 77.6173,-509.304 74.2393,-500.546"/>
<polygon fill="black" stroke="black" points="77.4617,-499.175 70.5974,-491.104 70.9307,-501.694 77.4617,-499.175"/>
</g>
<!-- 8 -->
<g id="node10" class="node"><title>8</title>
<polygon fill="none" stroke="black" points="218,-419 164,-419 164,-383 218,-383 218,-419"/>
<text text-anchor="middle" x="191" y="-397.3" font-family="Times,serif" font-size="14.00">8</text>
</g>
<!-- 7&#45;&gt;8 -->
<g id="edge10" class="edge"><title>7&#45;&gt;8</title>
<path fill="none" stroke="black" d="M166.377,-526.871C171.171,-502.564 179.993,-457.819 185.673,-429.013"/>
<polygon fill="black" stroke="black" points="189.11,-429.677 187.611,-419.189 182.242,-428.323 189.11,-429.677"/>
</g>
<!-- 9 -->
<g id="node11" class="node"><title>9</title>
<polygon fill="none" stroke="black" points="163,-491 109,-491 109,-455 163,-455 163,-491"/>
<text text-anchor="middle" x="136" y="-469.3" font-family="Times,serif" font-size="14.00">9</text>
</g>
<!-- 7&#45;&gt;9 -->
<g id="edge11" class="edge"><title>7&#45;&gt;9</title>
<path fill="none" stroke="black" d="M156.326,-526.697C153.285,-518.813 149.617,-509.304 146.239,-500.546"/>
<polygon fill="black" stroke="black" points="149.462,-499.175 142.597,-491.104 142.931,-501.694 149.462,-499.175"/>
</g>
<!-- 20 -->
<g id="node12" class="node"><title>20</title>
<polygon fill="none" stroke="black" points="235,-275 181,-275 181,-239 235,-239 235,-275"/>
<text text-anchor="middle" x="208" y="-253.3" font-family="Times,serif" font-size="14.00">20</text>
</g>
<!-- 8&#45;&gt;20 -->
<g id="edge12" class="edge"><title>8&#45;&gt;20</title>
<path fill="none" stroke="black" d="M193.051,-382.871C195.948,-358.67 201.271,-314.211 204.721,-285.393"/>
<polygon fill="black" stroke="black" points="208.229,-285.534 205.942,-275.189 201.278,-284.702 208.229,-285.534"/>
</g>
<!-- 10 -->
<g id="node13" class="node"><title>10</title>
<polygon fill="none" stroke="black" points="127,-419 73,-419 73,-383 127,-383 127,-419"/>
<text text-anchor="middle" x="100" y="-397.3" font-family="Times,serif" font-size="14.00">10</text>
</g>
<!-- 9&#45;&gt;10 -->
<g id="edge13" class="edge"><title>9&#45;&gt;10</title>
<path fill="none" stroke="black" d="M127.101,-454.697C123.003,-446.728 118.051,-437.1 113.507,-428.264"/>
<polygon fill="black" stroke="black" points="116.483,-426.396 108.797,-419.104 110.258,-429.598 116.483,-426.396"/>
</g>
<!-- 20&#45;&gt;5 -->
<g id="edge26" class="edge"><title>20&#45;&gt;5</title>
<path fill="none" stroke="black" d="M215.69,-275.093C226.794,-301.377 246,-353.553 246,-400 246,-474 246,-474 246,-474 246,-520.262 212.759,-564.84 188.35,-591.339"/>
<polygon fill="black" stroke="black" points="185.765,-588.978 181.42,-598.641 190.843,-593.797 185.765,-588.978"/>
</g>
<!-- 11 -->
<g id="node14" class="node"><title>11</title>
<polygon fill="none" stroke="black" points="180,-347 126,-347 126,-311 180,-311 180,-347"/>
<text text-anchor="middle" x="153" y="-325.3" font-family="Times,serif" font-size="14.00">11</text>
</g>
<!-- 10&#45;&gt;11 -->
<g id="edge14" class="edge"><title>10&#45;&gt;11</title>
<path fill="none" stroke="black" d="M113.101,-382.697C119.391,-374.389 127.047,-364.277 133.965,-355.141"/>
<polygon fill="black" stroke="black" points="136.804,-357.19 140.05,-347.104 131.223,-352.964 136.804,-357.19"/>
</g>
<!-- 12 -->
<g id="node15" class="node"><title>12</title>
<polygon fill="none" stroke="black" points="108,-347 54,-347 54,-311 108,-311 108,-347"/>
<text text-anchor="middle" x="81" y="-325.3" font-family="Times,serif" font-size="14.00">12</text>
</g>
<!-- 10&#45;&gt;12 -->
<g id="edge15" class="edge"><title>10&#45;&gt;12</title>
<path fill="none" stroke="black" d="M95.3034,-382.697C93.1866,-374.898 90.638,-365.509 88.2822,-356.829"/>
<polygon fill="black" stroke="black" points="91.64,-355.838 85.6426,-347.104 84.8844,-357.672 91.64,-355.838"/>
</g>
<!-- 11&#45;&gt;20 -->
<g id="edge16" class="edge"><title>11&#45;&gt;20</title>
<path fill="none" stroke="black" d="M166.596,-310.697C173.123,-302.389 181.068,-292.277 188.247,-283.141"/>
<polygon fill="black" stroke="black" points="191.135,-285.13 194.561,-275.104 185.631,-280.805 191.135,-285.13"/>
</g>
<!-- 13 -->
<g id="node16" class="node"><title>13</title>
<polygon fill="none" stroke="black" points="122,-275 68,-275 68,-239 122,-239 122,-275"/>
<text text-anchor="middle" x="95" y="-253.3" font-family="Times,serif" font-size="14.00">13</text>
</g>
<!-- 12&#45;&gt;13 -->
<g id="edge17" class="edge"><title>12&#45;&gt;13</title>
<path fill="none" stroke="black" d="M84.4607,-310.697C86.0035,-302.983 87.8575,-293.712 89.5775,-285.112"/>
<polygon fill="black" stroke="black" points="93.0499,-285.597 91.5791,-275.104 86.1859,-284.224 93.0499,-285.597"/>
</g>
<!-- 14 -->
<g id="node17" class="node"><title>14</title>
<polygon fill="none" stroke="black" points="81,-203 27,-203 27,-167 81,-167 81,-203"/>
<text text-anchor="middle" x="54" y="-181.3" font-family="Times,serif" font-size="14.00">14</text>
</g>
<!-- 13&#45;&gt;14 -->
<g id="edge18" class="edge"><title>13&#45;&gt;14</title>
<path fill="none" stroke="black" d="M84.8652,-238.697C80.1484,-230.644 74.4382,-220.894 69.2183,-211.982"/>
<polygon fill="black" stroke="black" points="72.0924,-209.964 64.0183,-203.104 66.0522,-213.502 72.0924,-209.964"/>
</g>
<!-- 15 -->
<g id="node18" class="node"><title>15</title>
<polygon fill="none" stroke="black" points="191,-203 137,-203 137,-167 191,-167 191,-203"/>
<text text-anchor="middle" x="164" y="-181.3" font-family="Times,serif" font-size="14.00">15</text>
</g>
<!-- 13&#45;&gt;15 -->
<g id="edge19" class="edge"><title>13&#45;&gt;15</title>
<path fill="none" stroke="black" d="M112.056,-238.697C120.495,-230.135 130.825,-219.656 140.043,-210.304"/>
<polygon fill="black" stroke="black" points="142.613,-212.683 147.14,-203.104 137.627,-207.769 142.613,-212.683"/>
</g>
<!-- 19 -->
<g id="node19" class="node"><title>19</title>
<polygon fill="none" stroke="black" points="54,-131 0,-131 0,-95 54,-95 54,-131"/>
<text text-anchor="middle" x="27" y="-109.3" font-family="Times,serif" font-size="14.00">19</text>
</g>
<!-- 14&#45;&gt;19 -->
<g id="edge20" class="edge"><title>14&#45;&gt;19</title>
<path fill="none" stroke="black" d="M47.3258,-166.697C44.2851,-158.813 40.6173,-149.304 37.2393,-140.546"/>
<polygon fill="black" stroke="black" points="40.4617,-139.175 33.5974,-131.104 33.9307,-141.694 40.4617,-139.175"/>
</g>
<!-- 16 -->
<g id="node20" class="node"><title>16</title>
<polygon fill="none" stroke="black" points="263,-131 209,-131 209,-95 263,-95 263,-131"/>
<text text-anchor="middle" x="236" y="-109.3" font-family="Times,serif" font-size="14.00">16</text>
</g>
<!-- 15&#45;&gt;16 -->
<g id="edge21" class="edge"><title>15&#45;&gt;16</title>
<path fill="none" stroke="black" d="M181.798,-166.697C190.604,-158.135 201.382,-147.656 211.001,-138.304"/>
<polygon fill="black" stroke="black" points="213.677,-140.585 218.407,-131.104 208.797,-135.566 213.677,-140.585"/>
</g>
<!-- 17 -->
<g id="node21" class="node"><title>17</title>
<polygon fill="lightgray" stroke="black" points="191,-131 137,-131 137,-95 191,-95 191,-131"/>
<text text-anchor="middle" x="164" y="-109.3" font-family="Times,serif" font-size="14.00">17</text>
</g>
<!-- 15&#45;&gt;17 -->
<g id="edge22" class="edge"><title>15&#45;&gt;17</title>
<path fill="none" stroke="black" d="M164,-166.697C164,-158.983 164,-149.712 164,-141.112"/>
<polygon fill="black" stroke="black" points="167.5,-141.104 164,-131.104 160.5,-141.104 167.5,-141.104"/>
</g>
<!-- 19&#45;&gt;10 -->
<g id="edge25" class="edge"><title>19&#45;&gt;10</title>
<path fill="none" stroke="black" d="M23.3462,-131.092C21.3242,-141.431 19.0192,-154.91 18,-167 11.2045,-247.609 6.59857,-275.801 45,-347 50.8424,-357.832 59.6778,-367.777 68.568,-376.053"/>
<polygon fill="black" stroke="black" points="66.502,-378.897 76.3209,-382.877 71.127,-373.643 66.502,-378.897"/>
</g>
<!-- 18 -->
<g id="node22" class="node"><title>18</title>
<polygon fill="none" stroke="black" points="199,-59 145,-59 145,-23 199,-23 199,-59"/>
<text text-anchor="middle" x="172" y="-37.3" font-family="Times,serif" font-size="14.00">18</text>
</g>
<!-- 16&#45;&gt;18 -->
<g id="edge23" class="edge"><title>16&#45;&gt;18</title>
<path fill="none" stroke="black" d="M220.18,-94.6966C212.43,-86.2198 202.961,-75.8636 194.476,-66.5826"/>
<polygon fill="black" stroke="black" points="196.969,-64.1229 187.638,-59.1043 191.803,-68.8464 196.969,-64.1229"/>
</g>
<!-- 18&#45;&gt;13 -->
<g id="edge24" class="edge"><title>18&#45;&gt;13</title>
<path fill="none" stroke="black" d="M154.087,-59.0787C144.941,-68.7786 134.417,-81.6312 128,-95 107.034,-138.678 99.3627,-195.248 96.5736,-228.39"/>
<polygon fill="black" stroke="black" points="93.0597,-228.445 95.8027,-238.679 100.04,-228.968 93.0597,-228.445"/>
</g>
</g>
</svg>
