<?xml version="1.0" encoding="UTF-8" standalone="no"?>
<!DOCTYPE svg PUBLIC "-//W3C//DTD SVG 1.1//EN"
 "http://www.w3.org/Graphics/SVG/1.1/DTD/svg11.dtd">
<!-- Generated by graphviz version 2.38.0 (20140413.2041)
 -->
<!-- Title: void main(java.lang.String[]) Pages: 1 -->
<svg width="339pt" height="571pt"
 viewBox="0.00 0.00 338.94 571.00" xmlns="http://www.w3.org/2000/svg" xmlns:xlink="http://www.w3.org/1999/xlink">
<g id="graph0" class="graph" transform="scale(1 1) rotate(0) translate(4 567)">
<title>void main(java.lang.String[])</title>
<polygon fill="white" stroke="none" points="-4,4 -4,-567 334.939,-567 334.939,4 -4,4"/>
<text text-anchor="middle" x="165.469" y="-7.8" font-family="Times,serif" font-size="14.00">void main(java.lang.String[])</text>
<!-- 0 -->
<g id="node1" class="node"><title>0</title>
<polygon fill="gray" stroke="black" points="306,-563 252,-563 252,-527 306,-527 306,-563"/>
<text text-anchor="middle" x="279" y="-541.3" font-family="Times,serif" font-size="14.00">0</text>
</g>
<!-- 1 -->
<g id="node2" class="node"><title>1</title>
<polygon fill="none" stroke="black" points="306,-491 252,-491 252,-455 306,-455 306,-491"/>
<text text-anchor="middle" x="279" y="-469.3" font-family="Times,serif" font-size="14.00">1</text>
</g>
<!-- 0&#45;&gt;1 -->
<g id="edge1" class="edge"><title>0&#45;&gt;1</title>
<path fill="none" stroke="black" d="M279,-526.697C279,-518.983 279,-509.712 279,-501.112"/>
<polygon fill="black" stroke="black" points="282.5,-501.104 279,-491.104 275.5,-501.104 282.5,-501.104"/>
</g>
<!-- 2 -->
<g id="node3" class="node"><title>2</title>
<polygon fill="none" stroke="black" points="198,-419 144,-419 144,-383 198,-383 198,-419"/>
<text text-anchor="middle" x="171" y="-397.3" font-family="Times,serif" font-size="14.00">2</text>
</g>
<!-- 1&#45;&gt;2 -->
<g id="edge2" class="edge"><title>1&#45;&gt;2</title>
<path fill="none" stroke="black" d="M252.58,-454.876C238.59,-445.808 221.224,-434.552 206.114,-424.759"/>
<polygon fill="black" stroke="black" points="207.817,-421.692 197.521,-419.19 204.009,-427.566 207.817,-421.692"/>
</g>
<!-- 3 -->
<g id="node4" class="node"><title>3</title>
<polygon fill="none" stroke="black" points="306,-419 252,-419 252,-383 306,-383 306,-419"/>
<text text-anchor="middle" x="279" y="-397.3" font-family="Times,serif" font-size="14.00">3</text>
</g>
<!-- 1&#45;&gt;3 -->
<g id="edge3" class="edge"><title>1&#45;&gt;3</title>
<path fill="none" stroke="black" d="M279,-454.697C279,-446.983 279,-437.712 279,-429.112"/>
<polygon fill="black" stroke="black" points="282.5,-429.104 279,-419.104 275.5,-429.104 282.5,-429.104"/>
</g>
<!-- 8 -->
<g id="node5" class="node"><title>8</title>
<polygon fill="none" stroke="black" points="180,-347 126,-347 126,-311 180,-311 180,-347"/>
<text text-anchor="middle" x="153" y="-325.3" font-family="Times,serif" font-size="14.00">8</text>
</g>
<!-- 2&#45;&gt;8 -->
<g id="edge4" class="edge"><title>2&#45;&gt;8</title>
<path fill="none" stroke="black" d="M166.551,-382.697C164.545,-374.898 162.131,-365.509 159.899,-356.829"/>
<polygon fill="black" stroke="black" points="163.278,-355.918 157.398,-347.104 156.499,-357.661 163.278,-355.918"/>
</g>
<!-- 4 -->
<g id="node6" class="node"><title>4</title>
<polygon fill="none" stroke="black" points="306,-347 252,-347 252,-311 306,-311 306,-347"/>
<text text-anchor="middle" x="279" y="-325.3" font-family="Times,serif" font-size="14.00">4</text>
</g>
<!-- 3&#45;&gt;4 -->
<g id="edge5" class="edge"><title>3&#45;&gt;4</title>
<path fill="none" stroke="black" d="M279,-382.697C279,-374.983 279,-365.712 279,-357.112"/>
<polygon fill="black" stroke="black" points="282.5,-357.104 279,-347.104 275.5,-357.104 282.5,-357.104"/>
</g>
<!-- 9 -->
<g id="node10" class="node"><title>9</title>
<polygon fill="none" stroke="black" points="162,-275 108,-275 108,-239 162,-239 162,-275"/>
<text text-anchor="middle" x="135" y="-253.3" font-family="Times,serif" font-size="14.00">9</text>
</g>
<!-- 8&#45;&gt;9 -->
<g id="edge11" class="edge"><title>8&#45;&gt;9</title>
<path fill="none" stroke="black" d="M148.551,-310.697C146.545,-302.898 144.131,-293.509 141.899,-284.829"/>
<polygon fill="black" stroke="black" points="145.278,-283.918 139.398,-275.104 138.499,-285.661 145.278,-283.918"/>
</g>
<!-- 5 -->
<g id="node7" class="node"><title>5</title>
<polygon fill="none" stroke="black" points="234,-275 180,-275 180,-239 234,-239 234,-275"/>
<text text-anchor="middle" x="207" y="-253.3" font-family="Times,serif" font-size="14.00">5</text>
</g>
<!-- 4&#45;&gt;5 -->
<g id="edge6" class="edge"><title>4&#45;&gt;5</title>
<path fill="none" stroke="black" d="M261.202,-310.697C252.396,-302.135 241.618,-291.656 231.999,-282.304"/>
<polygon fill="black" stroke="black" points="234.203,-279.566 224.593,-275.104 229.323,-284.585 234.203,-279.566"/>
</g>
<!-- 6 -->
<g id="node8" class="node"><title>6</title>
<polygon fill="none" stroke="black" points="306,-275 252,-275 252,-239 306,-239 306,-275"/>
<text text-anchor="middle" x="279" y="-253.3" font-family="Times,serif" font-size="14.00">6</text>
</g>
<!-- 4&#45;&gt;6 -->
<g id="edge7" class="edge"><title>4&#45;&gt;6</title>
<path fill="none" stroke="black" d="M273.084,-310.697C272.289,-302.983 272.062,-293.712 272.405,-285.112"/>
<polygon fill="black" stroke="black" points="275.898,-285.324 273.105,-275.104 268.915,-284.836 275.898,-285.324"/>
</g>
<!-- 7 -->
<g id="node9" class="node"><title>7</title>
<polygon fill="none" stroke="black" points="316,-203 262,-203 262,-167 316,-167 316,-203"/>
<text text-anchor="middle" x="289" y="-181.3" font-family="Times,serif" font-size="14.00">7</text>
</g>
<!-- 5&#45;&gt;7 -->
<g id="edge8" class="edge"><title>5&#45;&gt;7</title>
<path fill="none" stroke="black" d="M227.27,-238.697C237.498,-229.965 250.061,-219.24 261.178,-209.75"/>
<polygon fill="black" stroke="black" points="263.63,-212.259 268.963,-203.104 259.085,-206.935 263.63,-212.259"/>
</g>
<!-- 6&#45;&gt;4 -->
<g id="edge9" class="edge"><title>6&#45;&gt;4</title>
<path fill="none" stroke="black" d="M284.895,-275.104C285.701,-282.791 285.937,-292.054 285.604,-300.665"/>
<polygon fill="black" stroke="black" points="282.109,-300.48 284.916,-310.697 289.092,-300.96 282.109,-300.48"/>
</g>
<!-- 7&#45;&gt;1 -->
<g id="edge10" class="edge"><title>7&#45;&gt;1</title>
<path fill="none" stroke="black" d="M300.046,-203.389C305.737,-213.385 312.081,-226.421 315,-239 333.085,-316.929 338.514,-342.534 315,-419 311.991,-428.785 306.493,-438.384 300.684,-446.666"/>
<polygon fill="black" stroke="black" points="297.805,-444.672 294.61,-454.774 303.407,-448.869 297.805,-444.672"/>
</g>
<!-- 10 -->
<g id="node11" class="node"><title>10</title>
<polygon fill="none" stroke="black" points="90,-203 36,-203 36,-167 90,-167 90,-203"/>
<text text-anchor="middle" x="63" y="-181.3" font-family="Times,serif" font-size="14.00">10</text>
</g>
<!-- 9&#45;&gt;10 -->
<g id="edge12" class="edge"><title>9&#45;&gt;10</title>
<path fill="none" stroke="black" d="M117.202,-238.697C108.396,-230.135 97.6179,-219.656 87.9989,-210.304"/>
<polygon fill="black" stroke="black" points="90.2028,-207.566 80.593,-203.104 85.3232,-212.585 90.2028,-207.566"/>
</g>
<!-- 11 -->
<g id="node12" class="node"><title>11</title>
<polygon fill="none" stroke="black" points="162,-203 108,-203 108,-167 162,-167 162,-203"/>
<text text-anchor="middle" x="135" y="-181.3" font-family="Times,serif" font-size="14.00">11</text>
</g>
<!-- 9&#45;&gt;11 -->
<g id="edge13" class="edge"><title>9&#45;&gt;11</title>
<path fill="none" stroke="black" d="M135,-238.697C135,-230.983 135,-221.712 135,-213.112"/>
<polygon fill="black" stroke="black" points="138.5,-213.104 135,-203.104 131.5,-213.104 138.5,-213.104"/>
</g>
<!-- 15 -->
<g id="node13" class="node"><title>15</title>
<polygon fill="lightgray" stroke="black" points="54,-131 0,-131 0,-95 54,-95 54,-131"/>
<text text-anchor="middle" x="27" y="-109.3" font-family="Times,serif" font-size="14.00">15</text>
</g>
<!-- 10&#45;&gt;15 -->
<g id="edge14" class="edge"><title>10&#45;&gt;15</title>
<path fill="none" stroke="black" d="M54.1011,-166.697C50.0032,-158.728 45.0512,-149.1 40.5073,-140.264"/>
<polygon fill="black" stroke="black" points="43.4826,-138.396 35.7965,-131.104 37.2575,-141.598 43.4826,-138.396"/>
</g>
<!-- 12 -->
<g id="node14" class="node"><title>12</title>
<polygon fill="none" stroke="black" points="126,-131 72,-131 72,-95 126,-95 126,-131"/>
<text text-anchor="middle" x="99" y="-109.3" font-family="Times,serif" font-size="14.00">12</text>
</g>
<!-- 11&#45;&gt;12 -->
<g id="edge15" class="edge"><title>11&#45;&gt;12</title>
<path fill="none" stroke="black" d="M126.101,-166.697C122.003,-158.728 117.051,-149.1 112.507,-140.264"/>
<polygon fill="black" stroke="black" points="115.483,-138.396 107.797,-131.104 109.258,-141.598 115.483,-138.396"/>
</g>
<!-- 13 -->
<g id="node15" class="node"><title>13</title>
<polygon fill="none" stroke="black" points="198,-131 144,-131 144,-95 198,-95 198,-131"/>
<text text-anchor="middle" x="171" y="-109.3" font-family="Times,serif" font-size="14.00">13</text>
</g>
<!-- 11&#45;&gt;13 -->
<g id="edge16" class="edge"><title>11&#45;&gt;13</title>
<path fill="none" stroke="black" d="M143.899,-166.697C147.997,-158.728 152.949,-149.1 157.493,-140.264"/>
<polygon fill="black" stroke="black" points="160.742,-141.598 162.203,-131.104 154.517,-138.396 160.742,-141.598"/>
</g>
<!-- 14 -->
<g id="node16" class="node"><title>14</title>
<polygon fill="none" stroke="black" points="198,-59 144,-59 144,-23 198,-23 198,-59"/>
<text text-anchor="middle" x="171" y="-37.3" font-family="Times,serif" font-size="14.00">14</text>
</g>
<!-- 12&#45;&gt;14 -->
<g id="edge17" class="edge"><title>12&#45;&gt;14</title>
<path fill="none" stroke="black" d="M116.798,-94.6966C125.604,-86.135 136.382,-75.6562 146.001,-66.3045"/>
<polygon fill="black" stroke="black" points="148.677,-68.5846 153.407,-59.1043 143.797,-63.5657 148.677,-68.5846"/>
</g>
<!-- 13&#45;&gt;14 -->
<g id="edge18" class="edge"><title>13&#45;&gt;14</title>
<path fill="none" stroke="black" d="M171,-94.6966C171,-86.9827 171,-77.7125 171,-69.1124"/>
<polygon fill="black" stroke="black" points="174.5,-69.1043 171,-59.1043 167.5,-69.1044 174.5,-69.1043"/>
</g>
<!-- 14&#45;&gt;9 -->
<g id="edge19" class="edge"><title>14&#45;&gt;9</title>
<path fill="none" stroke="black" d="M186.61,-59.2264C194.373,-68.9695 202.946,-81.8163 207,-95 211.703,-110.293 210.676,-115.428 207,-131 198.083,-168.772 173.578,-206.619 155.625,-230.609"/>
<polygon fill="black" stroke="black" points="152.655,-228.73 149.348,-238.795 158.21,-232.989 152.655,-228.73"/>
</g>
</g>
</svg>
