<?xml version="1.0" encoding="UTF-8" standalone="no"?>
<!DOCTYPE svg PUBLIC "-//W3C//DTD SVG 1.1//EN"
 "http://www.w3.org/Graphics/SVG/1.1/DTD/svg11.dtd">
<!-- Generated by graphviz version 2.38.0 (20140413.2041)
 -->
<!-- Title: void partition() Pages: 1 -->
<svg width="255pt" height="715pt"
 viewBox="0.00 0.00 255.00 715.00" xmlns="http://www.w3.org/2000/svg" xmlns:xlink="http://www.w3.org/1999/xlink">
<g id="graph0" class="graph" transform="scale(1 1) rotate(0) translate(4 711)">
<title>void partition()</title>
<polygon fill="white" stroke="none" points="-4,4 -4,-711 251,-711 251,4 -4,4"/>
<text text-anchor="middle" x="123.5" y="-7.8" font-family="Times,serif" font-size="14.00">void partition()</text>
<!-- 0 -->
<g id="node1" class="node"><title>0</title>
<polygon fill="gray" stroke="black" points="164,-707 110,-707 110,-671 164,-671 164,-707"/>
<text text-anchor="middle" x="137" y="-685.3" font-family="Times,serif" font-size="14.00">0</text>
</g>
<!-- 1 -->
<g id="node2" class="node"><title>1</title>
<polygon fill="none" stroke="black" points="164,-635 110,-635 110,-599 164,-599 164,-635"/>
<text text-anchor="middle" x="137" y="-613.3" font-family="Times,serif" font-size="14.00">1</text>
</g>
<!-- 0&#45;&gt;1 -->
<g id="edge1" class="edge"><title>0&#45;&gt;1</title>
<path fill="none" stroke="black" d="M137,-670.697C137,-662.983 137,-653.712 137,-645.112"/>
<polygon fill="black" stroke="black" points="140.5,-645.104 137,-635.104 133.5,-645.104 140.5,-645.104"/>
</g>
<!-- 2 -->
<g id="node3" class="node"><title>2</title>
<polygon fill="none" stroke="black" points="73,-563 19,-563 19,-527 73,-527 73,-563"/>
<text text-anchor="middle" x="46" y="-541.3" font-family="Times,serif" font-size="14.00">2</text>
</g>
<!-- 1&#45;&gt;2 -->
<g id="edge2" class="edge"><title>1&#45;&gt;2</title>
<path fill="none" stroke="black" d="M114.506,-598.697C103.045,-589.881 88.9417,-579.032 76.5165,-569.474"/>
<polygon fill="black" stroke="black" points="78.2959,-566.427 68.2356,-563.104 74.0279,-571.976 78.2959,-566.427"/>
</g>
<!-- 3 -->
<g id="node4" class="node"><title>3</title>
<polygon fill="none" stroke="black" points="164,-563 110,-563 110,-527 164,-527 164,-563"/>
<text text-anchor="middle" x="137" y="-541.3" font-family="Times,serif" font-size="14.00">3</text>
</g>
<!-- 1&#45;&gt;3 -->
<g id="edge3" class="edge"><title>1&#45;&gt;3</title>
<path fill="none" stroke="black" d="M137,-598.697C137,-590.983 137,-581.712 137,-573.112"/>
<polygon fill="black" stroke="black" points="140.5,-573.104 137,-563.104 133.5,-573.104 140.5,-573.104"/>
</g>
<!-- 15 -->
<g id="node5" class="node"><title>15</title>
<polygon fill="lightgray" stroke="black" points="54,-491 0,-491 0,-455 54,-455 54,-491"/>
<text text-anchor="middle" x="27" y="-469.3" font-family="Times,serif" font-size="14.00">15</text>
</g>
<!-- 2&#45;&gt;15 -->
<g id="edge4" class="edge"><title>2&#45;&gt;15</title>
<path fill="none" stroke="black" d="M41.3034,-526.697C39.1866,-518.898 36.638,-509.509 34.2822,-500.829"/>
<polygon fill="black" stroke="black" points="37.64,-499.838 31.6426,-491.104 30.8844,-501.672 37.64,-499.838"/>
</g>
<!-- 4 -->
<g id="node6" class="node"><title>4</title>
<polygon fill="none" stroke="black" points="75,-419 21,-419 21,-383 75,-383 75,-419"/>
<text text-anchor="middle" x="48" y="-397.3" font-family="Times,serif" font-size="14.00">4</text>
</g>
<!-- 3&#45;&gt;4 -->
<g id="edge5" class="edge"><title>3&#45;&gt;4</title>
<path fill="none" stroke="black" d="M125.065,-526.986C117.927,-516.675 108.765,-503.198 101,-491 87.6774,-470.072 73.3226,-445.854 62.9169,-427.97"/>
<polygon fill="black" stroke="black" points="65.9037,-426.143 57.8617,-419.246 59.8471,-429.653 65.9037,-426.143"/>
</g>
<!-- 5 -->
<g id="node7" class="node"><title>5</title>
<polygon fill="none" stroke="black" points="164,-491 110,-491 110,-455 164,-455 164,-491"/>
<text text-anchor="middle" x="137" y="-469.3" font-family="Times,serif" font-size="14.00">5</text>
</g>
<!-- 3&#45;&gt;5 -->
<g id="edge6" class="edge"><title>3&#45;&gt;5</title>
<path fill="none" stroke="black" d="M137,-526.697C137,-518.983 137,-509.712 137,-501.112"/>
<polygon fill="black" stroke="black" points="140.5,-501.104 137,-491.104 133.5,-501.104 140.5,-501.104"/>
</g>
<!-- 8 -->
<g id="node8" class="node"><title>8</title>
<polygon fill="none" stroke="black" points="147,-347 93,-347 93,-311 147,-311 147,-347"/>
<text text-anchor="middle" x="120" y="-325.3" font-family="Times,serif" font-size="14.00">8</text>
</g>
<!-- 4&#45;&gt;8 -->
<g id="edge7" class="edge"><title>4&#45;&gt;8</title>
<path fill="none" stroke="black" d="M65.7978,-382.697C74.604,-374.135 85.3821,-363.656 95.0011,-354.304"/>
<polygon fill="black" stroke="black" points="97.6768,-356.585 102.407,-347.104 92.7972,-351.566 97.6768,-356.585"/>
</g>
<!-- 6 -->
<g id="node9" class="node"><title>6</title>
<polygon fill="none" stroke="black" points="147,-419 93,-419 93,-383 147,-383 147,-419"/>
<text text-anchor="middle" x="120" y="-397.3" font-family="Times,serif" font-size="14.00">6</text>
</g>
<!-- 5&#45;&gt;6 -->
<g id="edge8" class="edge"><title>5&#45;&gt;6</title>
<path fill="none" stroke="black" d="M132.798,-454.697C130.904,-446.898 128.623,-437.509 126.516,-428.829"/>
<polygon fill="black" stroke="black" points="129.915,-427.996 124.154,-419.104 123.113,-429.648 129.915,-427.996"/>
</g>
<!-- 7 -->
<g id="node10" class="node"><title>7</title>
<polygon fill="none" stroke="black" points="219,-419 165,-419 165,-383 219,-383 219,-419"/>
<text text-anchor="middle" x="192" y="-397.3" font-family="Times,serif" font-size="14.00">7</text>
</g>
<!-- 5&#45;&gt;7 -->
<g id="edge9" class="edge"><title>5&#45;&gt;7</title>
<path fill="none" stroke="black" d="M150.596,-454.697C157.123,-446.389 165.068,-436.277 172.247,-427.141"/>
<polygon fill="black" stroke="black" points="175.135,-429.13 178.561,-419.104 169.631,-424.805 175.135,-429.13"/>
</g>
<!-- 9 -->
<g id="node11" class="node"><title>9</title>
<polygon fill="none" stroke="black" points="111,-275 57,-275 57,-239 111,-239 111,-275"/>
<text text-anchor="middle" x="84" y="-253.3" font-family="Times,serif" font-size="14.00">9</text>
</g>
<!-- 8&#45;&gt;9 -->
<g id="edge12" class="edge"><title>8&#45;&gt;9</title>
<path fill="none" stroke="black" d="M111.101,-310.697C107.003,-302.728 102.051,-293.1 97.5073,-284.264"/>
<polygon fill="black" stroke="black" points="100.483,-282.396 92.7965,-275.104 94.2575,-285.598 100.483,-282.396"/>
</g>
<!-- 10 -->
<g id="node12" class="node"><title>10</title>
<polygon fill="none" stroke="black" points="183,-275 129,-275 129,-239 183,-239 183,-275"/>
<text text-anchor="middle" x="156" y="-253.3" font-family="Times,serif" font-size="14.00">10</text>
</g>
<!-- 8&#45;&gt;10 -->
<g id="edge13" class="edge"><title>8&#45;&gt;10</title>
<path fill="none" stroke="black" d="M122.983,-310.697C126.294,-302.644 131.098,-292.894 136.091,-283.982"/>
<polygon fill="black" stroke="black" points="139.259,-285.499 141.308,-275.104 133.224,-281.952 139.259,-285.499"/>
</g>
<!-- 6&#45;&gt;8 -->
<g id="edge10" class="edge"><title>6&#45;&gt;8</title>
<path fill="none" stroke="black" d="M120,-382.697C120,-374.983 120,-365.712 120,-357.112"/>
<polygon fill="black" stroke="black" points="123.5,-357.104 120,-347.104 116.5,-357.104 123.5,-357.104"/>
</g>
<!-- 7&#45;&gt;3 -->
<g id="edge11" class="edge"><title>7&#45;&gt;3</title>
<path fill="none" stroke="black" d="M190.303,-419.326C188.05,-437.71 183.112,-467.315 173,-491 168.916,-500.567 163.012,-510.216 157.162,-518.612"/>
<polygon fill="black" stroke="black" points="154.22,-516.706 151.165,-526.851 159.88,-520.826 154.22,-516.706"/>
</g>
<!-- 11 -->
<g id="node13" class="node"><title>11</title>
<polygon fill="none" stroke="black" points="129,-203 75,-203 75,-167 129,-167 129,-203"/>
<text text-anchor="middle" x="102" y="-181.3" font-family="Times,serif" font-size="14.00">11</text>
</g>
<!-- 9&#45;&gt;11 -->
<g id="edge14" class="edge"><title>9&#45;&gt;11</title>
<path fill="none" stroke="black" d="M88.4494,-238.697C90.4548,-230.898 92.8692,-221.509 95.1011,-212.829"/>
<polygon fill="black" stroke="black" points="98.501,-213.661 97.6017,-203.104 91.7215,-211.918 98.501,-213.661"/>
</g>
<!-- 10&#45;&gt;8 -->
<g id="edge15" class="edge"><title>10&#45;&gt;8</title>
<path fill="none" stroke="black" d="M153.099,-275.104C149.812,-283.129 145.023,-292.871 140.033,-301.797"/>
<polygon fill="black" stroke="black" points="136.853,-300.3 134.815,-310.697 142.892,-303.84 136.853,-300.3"/>
</g>
<!-- 12 -->
<g id="node14" class="node"><title>12</title>
<polygon fill="none" stroke="black" points="129,-131 75,-131 75,-95 129,-95 129,-131"/>
<text text-anchor="middle" x="102" y="-109.3" font-family="Times,serif" font-size="14.00">12</text>
</g>
<!-- 11&#45;&gt;12 -->
<g id="edge16" class="edge"><title>11&#45;&gt;12</title>
<path fill="none" stroke="black" d="M102,-166.697C102,-158.983 102,-149.712 102,-141.112"/>
<polygon fill="black" stroke="black" points="105.5,-141.104 102,-131.104 98.5001,-141.104 105.5,-141.104"/>
</g>
<!-- 13 -->
<g id="node15" class="node"><title>13</title>
<polygon fill="none" stroke="black" points="201,-131 147,-131 147,-95 201,-95 201,-131"/>
<text text-anchor="middle" x="174" y="-109.3" font-family="Times,serif" font-size="14.00">13</text>
</g>
<!-- 11&#45;&gt;13 -->
<g id="edge17" class="edge"><title>11&#45;&gt;13</title>
<path fill="none" stroke="black" d="M119.798,-166.697C128.604,-158.135 139.382,-147.656 149.001,-138.304"/>
<polygon fill="black" stroke="black" points="151.677,-140.585 156.407,-131.104 146.797,-135.566 151.677,-140.585"/>
</g>
<!-- 14 -->
<g id="node16" class="node"><title>14</title>
<polygon fill="none" stroke="black" points="201,-59 147,-59 147,-23 201,-23 201,-59"/>
<text text-anchor="middle" x="174" y="-37.3" font-family="Times,serif" font-size="14.00">14</text>
</g>
<!-- 12&#45;&gt;14 -->
<g id="edge18" class="edge"><title>12&#45;&gt;14</title>
<path fill="none" stroke="black" d="M119.798,-94.6966C128.604,-86.135 139.382,-75.6562 149.001,-66.3045"/>
<polygon fill="black" stroke="black" points="151.677,-68.5846 156.407,-59.1043 146.797,-63.5657 151.677,-68.5846"/>
</g>
<!-- 13&#45;&gt;14 -->
<g id="edge19" class="edge"><title>13&#45;&gt;14</title>
<path fill="none" stroke="black" d="M174,-94.6966C174,-86.9827 174,-77.7125 174,-69.1124"/>
<polygon fill="black" stroke="black" points="177.5,-69.1043 174,-59.1043 170.5,-69.1044 177.5,-69.1043"/>
</g>
<!-- 14&#45;&gt;1 -->
<g id="edge20" class="edge"><title>14&#45;&gt;1</title>
<path fill="none" stroke="black" d="M189.84,-59.3451C211.31,-84.7268 247,-134.382 247,-184 247,-474 247,-474 247,-474 247,-524.239 203.436,-567.483 171.139,-592.639"/>
<polygon fill="black" stroke="black" points="168.663,-590.124 162.79,-598.942 172.88,-595.711 168.663,-590.124"/>
</g>
</g>
</svg>
