<?xml version="1.0" encoding="UTF-8" standalone="no"?>
<!DOCTYPE svg PUBLIC "-//W3C//DTD SVG 1.1//EN"
 "http://www.w3.org/Graphics/SVG/1.1/DTD/svg11.dtd">
<!-- Generated by graphviz version 2.38.0 (20140413.2041)
 -->
<!-- Title: boolean isWeaklySorted() Pages: 1 -->
<svg width="251pt" height="715pt"
 viewBox="0.00 0.00 251.34 715.00" xmlns="http://www.w3.org/2000/svg" xmlns:xlink="http://www.w3.org/1999/xlink">
<g id="graph0" class="graph" transform="scale(1 1) rotate(0) translate(4 711)">
<title>boolean isWeaklySorted()</title>
<polygon fill="white" stroke="none" points="-4,4 -4,-711 247.344,-711 247.344,4 -4,4"/>
<text text-anchor="middle" x="121.672" y="-7.8" font-family="Times,serif" font-size="14.00">boolean isWeaklySorted()</text>
<!-- 0 -->
<g id="node1" class="node"><title>0</title>
<polygon fill="gray" stroke="black" points="153,-707 99,-707 99,-671 153,-671 153,-707"/>
<text text-anchor="middle" x="126" y="-685.3" font-family="Times,serif" font-size="14.00">0</text>
</g>
<!-- 1 -->
<g id="node2" class="node"><title>1</title>
<polygon fill="none" stroke="black" points="153,-635 99,-635 99,-599 153,-599 153,-635"/>
<text text-anchor="middle" x="126" y="-613.3" font-family="Times,serif" font-size="14.00">1</text>
</g>
<!-- 0&#45;&gt;1 -->
<g id="edge1" class="edge"><title>0&#45;&gt;1</title>
<path fill="none" stroke="black" d="M126,-670.697C126,-662.983 126,-653.712 126,-645.112"/>
<polygon fill="black" stroke="black" points="129.5,-645.104 126,-635.104 122.5,-645.104 129.5,-645.104"/>
</g>
<!-- 2 -->
<g id="node3" class="node"><title>2</title>
<polygon fill="none" stroke="black" points="81,-563 27,-563 27,-527 81,-527 81,-563"/>
<text text-anchor="middle" x="54" y="-541.3" font-family="Times,serif" font-size="14.00">2</text>
</g>
<!-- 1&#45;&gt;2 -->
<g id="edge2" class="edge"><title>1&#45;&gt;2</title>
<path fill="none" stroke="black" d="M108.202,-598.697C99.396,-590.135 88.6179,-579.656 78.9989,-570.304"/>
<polygon fill="black" stroke="black" points="81.2028,-567.566 71.593,-563.104 76.3232,-572.585 81.2028,-567.566"/>
</g>
<!-- 3 -->
<g id="node4" class="node"><title>3</title>
<polygon fill="none" stroke="black" points="153,-563 99,-563 99,-527 153,-527 153,-563"/>
<text text-anchor="middle" x="126" y="-541.3" font-family="Times,serif" font-size="14.00">3</text>
</g>
<!-- 1&#45;&gt;3 -->
<g id="edge3" class="edge"><title>1&#45;&gt;3</title>
<path fill="none" stroke="black" d="M126,-598.697C126,-590.983 126,-581.712 126,-573.112"/>
<polygon fill="black" stroke="black" points="129.5,-573.104 126,-563.104 122.5,-573.104 129.5,-573.104"/>
</g>
<!-- 14 -->
<g id="node5" class="node"><title>14</title>
<polygon fill="lightgray" stroke="black" points="54,-491 0,-491 0,-455 54,-455 54,-491"/>
<text text-anchor="middle" x="27" y="-469.3" font-family="Times,serif" font-size="14.00">14</text>
</g>
<!-- 2&#45;&gt;14 -->
<g id="edge4" class="edge"><title>2&#45;&gt;14</title>
<path fill="none" stroke="black" d="M47.3258,-526.697C44.2851,-518.813 40.6173,-509.304 37.2393,-500.546"/>
<polygon fill="black" stroke="black" points="40.4617,-499.175 33.5974,-491.104 33.9307,-501.694 40.4617,-499.175"/>
</g>
<!-- 4 -->
<g id="node6" class="node"><title>4</title>
<polygon fill="none" stroke="black" points="126,-491 72,-491 72,-455 126,-455 126,-491"/>
<text text-anchor="middle" x="99" y="-469.3" font-family="Times,serif" font-size="14.00">4</text>
</g>
<!-- 3&#45;&gt;4 -->
<g id="edge5" class="edge"><title>3&#45;&gt;4</title>
<path fill="none" stroke="black" d="M119.326,-526.697C116.285,-518.813 112.617,-509.304 109.239,-500.546"/>
<polygon fill="black" stroke="black" points="112.462,-499.175 105.597,-491.104 105.931,-501.694 112.462,-499.175"/>
</g>
<!-- 8 -->
<g id="node7" class="node"><title>8</title>
<polygon fill="none" stroke="black" points="154,-275 100,-275 100,-239 154,-239 154,-275"/>
<text text-anchor="middle" x="127" y="-253.3" font-family="Times,serif" font-size="14.00">8</text>
</g>
<!-- 3&#45;&gt;8 -->
<g id="edge6" class="edge"><title>3&#45;&gt;8</title>
<path fill="none" stroke="black" d="M129.654,-526.908C131.676,-516.569 133.981,-503.09 135,-491 141.72,-411.283 140.987,-390.776 135,-311 134.363,-302.518 133.162,-293.336 131.879,-285.036"/>
<polygon fill="black" stroke="black" points="135.324,-284.412 130.248,-275.112 128.416,-285.547 135.324,-284.412"/>
</g>
<!-- 5 -->
<g id="node8" class="node"><title>5</title>
<polygon fill="none" stroke="black" points="126,-419 72,-419 72,-383 126,-383 126,-419"/>
<text text-anchor="middle" x="99" y="-397.3" font-family="Times,serif" font-size="14.00">5</text>
</g>
<!-- 4&#45;&gt;5 -->
<g id="edge7" class="edge"><title>4&#45;&gt;5</title>
<path fill="none" stroke="black" d="M99,-454.697C99,-446.983 99,-437.712 99,-429.112"/>
<polygon fill="black" stroke="black" points="102.5,-429.104 99,-419.104 95.5001,-429.104 102.5,-429.104"/>
</g>
<!-- 9 -->
<g id="node12" class="node"><title>9</title>
<polygon fill="none" stroke="black" points="104,-203 50,-203 50,-167 104,-167 104,-203"/>
<text text-anchor="middle" x="77" y="-181.3" font-family="Times,serif" font-size="14.00">9</text>
</g>
<!-- 8&#45;&gt;9 -->
<g id="edge12" class="edge"><title>8&#45;&gt;9</title>
<path fill="none" stroke="black" d="M114.64,-238.697C108.767,-230.474 101.631,-220.483 95.1576,-211.421"/>
<polygon fill="black" stroke="black" points="97.8779,-209.207 89.2174,-203.104 92.1817,-213.276 97.8779,-209.207"/>
</g>
<!-- 10 -->
<g id="node13" class="node"><title>10</title>
<polygon fill="none" stroke="black" points="176,-203 122,-203 122,-167 176,-167 176,-203"/>
<text text-anchor="middle" x="149" y="-181.3" font-family="Times,serif" font-size="14.00">10</text>
</g>
<!-- 8&#45;&gt;10 -->
<g id="edge13" class="edge"><title>8&#45;&gt;10</title>
<path fill="none" stroke="black" d="M132.438,-238.697C134.889,-230.898 137.84,-221.509 140.568,-212.829"/>
<polygon fill="black" stroke="black" points="143.965,-213.694 143.624,-203.104 137.287,-211.595 143.965,-213.694"/>
</g>
<!-- 6 -->
<g id="node9" class="node"><title>6</title>
<polygon fill="none" stroke="black" points="126,-347 72,-347 72,-311 126,-311 126,-347"/>
<text text-anchor="middle" x="99" y="-325.3" font-family="Times,serif" font-size="14.00">6</text>
</g>
<!-- 5&#45;&gt;6 -->
<g id="edge8" class="edge"><title>5&#45;&gt;6</title>
<path fill="none" stroke="black" d="M99,-382.697C99,-374.983 99,-365.712 99,-357.112"/>
<polygon fill="black" stroke="black" points="102.5,-357.104 99,-347.104 95.5001,-357.104 102.5,-357.104"/>
</g>
<!-- 7 -->
<g id="node10" class="node"><title>7</title>
<polygon fill="none" stroke="black" points="54,-275 0,-275 0,-239 54,-239 54,-275"/>
<text text-anchor="middle" x="27" y="-253.3" font-family="Times,serif" font-size="14.00">7</text>
</g>
<!-- 5&#45;&gt;7 -->
<g id="edge9" class="edge"><title>5&#45;&gt;7</title>
<path fill="none" stroke="black" d="M86.0304,-382.919C78.7072,-372.809 69.7072,-359.559 63,-347 52.2513,-326.873 42.704,-302.822 36.1468,-284.799"/>
<polygon fill="black" stroke="black" points="39.3858,-283.461 32.734,-275.215 32.7913,-285.81 39.3858,-283.461"/>
</g>
<!-- 6&#45;&gt;8 -->
<g id="edge10" class="edge"><title>6&#45;&gt;8</title>
<path fill="none" stroke="black" d="M105.921,-310.697C109.075,-302.813 112.878,-293.304 116.381,-284.546"/>
<polygon fill="black" stroke="black" points="119.694,-285.689 120.158,-275.104 113.195,-283.089 119.694,-285.689"/>
</g>
<!-- 13 -->
<g id="node11" class="node"><title>13</title>
<polygon fill="none" stroke="black" points="150,-59 96,-59 96,-23 150,-23 150,-59"/>
<text text-anchor="middle" x="123" y="-37.3" font-family="Times,serif" font-size="14.00">13</text>
</g>
<!-- 7&#45;&gt;13 -->
<g id="edge11" class="edge"><title>7&#45;&gt;13</title>
<path fill="none" stroke="black" d="M27.7694,-238.547C29.8979,-207.301 37.9053,-140.8 68,-95 74.9975,-84.3507 84.4913,-74.2285 93.6213,-65.7382"/>
<polygon fill="black" stroke="black" points="96.0198,-68.2886 101.142,-59.0144 91.3543,-63.0701 96.0198,-68.2886"/>
</g>
<!-- 13&#45;&gt;1 -->
<g id="edge18" class="edge"><title>13&#45;&gt;1</title>
<path fill="none" stroke="black" d="M150.19,-49.3345C173.121,-56.9518 205,-71.1678 223,-95 247.377,-127.275 242,-143.553 242,-184 242,-474 242,-474 242,-474 242,-525.502 195.668,-568.623 161.567,-593.386"/>
<polygon fill="black" stroke="black" points="159.358,-590.661 153.197,-599.28 163.388,-596.384 159.358,-590.661"/>
</g>
<!-- 9&#45;&gt;13 -->
<g id="edge14" class="edge"><title>9&#45;&gt;13</title>
<path fill="none" stroke="black" d="M74.1511,-166.978C71.8012,-148.591 70.1262,-118.743 79,-95 82.8708,-84.6432 89.6845,-74.8545 96.8106,-66.5743"/>
<polygon fill="black" stroke="black" points="99.4636,-68.86 103.653,-59.1285 94.3093,-64.1236 99.4636,-68.86"/>
</g>
<!-- 11 -->
<g id="node14" class="node"><title>11</title>
<polygon fill="none" stroke="black" points="214,-131 160,-131 160,-95 214,-95 214,-131"/>
<text text-anchor="middle" x="187" y="-109.3" font-family="Times,serif" font-size="14.00">11</text>
</g>
<!-- 10&#45;&gt;11 -->
<g id="edge15" class="edge"><title>10&#45;&gt;11</title>
<path fill="none" stroke="black" d="M158.393,-166.697C162.765,-158.644 168.057,-148.894 172.895,-139.982"/>
<polygon fill="black" stroke="black" points="176.02,-141.563 177.715,-131.104 169.868,-138.223 176.02,-141.563"/>
</g>
<!-- 12 -->
<g id="node15" class="node"><title>12</title>
<polygon fill="lightgray" stroke="black" points="142,-131 88,-131 88,-95 142,-95 142,-131"/>
<text text-anchor="middle" x="115" y="-109.3" font-family="Times,serif" font-size="14.00">12</text>
</g>
<!-- 10&#45;&gt;12 -->
<g id="edge16" class="edge"><title>10&#45;&gt;12</title>
<path fill="none" stroke="black" d="M140.596,-166.697C136.725,-158.728 132.048,-149.1 127.757,-140.264"/>
<polygon fill="black" stroke="black" points="130.825,-138.57 123.308,-131.104 124.529,-141.629 130.825,-138.57"/>
</g>
<!-- 11&#45;&gt;13 -->
<g id="edge17" class="edge"><title>11&#45;&gt;13</title>
<path fill="none" stroke="black" d="M171.18,-94.6966C163.43,-86.2198 153.961,-75.8636 145.476,-66.5826"/>
<polygon fill="black" stroke="black" points="147.969,-64.1229 138.638,-59.1043 142.803,-68.8464 147.969,-64.1229"/>
</g>
</g>
</svg>
