<?xml version="1.0" encoding="UTF-8" standalone="no"?>
<!DOCTYPE svg PUBLIC "-//W3C//DTD SVG 1.1//EN"
 "http://www.w3.org/Graphics/SVG/1.1/DTD/svg11.dtd">
<!-- Generated by graphviz version 2.38.0 (20140413.2041)
 -->
<!-- Title: double calVar(int[]) Pages: 1 -->
<svg width="139pt" height="283pt"
 viewBox="0.00 0.00 139.00 283.00" xmlns="http://www.w3.org/2000/svg" xmlns:xlink="http://www.w3.org/1999/xlink">
<g id="graph0" class="graph" transform="scale(1 1) rotate(0) translate(4 279)">
<title>double calVar(int[])</title>
<polygon fill="white" stroke="none" points="-4,4 -4,-279 135,-279 135,4 -4,4"/>
<text text-anchor="middle" x="65.5" y="-7.8" font-family="Times,serif" font-size="14.00">double calVar(int[])</text>
<!-- 0 -->
<g id="node1" class="node"><title>0</title>
<polygon fill="gray" stroke="black" points="128.5,-275 74.5,-275 74.5,-239 128.5,-239 128.5,-275"/>
<text text-anchor="middle" x="101.5" y="-253.3" font-family="Times,serif" font-size="14.00">0</text>
</g>
<!-- 1 -->
<g id="node2" class="node"><title>1</title>
<polygon fill="none" stroke="black" points="128.5,-203 74.5,-203 74.5,-167 128.5,-167 128.5,-203"/>
<text text-anchor="middle" x="101.5" y="-181.3" font-family="Times,serif" font-size="14.00">1</text>
</g>
<!-- 0&#45;&gt;1 -->
<g id="edge1" class="edge"><title>0&#45;&gt;1</title>
<path fill="none" stroke="black" d="M101.5,-238.697C101.5,-230.983 101.5,-221.712 101.5,-213.112"/>
<polygon fill="black" stroke="black" points="105,-213.104 101.5,-203.104 98.0001,-213.104 105,-213.104"/>
</g>
<!-- 2 -->
<g id="node3" class="node"><title>2</title>
<polygon fill="none" stroke="black" points="56.5,-131 2.5,-131 2.5,-95 56.5,-95 56.5,-131"/>
<text text-anchor="middle" x="29.5" y="-109.3" font-family="Times,serif" font-size="14.00">2</text>
</g>
<!-- 1&#45;&gt;2 -->
<g id="edge2" class="edge"><title>1&#45;&gt;2</title>
<path fill="none" stroke="black" d="M83.7022,-166.697C74.896,-158.135 64.1179,-147.656 54.4989,-138.304"/>
<polygon fill="black" stroke="black" points="56.7028,-135.566 47.093,-131.104 51.8232,-140.585 56.7028,-135.566"/>
</g>
<!-- 3 -->
<g id="node4" class="node"><title>3</title>
<polygon fill="none" stroke="black" points="128.5,-131 74.5,-131 74.5,-95 128.5,-95 128.5,-131"/>
<text text-anchor="middle" x="101.5" y="-109.3" font-family="Times,serif" font-size="14.00">3</text>
</g>
<!-- 1&#45;&gt;3 -->
<g id="edge3" class="edge"><title>1&#45;&gt;3</title>
<path fill="none" stroke="black" d="M95.5843,-166.697C94.7886,-158.983 94.5621,-149.712 94.9047,-141.112"/>
<polygon fill="black" stroke="black" points="98.3984,-141.324 95.605,-131.104 91.4154,-140.836 98.3984,-141.324"/>
</g>
<!-- 4 -->
<g id="node5" class="node"><title>4</title>
<polygon fill="lightgray" stroke="black" points="56.5,-59 2.5,-59 2.5,-23 56.5,-23 56.5,-59"/>
<text text-anchor="middle" x="29.5" y="-37.3" font-family="Times,serif" font-size="14.00">4</text>
</g>
<!-- 2&#45;&gt;4 -->
<g id="edge4" class="edge"><title>2&#45;&gt;4</title>
<path fill="none" stroke="black" d="M29.5,-94.6966C29.5,-86.9827 29.5,-77.7125 29.5,-69.1124"/>
<polygon fill="black" stroke="black" points="33.0001,-69.1043 29.5,-59.1043 26.0001,-69.1044 33.0001,-69.1043"/>
</g>
<!-- 3&#45;&gt;1 -->
<g id="edge5" class="edge"><title>3&#45;&gt;1</title>
<path fill="none" stroke="black" d="M107.395,-131.104C108.201,-138.791 108.437,-148.054 108.104,-156.665"/>
<polygon fill="black" stroke="black" points="104.609,-156.48 107.416,-166.697 111.592,-156.96 104.609,-156.48"/>
</g>
</g>
</svg>
