<?xml version="1.0" encoding="UTF-8" standalone="no"?>
<!DOCTYPE svg PUBLIC "-//W3C//DTD SVG 1.1//EN"
 "http://www.w3.org/Graphics/SVG/1.1/DTD/svg11.dtd">
<!-- Generated by graphviz version 2.38.0 (20140413.2041)
 -->
<!-- Title: void print(int,int[]) Pages: 1 -->
<svg width="235pt" height="499pt"
 viewBox="0.00 0.00 235.00 499.00" xmlns="http://www.w3.org/2000/svg" xmlns:xlink="http://www.w3.org/1999/xlink">
<g id="graph0" class="graph" transform="scale(1 1) rotate(0) translate(4 495)">
<title>void print(int,int[])</title>
<polygon fill="white" stroke="none" points="-4,4 -4,-495 231,-495 231,4 -4,4"/>
<text text-anchor="middle" x="113.5" y="-7.8" font-family="Times,serif" font-size="14.00">void print(int,int[])</text>
<!-- 0 -->
<g id="node1" class="node"><title>0</title>
<polygon fill="gray" stroke="black" points="192,-491 138,-491 138,-455 192,-455 192,-491"/>
<text text-anchor="middle" x="165" y="-469.3" font-family="Times,serif" font-size="14.00">0</text>
</g>
<!-- 1 -->
<g id="node2" class="node"><title>1</title>
<polygon fill="none" stroke="black" points="163,-419 109,-419 109,-383 163,-383 163,-419"/>
<text text-anchor="middle" x="136" y="-397.3" font-family="Times,serif" font-size="14.00">1</text>
</g>
<!-- 0&#45;&gt;1 -->
<g id="edge1" class="edge"><title>0&#45;&gt;1</title>
<path fill="none" stroke="black" d="M157.831,-454.697C154.565,-446.813 150.626,-437.304 146.998,-428.546"/>
<polygon fill="black" stroke="black" points="150.147,-427.003 143.086,-419.104 143.68,-429.683 150.147,-427.003"/>
</g>
<!-- 2 -->
<g id="node3" class="node"><title>2</title>
<polygon fill="none" stroke="black" points="227,-347 173,-347 173,-311 227,-311 227,-347"/>
<text text-anchor="middle" x="200" y="-325.3" font-family="Times,serif" font-size="14.00">2</text>
</g>
<!-- 0&#45;&gt;2 -->
<g id="edge2" class="edge"><title>0&#45;&gt;2</title>
<path fill="none" stroke="black" d="M169.222,-454.871C175.213,-430.564 186.242,-385.819 193.342,-357.013"/>
<polygon fill="black" stroke="black" points="196.768,-357.736 195.763,-347.189 189.972,-356.061 196.768,-357.736"/>
</g>
<!-- 3 -->
<g id="node4" class="node"><title>3</title>
<polygon fill="none" stroke="black" points="155,-347 101,-347 101,-311 155,-311 155,-347"/>
<text text-anchor="middle" x="128" y="-325.3" font-family="Times,serif" font-size="14.00">3</text>
</g>
<!-- 1&#45;&gt;3 -->
<g id="edge3" class="edge"><title>1&#45;&gt;3</title>
<path fill="none" stroke="black" d="M134.022,-382.697C133.141,-374.983 132.081,-365.712 131.099,-357.112"/>
<polygon fill="black" stroke="black" points="134.568,-356.642 129.955,-347.104 127.613,-357.437 134.568,-356.642"/>
</g>
<!-- 9 -->
<g id="node5" class="node"><title>9</title>
<polygon fill="lightgray" stroke="black" points="153,-59 99,-59 99,-23 153,-23 153,-59"/>
<text text-anchor="middle" x="126" y="-37.3" font-family="Times,serif" font-size="14.00">9</text>
</g>
<!-- 2&#45;&gt;9 -->
<g id="edge4" class="edge"><title>2&#45;&gt;9</title>
<path fill="none" stroke="black" d="M199.528,-310.791C198.368,-281.022 194.405,-218.187 181,-167 172.218,-133.464 165.065,-126.685 151,-95 147.101,-86.2171 142.676,-76.7004 138.644,-68.1869"/>
<polygon fill="black" stroke="black" points="141.771,-66.6132 134.307,-59.0938 135.453,-69.6266 141.771,-66.6132"/>
</g>
<!-- 4 -->
<g id="node6" class="node"><title>4</title>
<polygon fill="none" stroke="black" points="105,-275 51,-275 51,-239 105,-239 105,-275"/>
<text text-anchor="middle" x="78" y="-253.3" font-family="Times,serif" font-size="14.00">4</text>
</g>
<!-- 3&#45;&gt;4 -->
<g id="edge5" class="edge"><title>3&#45;&gt;4</title>
<path fill="none" stroke="black" d="M115.64,-310.697C109.767,-302.474 102.631,-292.483 96.1576,-283.421"/>
<polygon fill="black" stroke="black" points="98.8779,-281.207 90.2174,-275.104 93.1817,-285.276 98.8779,-281.207"/>
</g>
<!-- 5 -->
<g id="node7" class="node"><title>5</title>
<polygon fill="none" stroke="black" points="172,-203 118,-203 118,-167 172,-167 172,-203"/>
<text text-anchor="middle" x="145" y="-181.3" font-family="Times,serif" font-size="14.00">5</text>
</g>
<!-- 3&#45;&gt;5 -->
<g id="edge6" class="edge"><title>3&#45;&gt;5</title>
<path fill="none" stroke="black" d="M130.051,-310.871C132.948,-286.67 138.271,-242.211 141.721,-213.393"/>
<polygon fill="black" stroke="black" points="145.229,-213.534 142.942,-203.189 138.278,-212.702 145.229,-213.534"/>
</g>
<!-- 6 -->
<g id="node8" class="node"><title>6</title>
<polygon fill="none" stroke="black" points="100,-203 46,-203 46,-167 100,-167 100,-203"/>
<text text-anchor="middle" x="73" y="-181.3" font-family="Times,serif" font-size="14.00">6</text>
</g>
<!-- 4&#45;&gt;6 -->
<g id="edge7" class="edge"><title>4&#45;&gt;6</title>
<path fill="none" stroke="black" d="M76.764,-238.697C76.2131,-230.983 75.5509,-221.712 74.9366,-213.112"/>
<polygon fill="black" stroke="black" points="78.4254,-212.83 74.2217,-203.104 71.4432,-213.328 78.4254,-212.83"/>
</g>
<!-- 5&#45;&gt;9 -->
<g id="edge8" class="edge"><title>5&#45;&gt;9</title>
<path fill="none" stroke="black" d="M143.368,-166.902C141.587,-148.957 138.516,-119.942 135,-95 133.809,-86.5525 132.321,-77.3805 130.9,-69.0784"/>
<polygon fill="black" stroke="black" points="134.334,-68.3952 129.164,-59.1477 127.439,-69.6011 134.334,-68.3952"/>
</g>
<!-- 7 -->
<g id="node9" class="node"><title>7</title>
<polygon fill="none" stroke="black" points="54,-131 0,-131 0,-95 54,-95 54,-131"/>
<text text-anchor="middle" x="27" y="-109.3" font-family="Times,serif" font-size="14.00">7</text>
</g>
<!-- 6&#45;&gt;7 -->
<g id="edge9" class="edge"><title>6&#45;&gt;7</title>
<path fill="none" stroke="black" d="M61.6292,-166.697C56.2815,-158.559 49.7957,-148.689 43.8894,-139.701"/>
<polygon fill="black" stroke="black" points="46.6568,-137.539 38.24,-131.104 40.8068,-141.384 46.6568,-137.539"/>
</g>
<!-- 8 -->
<g id="node10" class="node"><title>8</title>
<polygon fill="none" stroke="black" points="126,-131 72,-131 72,-95 126,-95 126,-131"/>
<text text-anchor="middle" x="99" y="-109.3" font-family="Times,serif" font-size="14.00">8</text>
</g>
<!-- 6&#45;&gt;8 -->
<g id="edge10" class="edge"><title>6&#45;&gt;8</title>
<path fill="none" stroke="black" d="M79.427,-166.697C82.3551,-158.813 85.887,-149.304 89.1399,-140.546"/>
<polygon fill="black" stroke="black" points="92.446,-141.697 92.647,-131.104 85.884,-139.26 92.446,-141.697"/>
</g>
<!-- 7&#45;&gt;9 -->
<g id="edge11" class="edge"><title>7&#45;&gt;9</title>
<path fill="none" stroke="black" d="M51.2181,-94.8761C63.9227,-85.8931 79.6644,-74.7625 93.4232,-65.0341"/>
<polygon fill="black" stroke="black" points="95.5443,-67.8209 101.689,-59.1898 91.503,-62.1053 95.5443,-67.8209"/>
</g>
<!-- 8&#45;&gt;9 -->
<g id="edge12" class="edge"><title>8&#45;&gt;9</title>
<path fill="none" stroke="black" d="M105.674,-94.6966C108.715,-86.8132 112.383,-77.3042 115.761,-68.5464"/>
<polygon fill="black" stroke="black" points="119.069,-69.6939 119.403,-59.1043 112.538,-67.1748 119.069,-69.6939"/>
</g>
</g>
</svg>
