<?xml version="1.0" encoding="UTF-8" standalone="no"?>
<!DOCTYPE svg PUBLIC "-//W3C//DTD SVG 1.1//EN"
 "http://www.w3.org/Graphics/SVG/1.1/DTD/svg11.dtd">
<!-- Generated by graphviz version 2.38.0 (20140413.2041)
 -->
<!-- Title: double calMean(int[]) Pages: 1 -->
<svg width="151pt" height="283pt"
 viewBox="0.00 0.00 151.00 283.00" xmlns="http://www.w3.org/2000/svg" xmlns:xlink="http://www.w3.org/1999/xlink">
<g id="graph0" class="graph" transform="scale(1 1) rotate(0) translate(4 279)">
<title>double calMean(int[])</title>
<polygon fill="white" stroke="none" points="-4,4 -4,-279 147,-279 147,4 -4,4"/>
<text text-anchor="middle" x="71.5" y="-7.8" font-family="Times,serif" font-size="14.00">double calMean(int[])</text>
<!-- 0 -->
<g id="node1" class="node"><title>0</title>
<polygon fill="gray" stroke="black" points="134.5,-275 80.5,-275 80.5,-239 134.5,-239 134.5,-275"/>
<text text-anchor="middle" x="107.5" y="-253.3" font-family="Times,serif" font-size="14.00">0</text>
</g>
<!-- 1 -->
<g id="node2" class="node"><title>1</title>
<polygon fill="none" stroke="black" points="134.5,-203 80.5,-203 80.5,-167 134.5,-167 134.5,-203"/>
<text text-anchor="middle" x="107.5" y="-181.3" font-family="Times,serif" font-size="14.00">1</text>
</g>
<!-- 0&#45;&gt;1 -->
<g id="edge1" class="edge"><title>0&#45;&gt;1</title>
<path fill="none" stroke="black" d="M107.5,-238.697C107.5,-230.983 107.5,-221.712 107.5,-213.112"/>
<polygon fill="black" stroke="black" points="111,-213.104 107.5,-203.104 104,-213.104 111,-213.104"/>
</g>
<!-- 2 -->
<g id="node3" class="node"><title>2</title>
<polygon fill="none" stroke="black" points="62.5,-131 8.5,-131 8.5,-95 62.5,-95 62.5,-131"/>
<text text-anchor="middle" x="35.5" y="-109.3" font-family="Times,serif" font-size="14.00">2</text>
</g>
<!-- 1&#45;&gt;2 -->
<g id="edge2" class="edge"><title>1&#45;&gt;2</title>
<path fill="none" stroke="black" d="M89.7022,-166.697C80.896,-158.135 70.1179,-147.656 60.4989,-138.304"/>
<polygon fill="black" stroke="black" points="62.7028,-135.566 53.093,-131.104 57.8232,-140.585 62.7028,-135.566"/>
</g>
<!-- 3 -->
<g id="node4" class="node"><title>3</title>
<polygon fill="none" stroke="black" points="134.5,-131 80.5,-131 80.5,-95 134.5,-95 134.5,-131"/>
<text text-anchor="middle" x="107.5" y="-109.3" font-family="Times,serif" font-size="14.00">3</text>
</g>
<!-- 1&#45;&gt;3 -->
<g id="edge3" class="edge"><title>1&#45;&gt;3</title>
<path fill="none" stroke="black" d="M101.584,-166.697C100.789,-158.983 100.562,-149.712 100.905,-141.112"/>
<polygon fill="black" stroke="black" points="104.398,-141.324 101.605,-131.104 97.4154,-140.836 104.398,-141.324"/>
</g>
<!-- 4 -->
<g id="node5" class="node"><title>4</title>
<polygon fill="lightgray" stroke="black" points="62.5,-59 8.5,-59 8.5,-23 62.5,-23 62.5,-59"/>
<text text-anchor="middle" x="35.5" y="-37.3" font-family="Times,serif" font-size="14.00">4</text>
</g>
<!-- 2&#45;&gt;4 -->
<g id="edge4" class="edge"><title>2&#45;&gt;4</title>
<path fill="none" stroke="black" d="M35.5,-94.6966C35.5,-86.9827 35.5,-77.7125 35.5,-69.1124"/>
<polygon fill="black" stroke="black" points="39.0001,-69.1043 35.5,-59.1043 32.0001,-69.1044 39.0001,-69.1043"/>
</g>
<!-- 3&#45;&gt;1 -->
<g id="edge5" class="edge"><title>3&#45;&gt;1</title>
<path fill="none" stroke="black" d="M113.395,-131.104C114.201,-138.791 114.437,-148.054 114.104,-156.665"/>
<polygon fill="black" stroke="black" points="110.609,-156.48 113.416,-166.697 117.592,-156.96 110.609,-156.48"/>
</g>
</g>
</svg>
