<?xml version="1.0" encoding="UTF-8" standalone="no"?>
<!DOCTYPE svg PUBLIC "-//W3C//DTD SVG 1.1//EN"
 "http://www.w3.org/Graphics/SVG/1.1/DTD/svg11.dtd">
<!-- Generated by graphviz version 2.38.0 (20140413.2041)
 -->
<!-- Title: void insert(int) Pages: 1 -->
<svg width="189pt" height="427pt"
 viewBox="0.00 0.00 189.00 427.00" xmlns="http://www.w3.org/2000/svg" xmlns:xlink="http://www.w3.org/1999/xlink">
<g id="graph0" class="graph" transform="scale(1 1) rotate(0) translate(4 423)">
<title>void insert(int)</title>
<polygon fill="white" stroke="none" points="-4,4 -4,-423 185,-423 185,4 -4,4"/>
<text text-anchor="middle" x="90.5" y="-7.8" font-family="Times,serif" font-size="14.00">void insert(int)</text>
<!-- 0 -->
<g id="node1" class="node"><title>0</title>
<polygon fill="gray" stroke="black" points="90,-419 36,-419 36,-383 90,-383 90,-419"/>
<text text-anchor="middle" x="63" y="-397.3" font-family="Times,serif" font-size="14.00">0</text>
</g>
<!-- 1 -->
<g id="node2" class="node"><title>1</title>
<polygon fill="none" stroke="black" points="54,-347 0,-347 0,-311 54,-311 54,-347"/>
<text text-anchor="middle" x="27" y="-325.3" font-family="Times,serif" font-size="14.00">1</text>
</g>
<!-- 0&#45;&gt;1 -->
<g id="edge1" class="edge"><title>0&#45;&gt;1</title>
<path fill="none" stroke="black" d="M54.1011,-382.697C50.0032,-374.728 45.0512,-365.1 40.5073,-356.264"/>
<polygon fill="black" stroke="black" points="43.4826,-354.396 35.7965,-347.104 37.2575,-357.598 43.4826,-354.396"/>
</g>
<!-- 3 -->
<g id="node3" class="node"><title>3</title>
<polygon fill="none" stroke="black" points="126,-347 72,-347 72,-311 126,-311 126,-347"/>
<text text-anchor="middle" x="99" y="-325.3" font-family="Times,serif" font-size="14.00">3</text>
</g>
<!-- 0&#45;&gt;3 -->
<g id="edge2" class="edge"><title>0&#45;&gt;3</title>
<path fill="none" stroke="black" d="M71.8989,-382.697C75.9968,-374.728 80.9488,-365.1 85.4927,-356.264"/>
<polygon fill="black" stroke="black" points="88.7425,-357.598 90.2035,-347.104 82.5174,-354.396 88.7425,-357.598"/>
</g>
<!-- 2 -->
<g id="node4" class="node"><title>2</title>
<polygon fill="lightgray" stroke="black" points="54,-275 0,-275 0,-239 54,-239 54,-275"/>
<text text-anchor="middle" x="27" y="-253.3" font-family="Times,serif" font-size="14.00">2</text>
</g>
<!-- 1&#45;&gt;2 -->
<g id="edge3" class="edge"><title>1&#45;&gt;2</title>
<path fill="none" stroke="black" d="M27,-310.697C27,-302.983 27,-293.712 27,-285.112"/>
<polygon fill="black" stroke="black" points="30.5001,-285.104 27,-275.104 23.5001,-285.104 30.5001,-285.104"/>
</g>
<!-- 4 -->
<g id="node5" class="node"><title>4</title>
<polygon fill="none" stroke="black" points="126,-275 72,-275 72,-239 126,-239 126,-275"/>
<text text-anchor="middle" x="99" y="-253.3" font-family="Times,serif" font-size="14.00">4</text>
</g>
<!-- 3&#45;&gt;4 -->
<g id="edge4" class="edge"><title>3&#45;&gt;4</title>
<path fill="none" stroke="black" d="M99,-310.697C99,-302.983 99,-293.712 99,-285.112"/>
<polygon fill="black" stroke="black" points="102.5,-285.104 99,-275.104 95.5001,-285.104 102.5,-285.104"/>
</g>
<!-- 5 -->
<g id="node6" class="node"><title>5</title>
<polygon fill="none" stroke="black" points="54,-203 0,-203 0,-167 54,-167 54,-203"/>
<text text-anchor="middle" x="27" y="-181.3" font-family="Times,serif" font-size="14.00">5</text>
</g>
<!-- 4&#45;&gt;5 -->
<g id="edge5" class="edge"><title>4&#45;&gt;5</title>
<path fill="none" stroke="black" d="M81.2022,-238.697C72.396,-230.135 61.6179,-219.656 51.9989,-210.304"/>
<polygon fill="black" stroke="black" points="54.2028,-207.566 44.593,-203.104 49.3232,-212.585 54.2028,-207.566"/>
</g>
<!-- 6 -->
<g id="node7" class="node"><title>6</title>
<polygon fill="none" stroke="black" points="126,-203 72,-203 72,-167 126,-167 126,-203"/>
<text text-anchor="middle" x="99" y="-181.3" font-family="Times,serif" font-size="14.00">6</text>
</g>
<!-- 4&#45;&gt;6 -->
<g id="edge6" class="edge"><title>4&#45;&gt;6</title>
<path fill="none" stroke="black" d="M99,-238.697C99,-230.983 99,-221.712 99,-213.112"/>
<polygon fill="black" stroke="black" points="102.5,-213.104 99,-203.104 95.5001,-213.104 102.5,-213.104"/>
</g>
<!-- 9 -->
<g id="node8" class="node"><title>9</title>
<polygon fill="lightgray" stroke="black" points="81,-59 27,-59 27,-23 81,-23 81,-59"/>
<text text-anchor="middle" x="54" y="-37.3" font-family="Times,serif" font-size="14.00">9</text>
</g>
<!-- 5&#45;&gt;9 -->
<g id="edge7" class="edge"><title>5&#45;&gt;9</title>
<path fill="none" stroke="black" d="M30.2568,-166.871C34.8585,-142.67 43.312,-98.2108 48.7914,-69.3932"/>
<polygon fill="black" stroke="black" points="52.302,-69.6671 50.7316,-59.1893 45.4252,-68.3594 52.302,-69.6671"/>
</g>
<!-- 7 -->
<g id="node9" class="node"><title>7</title>
<polygon fill="none" stroke="black" points="109,-131 55,-131 55,-95 109,-95 109,-131"/>
<text text-anchor="middle" x="82" y="-109.3" font-family="Times,serif" font-size="14.00">7</text>
</g>
<!-- 6&#45;&gt;7 -->
<g id="edge8" class="edge"><title>6&#45;&gt;7</title>
<path fill="none" stroke="black" d="M94.7978,-166.697C92.9038,-158.898 90.6235,-149.509 88.5157,-140.829"/>
<polygon fill="black" stroke="black" points="91.9151,-139.996 86.1539,-131.104 85.1128,-141.648 91.9151,-139.996"/>
</g>
<!-- 8 -->
<g id="node10" class="node"><title>8</title>
<polygon fill="none" stroke="black" points="181,-131 127,-131 127,-95 181,-95 181,-131"/>
<text text-anchor="middle" x="154" y="-109.3" font-family="Times,serif" font-size="14.00">8</text>
</g>
<!-- 6&#45;&gt;8 -->
<g id="edge9" class="edge"><title>6&#45;&gt;8</title>
<path fill="none" stroke="black" d="M112.596,-166.697C119.123,-158.389 127.068,-148.277 134.247,-139.141"/>
<polygon fill="black" stroke="black" points="137.135,-141.13 140.561,-131.104 131.631,-136.805 137.135,-141.13"/>
</g>
<!-- 7&#45;&gt;9 -->
<g id="edge10" class="edge"><title>7&#45;&gt;9</title>
<path fill="none" stroke="black" d="M75.0786,-94.6966C71.9253,-86.8132 68.1217,-77.3042 64.6186,-68.5464"/>
<polygon fill="black" stroke="black" points="67.8054,-67.0892 60.8417,-59.1043 61.306,-69.689 67.8054,-67.0892"/>
</g>
<!-- 8&#45;&gt;4 -->
<g id="edge11" class="edge"><title>8&#45;&gt;4</title>
<path fill="none" stroke="black" d="M152.303,-131.326C150.05,-149.71 145.112,-179.315 135,-203 130.916,-212.567 125.012,-222.216 119.162,-230.612"/>
<polygon fill="black" stroke="black" points="116.22,-228.706 113.165,-238.851 121.88,-232.826 116.22,-228.706"/>
</g>
</g>
</svg>
