<?xml version="1.0" encoding="UTF-8" standalone="no"?>
<!DOCTYPE svg PUBLIC "-//W3C//DTD SVG 1.1//EN"
 "http://www.w3.org/Graphics/SVG/1.1/DTD/svg11.dtd">
<!-- Generated by graphviz version 2.38.0 (20140413.2041)
 -->
<!-- Title: void percolateDown(int) Pages: 1 -->
<svg width="244pt" height="643pt"
 viewBox="0.00 0.00 244.00 643.00" xmlns="http://www.w3.org/2000/svg" xmlns:xlink="http://www.w3.org/1999/xlink">
<g id="graph0" class="graph" transform="scale(1 1) rotate(0) translate(4 639)">
<title>void percolateDown(int)</title>
<polygon fill="white" stroke="none" points="-4,4 -4,-639 240,-639 240,4 -4,4"/>
<text text-anchor="middle" x="118" y="-7.8" font-family="Times,serif" font-size="14.00">void percolateDown(int)</text>
<!-- 0 -->
<g id="node1" class="node"><title>0</title>
<polygon fill="gray" stroke="black" points="134,-635 80,-635 80,-599 134,-599 134,-635"/>
<text text-anchor="middle" x="107" y="-613.3" font-family="Times,serif" font-size="14.00">0</text>
</g>
<!-- 1 -->
<g id="node2" class="node"><title>1</title>
<polygon fill="none" stroke="black" points="134,-563 80,-563 80,-527 134,-527 134,-563"/>
<text text-anchor="middle" x="107" y="-541.3" font-family="Times,serif" font-size="14.00">1</text>
</g>
<!-- 0&#45;&gt;1 -->
<g id="edge1" class="edge"><title>0&#45;&gt;1</title>
<path fill="none" stroke="black" d="M107,-598.697C107,-590.983 107,-581.712 107,-573.112"/>
<polygon fill="black" stroke="black" points="110.5,-573.104 107,-563.104 103.5,-573.104 110.5,-573.104"/>
</g>
<!-- 2 -->
<g id="node3" class="node"><title>2</title>
<polygon fill="none" stroke="black" points="54,-275 0,-275 0,-239 54,-239 54,-275"/>
<text text-anchor="middle" x="27" y="-253.3" font-family="Times,serif" font-size="14.00">2</text>
</g>
<!-- 1&#45;&gt;2 -->
<g id="edge2" class="edge"><title>1&#45;&gt;2</title>
<path fill="none" stroke="black" d="M92.9755,-526.715C75.3485,-503.749 46.0615,-461.149 35,-419 23.001,-373.278 23.3531,-317.803 24.9814,-285.349"/>
<polygon fill="black" stroke="black" points="28.4808,-285.458 25.5666,-275.272 21.4926,-285.052 28.4808,-285.458"/>
</g>
<!-- 3 -->
<g id="node4" class="node"><title>3</title>
<polygon fill="none" stroke="black" points="134,-491 80,-491 80,-455 134,-455 134,-491"/>
<text text-anchor="middle" x="107" y="-469.3" font-family="Times,serif" font-size="14.00">3</text>
</g>
<!-- 1&#45;&gt;3 -->
<g id="edge3" class="edge"><title>1&#45;&gt;3</title>
<path fill="none" stroke="black" d="M107,-526.697C107,-518.983 107,-509.712 107,-501.112"/>
<polygon fill="black" stroke="black" points="110.5,-501.104 107,-491.104 103.5,-501.104 110.5,-501.104"/>
</g>
<!-- 13 -->
<g id="node5" class="node"><title>13</title>
<polygon fill="lightgray" stroke="black" points="87,-59 33,-59 33,-23 87,-23 87,-59"/>
<text text-anchor="middle" x="60" y="-37.3" font-family="Times,serif" font-size="14.00">13</text>
</g>
<!-- 2&#45;&gt;13 -->
<g id="edge4" class="edge"><title>2&#45;&gt;13</title>
<path fill="none" stroke="black" d="M29.6447,-238.849C35.3531,-201.832 48.8693,-114.181 55.7769,-69.3863"/>
<polygon fill="black" stroke="black" points="59.2776,-69.6491 57.3427,-59.2325 52.3594,-68.5822 59.2776,-69.6491"/>
</g>
<!-- 4 -->
<g id="node6" class="node"><title>4</title>
<polygon fill="none" stroke="black" points="98,-419 44,-419 44,-383 98,-383 98,-419"/>
<text text-anchor="middle" x="71" y="-397.3" font-family="Times,serif" font-size="14.00">4</text>
</g>
<!-- 3&#45;&gt;4 -->
<g id="edge5" class="edge"><title>3&#45;&gt;4</title>
<path fill="none" stroke="black" d="M98.1011,-454.697C94.0032,-446.728 89.0512,-437.1 84.5073,-428.264"/>
<polygon fill="black" stroke="black" points="87.4826,-426.396 79.7965,-419.104 81.2575,-429.598 87.4826,-426.396"/>
</g>
<!-- 5 -->
<g id="node7" class="node"><title>5</title>
<polygon fill="none" stroke="black" points="170,-419 116,-419 116,-383 170,-383 170,-419"/>
<text text-anchor="middle" x="143" y="-397.3" font-family="Times,serif" font-size="14.00">5</text>
</g>
<!-- 3&#45;&gt;5 -->
<g id="edge6" class="edge"><title>3&#45;&gt;5</title>
<path fill="none" stroke="black" d="M115.899,-454.697C119.997,-446.728 124.949,-437.1 129.493,-428.264"/>
<polygon fill="black" stroke="black" points="132.742,-429.598 134.203,-419.104 126.517,-426.396 132.742,-429.598"/>
</g>
<!-- 8 -->
<g id="node8" class="node"><title>8</title>
<polygon fill="none" stroke="black" points="136,-275 82,-275 82,-239 136,-239 136,-275"/>
<text text-anchor="middle" x="109" y="-253.3" font-family="Times,serif" font-size="14.00">8</text>
</g>
<!-- 4&#45;&gt;8 -->
<g id="edge7" class="edge"><title>4&#45;&gt;8</title>
<path fill="none" stroke="black" d="M68.5615,-382.797C66.6131,-364.515 65.3254,-334.995 73,-311 76.1186,-301.25 81.6475,-291.66 87.4507,-283.376"/>
<polygon fill="black" stroke="black" points="90.3296,-285.37 93.508,-275.263 84.7206,-281.182 90.3296,-285.37"/>
</g>
<!-- 6 -->
<g id="node9" class="node"><title>6</title>
<polygon fill="none" stroke="black" points="136,-347 82,-347 82,-311 136,-311 136,-347"/>
<text text-anchor="middle" x="109" y="-325.3" font-family="Times,serif" font-size="14.00">6</text>
</g>
<!-- 5&#45;&gt;6 -->
<g id="edge8" class="edge"><title>5&#45;&gt;6</title>
<path fill="none" stroke="black" d="M134.596,-382.697C130.725,-374.728 126.048,-365.1 121.757,-356.264"/>
<polygon fill="black" stroke="black" points="124.825,-354.57 117.308,-347.104 118.529,-357.629 124.825,-354.57"/>
</g>
<!-- 7 -->
<g id="node10" class="node"><title>7</title>
<polygon fill="none" stroke="black" points="208,-347 154,-347 154,-311 208,-311 208,-347"/>
<text text-anchor="middle" x="181" y="-325.3" font-family="Times,serif" font-size="14.00">7</text>
</g>
<!-- 5&#45;&gt;7 -->
<g id="edge9" class="edge"><title>5&#45;&gt;7</title>
<path fill="none" stroke="black" d="M152.393,-382.697C156.765,-374.644 162.057,-364.894 166.895,-355.982"/>
<polygon fill="black" stroke="black" points="170.02,-357.563 171.715,-347.104 163.868,-354.223 170.02,-357.563"/>
</g>
<!-- 9 -->
<g id="node11" class="node"><title>9</title>
<polygon fill="none" stroke="black" points="123,-203 69,-203 69,-167 123,-167 123,-203"/>
<text text-anchor="middle" x="96" y="-181.3" font-family="Times,serif" font-size="14.00">9</text>
</g>
<!-- 8&#45;&gt;9 -->
<g id="edge12" class="edge"><title>8&#45;&gt;9</title>
<path fill="none" stroke="black" d="M105.787,-238.697C104.354,-230.983 102.632,-221.712 101.035,-213.112"/>
<polygon fill="black" stroke="black" points="104.444,-212.297 99.1765,-203.104 97.5614,-213.575 104.444,-212.297"/>
</g>
<!-- 10 -->
<g id="node12" class="node"><title>10</title>
<polygon fill="none" stroke="black" points="195,-203 141,-203 141,-167 195,-167 195,-203"/>
<text text-anchor="middle" x="168" y="-181.3" font-family="Times,serif" font-size="14.00">10</text>
</g>
<!-- 8&#45;&gt;10 -->
<g id="edge13" class="edge"><title>8&#45;&gt;10</title>
<path fill="none" stroke="black" d="M123.584,-238.697C130.658,-230.305 139.283,-220.07 147.045,-210.861"/>
<polygon fill="black" stroke="black" points="149.815,-213.006 153.583,-203.104 144.463,-208.495 149.815,-213.006"/>
</g>
<!-- 6&#45;&gt;8 -->
<g id="edge10" class="edge"><title>6&#45;&gt;8</title>
<path fill="none" stroke="black" d="M109,-310.697C109,-302.983 109,-293.712 109,-285.112"/>
<polygon fill="black" stroke="black" points="112.5,-285.104 109,-275.104 105.5,-285.104 112.5,-285.104"/>
</g>
<!-- 7&#45;&gt;8 -->
<g id="edge11" class="edge"><title>7&#45;&gt;8</title>
<path fill="none" stroke="black" d="M163.202,-310.697C154.396,-302.135 143.618,-291.656 133.999,-282.304"/>
<polygon fill="black" stroke="black" points="136.203,-279.566 126.593,-275.104 131.323,-284.585 136.203,-279.566"/>
</g>
<!-- 11 -->
<g id="node13" class="node"><title>11</title>
<polygon fill="none" stroke="black" points="116,-131 62,-131 62,-95 116,-95 116,-131"/>
<text text-anchor="middle" x="89" y="-109.3" font-family="Times,serif" font-size="14.00">11</text>
</g>
<!-- 9&#45;&gt;11 -->
<g id="edge14" class="edge"><title>9&#45;&gt;11</title>
<path fill="none" stroke="black" d="M94.2697,-166.697C93.4983,-158.983 92.5712,-149.712 91.7112,-141.112"/>
<polygon fill="black" stroke="black" points="95.1882,-140.706 90.7104,-131.104 88.2229,-141.403 95.1882,-140.706"/>
</g>
<!-- 12 -->
<g id="node14" class="node"><title>12</title>
<polygon fill="none" stroke="black" points="195,-131 141,-131 141,-95 195,-95 195,-131"/>
<text text-anchor="middle" x="168" y="-109.3" font-family="Times,serif" font-size="14.00">12</text>
</g>
<!-- 10&#45;&gt;12 -->
<g id="edge15" class="edge"><title>10&#45;&gt;12</title>
<path fill="none" stroke="black" d="M168,-166.697C168,-158.983 168,-149.712 168,-141.112"/>
<polygon fill="black" stroke="black" points="171.5,-141.104 168,-131.104 164.5,-141.104 171.5,-141.104"/>
</g>
<!-- 11&#45;&gt;13 -->
<g id="edge16" class="edge"><title>11&#45;&gt;13</title>
<path fill="none" stroke="black" d="M81.8315,-94.6966C78.5655,-86.8132 74.626,-77.3042 70.9978,-68.5464"/>
<polygon fill="black" stroke="black" points="74.147,-67.0033 67.0861,-59.1043 67.68,-69.6825 74.147,-67.0033"/>
</g>
<!-- 12&#45;&gt;1 -->
<g id="edge17" class="edge"><title>12&#45;&gt;1</title>
<path fill="none" stroke="black" d="M182.421,-131.106C202.382,-156.584 236,-206.799 236,-256 236,-402 236,-402 236,-402 236,-457.657 181.036,-501.157 142.863,-524.657"/>
<polygon fill="black" stroke="black" points="140.837,-521.79 134.043,-529.919 144.424,-527.801 140.837,-521.79"/>
</g>
</g>
</svg>
