<?xml version="1.0" encoding="UTF-8" standalone="no"?>
<!DOCTYPE svg PUBLIC "-//W3C//DTD SVG 1.1//EN"
 "http://www.w3.org/Graphics/SVG/1.1/DTD/svg11.dtd">
<!-- Generated by graphviz version 2.38.0 (20140413.2041)
 -->
<!-- Title: boolean wellFormed() Pages: 1 -->
<svg width="313pt" height="1075pt"
 viewBox="0.00 0.00 313.00 1075.00" xmlns="http://www.w3.org/2000/svg" xmlns:xlink="http://www.w3.org/1999/xlink">
<g id="graph0" class="graph" transform="scale(1 1) rotate(0) translate(4 1071)">
<title>boolean wellFormed()</title>
<polygon fill="white" stroke="none" points="-4,4 -4,-1071 309,-1071 309,4 -4,4"/>
<text text-anchor="middle" x="152.5" y="-7.8" font-family="Times,serif" font-size="14.00">boolean wellFormed()</text>
<!-- 0 -->
<g id="node1" class="node"><title>0</title>
<polygon fill="gray" stroke="black" points="269,-1067 215,-1067 215,-1031 269,-1031 269,-1067"/>
<text text-anchor="middle" x="242" y="-1045.3" font-family="Times,serif" font-size="14.00">0</text>
</g>
<!-- 1 -->
<g id="node2" class="node"><title>1</title>
<polygon fill="none" stroke="black" points="233,-995 179,-995 179,-959 233,-959 233,-995"/>
<text text-anchor="middle" x="206" y="-973.3" font-family="Times,serif" font-size="14.00">1</text>
</g>
<!-- 0&#45;&gt;1 -->
<g id="edge1" class="edge"><title>0&#45;&gt;1</title>
<path fill="none" stroke="black" d="M233.101,-1030.7C229.003,-1022.73 224.051,-1013.1 219.507,-1004.26"/>
<polygon fill="black" stroke="black" points="222.483,-1002.4 214.797,-995.104 216.258,-1005.6 222.483,-1002.4"/>
</g>
<!-- 2 -->
<g id="node3" class="node"><title>2</title>
<polygon fill="lightgray" stroke="black" points="305,-995 251,-995 251,-959 305,-959 305,-995"/>
<text text-anchor="middle" x="278" y="-973.3" font-family="Times,serif" font-size="14.00">2</text>
</g>
<!-- 0&#45;&gt;2 -->
<g id="edge2" class="edge"><title>0&#45;&gt;2</title>
<path fill="none" stroke="black" d="M250.899,-1030.7C254.997,-1022.73 259.949,-1013.1 264.493,-1004.26"/>
<polygon fill="black" stroke="black" points="267.742,-1005.6 269.203,-995.104 261.517,-1002.4 267.742,-1005.6"/>
</g>
<!-- 3 -->
<g id="node4" class="node"><title>3</title>
<polygon fill="none" stroke="black" points="233,-923 179,-923 179,-887 233,-887 233,-923"/>
<text text-anchor="middle" x="206" y="-901.3" font-family="Times,serif" font-size="14.00">3</text>
</g>
<!-- 1&#45;&gt;3 -->
<g id="edge3" class="edge"><title>1&#45;&gt;3</title>
<path fill="none" stroke="black" d="M206,-958.697C206,-950.983 206,-941.712 206,-933.112"/>
<polygon fill="black" stroke="black" points="209.5,-933.104 206,-923.104 202.5,-933.104 209.5,-933.104"/>
</g>
<!-- 4 -->
<g id="node5" class="node"><title>4</title>
<polygon fill="none" stroke="black" points="206,-851 152,-851 152,-815 206,-815 206,-851"/>
<text text-anchor="middle" x="179" y="-829.3" font-family="Times,serif" font-size="14.00">4</text>
</g>
<!-- 3&#45;&gt;4 -->
<g id="edge4" class="edge"><title>3&#45;&gt;4</title>
<path fill="none" stroke="black" d="M199.326,-886.697C196.285,-878.813 192.617,-869.304 189.239,-860.546"/>
<polygon fill="black" stroke="black" points="192.462,-859.175 185.597,-851.104 185.931,-861.694 192.462,-859.175"/>
</g>
<!-- 7 -->
<g id="node6" class="node"><title>7</title>
<polygon fill="lightgray" stroke="black" points="261,-707 207,-707 207,-671 261,-671 261,-707"/>
<text text-anchor="middle" x="234" y="-685.3" font-family="Times,serif" font-size="14.00">7</text>
</g>
<!-- 3&#45;&gt;7 -->
<g id="edge5" class="edge"><title>3&#45;&gt;7</title>
<path fill="none" stroke="black" d="M209.139,-886.849C210.979,-876.489 213.273,-863.009 215,-851 221.731,-804.195 227.811,-749.481 231.195,-717.398"/>
<polygon fill="black" stroke="black" points="234.678,-717.739 232.236,-707.43 227.716,-717.012 234.678,-717.739"/>
</g>
<!-- 5 -->
<g id="node7" class="node"><title>5</title>
<polygon fill="none" stroke="black" points="206,-779 152,-779 152,-743 206,-743 206,-779"/>
<text text-anchor="middle" x="179" y="-757.3" font-family="Times,serif" font-size="14.00">5</text>
</g>
<!-- 4&#45;&gt;5 -->
<g id="edge6" class="edge"><title>4&#45;&gt;5</title>
<path fill="none" stroke="black" d="M179,-814.697C179,-806.983 179,-797.712 179,-789.112"/>
<polygon fill="black" stroke="black" points="182.5,-789.104 179,-779.104 175.5,-789.104 182.5,-789.104"/>
</g>
<!-- 5&#45;&gt;7 -->
<g id="edge8" class="edge"><title>5&#45;&gt;7</title>
<path fill="none" stroke="black" d="M192.596,-742.697C199.123,-734.389 207.068,-724.277 214.247,-715.141"/>
<polygon fill="black" stroke="black" points="217.135,-717.13 220.561,-707.104 211.631,-712.805 217.135,-717.13"/>
</g>
<!-- 6 -->
<g id="node8" class="node"><title>6</title>
<polygon fill="none" stroke="black" points="189,-707 135,-707 135,-671 189,-671 189,-707"/>
<text text-anchor="middle" x="162" y="-685.3" font-family="Times,serif" font-size="14.00">6</text>
</g>
<!-- 5&#45;&gt;6 -->
<g id="edge7" class="edge"><title>5&#45;&gt;6</title>
<path fill="none" stroke="black" d="M174.798,-742.697C172.904,-734.898 170.623,-725.509 168.516,-716.829"/>
<polygon fill="black" stroke="black" points="171.915,-715.996 166.154,-707.104 165.113,-717.648 171.915,-715.996"/>
</g>
<!-- 8 -->
<g id="node9" class="node"><title>8</title>
<polygon fill="none" stroke="black" points="189,-635 135,-635 135,-599 189,-599 189,-635"/>
<text text-anchor="middle" x="162" y="-613.3" font-family="Times,serif" font-size="14.00">8</text>
</g>
<!-- 6&#45;&gt;8 -->
<g id="edge9" class="edge"><title>6&#45;&gt;8</title>
<path fill="none" stroke="black" d="M162,-670.697C162,-662.983 162,-653.712 162,-645.112"/>
<polygon fill="black" stroke="black" points="165.5,-645.104 162,-635.104 158.5,-645.104 165.5,-645.104"/>
</g>
<!-- 9 -->
<g id="node10" class="node"><title>9</title>
<polygon fill="none" stroke="black" points="189,-563 135,-563 135,-527 189,-527 189,-563"/>
<text text-anchor="middle" x="162" y="-541.3" font-family="Times,serif" font-size="14.00">9</text>
</g>
<!-- 8&#45;&gt;9 -->
<g id="edge10" class="edge"><title>8&#45;&gt;9</title>
<path fill="none" stroke="black" d="M162,-598.697C162,-590.983 162,-581.712 162,-573.112"/>
<polygon fill="black" stroke="black" points="165.5,-573.104 162,-563.104 158.5,-573.104 165.5,-573.104"/>
</g>
<!-- 10 -->
<g id="node11" class="node"><title>10</title>
<polygon fill="none" stroke="black" points="98,-491 44,-491 44,-455 98,-455 98,-491"/>
<text text-anchor="middle" x="71" y="-469.3" font-family="Times,serif" font-size="14.00">10</text>
</g>
<!-- 9&#45;&gt;10 -->
<g id="edge11" class="edge"><title>9&#45;&gt;10</title>
<path fill="none" stroke="black" d="M139.506,-526.697C128.045,-517.881 113.942,-507.032 101.516,-497.474"/>
<polygon fill="black" stroke="black" points="103.296,-494.427 93.2356,-491.104 99.0279,-499.976 103.296,-494.427"/>
</g>
<!-- 11 -->
<g id="node12" class="node"><title>11</title>
<polygon fill="none" stroke="black" points="189,-491 135,-491 135,-455 189,-455 189,-491"/>
<text text-anchor="middle" x="162" y="-469.3" font-family="Times,serif" font-size="14.00">11</text>
</g>
<!-- 9&#45;&gt;11 -->
<g id="edge12" class="edge"><title>9&#45;&gt;11</title>
<path fill="none" stroke="black" d="M162,-526.697C162,-518.983 162,-509.712 162,-501.112"/>
<polygon fill="black" stroke="black" points="165.5,-501.104 162,-491.104 158.5,-501.104 165.5,-501.104"/>
</g>
<!-- 22 -->
<g id="node13" class="node"><title>22</title>
<polygon fill="lightgray" stroke="black" points="88,-419 34,-419 34,-383 88,-383 88,-419"/>
<text text-anchor="middle" x="61" y="-397.3" font-family="Times,serif" font-size="14.00">22</text>
</g>
<!-- 10&#45;&gt;22 -->
<g id="edge13" class="edge"><title>10&#45;&gt;22</title>
<path fill="none" stroke="black" d="M68.5281,-454.697C67.4261,-446.983 66.1018,-437.712 64.8732,-429.112"/>
<polygon fill="black" stroke="black" points="68.3226,-428.509 63.4435,-419.104 61.393,-429.499 68.3226,-428.509"/>
</g>
<!-- 12 -->
<g id="node14" class="node"><title>12</title>
<polygon fill="none" stroke="black" points="54,-347 0,-347 0,-311 54,-311 54,-347"/>
<text text-anchor="middle" x="27" y="-325.3" font-family="Times,serif" font-size="14.00">12</text>
</g>
<!-- 11&#45;&gt;12 -->
<g id="edge14" class="edge"><title>11&#45;&gt;12</title>
<path fill="none" stroke="black" d="M151.588,-454.792C139.735,-435.979 119.13,-405.515 97,-383 86.4242,-372.24 73.5625,-361.878 61.7634,-353.214"/>
<polygon fill="black" stroke="black" points="63.5743,-350.206 53.4076,-347.224 59.496,-355.895 63.5743,-350.206"/>
</g>
<!-- 13 -->
<g id="node15" class="node"><title>13</title>
<polygon fill="none" stroke="black" points="198,-419 144,-419 144,-383 198,-383 198,-419"/>
<text text-anchor="middle" x="171" y="-397.3" font-family="Times,serif" font-size="14.00">13</text>
</g>
<!-- 11&#45;&gt;13 -->
<g id="edge15" class="edge"><title>11&#45;&gt;13</title>
<path fill="none" stroke="black" d="M164.225,-454.697C165.217,-446.983 166.408,-437.712 167.514,-429.112"/>
<polygon fill="black" stroke="black" points="170.997,-429.469 168.801,-419.104 164.054,-428.576 170.997,-429.469"/>
</g>
<!-- 16 -->
<g id="node16" class="node"><title>16</title>
<polygon fill="none" stroke="black" points="98,-275 44,-275 44,-239 98,-239 98,-275"/>
<text text-anchor="middle" x="71" y="-253.3" font-family="Times,serif" font-size="14.00">16</text>
</g>
<!-- 12&#45;&gt;16 -->
<g id="edge16" class="edge"><title>12&#45;&gt;16</title>
<path fill="none" stroke="black" d="M37.8764,-310.697C42.9916,-302.559 49.1955,-292.689 54.8449,-283.701"/>
<polygon fill="black" stroke="black" points="57.8902,-285.433 60.2487,-275.104 51.9637,-281.708 57.8902,-285.433"/>
</g>
<!-- 14 -->
<g id="node17" class="node"><title>14</title>
<polygon fill="none" stroke="black" points="126,-347 72,-347 72,-311 126,-311 126,-347"/>
<text text-anchor="middle" x="99" y="-325.3" font-family="Times,serif" font-size="14.00">14</text>
</g>
<!-- 13&#45;&gt;14 -->
<g id="edge17" class="edge"><title>13&#45;&gt;14</title>
<path fill="none" stroke="black" d="M153.202,-382.697C144.396,-374.135 133.618,-363.656 123.999,-354.304"/>
<polygon fill="black" stroke="black" points="126.203,-351.566 116.593,-347.104 121.323,-356.585 126.203,-351.566"/>
</g>
<!-- 15 -->
<g id="node18" class="node"><title>15</title>
<polygon fill="lightgray" stroke="black" points="198,-347 144,-347 144,-311 198,-311 198,-347"/>
<text text-anchor="middle" x="171" y="-325.3" font-family="Times,serif" font-size="14.00">15</text>
</g>
<!-- 13&#45;&gt;15 -->
<g id="edge18" class="edge"><title>13&#45;&gt;15</title>
<path fill="none" stroke="black" d="M171,-382.697C171,-374.983 171,-365.712 171,-357.112"/>
<polygon fill="black" stroke="black" points="174.5,-357.104 171,-347.104 167.5,-357.104 174.5,-357.104"/>
</g>
<!-- 17 -->
<g id="node19" class="node"><title>17</title>
<polygon fill="none" stroke="black" points="71,-203 17,-203 17,-167 71,-167 71,-203"/>
<text text-anchor="middle" x="44" y="-181.3" font-family="Times,serif" font-size="14.00">17</text>
</g>
<!-- 16&#45;&gt;17 -->
<g id="edge20" class="edge"><title>16&#45;&gt;17</title>
<path fill="none" stroke="black" d="M64.3258,-238.697C61.2851,-230.813 57.6173,-221.304 54.2393,-212.546"/>
<polygon fill="black" stroke="black" points="57.4617,-211.175 50.5974,-203.104 50.9307,-213.694 57.4617,-211.175"/>
</g>
<!-- 18 -->
<g id="node20" class="node"><title>18</title>
<polygon fill="none" stroke="black" points="143,-203 89,-203 89,-167 143,-167 143,-203"/>
<text text-anchor="middle" x="116" y="-181.3" font-family="Times,serif" font-size="14.00">18</text>
</g>
<!-- 16&#45;&gt;18 -->
<g id="edge21" class="edge"><title>16&#45;&gt;18</title>
<path fill="none" stroke="black" d="M82.1236,-238.697C87.355,-230.559 93.6999,-220.689 99.4778,-211.701"/>
<polygon fill="black" stroke="black" points="102.541,-213.409 105.004,-203.104 96.6526,-209.623 102.541,-213.409"/>
</g>
<!-- 14&#45;&gt;16 -->
<g id="edge19" class="edge"><title>14&#45;&gt;16</title>
<path fill="none" stroke="black" d="M92.0786,-310.697C88.9253,-302.813 85.1217,-293.304 81.6186,-284.546"/>
<polygon fill="black" stroke="black" points="84.8054,-283.089 77.8417,-275.104 78.306,-285.689 84.8054,-283.089"/>
</g>
<!-- 21 -->
<g id="node21" class="node"><title>21</title>
<polygon fill="none" stroke="black" points="126,-59 72,-59 72,-23 126,-23 126,-59"/>
<text text-anchor="middle" x="99" y="-37.3" font-family="Times,serif" font-size="14.00">21</text>
</g>
<!-- 17&#45;&gt;21 -->
<g id="edge22" class="edge"><title>17&#45;&gt;21</title>
<path fill="none" stroke="black" d="M45.6972,-166.674C47.9505,-148.29 52.8884,-118.685 63,-95 67.0842,-85.4333 72.9884,-75.7836 78.8379,-67.3881"/>
<polygon fill="black" stroke="black" points="81.7797,-69.2938 84.8353,-59.1492 76.1203,-65.1741 81.7797,-69.2938"/>
</g>
<!-- 19 -->
<g id="node22" class="node"><title>19</title>
<polygon fill="none" stroke="black" points="126,-131 72,-131 72,-95 126,-95 126,-131"/>
<text text-anchor="middle" x="99" y="-109.3" font-family="Times,serif" font-size="14.00">19</text>
</g>
<!-- 18&#45;&gt;19 -->
<g id="edge23" class="edge"><title>18&#45;&gt;19</title>
<path fill="none" stroke="black" d="M111.798,-166.697C109.904,-158.898 107.623,-149.509 105.516,-140.829"/>
<polygon fill="black" stroke="black" points="108.915,-139.996 103.154,-131.104 102.113,-141.648 108.915,-139.996"/>
</g>
<!-- 20 -->
<g id="node23" class="node"><title>20</title>
<polygon fill="lightgray" stroke="black" points="198,-131 144,-131 144,-95 198,-95 198,-131"/>
<text text-anchor="middle" x="171" y="-109.3" font-family="Times,serif" font-size="14.00">20</text>
</g>
<!-- 18&#45;&gt;20 -->
<g id="edge24" class="edge"><title>18&#45;&gt;20</title>
<path fill="none" stroke="black" d="M129.596,-166.697C136.123,-158.389 144.068,-148.277 151.247,-139.141"/>
<polygon fill="black" stroke="black" points="154.135,-141.13 157.561,-131.104 148.631,-136.805 154.135,-141.13"/>
</g>
<!-- 21&#45;&gt;9 -->
<g id="edge26" class="edge"><title>21&#45;&gt;9</title>
<path fill="none" stroke="black" d="M126.39,-48.1831C151.239,-55.2483 186.96,-69.3094 207,-95 231.877,-126.892 226,-143.553 226,-184 226,-402 226,-402 226,-402 226,-445.921 200.237,-491.27 181.403,-518.556"/>
<polygon fill="black" stroke="black" points="178.515,-516.577 175.573,-526.755 184.22,-520.633 178.515,-516.577"/>
</g>
<!-- 19&#45;&gt;21 -->
<g id="edge25" class="edge"><title>19&#45;&gt;21</title>
<path fill="none" stroke="black" d="M99,-94.6966C99,-86.9827 99,-77.7125 99,-69.1124"/>
<polygon fill="black" stroke="black" points="102.5,-69.1043 99,-59.1043 95.5001,-69.1044 102.5,-69.1043"/>
</g>
</g>
</svg>
